<?xml version="1.0" standalone="no"?>
<!DOCTYPE svg PUBLIC "-//W3C//DTD SVG 1.1//EN" "http://www.w3.org/Graphics/SVG/1.1/DTD/svg11.dtd" >
<svg xmlns="http://www.w3.org/2000/svg" xmlns:xlink="http://www.w3.org/1999/xlink" version="1.1">
<metadata></metadata>
<defs>
<font id="univia_problack" horiz-adv-x="1386" >
<font-face units-per-em="2048" ascent="1638" descent="-410" />
<missing-glyph horiz-adv-x="397" />
<glyph unicode="ff" horiz-adv-x="1691" d="M35 915v211q0 31 35 31h127v143q0 198 114 259q55 31 117 43t158 12q110 0 241 -23q35 -6 35 -43v-209q0 -32 -35 -32h-186q-48 0 -67 -14t-19 -52v-84h498v143q0 198 114 259q55 31 117 43t158 12q106 0 241 -23q35 -6 35 -43v-209q0 -32 -37 -32h-184q-50 0 -69 -14 t-19 -52v-84h244q30 0 24 -35l-39 -207q-6 -32 -36 -32h-193v-850q0 -33 -31 -33h-295q-30 0 -30 33v850h-498v-850q0 -33 -31 -33h-297q-30 0 -30 33v850h-127q-35 0 -35 32z" />
<glyph unicode="fi" horiz-adv-x="1454" d="M35 915v211q0 31 35 31h127v143q0 198 114 259q55 31 117 43t158 12q55 0 186 -23q35 -6 35 -43v-209q0 -32 -35 -32h-131q-48 0 -67 -14t-19 -52v-84h758q30 0 30 -33v-1091q0 -33 -30 -33h-297q-31 0 -31 33v850h-430v-850q0 -33 -31 -33h-297q-30 0 -30 33v850h-127 q-35 0 -35 32zM958 1477q0 88 54.5 137t152.5 49t152.5 -49t54.5 -137q0 -90 -54 -139.5t-153 -49.5t-153 49.5t-54 139.5z" />
<glyph unicode="fl" horiz-adv-x="1431" d="M35 915v211q0 31 35 31h127v143q0 197 112 254q117 60 402 60q246 0 579 -31q31 -3 31 -31v-1519q0 -33 -31 -33h-297q-30 0 -30 33v1272l-314 2q-51 0 -72.5 -14.5t-21.5 -51.5v-84h219q33 0 27 -35l-39 -207q-6 -32 -37 -32h-170v-850q0 -33 -31 -33h-297q-30 0 -30 33 v850h-127q-35 0 -35 32z" />
<glyph unicode="ffi" horiz-adv-x="2310" d="M35 915v211q0 31 35 31h127v143q0 198 114 259q55 31 117 43t158 12q78 0 213 -23q35 -6 35 -43v-209q0 -32 -37 -32h-156q-48 0 -67 -14t-19 -52v-84h498v143q0 198 114 259q55 31 117 43t158 12q70 0 205 -23q34 -6 34 -43v-209q0 -32 -34 -32h-150q-50 0 -69 -14 t-19 -52v-84h760q31 0 31 -33v-1091q0 -33 -31 -33h-297q-31 0 -31 33v850h-432v-850q0 -33 -31 -33h-295q-30 0 -30 33v850h-498v-850q0 -33 -31 -33h-297q-30 0 -30 33v850h-127q-35 0 -35 32zM1815 1477q0 88 54 137t152 49t152.5 -49t54.5 -137q0 -90 -54 -139.5 t-153 -49.5q-98 0 -152 49t-54 140z" />
<glyph unicode="ffl" horiz-adv-x="2287" d="M35 915v211q0 31 35 31h127v143q0 198 114 259q55 31 117 43t158 12q98 0 229 -23q35 -6 35 -43v-209q0 -32 -35 -32h-174q-48 0 -67 -14t-19 -52v-84h498v143q0 197 112 254q117 60 402 60q246 0 579 -31q31 -3 31 -31v-1519q0 -33 -31 -33h-297q-30 0 -30 33v1272 l-314 2q-51 0 -73.5 -15t-22.5 -51v-84h203q30 0 24 -35l-39 -207q-6 -32 -36 -32h-152v-850q0 -33 -31 -33h-295q-30 0 -30 33v850h-498v-850q0 -33 -31 -33h-297q-30 0 -30 33v850h-127q-35 0 -35 32z" />
<glyph unicode="fb" horiz-adv-x="2109" d="M35 915v211q0 31 35 31h127v143q0 197 112 254q117 60 402 60q246 0 579 -31q31 -3 31 -31v-393q123 12 242 12q273 0 370 -124q101 -125 101 -467q0 -351 -111 -471q-110 -119 -448 -119q-205 0 -463 43q-49 6 -49 59v1213l-314 2q-51 0 -72.5 -14.5t-21.5 -51.5v-84 h221q31 0 25 -35l-39 -207q-6 -32 -37 -32h-170v-850q0 -33 -31 -33h-297q-30 0 -30 33v850h-127q-35 0 -35 32zM1321 311q66 -14 162 -14q130 0 159 57q33 56 33 226q0 179 -37 231q-36 51 -172 51h-145v-551z" />
<glyph unicode="ffb" horiz-adv-x="2965" d="M35 915v211q0 31 35 31h127v143q0 198 114 259q55 31 117 43t158 12q103 0 241 -23q35 -6 35 -43v-209q0 -32 -37 -32h-184q-48 0 -67 -14t-19 -52v-84h500v143q0 197 112 254q117 60 400 60q246 0 579 -31q31 -3 31 -31v-393q123 12 244 12q273 0 370 -124 q99 -126 99 -467q0 -187 -23.5 -293t-87.5 -176q-61 -67 -164.5 -94t-281.5 -27q-207 0 -465 43q-47 6 -47 59v1213l-316 2q-51 0 -72.5 -14.5t-21.5 -51.5v-84h221q19 0 24 -7.5t1 -27.5l-39 -207q-6 -32 -35 -32h-172v-850q0 -33 -31 -33h-295q-30 0 -30 33v850h-500v-850 q0 -33 -31 -33h-297q-30 0 -30 33v850h-127q-35 0 -35 32zM2177 311q69 -14 164 -14q131 0 160 57q32 54 32 226q0 179 -36 229q-38 53 -173 53h-147v-551z" />
<glyph unicode="ffj" horiz-adv-x="2306" d="M35 915v211q0 31 35 31h127v143q0 198 114 259q55 31 117 43t158 12q63 0 211 -23q32 -6 32 -43v-209q0 -32 -34 -32h-154q-48 0 -67 -14t-19 -52v-84h498v143q0 198 114 259q55 31 117 43t158 12q58 0 203 -23q34 -6 34 -43v-209q0 -32 -34 -32h-148q-50 0 -69 -14 t-19 -52v-84h756q30 0 30 -33v-1253q0 -183 -75 -240q-77 -59 -246 -59q-128 0 -195 20q-20 6 -27 14.5t-7 28.5v213q0 31 34 31h54q68 0 87 17.5t19 78.5v908h-430v-850q0 -33 -31 -33h-295q-30 0 -30 33v850h-498v-850q0 -33 -31 -33h-297q-30 0 -30 33v850h-127 q-35 0 -35 32zM1810 1477q0 88 55.5 137t153.5 49q97 0 151 -49t54 -137t-54.5 -138.5t-150.5 -50.5q-98 0 -153.5 50.5t-55.5 138.5z" />
<glyph unicode="ffk" horiz-adv-x="2904" d="M35 915v211q0 31 35 31h127v143q0 198 114 259q55 31 117 43t158 12q103 0 241 -23q35 -6 35 -43v-209q0 -32 -37 -32h-184q-48 0 -67 -14t-19 -52v-84h496v143q0 195 112 252q115 62 402 62q246 0 579 -31q31 -3 31 -31v-784l272 373q14 20 43 20h328q51 0 18 -39 l-311 -420l387 -647q30 -55 -35 -55h-315q-29 0 -45 23l-342 600v-590q0 -33 -31 -33h-295q-30 0 -30 33v1272l-316 2q-51 0 -72.5 -14.5t-21.5 -51.5v-84h221q31 0 25 -35l-39 -207q-6 -32 -37 -32h-170v-850q0 -33 -31 -33h-297q-30 0 -30 33v850h-496v-850q0 -33 -31 -33 h-297q-30 0 -30 33v850h-127q-35 0 -35 32z" />
<glyph unicode="fj" horiz-adv-x="1452" d="M35 915v211q0 31 35 31h127v143q0 198 114 259q55 31 117 43t158 12q60 0 205 -23q34 -6 34 -43v-209q0 -32 -34 -32h-150q-48 0 -67 -14t-19 -52v-84h756q30 0 30 -33v-1253q0 -183 -75 -240q-77 -59 -246 -59q-130 0 -197 20q-21 6 -28 14.5t-7 28.5v213q0 31 35 31h54 q68 0 87 17.5t19 78.5v908h-428v-850q0 -33 -31 -33h-297q-30 0 -30 33v850h-127q-35 0 -35 32zM956 1477q0 88 54.5 137t152.5 49t152.5 -49t54.5 -137q0 -90 -54 -139.5t-153 -49.5t-153 49.5t-54 139.5z" />
<glyph unicode="fk" horiz-adv-x="2050" d="M35 915v211q0 31 35 31h127v143q0 197 112 254q117 60 402 60q246 0 579 -31q31 -3 31 -31v-784l272 373q14 20 43 20h328q44 0 18 -39l-311 -420l387 -647q30 -55 -35 -55h-315q-32 0 -45 23l-342 600v-590q0 -33 -31 -33h-297q-30 0 -30 33v1272l-314 2 q-51 0 -72.5 -14.5t-21.5 -51.5v-84h219q33 0 27 -35l-39 -207q-6 -32 -37 -32h-170v-850q0 -33 -31 -33h-297q-30 0 -30 33v850h-127q-35 0 -35 32z" />
<glyph unicode=" "  horiz-adv-x="397" />
<glyph unicode="&#x09;" horiz-adv-x="397" />
<glyph unicode="&#xa0;" horiz-adv-x="397" />
<glyph unicode="!" horiz-adv-x="624" d="M104 178q0 88 54.5 137.5t152.5 49.5t152.5 -49.5t54.5 -137.5q0 -90 -54 -139t-153 -49t-153 49t-54 139zM115 895v676q0 33 30 33h332q31 0 31 -33v-676q0 -1 -0.5 -5t-1.5 -13t-2 -19l-76 -336q-9 -35 -31 -35h-170q-24 0 -30 35l-78 336q-1 10 -2 19t-1.5 13t-0.5 5z " />
<glyph unicode="&#x22;" horiz-adv-x="1138" d="M78 1307v264q0 33 31 33h331q31 0 31 -33v-264q0 -2 -0.5 -6.5l-1.5 -13.5t-2 -19l-78 -336q-6 -33 -31 -33h-170q-21 0 -30 33l-76 336q-1 10 -2 19l-1.5 13.5t-0.5 6.5zM668 1307v264q0 33 30 33h332q31 0 31 -33v-264q0 -2 -0.5 -6.5l-1.5 -13.5t-2 -19l-76 -336 q-9 -33 -31 -33h-170q-24 0 -30 33l-78 336q-1 10 -2 19l-1.5 13.5t-0.5 6.5z" />
<glyph unicode="#" horiz-adv-x="1501" d="M88 377v262q0 31 33 31h149v258h-149q-33 0 -33 30v263q0 30 33 30h149v320q0 33 31 33h295q31 0 31 -33v-320h227v320q0 33 31 33h295q30 0 30 -33v-320h174q33 0 33 -30v-263q0 -30 -33 -30h-174v-258h174q33 0 33 -31v-262q0 -31 -33 -31h-174v-313q0 -33 -30 -33 h-295q-31 0 -31 33v313h-227v-313q0 -33 -31 -33h-295q-31 0 -31 33v313h-149q-33 0 -33 31zM627 670h227v258h-227v-258z" />
<glyph unicode="$" horiz-adv-x="1292" d="M74 156v200q0 37 41 37h620q66 0 92.5 17.5t26.5 58.5v18q0 41 -30 64.5t-113 54.5l-355 115q-142 45 -205 137.5t-63 269.5v41q0 178 115 266.5t358 102.5v133q0 33 31 33h127q31 0 31 -33v-129q148 -3 374 -45q37 -9 37 -35v-215q0 -35 -39 -35h-530q-67 0 -94 -19.5 t-27 -66.5v-12q0 -73 104 -110l355 -119q163 -55 235 -140q72 -84 72 -258v-47q0 -174 -121 -262.5t-366 -107.5v-136q0 -32 -31 -32h-127q-31 0 -31 32v132q-200 6 -450 47q-37 6 -37 43z" />
<glyph unicode="%" horiz-adv-x="1941" d="M51 1190q0 254 80 340t315 86q236 0 316 -86t80 -340q0 -252 -80 -338q-81 -84 -316 -84q-234 0 -315 84q-80 86 -80 338zM317 1190q0 -115 27 -155t102 -40t102 40t27 155q0 116 -26.5 156t-102.5 40t-102.5 -40t-26.5 -156zM467 31l811 1544q16 31 49 31h121 q28 0 12 -31l-809 -1544q-15 -31 -47 -31h-123q-29 0 -14 31zM1098 412q0 254 80 340t315 86t315 -86q82 -85 82 -340q0 -252 -80 -338q-81 -84 -317 -84q-234 0 -315 84q-80 86 -80 338zM1364 412q0 -115 27 -155t102 -40t102 40t27 155q0 116 -26.5 156t-102.5 40 t-102.5 -40t-26.5 -156z" />
<glyph unicode="&#x26;" horiz-adv-x="1400" d="M98 389v117q0 254 217 297q-217 40 -217 299v117q0 239 162 323q78 40 170.5 57t224.5 17q194 0 355 -37q30 -8 41.5 -20.5t11.5 -38.5v-205q0 -29 -31 -29h-330q-132 0 -178.5 -29t-46.5 -118v-27q0 -93 45 -127.5t168 -34.5h584q37 0 37 -30v-177q0 -23 -37 -32 l-137 -33v-295q0 -62 24 -82t92 -20h60q37 0 37 -31v-197q0 -35 -35 -41q-80 -22 -168 -22q-68 0 -88 2q-37 2 -83.5 18.5t-70.5 44.5q-121 -65 -311 -65q-496 0 -496 399zM477 469q0 -85 44 -117.5t151 -32.5q78 0 155 27v320h-163q-106 0 -146.5 -35t-40.5 -127v-35z" />
<glyph unicode="'" horiz-adv-x="548" d="M78 1307v264q0 33 31 33h331q31 0 31 -33v-264q0 -2 -0.5 -6.5l-1.5 -13.5t-2 -19l-78 -336q-6 -33 -31 -33h-170q-21 0 -30 33l-76 336q-1 10 -2 19l-1.5 13.5t-0.5 6.5z" />
<glyph unicode="(" horiz-adv-x="751" d="M78 690q0 235 18 361q22 131 90 270t228 362q13 19 35 19h274q18 0 18 -19v-22q0 -11 -6 -23q-165 -241 -223 -368q-68 -145 -82 -248q-14 -101 -14 -334q0 -173 6 -256q6 -88 39 -196q35 -117 94 -220q60 -103 180 -278q6 -12 6 -23v-22q0 -19 -18 -19h-274 q-19 0 -35 19q-164 218 -232 360q-70 148 -88 273q-16 134 -16 364z" />
<glyph unicode=")" horiz-adv-x="751" d="M10 -285q0 11 6 23q127 185 181 278q59 103 94 220q33 108 39 196q6 83 6 256q0 212 -17 334q-16 112 -79 248q-56 123 -224 368q-6 12 -6 23v22q0 19 19 19h274q22 0 35 -19q157 -219 227 -362t88 -270q21 -126 21 -361q0 -231 -19 -364q-18 -129 -90.5 -278.5 t-226.5 -354.5q-16 -19 -35 -19h-274q-19 0 -19 19v22z" />
<glyph unicode="*" horiz-adv-x="894" d="M53 1305l49 147q9 31 41 18l207 -84l-14 226q-3 33 31 33h159q31 0 31 -33l-18 -221l213 82q29 10 39 -19l43 -151q9 -29 -21 -39l-211 -58l143 -180q22 -22 -6 -43l-123 -84q-28 -18 -43 6l-122 185l-136 -191q-18 -28 -43 -6l-118 94q-25 19 -4 43l141 172l-217 64 q-30 6 -21 39z" />
<glyph unicode="+" horiz-adv-x="1167" d="M57 510v254q0 31 31 31h330v315q0 31 31 31h272q31 0 31 -31v-315h327q31 0 31 -31v-254q0 -31 -31 -31h-327v-315q0 -31 -31 -31h-272q-31 0 -31 31v315h-330q-31 0 -31 31z" />
<glyph unicode="," horiz-adv-x="614" d="M-31 -297l158 545q6 18 23 18h370q21 0 21 -20v-56q0 -12 -11 -30l-411 -541q-17 -17 -31 -8l-113 63q-12 9 -6 29z" />
<glyph unicode="-" horiz-adv-x="950" d="M106 496v268q0 31 33 31h672q33 0 33 -31v-268q0 -31 -33 -31h-672q-33 0 -33 31z" />
<glyph unicode="." horiz-adv-x="546" d="M66 178q0 88 54.5 137.5t153.5 49.5q97 0 151 -49.5t54 -137.5t-54.5 -138t-150.5 -50q-100 0 -154 48.5t-54 139.5z" />
<glyph unicode="/" horiz-adv-x="1052" d="M43 -61l760 1714q15 35 45 35h141q32 0 17 -35l-756 -1714q-15 -35 -47 -35h-144q-34 0 -16 35z" />
<glyph unicode="0" horiz-adv-x="1429" d="M88 799q0 253 27.5 400t97.5 243q71 96 187 135t315 39q197 0 314.5 -39t187.5 -135t97 -242.5t27 -400.5q0 -252 -27 -397.5t-97 -241.5q-70 -94 -187 -132t-315 -38q-200 0 -316 37.5t-188 132.5q-70 95 -96.5 240.5t-26.5 398.5zM467 799q0 -283 49 -381 q50 -99 199 -99q147 0 196 99q52 101 52 381q0 284 -52 385q-50 102 -196 102q-147 0 -199 -102q-49 -101 -49 -385z" />
<glyph unicode="1" horiz-adv-x="1040" d="M68 1337v211q0 37 34 43q119 25 234 25q96 0 159.5 -12t118.5 -43q117 -60 117 -258v-973h252q33 0 33 -31v-268q0 -31 -33 -31h-868q-31 0 -31 31l-2 268q0 31 33 31h258v874q0 62 -26.5 82.5t-100.5 20.5h-144q-34 0 -34 30z" />
<glyph unicode="2" horiz-adv-x="1300" d="M57 57v185q0 117 54 190q48 64 206 182l412 297q48 36 65 75t17 110v41q0 87 -54.5 118t-207.5 31h-404q-28 0 -28 27v205q0 26 11 38.5t38 20.5q175 39 430 39q212 0 344 -41q250 -78 250 -342v-207q0 -130 -37 -211q-36 -78 -182 -182l-316 -213q-49 -27 -49 -68v-20 h600q17 0 17 -13v-307q0 -12 -15 -12h-1095q-56 0 -56 57z" />
<glyph unicode="3" horiz-adv-x="1292" d="M82 84v207q0 28 31 28h422q171 0 227 29q53 30 53 125v21q0 94 -49 127.5t-195 33.5h-352q-31 0 -31 31v234q0 30 31 30h352q151 0 195 33q49 34 49 129v27q0 91 -55 118q-60 29 -230 29h-417q-31 0 -31 29v205q0 26 11.5 38.5t41.5 20.5q161 37 443 37q234 0 370 -45 q246 -74 246 -352v-117q0 -258 -215 -299q215 -44 215 -297v-117q0 -189 -111 -285q-81 -63 -205 -89.5t-300 -24.5q-282 0 -443 37q-30 8 -41.5 19.5t-11.5 37.5z" />
<glyph unicode="4" horiz-adv-x="1421" d="M43 416v194q0 23 14 72l254 901q6 21 37 21h316q31 0 22 -37l-235 -852h311v323q0 30 31 39l315 103q33 9 33 -29v-436h215q33 0 33 -31v-270q0 -31 -33 -31h-215v-350q0 -33 -31 -33h-317q-31 0 -31 33v350h-688q-31 0 -31 33z" />
<glyph unicode="5" horiz-adv-x="1306" d="M98 84v207q0 28 31 28h438q172 0 224 37q55 37 55 136v14q0 100 -53 135q-52 37 -226 37h-405q-64 0 -64 51v227l54 617q3 31 32 31h975q33 0 33 -31v-268q0 -31 -33 -31h-692l-25 -279q102 15 217 15q131 0 225.5 -18t174.5 -60q166 -87 166 -330v-207q0 -243 -176 -329 q-84 -42 -187 -59t-254 -17q-284 0 -456 35q-30 8 -42 20.5t-12 38.5z" />
<glyph unicode="6" horiz-adv-x="1312" d="M66 397v205q0 110 36 186l402 793q12 21 37 21h331q39 0 21 -37l-293 -586q75 10 141 10q525 0 525 -387v-205q0 -241 -170 -327q-159 -80 -422 -80q-271 0 -432 80q-176 87 -176 327zM444 494q0 -101 43 -138t187 -37q137 0 174 37q39 36 39 138v10q0 101 -39 137 q-40 37 -174 37q-141 0 -187 -37q-43 -37 -43 -135v-12z" />
<glyph unicode="7" horiz-adv-x="1271" d="M41 1303v270q0 31 33 31h1136q31 0 31 -31v-205q0 -25 -14 -47l-690 -1301q-11 -20 -37 -20h-371q-38 0 -20 37l667 1237h-702q-33 0 -33 29z" />
<glyph unicode="8" d="M74 428q0 138 65.5 231.5t206.5 161.5q-120 59 -171.5 142.5t-51.5 212.5q0 223 136.5 330.5t420.5 107.5h35q284 0 419.5 -107t135.5 -333q0 -140 -52 -230t-169 -151q138 -58 201 -144.5t63 -224.5q0 -221 -148.5 -327.5t-451.5 -106.5h-39q-306 0 -453 107.5 t-147 330.5zM453 496q0 -86 59 -131.5t170 -45.5h23q229 0 229 142q0 115 -150 162l-172 53q-88 -34 -123.5 -76t-35.5 -104zM504 1143q0 -119 147 -168l125 -37q115 59 115 186q0 160 -182 160h-21q-184 0 -184 -141z" />
<glyph unicode="9" horiz-adv-x="1312" d="M47 999v207q0 240 170 326q83 43 182.5 61.5t239.5 18.5q271 0 432 -80q176 -87 176 -328v-205q0 -105 -37 -186l-401 -793q-11 -20 -37 -20h-332q-38 0 -20 37l293 588q-67 -13 -142 -13q-254 0 -389 96.5t-135 290.5zM426 1098q0 -101 39 -137q40 -37 174 -37 q143 0 186 37t43 137v10q0 100 -43 137t-186 37q-136 0 -176 -37q-37 -37 -37 -137v-10z" />
<glyph unicode=":" horiz-adv-x="610" d="M98 178q0 88 54.5 137.5t152.5 49.5t152.5 -49.5t54.5 -137.5q0 -90 -54 -139t-153 -49t-153 49t-54 139zM98 987q0 88 54.5 137.5t152.5 49.5t152.5 -49.5t54.5 -137.5q0 -90 -54 -139t-153 -49t-153 49t-54 139z" />
<glyph unicode=";" horiz-adv-x="661" d="M-25 -297l156 545q6 18 25 18h370q21 0 21 -20v-56q0 -13 -10 -30l-412 -541q-17 -17 -31 -8l-112 63q-13 9 -7 29zM147 987q0 88 54.5 137.5t152.5 49.5t152.5 -49.5t54.5 -137.5q0 -90 -54 -139t-153 -49t-153 49t-54 139z" />
<glyph unicode="&#x3c;" horiz-adv-x="1198" d="M47 633v201q0 25 25 34l919 404q13 8 33 8h45q27 0 27 -27v-274q0 -25 -25 -37l-510 -209l510 -209q25 -12 25 -37v-274q0 -27 -27 -27h-45q-12 0 -33 7l-919 405q-25 9 -25 35z" />
<glyph unicode="=" horiz-adv-x="1353" d="M111 229v265q0 30 30 30h1071q31 0 31 -30v-265q0 -30 -31 -30h-1071q-30 0 -30 30zM111 782v265q0 30 30 30h1071q31 0 31 -30v-265q0 -30 -31 -30h-1071q-30 0 -30 30z" />
<glyph unicode="&#x3e;" horiz-adv-x="1198" d="M102 213v274q0 25 25 37l512 209l-512 209q-25 12 -25 37v274q0 27 27 27h45q20 0 33 -8l919 -404q25 -9 25 -34v-201q0 -26 -25 -35l-919 -405q-21 -7 -33 -7h-45q-27 0 -27 27z" />
<glyph unicode="?" horiz-adv-x="1142" d="M51 1317v199q0 48 51 63q167 37 396 37q210 0 342 -41q250 -78 250 -344v-115q0 -162 -50 -239q-47 -78 -176 -136l-209 -100q-99 -46 -110 -102l-4 -25q-3 -27 -29 -27h-229q-26 0 -29 27l-14 98q-16 103 16 154q36 58 156 121l190 98q60 32 84.5 62t24.5 79v37 q0 74 -45 98.5t-172 24.5h-412q-31 0 -31 31zM188 178q0 88 54.5 137.5t152.5 49.5t152.5 -49.5t54.5 -137.5q0 -90 -54 -139t-153 -49t-153 49t-54 139z" />
<glyph unicode="@" horiz-adv-x="2082" d="M74 614q0 510 238 750t743 240q486 0 718 -205t232 -639q0 -309 -140.5 -464t-396.5 -161h-438q-174 0 -270 21q-85 23 -120.5 79t-41.5 173v47q3 167 90 225q86 57 289 57h192v35q0 102 -133 102h-340q-16 0 -20 5t-4 20v180q0 23 22 29q161 29 338 29q279 0 367 -88 q43 -43 59.5 -94t16.5 -132v-579q194 0 300.5 129.5t106.5 386.5q0 373 -203 551t-626 178q-440 0 -648 -213t-208 -662q0 -455 202 -657q201 -204 590 -213q23 0 23 -23v-69q0 -23 -23 -23q-468 1 -691.5 243t-223.5 742zM897 455q0 -46 25 -62t94 -18h153v178h-161 q-66 0 -88.5 -17t-22.5 -61v-20z" />
<glyph unicode="A" horiz-adv-x="1488" d="M6 33l367 1335q45 166 108 207q62 41 262 41q203 0 265 -41q63 -41 108 -207l365 -1335q6 -33 -27 -33h-313q-20 0 -29 33l-111 413h-514l-114 -413q-9 -33 -27 -33h-313q-33 0 -27 33zM571 756h347l-140 512q-6 21 -12.5 26.5t-24.5 5.5q-16 0 -21 -5t-11 -27z" />
<glyph unicode="B" horiz-adv-x="1452" d="M135 43v1520q0 25 31 28q314 25 596 25q319 0 448 -100q133 -103 133 -345q0 -179 -57 -261t-196 -105v-6q158 -13 223 -97.5t65 -269.5q0 -246 -131 -344t-446 -98q-333 0 -635 24q-31 3 -31 29zM514 319h252q126 0 176.5 37t50.5 133q0 100 -51.5 141.5t-173.5 41.5 h-254v-353zM514 936h188q147 0 201.5 36.5t54.5 135.5t-53 138.5t-184 39.5h-207v-350z" />
<glyph unicode="C" horiz-adv-x="1294" d="M86 805q0 475 137 643t539 168q253 0 414 -37q30 -8 41.5 -21t11.5 -42v-199q0 -31 -31 -31h-436q-180 0 -238 -98q-55 -98 -55 -383q0 -284 55 -385q58 -101 238 -101h436q31 0 31 -30v-199q0 -51 -53 -63q-148 -37 -414 -37q-209 0 -335 38.5t-204 133.5 q-76 96 -106.5 244t-30.5 399z" />
<glyph unicode="D" horiz-adv-x="1533" d="M135 39v1524q0 25 31 28q314 25 608 25q366 0 522 -193q156 -191 156 -624q0 -431 -156 -621q-156 -188 -522 -188q-306 0 -608 24q-31 3 -31 25zM514 319h260q160 0 227.5 111t67.5 369q0 260 -69 373.5t-232 113.5h-254v-967z" />
<glyph unicode="E" horiz-adv-x="1349" d="M135 33v1538q0 33 31 33h1061q33 0 33 -31v-268q0 -31 -33 -31h-713v-320h653q33 0 33 -30v-254q0 -31 -33 -31h-653v-309h713q33 0 33 -31v-268q0 -31 -33 -31h-1061q-31 0 -31 33z" />
<glyph unicode="F" horiz-adv-x="1253" d="M135 33v1538q0 33 31 33h1005q33 0 33 -31v-268q0 -31 -33 -31h-657v-322h598q33 0 33 -30v-252q0 -31 -33 -31h-598v-606q0 -33 -31 -33h-317q-31 0 -31 33z" />
<glyph unicode="G" horiz-adv-x="1425" d="M86 803q0 251 30.5 398.5t106.5 242.5q77 96 202.5 134t336.5 38q311 0 459 -37q30 -8 41.5 -21t11.5 -42v-199q0 -31 -31 -31h-481q-181 0 -238 -100q-55 -98 -55 -383q0 -284 55 -385q58 -99 238 -99h227v435q0 34 31 34h293q30 0 30 -34v-566q0 -42 -12 -57 q-38 -62 -198 -102q-153 -39 -371 -39q-402 0 -539 168t-137 645z" />
<glyph unicode="H" horiz-adv-x="1628" d="M135 35v1536q0 33 31 33h317q31 0 31 -33v-606h600v606q0 33 31 33h317q31 0 31 -33v-1536q0 -35 -31 -35h-317q-31 0 -31 35v596h-600v-596q0 -35 -31 -35h-317q-31 0 -31 35z" />
<glyph unicode="I" horiz-adv-x="649" d="M135 35v1536q0 33 31 33h317q31 0 31 -33v-1536q0 -35 -31 -35h-317q-31 0 -31 35z" />
<glyph unicode="J" horiz-adv-x="1222" d="M29 84v205q0 30 30 30h361q184 0 244 91q59 92 59 362v502h-377q-33 0 -33 31v268q0 31 33 31h725q31 0 31 -31v-801q0 -454 -141 -618t-541 -164q-190 0 -338 37q-53 12 -53 57z" />
<glyph unicode="K" horiz-adv-x="1449" d="M135 33v1538q0 33 31 33h317q31 0 31 -33v-653l471 665q15 21 43 21h350q42 0 19 -39l-496 -697l555 -813q14 -19 14 -32q0 -23 -49 -23h-350q-32 0 -45 23l-512 759v-749q0 -33 -31 -33h-317q-31 0 -31 33z" />
<glyph unicode="L" horiz-adv-x="1214" d="M135 33v1538q0 33 31 33h317q31 0 31 -33v-1241h637q31 0 31 -31v-268q0 -31 -31 -31h-985q-31 0 -31 33z" />
<glyph unicode="M" horiz-adv-x="2052" d="M74 35l155 1536q3 33 27 33h291q57 0 84.5 -17.5t46.5 -64.5l348 -916l348 918q20 49 47.5 65.5t83.5 16.5h293q22 0 25 -35l155 -1536q3 -35 -30 -35h-318q-28 0 -31 35l-88 893l-329 -846q-14 -33 -45 -33h-219q-35 0 -46 33l-329 846l-90 -893q-3 -35 -31 -35h-318 q-33 0 -30 35z" />
<glyph unicode="N" horiz-adv-x="1626" d="M135 35v1536q0 33 31 33h233q57 0 78.5 -13t54.5 -59l580 -827v866q0 33 31 33h317q31 0 31 -33v-1536q0 -35 -31 -35h-223q-75 0 -119 59l-604 867v-891q0 -35 -31 -35h-317q-31 0 -31 35z" />
<glyph unicode="O" horiz-adv-x="1538" d="M86 801q0 248 31.5 397t109.5 244q80 96 206 135t335 39q400 0 541 -172q143 -168 143 -643q0 -249 -31.5 -397t-111.5 -242q-78 -94 -204.5 -133t-336.5 -39q-397 0 -541 170q-141 170 -141 641zM469 801q0 -278 59 -381q58 -101 240 -101t240 101q59 103 59 381 q0 280 -59 383q-58 102 -240 102t-240 -102q-59 -103 -59 -383z" />
<glyph unicode="P" horiz-adv-x="1411" d="M135 33v1530q0 25 31 28q314 25 600 25q332 0 463 -119q131 -116 131 -420q0 -297 -127 -403q-127 -103 -467 -103h-252v-538q0 -20 -6 -26.5t-25 -6.5h-317q-19 0 -25 6.5t-6 26.5zM514 854h211q146 0 199 41q51 42 51 170t-52 174.5t-198 46.5h-211v-432z" />
<glyph unicode="Q" horiz-adv-x="1538" d="M86 801q0 248 31.5 397t109.5 244q80 96 206 135t335 39q400 0 541 -172q143 -168 143 -643q0 -415 -106 -590q-106 -176 -385 -211l73 -254q9 -33 -30 -33h-281q-26 0 -35 33l-74 250q-300 27 -415 203q-113 177 -113 602zM469 801q0 -278 59 -381q58 -101 240 -101 t240 101q59 103 59 381q0 280 -59 383q-58 102 -240 102t-240 -102q-59 -103 -59 -383z" />
<glyph unicode="R" horiz-adv-x="1452" d="M135 33v1530q0 25 31 28q314 25 600 25q332 0 463 -119q131 -116 131 -420q0 -227 -68.5 -335.5t-234.5 -145.5l348 -555q12 -17 5 -29t-30 -12h-319q-31 0 -47.5 9.5t-34.5 35.5l-334 526h-131v-538q0 -20 -6 -26.5t-25 -6.5h-317q-19 0 -25 6.5t-6 26.5zM514 854h211 q146 0 199 41q51 42 51 170t-52 174.5t-198 46.5h-211v-432z" />
<glyph unicode="S" horiz-adv-x="1298" d="M76 92v184q0 43 43 43h592q145 0 145 101v20q0 54 -31 84t-112 60l-355 129q-141 51 -204.5 152t-63.5 296v45q0 218 141.5 314t450.5 96q217 0 440 -47q41 -15 41 -43v-199q0 -41 -41 -41h-497q-152 0 -152 -108v-25q0 -89 105 -129l354 -131q164 -62 235 -154 q72 -90 72 -284v-54q0 -213 -153.5 -312t-460.5 -99q-239 0 -510 51q-39 9 -39 51z" />
<glyph unicode="T" horiz-adv-x="1329" d="M33 1305v268q0 31 30 31h1201q32 0 32 -31v-268q0 -31 -32 -31h-412v-1241q0 -33 -31 -33h-317q-31 0 -31 33v1241h-410q-30 0 -30 31z" />
<glyph unicode="U" horiz-adv-x="1574" d="M121 801v772q0 31 31 31h317q31 0 31 -31v-772q0 -293 57 -385q60 -97 231 -97q170 0 230 97q57 92 57 385v772q0 31 31 31h317q31 0 31 -31v-772q0 -261 -29 -408t-106 -241q-76 -91 -197 -126.5t-334 -35.5t-334.5 35.5t-199.5 126.5q-76 94 -104.5 241t-28.5 408z" />
<glyph unicode="V" horiz-adv-x="1460" d="M20 1571q-6 33 27 33h311q13 0 18 -6t11 -27l311 -1239q9 -37 29 -37q17 0 22.5 6.5t10.5 30.5l311 1239q5 20 10 26.5t19 6.5h311q33 0 27 -33l-338 -1333q-40 -166 -105 -207t-266 -41q-200 0 -262 39q-62 41 -105 209z" />
<glyph unicode="W" horiz-adv-x="2263" d="M37 1569q-6 35 29 35h325q13 0 19.5 -7.5t11.5 -27.5l201 -1145q9 -37 30 -37q17 0 23 6.5t12 30.5l258 1094q9 34 45 34h281q34 0 43 -34l258 -1094q11 -37 35 -37.5t32 37.5l199 1145q5 20 11.5 27.5t19.5 7.5h325q37 0 31 -35l-244 -1331q-30 -164 -88 -207 q-56 -41 -239 -41q-122 0 -172.5 7t-89.5 34q-38 27 -55.5 66.5t-43.5 140.5l-164 696l-163 -696q-14 -60 -25 -96t-31 -67t-40.5 -45t-60.5 -24.5t-85 -13t-119 -2.5q-182 0 -241 41q-57 45 -84 207z" />
<glyph unicode="X" horiz-adv-x="1495" d="M-4 45l530 789l-485 725q-14 23 -9 34t31 11h355q35 0 55 -33l275 -449l274 449q20 33 55 33h355q26 0 31 -11t-9 -34l-485 -725l530 -789q11 -16 11 -27q0 -18 -33 -18h-355q-35 0 -55 33l-319 512l-320 -512q-23 -33 -55 -33h-355q-33 0 -33 18q0 11 11 27z" />
<glyph unicode="Y" horiz-adv-x="1517" d="M2 1559q-8 15 -8 25q0 20 31 20h356q32 0 55 -33l324 -672l325 672q14 33 56 33h354q31 0 31 -20q0 -10 -8 -25l-570 -1031v-493q0 -35 -30 -35h-318q-31 0 -31 35v497z" />
<glyph unicode="Z" horiz-adv-x="1439" d="M59 276q0 23 15 41l778 957h-735q-33 0 -33 31l-2 266q0 33 33 33h1212q31 0 31 -33v-246q0 -26 -15 -41l-780 -954h780q33 0 33 -31v-266q0 -33 -33 -33h-1251q-31 0 -31 33z" />
<glyph unicode="[" horiz-adv-x="897" d="M139 -295v1966q0 31 31 31h653q31 0 31 -31v-192q0 -31 -31 -31h-346v-1520h346q31 0 31 -30v-193q0 -31 -31 -31h-653q-31 0 -31 31z" />
<glyph unicode="\" horiz-adv-x="1048" d="M43 1653q-12 35 16 35h142q33 0 45 -35l760 -1714q15 -35 -17 -35h-143q-30 0 -45 35z" />
<glyph unicode="]" horiz-adv-x="897" d="M43 -102q0 30 31 30h346v1520h-346q-31 0 -31 31v192q0 31 31 31h653q31 0 31 -31v-1966q0 -31 -31 -31h-653q-31 0 -31 31v193z" />
<glyph unicode="^" horiz-adv-x="1206" d="M55 776l369 735q10 23 37 23h287q24 0 34 -23l369 -735q15 -37 -23 -37h-297q-23 0 -36 23l-193 418l-194 -418q-10 -23 -35 -23h-295q-38 0 -23 37z" />
<glyph unicode="_" horiz-adv-x="1411" d="M0 -129q0 31 31 31h1349q31 0 31 -31v-129q0 -31 -31 -31h-1349q-31 0 -31 31v129z" />
<glyph unicode="`" horiz-adv-x="1046" d="M246 1622v14q0 21 20 21h357q18 0 24 -12l150 -277q10 -20 -6 -29l-113 -63q-19 -10 -29 0l-393 321q-10 10 -10 25z" />
<glyph unicode="a" horiz-adv-x="1183" d="M51 356q3 208 107 275q103 69 340 69l225 2v41q0 121 -156 121h-401q-27 0 -27 31v209q0 27 27 33q167 34 401 34q95 0 170 -9.5t128.5 -25.5t92.5 -42t62.5 -54.5t37 -68.5t18.5 -78.5t5 -89.5v-705q0 -53 -49 -65q-209 -43 -471 -43q-113 0 -180 6q-62 3 -137 22 q-99 31 -141.5 105.5t-51.5 232.5zM403 381q0 -61 30.5 -83t115.5 -22q97 0 174 17v194h-191q-72 0 -100.5 -24t-28.5 -82z" />
<glyph unicode="b" horiz-adv-x="1253" d="M109 92v1479q0 33 30 33h295q31 0 31 -33v-412q123 12 242 12q275 0 372 -124q99 -126 99 -467q0 -187 -23.5 -293t-87.5 -176q-61 -67 -164.5 -94t-281.5 -27q-207 0 -465 43q-47 6 -47 59zM465 311q66 -14 164 -14q130 0 159 57q33 56 33 226q0 177 -37 229 q-38 53 -172 53h-147v-551z" />
<glyph unicode="c" horiz-adv-x="1067" d="M78 582q0 150 13.5 243.5t45.5 165.5q53 104 158 139.5t326 40.5q226 0 348 -32q35 -9 35 -43v-199q0 -33 -37 -33h-346q-115 0 -152 -55q-35 -56 -35 -227t35 -230q37 -55 152 -55h346q37 0 37 -33v-198q0 -34 -35 -43q-126 -33 -348 -33q-182 0 -281.5 26t-159.5 93 q-59 70 -80.5 174.5t-21.5 298.5z" />
<glyph unicode="d" horiz-adv-x="1253" d="M76 580q0 342 98 467q97 124 373 124q118 0 241 -12v412q0 33 31 33h295q31 0 31 -33v-1479q0 -53 -47 -59q-258 -43 -465 -43q-178 0 -281 27t-168 94q-61 70 -84.5 176.5t-23.5 292.5zM432 580q0 -166 31 -226q34 -57 162 -57q97 0 163 14v551h-147q-134 0 -172 -53 q-37 -52 -37 -229z" />
<glyph unicode="e" horiz-adv-x="1200" d="M76 580q0 356 108 473q106 118 430 118q316 0 420 -116q107 -116 107 -469v-64q0 -32 -13 -43.5t-49 -11.5h-639q3 -109 43 -139q45 -31 170 -31h377q31 0 31 -31v-209q0 -28 -29 -34q-146 -33 -418 -33q-323 0 -430 116q-108 120 -108 474zM438 684h344q0 102 -37.5 141 t-130.5 39q-96 0 -136 -39.5t-40 -140.5z" />
<glyph unicode="f" horiz-adv-x="835" d="M35 915v211q0 31 35 31h127v143q0 198 114 259q55 31 117 43t158 12q110 0 241 -23q35 -6 35 -43v-209q0 -32 -35 -32h-186q-48 0 -67 -14t-19 -52v-84h242q30 0 24 -35l-39 -207q-6 -32 -34 -32h-193v-850q0 -33 -31 -33h-297q-30 0 -30 33v850h-127q-35 0 -35 32z" />
<glyph unicode="g" horiz-adv-x="1257" d="M76 604q0 336 112 451q113 116 449 116q219 0 465 -43q47 -6 47 -59v-1083q0 -93 -10 -148t-39 -108q-41 -80 -152.5 -119t-314.5 -39q-261 0 -420 33q-27 6 -27 33v190q0 31 27 31h383q117 0 157 29t40 114v14q-110 -26 -242 -26q-273 0 -375 129q-100 126 -100 485z M432 582q0 -181 39 -232t174 -51q89 0 148 12v553h-175q-121 0 -155 -57q-31 -60 -31 -225z" />
<glyph unicode="h" horiz-adv-x="1267" d="M111 33v1538q0 33 30 33h297q31 0 31 -33v-410q113 10 195 10q164 0 253.5 -20.5t147.5 -75.5t79 -145t21 -256v-641q0 -33 -30 -33h-297q-29 0 -29 33v530q1 24 1 45q0 156 -32 213q-22 25 -60 35q-31 8 -86 8h-24h-137v-831q0 -33 -31 -33h-299q-30 0 -30 33z" />
<glyph unicode="i" horiz-adv-x="577" d="M82 1477q0 88 55 137t154 49q97 0 151 -49t54 -137t-54.5 -138.5t-150.5 -50.5q-100 0 -154.5 49t-54.5 140zM111 33v1095q0 33 30 33h295q31 0 31 -33v-1095q0 -33 -31 -33h-295q-30 0 -30 33z" />
<glyph unicode="j" horiz-adv-x="593" d="M-70 -152q0 31 37 31h53q67 0 86 17t19 79v1153q0 33 31 33h297q30 0 30 -33v-1257q0 -183 -75 -240q-77 -59 -246 -59q-124 0 -197 20q-35 12 -35 43v213zM98 1477q0 88 54.5 137t152.5 49t152.5 -49t54.5 -137q0 -90 -54 -139.5t-153 -49.5t-153 49.5t-54 139.5z" />
<glyph unicode="k" horiz-adv-x="1196" d="M111 33v1538q0 33 30 33h295q31 0 31 -33v-803l272 373q14 20 43 20h328q31 0 31 -14q0 -9 -13 -25l-311 -420l387 -647q9 -17 9 -29q0 -26 -44 -26h-313q-32 0 -45 23l-344 600v-590q0 -33 -31 -33h-295q-30 0 -30 33z" />
<glyph unicode="l" horiz-adv-x="577" d="M111 33v1538q0 33 30 33h295q31 0 31 -33v-1538q0 -33 -31 -33h-295q-30 0 -30 33z" />
<glyph unicode="m" horiz-adv-x="1828" d="M109 33v1071q0 25 28 31q141 36 416 36q247 0 381 -67q168 67 369 67q232 0 328 -94.5t95 -322.5v-721q0 -33 -28 -33h-299q-29 0 -29 33v530q0 149 -12 207q-12 59 -42.5 76.5t-111.5 17.5q-54 0 -129 -10q23 -74 23 -180l-2 -641q0 -33 -29 -33h-299q-29 0 -29 33v631 q-3 137 -30 167q-26 33 -136 33h-106v-831q0 -33 -31 -33h-297q-27 0 -30 33z" />
<glyph unicode="n" horiz-adv-x="1265" d="M109 33v1071q0 12 4 18.5t8.5 8.5t15.5 4q144 36 525 36q164 0 253.5 -20.5t147.5 -75.5t79 -145t21 -256v-641q0 -33 -30 -33h-297q-29 0 -29 33v530q0 129 -5 176t-28 80q-23 32 -52.5 38.5t-115.5 6.5h-137v-831q0 -33 -31 -33h-301q-28 0 -28 33z" />
<glyph unicode="o" horiz-adv-x="1241" d="M76 580q0 358 106 473q106 118 439 118q330 0 436 -118q108 -117 108 -473q0 -357 -108 -474q-107 -116 -436 -116q-332 0 -439 116q-106 115 -106 474zM434 580q0 -172 35 -228q37 -55 152 -55t149 55q37 55 37 228q0 171 -37 229q-34 55 -149 55t-152 -57 q-35 -56 -35 -227z" />
<glyph unicode="p" horiz-adv-x="1259" d="M109 -385v1454q0 50 49 59q258 43 463 43q335 0 448 -116q115 -118 115 -451q0 -357 -101 -485q-102 -129 -374 -129q-134 0 -242 12v-387q0 -31 -31 -31h-297q-30 0 -30 31zM467 309q65 -10 145 -10q135 0 174 51t39 232q0 166 -30 225q-29 57 -154 57h-174v-555z" />
<glyph unicode="q" horiz-adv-x="1259" d="M76 604q0 336 112 451q113 116 451 116q205 0 463 -43q49 -9 49 -59v-1454q0 -31 -31 -31h-297q-30 0 -30 31v387q-108 -12 -242 -12q-273 0 -375 129q-100 126 -100 485zM434 582q0 -181 39 -232t174 -51q81 0 146 10v555h-175q-124 0 -153 -57q-31 -57 -31 -225z" />
<glyph unicode="r" horiz-adv-x="849" d="M106 33v825q0 186 101 250q100 63 293 63q179 0 293 -24q34 -6 34 -43v-209q0 -31 -34 -31h-203q-71 0 -98 -20.5t-27 -81.5v-729q0 -33 -31 -33h-297q-31 0 -31 33z" />
<glyph unicode="s" horiz-adv-x="1052" d="M66 41v205q0 33 34 33h443q62 0 83 10t21 39v14q0 24 -24 41t-86 37l-234 78q-215 71 -215 321v37q0 161 120 238t372 77q177 0 329 -32q33 -9 33 -33v-188q0 -33 -35 -33h-366q-105 0 -105 -58v-18q0 -43 84 -70l256 -84q116 -37 167.5 -114.5t51.5 -202.5v-37 q0 -311 -444 -311q-272 0 -451 20q-34 0 -34 31z" />
<glyph unicode="t" horiz-adv-x="813" d="M33 924v198q0 31 35 31h122v217q0 23 29 33l297 78q13 4 22 -5t9 -28v-295h176q35 0 35 -31v-198q0 -33 -35 -33h-176v-492q0 -62 24.5 -82t92.5 -20h77q35 0 35 -31v-213q0 -35 -35 -41q-126 -22 -202 -22q-91 0 -140 6q-41 5 -104 31q-55 26 -80 85t-25 158v621h-122 q-35 0 -35 33z" />
<glyph unicode="u" horiz-adv-x="1265" d="M102 489v639q0 33 33 33h295q31 0 31 -33v-530q-1 -24 -1 -45q0 -156 32 -213q23 -27 60 -36q30 -7 85 -7h25h137v831q0 33 30 33h299q29 0 29 -33v-1067q0 -18 -5 -23.5t-24 -10.5q-191 -37 -522 -37q-165 0 -255 20.5t-148 75.5t-79.5 146t-21.5 257z" />
<glyph unicode="v" horiz-adv-x="1239" d="M23 1128q-6 33 26 33h316q11 0 15.5 -5.5t12.5 -27.5l195 -821q4 -20 9 -25.5t19 -5.5q17 0 22.5 5.5t10.5 25.5l195 821q5 21 9.5 27t18.5 6h316q32 0 26 -33l-233 -890q-29 -114 -66 -168q-37 -50 -94 -64q-66 -16 -203 -16q-200 0 -256 39q-55 38 -102 209z" />
<glyph unicode="w" horiz-adv-x="1855" d="M37 1133q-6 28 24 28h316q16 0 22 -28l127 -830q2 -15 12 -21t20.5 0t12.5 21l187 797q6 24 33 24h274q27 0 33 -24l186 -797q3 -22 21 -22q21 0 24 22l127 830q3 28 23 28h315q28 0 25 -28l-174 -951q-21 -122 -84 -157q-59 -35 -220 -35q-193 0 -249 30q-53 30 -80 162 l-84 393l-84 -393q-27 -132 -82 -162q-52 -30 -250 -30q-159 0 -221 35q-61 36 -82 157z" />
<glyph unicode="x" horiz-adv-x="1228" d="M0 13q-5 13 6 26l385 565l-354 518q-13 17 -8.5 28t24.5 11h359q23 0 37 -20l167 -258l164 258q14 20 37 20h359q20 0 24 -11t-10 -28l-352 -518l385 -565q11 -13 6 -26t-25 -13h-356q-21 0 -35 20l-199 308l-200 -308q-14 -20 -33 -20h-356q-20 0 -25 13z" />
<glyph unicode="y" horiz-adv-x="1298" d="M100 502v628q0 31 31 31h297q31 0 31 -31v-548q0 -178 43 -230q47 -53 182 -53q88 0 147 12v819q0 31 31 31h295q31 0 31 -31v-1144q0 -93 -10 -148t-39 -108q-41 -80 -152.5 -119t-314.5 -39q-265 0 -424 33q-27 6 -27 33v190q0 31 29 31h385q117 0 156.5 29t39.5 114 v14q-110 -26 -241 -26q-271 0 -381 119q-109 121 -109 393z" />
<glyph unicode="z" horiz-adv-x="1130" d="M59 33v174q0 24 15 39l481 616h-438q-37 0 -37 31v235q0 33 37 33h891q36 0 36 -33v-184q0 -17 -16 -39l-453 -598h463q35 0 35 -33v-241q0 -33 -35 -33h-944q-35 0 -35 33z" />
<glyph unicode="{" horiz-adv-x="770" d="M25 653v70q0 27 16 37l160 102q21 15 18 37l-57 559q-12 133 65 193.5t246 60.5q117 0 203 -24q23 -6 30 -16.5t7 -35.5v-180q0 -31 -31 -31h-78q-56 0 -79 -21.5t-19 -70.5l53 -438q9 -88 -53 -121l-152 -78v-16l152 -78q62 -33 53 -121l-53 -438q-4 -49 19 -70.5 t79 -21.5h78q31 0 31 -31v-180q0 -25 -7 -35t-30 -16q-89 -25 -203 -25q-169 0 -246 60.5t-65 193.5l57 559q3 22 -18 37l-160 102q-16 10 -16 37z" />
<glyph unicode="|" horiz-adv-x="636" d="M139 -184v1837q0 33 31 33h297q31 0 31 -33v-1837q0 -33 -31 -33h-297q-31 0 -31 33z" />
<glyph unicode="}" horiz-adv-x="770" d="M57 -80q0 31 31 31h78q56 0 79 21.5t19 70.5l-53 438q-9 88 53 121l154 78v16l-154 78q-62 33 -53 121l53 438q4 49 -19 70.5t-79 21.5h-78q-31 0 -31 31v180q0 25 7 35.5t30 16.5q86 24 203 24q169 0 246 -60.5t65 -193.5l-57 -559q-3 -22 18 -37l160 -102 q16 -10 16 -37v-70q0 -27 -16 -37l-160 -102q-21 -15 -18 -37l57 -559q12 -133 -65 -193.5t-246 -60.5q-114 0 -203 25q-23 6 -30 16t-7 35v180z" />
<glyph unicode="~" horiz-adv-x="1312" d="M63 643q47 127 147 197.5t230 70.5q58 0 123.5 -22.5t113 -49t100.5 -49t89 -22.5q111 0 168 100q15 21 41 4l170 -108q18 -12 6 -37q-47 -128 -147.5 -199t-231.5 -71q-59 -2 -123.5 21t-111 51.5t-99 51.5t-89.5 21q-107 0 -168 -102q-12 -24 -37 -8l-170 110 q-23 13 -11 41z" />
<glyph unicode="&#xa1;" horiz-adv-x="606" d="M96 983q0 90 54 139t153 49t153 -49t54 -139q0 -88 -54.5 -137t-152.5 -49t-152.5 49t-54.5 137zM106 291q0 14 5 39l77 336q6 34 31 34h170q22 0 31 -34l76 -336q4 -20 4 -39v-674q0 -33 -31 -33h-332q-31 0 -31 33v674z" />
<glyph unicode="&#xa2;" horiz-adv-x="1091" d="M80 582q0 338 90 460q90 118 383 127l29 162q3 33 34 33h129q31 0 25 -33l-29 -164q153 -10 230 -28q35 -9 35 -43v-199q0 -33 -37 -33h-346q-115 0 -152 -55q-35 -56 -35 -227t35 -230q37 -55 152 -55h346q37 0 37 -33v-198q0 -34 -35 -43q-126 -33 -348 -33h-39 l-29 -160q-6 -33 -37 -33h-129q-30 0 -24 33l30 176q-187 30 -252 156q-63 123 -63 420z" />
<glyph unicode="&#xa3;" horiz-adv-x="1357" d="M47 31l47 268q6 31 39 31h133v299h-121q-32 0 -32 30v146q0 31 32 31h121v372q0 244 174 330q86 42 189.5 59t255.5 17t313 -37q30 -8 41.5 -20.5t11.5 -38.5v-205q0 -31 -30 -31h-297q-174 0 -226 -37q-53 -35 -53 -133v-276h418q31 0 31 -31v-146q0 -30 -31 -30h-418 v-299h606q33 0 33 -31v-268q0 -31 -33 -31h-1175q-32 0 -29 31z" />
<glyph unicode="&#xa4;" horiz-adv-x="1271" d="M90 236q-22 22 2 45l96 96q-75 115 -75 291t75 288l-96 97q-22 25 -2 45l92 90q22 22 45 0l107 -107q126 60 299 60q172 0 301 -60l106 107q22 22 45 0l93 -90q22 -22 -2 -45l-97 -97q74 -112 74 -288t-74 -291l97 -96q25 -22 2 -45l-93 -91q-23 -23 -45 0l-106 107 q-127 -59 -301 -59q-175 0 -299 59l-107 -107q-23 -23 -45 0zM430 668q0 -209 203 -209q99 0 152 53.5t53 155.5q0 100 -53.5 154.5t-151.5 54.5t-150.5 -54.5t-52.5 -154.5z" />
<glyph unicode="&#xa5;" horiz-adv-x="1605" d="M45 1559q-23 45 23 45h356q32 0 55 -33l324 -615l325 615q17 33 56 33h354q46 0 23 -45l-519 -885h267q32 0 32 -31v-84q0 -31 -32 -31h-318v-155h318q32 0 32 -31v-84q0 -31 -32 -31h-318v-192q0 -35 -30 -35h-318q-31 0 -31 35v192h-315q-31 0 -31 31v84q0 31 31 31 h315v155h-315q-31 0 -31 31v84q0 31 31 31h268z" />
<glyph unicode="&#xa6;" horiz-adv-x="634" d="M139 -184v729q0 22 23 22h311q23 0 23 -22v-729q0 -33 -31 -33h-295q-31 0 -31 33zM139 936v717q0 33 31 33h295q31 0 31 -33v-717q0 -23 -23 -23h-311q-23 0 -23 23z" />
<glyph unicode="&#xa7;" horiz-adv-x="974" d="M82 698v605q0 180 90 239q91 60 340 60q124 0 233 -25q21 -3 21 -16v-181q0 -10 -3.5 -13t-17.5 -3h-284q-58 0 -84.5 -22.5t-26.5 -75.5v-107l340 -125q123 -48 162 -110q41 -65 41 -195v-596q0 -183 -90 -242q-89 -59 -338 -59q-128 0 -234 25q-16 1 -19 4t-3 12v182 q0 17 20 17h285q58 0 84.5 22.5t26.5 75.5v98l-340 123q-124 48 -162 109q-41 65 -41 198zM350 705q0 -48 20.5 -74t73.5 -45l181 -66v197q0 47 -20.5 72.5t-74.5 44.5l-180 69v-198z" />
<glyph unicode="&#xa8;" horiz-adv-x="1329" d="M246 1464q0 76 45.5 119t130.5 43q84 0 129 -43t45 -119q0 -80 -45 -123t-129 -43q-86 0 -131 43t-45 123zM735 1464q0 76 45 119t129 43t129 -43t45 -119q0 -80 -44 -123t-130 -43t-130 43t-44 123z" />
<glyph unicode="&#xa9;" horiz-adv-x="1712" d="M78 768q0 403 188 594q187 190 590 190t590 -190q188 -191 188 -594t-188 -594q-187 -190 -590 -190t-590 190q-188 191 -188 594zM203 768q0 -340 158 -498.5t495 -158.5t495 158.5t158 498.5t-158 498.5t-495 158.5q-338 0 -495.5 -158.5t-157.5 -498.5zM514 764 q0 244 70 326q72 84 274 84q144 0 215 -21q31 -6 31 -35v-96q0 -27 -25 -27h-221q-94 0 -117 -45q-22 -46 -22 -186t22 -189q23 -45 117 -45h221q25 0 25 -22v-98q0 -28 -31 -37q-93 -19 -215 -19q-202 0 -274 84q-70 85 -70 326z" />
<glyph unicode="&#xaa;" horiz-adv-x="770" d="M82 1110v27q0 108 59 151t183 43h165v55q0 43 -25.5 61.5t-94.5 18.5h-215q-15 0 -20 4.5t-5 20.5v76q0 23 23 30q97 19 217 19q162 0 227.5 -47t65.5 -148v-426q0 -34 -25 -43q-77 -32 -297 -32q-147 0 -202.5 36.5t-55.5 153.5zM129 709v59q0 31 31 31h454q31 0 31 -31 v-59q0 -31 -31 -31h-454q-31 0 -31 31zM254 1124q0 -61 98 -61q78 0 137 12v117h-129q-106 0 -106 -59v-9z" />
<glyph unicode="&#xab;" horiz-adv-x="1290" d="M61 510v125q0 30 21 57l219 289q15 18 37 18h295q31 0 31 -30v-15q0 -21 -15 -36l-276 -347l276 -344q15 -15 15 -37v-14q0 -31 -31 -31h-295q-21 0 -37 19l-219 287q-21 27 -21 59zM614 510v125q0 30 21 57l219 289q15 18 37 18h295q31 0 31 -30v-15q0 -21 -15 -36 l-276 -347l276 -344q15 -15 15 -37v-14q0 -31 -31 -31h-295q-21 0 -37 19l-219 287q-21 27 -21 59z" />
<glyph unicode="&#xac;" horiz-adv-x="1280" d="M78 690v291q0 31 31 31h1028q30 0 30 -31l-2 -602q0 -31 -30 -31h-285q-31 0 -31 31v280h-710q-31 0 -31 31z" />
<glyph unicode="&#xad;" horiz-adv-x="950" d="M106 496v268q0 31 33 31h672q33 0 33 -31v-268q0 -31 -33 -31h-672q-33 0 -33 31z" />
<glyph unicode="&#xae;" horiz-adv-x="1712" d="M78 768q0 403 188 594q187 190 590 190t590 -190q188 -191 188 -594t-188 -594q-187 -190 -590 -190t-590 190q-188 191 -188 594zM203 768q0 -340 158 -498.5t495 -158.5t495 158.5t158 498.5t-158 498.5t-495 158.5q-338 0 -495.5 -158.5t-157.5 -498.5zM565 391v752 q0 13 4.5 17.5t18.5 4.5q144 15 311 15q164 0 229.5 -61.5t65.5 -213.5q0 -112 -33.5 -167t-113.5 -74l163 -265q10 -13 4.5 -22.5t-24.5 -9.5h-143q-47 0 -68 34l-160 252l-51 -2v-260q0 -24 -25 -24h-155q-14 0 -18.5 4t-4.5 20zM768 813h109q73 0 92.5 15.5t19.5 72.5 q0 58 -22 79t-90 21h-109v-188z" />
<glyph unicode="&#xaf;" horiz-adv-x="1179" d="M246 1372v146q0 30 30 30h627q31 0 31 -30v-146q0 -31 -31 -31h-627q-30 0 -30 31z" />
<glyph unicode="&#xb0;" horiz-adv-x="714" d="M59 1329q0 287 297 287q299 0 299 -287q0 -285 -299 -285q-297 0 -297 285zM233 1329q0 -125 123 -125q125 0 125 125t-125 125q-123 0 -123 -125z" />
<glyph unicode="&#xb1;" horiz-adv-x="1271" d="M109 145v191q0 31 30 31h994q30 0 30 -31v-191q0 -30 -30 -30h-994q-30 0 -30 30zM117 788v199q0 31 30 31h330v246q0 30 31 30h258q31 0 31 -30v-246h327q31 0 31 -31v-199q0 -30 -31 -30h-327v-246q0 -31 -31 -31h-258q-31 0 -31 31v246h-330q-30 0 -30 30z" />
<glyph unicode="&#xb2;" horiz-adv-x="731" d="M49 1104v106q0 82 35 132t129 104l211 117q51 26 51 88v49q0 38 -22 51.5t-78 13.5h-252q-17 0 -17 15v102q0 18 15 21q114 20 241 20q132 0 205 -31q90 -35 90 -155v-107q2 -68 -17.5 -110t-84.5 -80l-225 -117q-43 -21 -57.5 -36t-14.5 -40v-14h391q13 0 13 -10v-140 q0 -10 -11 -10h-573q-29 0 -29 31z" />
<glyph unicode="&#xb3;" horiz-adv-x="700" d="M68 1110v98q0 17 22 17h152q124 0 164 16q36 14 36 70v24q0 88 -129 88h-178q-18 0 -18 19v108q0 17 18 17h176q78 0 104.5 19.5t26.5 74.5v18q0 56 -36 70q-40 16 -164 16h-152q-22 0 -22 17v100q0 18 18 21q114 20 246 20q166 0 230.5 -49t64.5 -182v-19 q0 -142 -107 -176q107 -24 107 -174v-25q0 -136 -66 -184q-65 -47 -229 -47q-132 0 -246 20q-18 3 -18 23z" />
<glyph unicode="&#xb4;" horiz-adv-x="1046" d="M250 1368l149 277q6 12 25 12h356q21 0 21 -21v-14q0 -15 -10 -25l-394 -321q-12 -9 -28 0l-113 63q-16 9 -6 29z" />
<glyph unicode="&#xb5;" horiz-adv-x="1273" d="M111 -279v1407q0 33 32 33h295q31 0 31 -33v-530q-5 -193 31 -258q23 -27 60 -36t110 -7h137v831q0 33 31 33h299q28 0 28 -33v-1067q0 -19 -4.5 -24t-23.5 -10q-191 -37 -523 -37q-96 0 -145 8v-277q0 -32 -31 -32h-297q-30 0 -30 32z" />
<glyph unicode="&#xb6;" horiz-adv-x="1404" d="M53 971v213q3 253 142 342q143 90 442 90q203 0 326 -39.5t194 -130.5q44 -55 72 -154q28 -90 38.5 -202t10.5 -285v-805h-238v924q0 260 -79 354q-78 96 -250 102v-817h-56q-124 0 -203 7.5t-157 29.5q-118 36 -178 124t-64 247z" />
<glyph unicode="&#xb7;" horiz-adv-x="565" d="M76 582q0 88 54.5 137t152.5 49t152 -49t54 -137q0 -91 -54 -140t-152 -49q-99 0 -153 49.5t-54 139.5z" />
<glyph unicode="&#xb8;" horiz-adv-x="927" d="M246 -168q0 27 26 27h74q57 0 84 6q22 4 29.5 13.5t7.5 29.5q0 48 -12 110q-6 33 26 33h117q28 0 37 -24q47 -143 47 -240q0 -160 -229 -160q-137 0 -183 17q-24 9 -24 37v151z" />
<glyph unicode="&#xb9;" horiz-adv-x="602" d="M55 1792v86q0 20 25 29q37 16 113 16q85 0 145 -22q78 -29 78 -136v-532h133q24 0 24 -25v-112q0 -23 -24 -23h-459q-24 0 -24 23v112q0 25 24 25h146v469q0 37 -19 51t-74 14h-61q-27 0 -27 25z" />
<glyph unicode="&#xba;" horiz-adv-x="796" d="M90 1266q0 211 60 280q58 70 249 70q190 0 248 -70q60 -69 60 -280q0 -214 -58 -281q-59 -65 -250 -65q-193 0 -252 65q-57 66 -57 281zM141 709v59q0 31 31 31h455q30 0 30 -31v-59q0 -31 -30 -31h-455q-31 0 -31 31zM264 1266q0 -128 21 -162q21 -35 114 -35 q94 0 115 35q21 34 21 162q0 130 -21 164q-20 36 -115 36q-94 0 -114 -36q-21 -34 -21 -164z" />
<glyph unicode="&#xbb;" horiz-adv-x="1288" d="M74 176v14q0 23 14 37l274 344l-274 347q-14 14 -14 36v15q0 30 30 30h293q22 0 37 -18l221 -289q21 -27 21 -57v-125q0 -32 -21 -59l-221 -287q-16 -19 -37 -19h-293q-30 0 -30 31zM627 176v14q0 23 14 37l274 344l-274 347q-14 14 -14 36v15q0 30 30 30h293 q22 0 37 -18l221 -289q21 -27 21 -57v-125q0 -32 -21 -59l-221 -287q-16 -19 -37 -19h-293q-30 0 -30 31z" />
<glyph unicode="&#xbc;" horiz-adv-x="1853" d="M66 1477v86q0 19 24 28q39 17 113 17q82 0 145 -23q78 -29 78 -135v-532h133q27 0 27 -25v-113q0 -22 -27 -22h-457q-26 0 -26 22v113q0 25 26 25h144v468q0 38 -19 52t-73 14h-62q-26 0 -26 25zM424 -61l760 1714q15 35 45 35h88q31 0 16 -35l-755 -1714 q-15 -35 -48 -35h-90q-34 0 -16 35zM1087 215v64q0 16 9 40l135 510q7 17 31 17h135q26 0 16 -29l-125 -467h189v203q0 23 16 29l137 51q31 9 31 -17v-266h123q26 0 26 -24v-113q0 -23 -26 -23h-123v-165q0 -25 -25 -25h-137q-22 0 -22 25v165h-367q-23 0 -23 25z" />
<glyph unicode="&#xbd;" horiz-adv-x="1787" d="M51 1477v86q0 18 23 28q39 17 114 17q83 0 146 -23q78 -29 78 -135v-532h133q24 0 24 -25v-113q0 -22 -24 -22h-459q-25 0 -25 22v113q0 25 25 25h145v468q0 38 -19 52t-73 14h-61q-27 0 -27 25zM416 -61l760 1714q15 35 45 35h88q31 0 16 -35l-756 -1714 q-15 -35 -47 -35h-90q-34 0 -16 35zM1120 31v108q0 80 35.5 132t128.5 102l211 116q51 26 51 89v49q0 38 -22 51.5t-78 13.5h-252q-14 0 -14 17v100q0 17 14 20q125 23 242 23q152 0 222.5 -39.5t70.5 -148.5v-105q1 -34 -2 -57.5t-13.5 -48t-32 -45.5t-55.5 -41l-225 -117 q-43 -21 -57.5 -36t-14.5 -40v-14h391q13 0 13 -10v-140q0 -10 -11 -10h-573q-29 0 -29 31z" />
<glyph unicode="&#xbe;" horiz-adv-x="1908" d="M70 795v98q0 16 22 16h150q127 0 164.5 16t37.5 70v25q0 88 -131 88h-176q-20 0 -20 18v109q0 16 20 16h176q78 0 104.5 20t26.5 75v18q0 54 -37.5 70t-164.5 16h-150q-22 0 -22 16v101q0 17 16 20q120 21 246 21q168 0 232.5 -49t64.5 -183v-18q0 -141 -109 -176 q109 -24 109 -174v-25q0 -136 -66 -184q-65 -47 -231 -47q-132 0 -246 20q-16 3 -16 23zM473 -61l760 1714q15 35 45 35h88q31 0 16 -35l-757 -1714q-18 -35 -45 -35h-91q-34 0 -16 35zM1141 215v64q0 7 8 40l137 510q7 17 31 17h135q26 0 16 -29l-127 -467h191v203 q0 23 16 29l138 51q30 9 30 -17v-266h123q27 0 27 -24v-113q0 -23 -27 -23h-123v-165q0 -25 -24 -25h-138q-22 0 -22 25v165h-367q-24 0 -24 25z" />
<glyph unicode="&#xbf;" horiz-adv-x="1134" d="M49 -35v107q0 162 47 239q50 77 178 135l209 101q99 47 111 100l4 27q0 26 29 26h229q23 0 29 -26l14 -101q15 -97 -18 -151q-35 -56 -154 -123l-190 -98q-60 -31 -84.5 -61t-24.5 -79v-30q0 -73 53 -101t183 -28h393q30 0 30 -33v-199q0 -26 -12 -39.5t-41 -21.5 q-161 -37 -375 -37q-137 0 -235.5 17t-187.5 57q-187 79 -187 319zM537 983q0 90 53.5 139t152.5 49t153 -49t54 -139q0 -88 -54.5 -137t-152.5 -49t-152 49t-54 137z" />
<glyph unicode="&#xc0;" horiz-adv-x="1488" d="M6 33l367 1335q45 166 108 207q62 41 262 41q203 0 265 -41q63 -41 108 -207l365 -1335q6 -33 -27 -33h-313q-20 0 -29 33l-111 413h-514l-114 -413q-9 -33 -27 -33h-313q-33 0 -27 33zM311 2032v14q0 20 21 20h354q19 0 25 -12l149 -276q10 -20 -6 -29l-111 -63 q-19 -9 -28 0l-393 321q-11 7 -11 25zM571 756h347l-140 512q-6 21 -12.5 26.5t-24.5 5.5q-16 0 -21 -5t-11 -27z" />
<glyph unicode="&#xc1;" horiz-adv-x="1488" d="M6 33l367 1335q45 166 108 207q62 41 262 41q203 0 265 -41q63 -41 108 -207l365 -1335q6 -33 -27 -33h-313q-20 0 -29 33l-111 413h-514l-114 -413q-9 -33 -27 -33h-313q-33 0 -27 33zM571 756h347l-140 512q-6 21 -12.5 26.5t-24.5 5.5q-16 0 -21 -5t-11 -27zM588 1778 l149 276q6 12 25 12h356q21 0 21 -20v-14q0 -14 -11 -25l-393 -321q-12 -9 -28 0l-113 63q-16 9 -6 29z" />
<glyph unicode="&#xc2;" horiz-adv-x="1488" d="M6 33l367 1335q45 166 108 207q62 41 262 41q203 0 265 -41q63 -41 108 -207l365 -1335q6 -33 -27 -33h-313q-20 0 -29 33l-111 413h-514l-114 -413q-9 -33 -27 -33h-313q-33 0 -27 33zM385 1761l205 287q15 18 43 18h219q28 0 43 -18l205 -287q20 -23 -8 -35l-78 -38 q-23 -13 -39 0l-232 155l-233 -155q-16 -13 -39 0l-78 38q-28 12 -8 35zM571 756h347l-140 512q-6 21 -12.5 26.5t-24.5 5.5q-16 0 -21 -5t-11 -27z" />
<glyph unicode="&#xc3;" horiz-adv-x="1488" d="M6 33l367 1335q45 166 108 207q62 41 262 41q203 0 265 -41q63 -41 108 -207l365 -1335q6 -33 -27 -33h-313q-20 0 -29 33l-111 413h-514l-114 -413q-9 -33 -27 -33h-313q-33 0 -27 33zM350 1780q35 148 83 202t145 54q58 0 167 -41q104 -39 134 -39q32 0 51.5 14.5 t36.5 52.5q15 28 39 19l108 -29q27 -9 21 -41q-35 -148 -83 -202t-145 -54q-64 0 -168 39q-109 41 -133 41q-32 0 -51.5 -14.5t-36.5 -52.5q-16 -29 -39 -21l-108 31q-27 9 -21 41zM571 756h347l-140 512q-6 21 -12.5 26.5t-24.5 5.5q-16 0 -21 -5t-11 -27z" />
<glyph unicode="&#xc4;" horiz-adv-x="1488" d="M6 33l367 1335q45 166 108 207q62 41 262 41q203 0 265 -41q63 -41 108 -207l365 -1335q6 -33 -27 -33h-313q-20 0 -29 33l-111 413h-514l-114 -413q-9 -33 -27 -33h-313q-33 0 -27 33zM324 1874q0 76 45.5 119t130.5 43q84 0 129 -43t45 -119q0 -80 -45 -123t-129 -43 q-86 0 -131 43t-45 123zM571 756h347l-140 512q-6 21 -12.5 26.5t-24.5 5.5q-16 0 -21 -5t-11 -27zM811 1874q0 76 45.5 119t130.5 43q84 0 129 -43t45 -119q0 -80 -44 -123t-130 -43t-131 43t-45 123z" />
<glyph unicode="&#xc5;" horiz-adv-x="1488" d="M6 33l367 1335q45 166 108 207q62 41 262 41q203 0 265 -41q63 -41 108 -207l365 -1335q6 -33 -27 -33h-313q-20 0 -29 33l-111 413h-514l-114 -413q-9 -33 -27 -33h-313q-33 0 -27 33zM494 1913q0 239 249 239q250 0 250 -239q0 -242 -250 -242q-249 0 -249 242z M571 756h347l-140 512q-6 21 -12.5 26.5t-24.5 5.5q-16 0 -21 -5t-11 -27zM616 1913q0 -127 127 -127t127 127t-127 127t-127 -127z" />
<glyph unicode="&#xc6;" horiz-adv-x="2152" d="M6 33l369 1335q46 167 106 207q65 41 262 41l611 -12h678q30 0 30 -31v-268q0 -31 -30 -31h-689v-320h629q33 0 33 -30v-254q0 -31 -33 -31h-629v-309h689q30 0 30 -31v-268q0 -31 -30 -31h-1037q-30 0 -30 33v413h-478l-112 -413q-9 -33 -29 -33h-313q-33 0 -27 33z M571 756h394v544h-174q-43 0 -64 -15.5t-31 -57.5z" />
<glyph unicode="&#xc7;" horiz-adv-x="1294" d="M86 805q0 475 137 643t539 168q253 0 414 -37q30 -8 41.5 -21t11.5 -42v-199q0 -31 -31 -31h-436q-180 0 -238 -98q-55 -98 -55 -383q0 -284 55 -385q58 -101 238 -101h436q31 0 31 -30v-199q0 -51 -53 -63q-136 -34 -355 -37q37 -118 37 -203q0 -160 -229 -160 q-139 0 -185 17q-24 9 -24 37v151q0 27 29 27h71q57 0 84 6q22 4 29.5 13.5t7.5 29.5q0 47 -8 86q-318 21 -432 196q-115 177 -115 615z" />
<glyph unicode="&#xc8;" horiz-adv-x="1349" d="M135 33v1538q0 33 31 33h1061q33 0 33 -31v-268q0 -31 -33 -31h-713v-320h653q33 0 33 -30v-254q0 -31 -33 -31h-653v-309h713q33 0 33 -31v-268q0 -31 -33 -31h-1061q-31 0 -31 33zM344 2032v14q0 20 21 20h356q18 0 24 -12l150 -276q10 -20 -6 -29l-113 -63 q-19 -9 -28 0l-394 321q-10 10 -10 25z" />
<glyph unicode="&#xc9;" horiz-adv-x="1349" d="M135 33v1538q0 33 31 33h1061q33 0 33 -31v-268q0 -31 -33 -31h-713v-320h653q33 0 33 -30v-254q0 -31 -33 -31h-653v-309h713q33 0 33 -31v-268q0 -31 -33 -31h-1061q-31 0 -31 33zM510 1778l149 276q6 12 25 12h356q21 0 21 -20v-14q0 -15 -10 -25l-394 -321 q-12 -9 -28 0l-113 63q-16 9 -6 29z" />
<glyph unicode="&#xca;" horiz-adv-x="1349" d="M135 33v1538q0 33 31 33h1061q33 0 33 -31v-268q0 -31 -33 -31h-713v-320h653q33 0 33 -30v-254q0 -31 -33 -31h-653v-309h713q33 0 33 -31v-268q0 -31 -33 -31h-1061q-31 0 -31 33zM313 1761l205 287q9 18 43 18h217q30 0 45 -18l203 -287q20 -20 -6 -35l-78 -38 q-23 -13 -39 0l-231 155l-236 -155q-15 -15 -37 0l-77 38q-31 13 -9 35z" />
<glyph unicode="&#xcb;" horiz-adv-x="1349" d="M135 33v1538q0 33 31 33h1061q33 0 33 -31v-268q0 -31 -33 -31h-713v-320h653q33 0 33 -30v-254q0 -31 -33 -31h-653v-309h713q33 0 33 -31v-268q0 -31 -33 -31h-1061q-31 0 -31 33zM250 1874q0 76 45.5 119t130.5 43q84 0 129 -43t45 -119q0 -80 -44 -123t-130 -43 t-131 43t-45 123zM739 1874q0 76 45.5 119t130.5 43q84 0 129.5 -43t45.5 -119q0 -80 -45 -123t-130 -43q-86 0 -131 43t-45 123z" />
<glyph unicode="&#xcc;" horiz-adv-x="649" d="M-59 2032v14q0 20 20 20h354q19 0 25 -12l149 -276q10 -20 -6 -29l-110 -63q-19 -10 -29 0l-393 321q-10 10 -10 25zM135 35v1536q0 33 31 33h317q31 0 31 -33v-1536q0 -35 -31 -35h-317q-31 0 -31 35z" />
<glyph unicode="&#xcd;" horiz-adv-x="649" d="M135 35v1536q0 33 31 33h317q31 0 31 -33v-1536q0 -35 -31 -35h-317q-31 0 -31 35zM158 1778l149 276q6 12 25 12h356q21 0 21 -20v-14q0 -14 -11 -25l-393 -321q-10 -10 -29 0l-112 63q-16 9 -6 29z" />
<glyph unicode="&#xce;" horiz-adv-x="649" d="M-33 1761l203 287q15 18 45 18h217q34 0 43 -18l205 -287q20 -20 -8 -35l-78 -38q-22 -15 -37 0l-233 155l-234 -155q-16 -13 -39 0l-78 38q-26 15 -6 35zM135 35v1536q0 33 31 33h317q31 0 31 -33v-1536q0 -35 -31 -35h-317q-31 0 -31 35z" />
<glyph unicode="&#xcf;" horiz-adv-x="649" d="M-96 1874q0 76 45.5 119t130.5 43q84 0 129 -43t45 -119q0 -80 -44 -123t-130 -43t-131 43t-45 123zM135 35v1536q0 33 31 33h317q31 0 31 -33v-1536q0 -35 -31 -35h-317q-31 0 -31 35zM393 1874q0 76 45.5 119t130.5 43q84 0 129 -43t45 -119q0 -80 -45 -123t-129 -43 q-176 0 -176 166z" />
<glyph unicode="&#xd0;" horiz-adv-x="1564" d="M4 709v145q0 31 31 31h131v678q0 25 31 28q314 25 608 25q366 0 522 -193q156 -191 156 -624q0 -431 -156 -621q-156 -188 -522 -188q-307 0 -608 24q-31 3 -31 25v639h-131q-31 0 -31 31zM545 319h260q160 0 227.5 111t67.5 369q0 262 -68.5 374.5t-232.5 112.5h-254 v-401h235q31 0 31 -31v-145q0 -31 -31 -31h-235v-359z" />
<glyph unicode="&#xd1;" horiz-adv-x="1626" d="M135 35v1536q0 33 31 33h233q57 0 78.5 -13t54.5 -59l580 -827v866q0 33 31 33h317q31 0 31 -33v-1536q0 -35 -31 -35h-223q-75 0 -119 59l-604 867v-891q0 -35 -31 -35h-317q-31 0 -31 35zM420 1780q35 148 83 202t144 54q59 0 168 -41q104 -39 133 -39q32 0 51.5 14.5 t36.5 52.5q16 28 37 19l109 -29q28 -9 22 -41q-38 -151 -84 -203q-47 -53 -143 -53q-64 0 -168 39q-109 41 -133 41q-32 0 -51.5 -14.5t-36.5 -52.5q-16 -29 -39 -21l-109 31q-26 9 -20 41z" />
<glyph unicode="&#xd2;" horiz-adv-x="1538" d="M86 801q0 248 31.5 397t109.5 244q80 96 206 135t335 39q400 0 541 -172q143 -168 143 -643q0 -249 -31.5 -397t-111.5 -242q-78 -94 -204.5 -133t-336.5 -39q-397 0 -541 170q-141 170 -141 641zM305 2032v14q0 20 21 20h354q19 0 25 -12l149 -276q10 -20 -6 -29 l-111 -63q-19 -9 -28 0l-394 321q-10 7 -10 25zM469 801q0 -278 59 -381q58 -101 240 -101t240 101q59 103 59 381q0 280 -59 383q-58 102 -240 102t-240 -102q-59 -103 -59 -383z" />
<glyph unicode="&#xd3;" horiz-adv-x="1538" d="M86 801q0 248 31.5 397t109.5 244q80 96 206 135t335 39q400 0 541 -172q143 -168 143 -643q0 -249 -31.5 -397t-111.5 -242q-78 -94 -204.5 -133t-336.5 -39q-397 0 -541 170q-141 170 -141 641zM469 801q0 -278 59 -381q58 -101 240 -101t240 101q59 103 59 381 q0 280 -59 383q-58 102 -240 102t-240 -102q-59 -103 -59 -383zM627 1778l149 276q6 12 25 12h356q21 0 21 -20v-14q0 -14 -11 -25l-393 -321q-10 -10 -29 0l-112 63q-16 9 -6 29z" />
<glyph unicode="&#xd4;" horiz-adv-x="1538" d="M86 801q0 248 31.5 397t109.5 244q80 96 206 135t335 39q400 0 541 -172q143 -168 143 -643q0 -249 -31.5 -397t-111.5 -242q-78 -94 -204.5 -133t-336.5 -39q-397 0 -541 170q-141 170 -141 641zM412 1761l202 287q15 18 45 18h218q34 0 43 -18l204 -287q20 -20 -8 -35 l-78 -38q-22 -15 -37 0l-233 155l-233 -155q-16 -13 -39 0l-78 38q-26 15 -6 35zM469 801q0 -278 59 -381q58 -101 240 -101t240 101q59 103 59 381q0 280 -59 383q-58 102 -240 102t-240 -102q-59 -103 -59 -383z" />
<glyph unicode="&#xd5;" horiz-adv-x="1538" d="M86 801q0 248 31.5 397t109.5 244q80 96 206 135t335 39q400 0 541 -172q143 -168 143 -643q0 -249 -31.5 -397t-111.5 -242q-78 -94 -204.5 -133t-336.5 -39q-397 0 -541 170q-141 170 -141 641zM377 1780q35 147 83 201.5t142 54.5q59 0 168 -41q104 -39 133 -39 q56 0 90 67q9 28 37 19l109 -29q26 -9 20 -41q-35 -148 -83 -202t-144 -54q-66 0 -170 39q-106 41 -129 41q-60 0 -90 -67q-12 -30 -37 -21l-109 31q-29 10 -20 41zM469 801q0 -278 59 -381q58 -101 240 -101t240 101q59 103 59 381q0 280 -59 383q-58 102 -240 102 t-240 -102q-59 -103 -59 -383z" />
<glyph unicode="&#xd6;" horiz-adv-x="1538" d="M86 801q0 248 31.5 397t109.5 244q80 96 206 135t335 39q400 0 541 -172q143 -168 143 -643q0 -249 -31.5 -397t-111.5 -242q-78 -94 -204.5 -133t-336.5 -39q-397 0 -541 170q-141 170 -141 641zM348 1874q0 76 45.5 119t130.5 43q84 0 129 -43t45 -119q0 -80 -44 -123 t-130 -43t-131 43t-45 123zM469 801q0 -278 59 -381q58 -101 240 -101t240 101q59 103 59 381q0 280 -59 383q-58 102 -240 102t-240 -102q-59 -103 -59 -383zM838 1874q0 76 45.5 119t130.5 43q84 0 128 -43t44 -119q0 -80 -44 -123t-128 -43q-176 0 -176 166z" />
<glyph unicode="&#xd7;" horiz-adv-x="1173" d="M70 377q-22 21 2 45l278 274l-272 275q-19 22 0 45l205 205q23 19 45 0l270 -275l274 279q23 23 46 0l184 -185q22 -22 -2 -45l-277 -274l275 -270q22 -23 0 -45l-207 -205q-23 -19 -45 0l-273 268l-274 -274q-23 -23 -45 -2z" />
<glyph unicode="&#xd8;" horiz-adv-x="1538" d="M86 801q0 248 31.5 397t109.5 244q80 96 206 135t335 39q283 0 428 -80l59 86q22 29 43 8l70 -47q24 -15 6 -43l-67 -94q145 -171 145 -645q0 -249 -31.5 -397t-111.5 -242q-78 -94 -204.5 -133t-336.5 -39q-279 0 -426 78l-63 -91q-19 -28 -41 -6l-70 49q-23 14 -8 41 l69 97q-143 168 -143 643zM469 801q0 -181 20 -271l486 695q-61 61 -207 61q-182 0 -240 -102q-59 -103 -59 -383zM561 381q65 -62 207 -62q182 0 240 101q59 103 59 381q0 193 -20 272z" />
<glyph unicode="&#xd9;" horiz-adv-x="1574" d="M121 801v772q0 31 31 31h317q31 0 31 -31v-772q0 -293 57 -385q60 -97 231 -97q170 0 230 97q57 92 57 385v772q0 31 31 31h317q31 0 31 -31v-772q0 -261 -29 -408t-106 -241q-76 -91 -197 -126.5t-334 -35.5t-334.5 35.5t-199.5 126.5q-76 94 -104.5 241t-28.5 408z M375 2032v14q0 20 20 20h357q18 0 24 -12l150 -276q10 -20 -6 -29l-113 -63q-19 -10 -29 0l-393 321q-10 10 -10 25z" />
<glyph unicode="&#xda;" horiz-adv-x="1574" d="M121 801v772q0 31 31 31h317q31 0 31 -31v-772q0 -293 57 -385q60 -97 231 -97q170 0 230 97q57 92 57 385v772q0 31 31 31h317q31 0 31 -31v-772q0 -261 -29 -408t-106 -241q-76 -91 -197 -126.5t-334 -35.5t-334.5 35.5t-199.5 126.5q-76 94 -104.5 241t-28.5 408z M596 1778l149 276q6 12 25 12h354q21 0 21 -20v-14q0 -15 -10 -25l-394 -321q-9 -9 -28 0l-111 63q-16 9 -6 29z" />
<glyph unicode="&#xdb;" horiz-adv-x="1574" d="M121 801v772q0 31 31 31h317q31 0 31 -31v-772q0 -293 57 -385q60 -97 231 -97q170 0 230 97q57 92 57 385v772q0 31 31 31h317q31 0 31 -31v-772q0 -261 -29 -408t-106 -241q-76 -91 -197 -126.5t-334 -35.5t-334.5 35.5t-199.5 126.5q-76 94 -104.5 241t-28.5 408z M430 1761l205 287q15 18 43 18h217q30 0 45 -18l205 -287q20 -23 -8 -35l-78 -38q-23 -13 -39 0l-232 155l-233 -155q-18 -15 -39 0l-78 38q-28 15 -8 35z" />
<glyph unicode="&#xdc;" horiz-adv-x="1574" d="M121 801v772q0 31 31 31h317q31 0 31 -31v-772q0 -293 57 -385q60 -97 231 -97q170 0 230 97q57 92 57 385v772q0 31 31 31h317q31 0 31 -31v-772q0 -261 -29 -408t-106 -241q-76 -91 -197 -126.5t-334 -35.5t-334.5 35.5t-199.5 126.5q-76 94 -104.5 241t-28.5 408z M369 1874q0 76 45.5 119t130.5 43q84 0 128 -43t44 -119q0 -80 -44 -123t-128 -43q-176 0 -176 166zM856 1874q0 76 45.5 119t130.5 43q84 0 129 -43t45 -119q0 -80 -45 -123t-129 -43q-86 0 -131 43t-45 123z" />
<glyph unicode="&#xdd;" horiz-adv-x="1517" d="M2 1559q-23 45 23 45h356q32 0 55 -33l324 -672l325 672q14 33 56 33h354q46 0 23 -45l-570 -1031v-493q0 -35 -30 -35h-318q-31 0 -31 35v497zM612 1778l150 276q6 12 24 12h357q20 0 20 -20v-14q0 -15 -10 -25l-393 -321q-10 -10 -29 0l-113 63q-16 9 -6 29z" />
<glyph unicode="&#xde;" horiz-adv-x="1406" d="M135 39v1536q0 33 31 33h317q31 0 31 -33v-236q114 9 248 9q335 0 463 -119q131 -119 131 -422t-131 -422q-129 -117 -463 -117q-122 0 -248 6v-235q0 -35 -31 -35h-317q-31 0 -31 35zM514 590h209q147 0 199 43q51 45 51 172q0 125 -53 172t-197 47h-209v-434z" />
<glyph unicode="&#xdf;" horiz-adv-x="1329" d="M111 31v1118q0 236 120 350q120 117 431 117q299 0 431 -102.5t132 -342.5q0 -179 -56.5 -261t-195.5 -105v-6q158 -13 222.5 -97.5t64.5 -269.5q0 -245 -132 -344q-128 -98 -444 -98q-54 0 -109 6q-32 3 -26 35l51 262q3 26 21 26h45q119 5 166 41.5t47 128.5 q0 99 -53 141t-177 42h-47q-31 0 -31 30v203q0 31 35 31h43q102 2 148.5 41t46.5 131q0 97 -43.5 137.5t-141.5 40.5q-91 0 -131.5 -42t-40.5 -138v-1075q0 -31 -30 -31h-316q-30 0 -30 31z" />
<glyph unicode="&#xe0;" horiz-adv-x="1183" d="M51 356q3 208 107 275q103 69 340 69l225 2v41q0 121 -156 121h-401q-27 0 -27 31v209q0 27 27 33q167 34 401 34q95 0 170 -9.5t128.5 -25.5t92.5 -42t62.5 -54.5t37 -68.5t18.5 -78.5t5 -89.5v-705q0 -53 -49 -65q-209 -43 -471 -43q-113 0 -180 6q-62 3 -137 22 q-99 31 -141.5 105.5t-51.5 232.5zM186 1622v14q0 21 21 21h356q19 0 25 -12l149 -277q10 -20 -6 -29l-113 -63q-16 -9 -28 0l-393 321q-11 11 -11 25zM403 381q0 -61 30.5 -83t115.5 -22q97 0 174 17v194h-191q-72 0 -100.5 -24t-28.5 -82z" />
<glyph unicode="&#xe1;" horiz-adv-x="1183" d="M51 356q3 208 107 275q103 69 340 69l225 2v41q0 121 -156 121h-401q-27 0 -27 31v209q0 27 27 33q167 34 401 34q95 0 170 -9.5t128.5 -25.5t92.5 -42t62.5 -54.5t37 -68.5t18.5 -78.5t5 -89.5v-705q0 -53 -49 -65q-209 -43 -471 -43q-113 0 -180 6q-62 3 -137 22 q-99 31 -141.5 105.5t-51.5 232.5zM385 1368l150 277q6 12 24 12h356q21 0 21 -21v-14q0 -15 -10 -25l-394 -321q-9 -9 -28 0l-113 63q-16 9 -6 29zM403 381q0 -61 30.5 -83t115.5 -22q97 0 174 17v194h-191q-72 0 -100.5 -24t-28.5 -82z" />
<glyph unicode="&#xe2;" horiz-adv-x="1183" d="M51 356q3 208 107 275q103 69 340 69l225 2v41q0 121 -156 121h-401q-27 0 -27 31v209q0 27 27 33q167 34 401 34q95 0 170 -9.5t128.5 -25.5t92.5 -42t62.5 -54.5t37 -68.5t18.5 -78.5t5 -89.5v-705q0 -53 -49 -65q-209 -43 -471 -43q-113 0 -180 6q-62 3 -137 22 q-99 31 -141.5 105.5t-51.5 232.5zM231 1352l205 286q16 19 45 19h217q27 0 43 -19l205 -286q20 -23 -8 -35l-78 -39q-21 -15 -39 0l-231 156l-234 -156q-16 -13 -39 0l-77 39q-28 13 -9 35zM403 381q0 -61 30.5 -83t115.5 -22q97 0 174 17v194h-191q-72 0 -100.5 -24 t-28.5 -82z" />
<glyph unicode="&#xe3;" horiz-adv-x="1183" d="M51 356q3 208 107 275q103 69 340 69l225 2v41q0 121 -156 121h-401q-27 0 -27 31v209q0 27 27 33q167 34 401 34q95 0 170 -9.5t128.5 -25.5t92.5 -42t62.5 -54.5t37 -68.5t18.5 -78.5t5 -89.5v-705q0 -53 -49 -65q-209 -43 -471 -43q-113 0 -180 6q-62 3 -137 22 q-99 31 -141.5 105.5t-51.5 232.5zM197 1370q38 151 84 203q47 53 143 53q59 0 168 -41q104 -39 133 -39q32 0 51.5 15t36.5 53q15 27 39 18l109 -28q26 -9 20 -41q-35 -148 -83 -202t-144 -54q-64 0 -168 39q-107 40 -133 40q-32 0 -51.5 -14.5t-36.5 -52.5 q-17 -30 -37 -21l-109 31q-28 9 -22 41zM403 381q0 -61 30.5 -83t115.5 -22q97 0 174 17v194h-191q-72 0 -100.5 -24t-28.5 -82z" />
<glyph unicode="&#xe4;" horiz-adv-x="1183" d="M51 356q3 208 107 275q103 69 340 69l225 2v41q0 121 -156 121h-401q-27 0 -27 31v209q0 27 27 33q167 34 401 34q95 0 170 -9.5t128.5 -25.5t92.5 -42t62.5 -54.5t37 -68.5t18.5 -78.5t5 -89.5v-705q0 -53 -49 -65q-209 -43 -471 -43q-113 0 -180 6q-62 3 -137 22 q-99 31 -141.5 105.5t-51.5 232.5zM170 1464q0 76 45.5 119t130.5 43q84 0 129 -43t45 -119q0 -80 -45 -123t-129 -43q-86 0 -131 43t-45 123zM403 381q0 -61 30.5 -83t115.5 -22q97 0 174 17v194h-191q-72 0 -100.5 -24t-28.5 -82zM659 1464q0 76 45.5 119t129.5 43 t129 -43t45 -119q0 -80 -44 -123t-130 -43t-130.5 43t-44.5 123z" />
<glyph unicode="&#xe5;" horiz-adv-x="1183" d="M51 356q3 208 107 275q103 69 340 69l225 2v41q0 121 -156 121h-401q-27 0 -27 31v209q0 27 27 33q167 34 401 34q95 0 170 -9.5t128.5 -25.5t92.5 -42t62.5 -54.5t37 -68.5t18.5 -78.5t5 -89.5v-705q0 -53 -49 -65q-209 -43 -471 -43q-113 0 -180 6q-62 3 -137 22 q-99 31 -141.5 105.5t-51.5 232.5zM340 1503q0 240 250 240t250 -240q0 -241 -250 -241t-250 241zM403 381q0 -61 30.5 -83t115.5 -22q97 0 174 17v194h-191q-72 0 -100.5 -24t-28.5 -82zM463 1503q0 -127 127 -127t127 127t-127 127t-127 -127z" />
<glyph unicode="&#xe6;" horiz-adv-x="1849" d="M51 356q3 208 107 275q103 69 340 69l225 2v41q0 121 -156 121h-401q-17 0 -23 6t-6 25v209q0 18 5 23t24 10q164 34 401 34q234 0 353 -88q125 88 344 88q315 0 419 -116q107 -116 107 -469v-64q0 -32 -13 -43.5t-48 -11.5h-639q3 -109 43 -139q45 -31 170 -31h376 q31 0 31 -31v-209q0 -28 -29 -34q-146 -33 -417 -33q-96 0 -193 20q-102 21 -158 56q-143 -76 -352 -76q-113 0 -180 6q-62 3 -137 22q-99 31 -141.5 105.5t-51.5 232.5zM403 381q0 -62 31.5 -86.5t112.5 -24.5q138 0 219 37q-29 82 -29 180h-205q-72 0 -100.5 -24 t-28.5 -82zM1087 684h345q-1 102 -38.5 141t-129.5 39q-96 0 -136.5 -39.5t-40.5 -140.5z" />
<glyph unicode="&#xe7;" horiz-adv-x="1067" d="M78 582q0 150 13.5 243.5t45.5 165.5q53 104 158 139.5t326 40.5q226 0 348 -32q35 -9 35 -43v-199q0 -33 -37 -33h-346q-115 0 -152 -55q-35 -56 -35 -227t35 -230q37 -55 152 -55h346q37 0 37 -33v-198q0 -34 -35 -43q-112 -28 -267 -31q35 -116 35 -205 q0 -160 -229 -160q-136 0 -182 17q-25 9 -25 37v151q0 27 27 27h73q57 0 84 6q22 4 29.5 13.5t7.5 29.5q0 45 -8 84q-266 15 -352 135q-84 122 -84 455z" />
<glyph unicode="&#xe8;" horiz-adv-x="1200" d="M76 580q0 356 108 473q106 118 430 118q316 0 420 -116q107 -116 107 -469v-64q0 -32 -13 -43.5t-49 -11.5h-639q3 -109 43 -139q45 -31 170 -31h377q31 0 31 -31v-209q0 -28 -29 -34q-146 -33 -418 -33q-323 0 -430 116q-108 120 -108 474zM195 1622v14q0 21 20 21h354 q19 0 25 -12l149 -277q10 -20 -6 -29l-110 -63q-19 -10 -29 0l-393 321q-10 10 -10 25zM438 684h344q0 102 -37.5 141t-130.5 39q-96 0 -136 -39.5t-40 -140.5z" />
<glyph unicode="&#xe9;" horiz-adv-x="1200" d="M76 580q0 356 108 473q106 118 430 118q316 0 420 -116q107 -116 107 -469v-64q0 -32 -13 -43.5t-49 -11.5h-639q3 -109 43 -139q45 -31 170 -31h377q31 0 31 -31v-209q0 -28 -29 -34q-146 -33 -418 -33q-323 0 -430 116q-108 120 -108 474zM432 1368l150 277q6 12 24 12 h355q20 0 20 -21v-14q0 -15 -10 -25l-393 -321q-10 -10 -29 0l-111 63q-16 9 -6 29zM438 684h344q0 102 -37.5 141t-130.5 39q-96 0 -136 -39.5t-40 -140.5z" />
<glyph unicode="&#xea;" horiz-adv-x="1200" d="M76 580q0 356 108 473q106 118 430 118q316 0 420 -116q107 -116 107 -469v-64q0 -32 -13 -43.5t-49 -11.5h-639q3 -109 43 -139q45 -31 170 -31h377q31 0 31 -31v-209q0 -28 -29 -34q-146 -33 -418 -33q-323 0 -430 116q-108 120 -108 474zM256 1352l205 286 q16 19 45 19h217q27 0 43 -19l205 -286q20 -23 -8 -35l-78 -39q-21 -15 -39 0l-232 156l-233 -156q-16 -13 -39 0l-78 39q-28 12 -8 35zM438 684h344q0 102 -37.5 141t-130.5 39q-96 0 -136 -39.5t-40 -140.5z" />
<glyph unicode="&#xeb;" horiz-adv-x="1200" d="M76 580q0 356 108 473q106 118 430 118q316 0 420 -116q107 -116 107 -469v-64q0 -32 -13 -43.5t-49 -11.5h-639q3 -109 43 -139q45 -31 170 -31h377q31 0 31 -31v-209q0 -28 -29 -34q-146 -33 -418 -33q-323 0 -430 116q-108 120 -108 474zM195 1464q0 76 45.5 119 t130.5 43q84 0 129 -43t45 -119q0 -80 -45 -123t-129 -43q-86 0 -131 43t-45 123zM438 684h344q0 102 -37.5 141t-130.5 39q-96 0 -136 -39.5t-40 -140.5zM684 1464q0 76 45 119t129 43t129 -43t45 -119q0 -80 -44 -123t-130 -43t-130 43t-44 123z" />
<glyph unicode="&#xec;" horiz-adv-x="579" d="M-90 1622v14q0 21 20 21h357q18 0 24 -12l150 -277q10 -20 -6 -29l-113 -63q-19 -10 -29 0l-393 321q-10 10 -10 25zM111 33v1095q0 33 30 33h297q31 0 31 -33v-1095q0 -33 -31 -33h-297q-30 0 -30 33z" />
<glyph unicode="&#xed;" horiz-adv-x="577" d="M111 33v1095q0 33 30 33h295q31 0 31 -33v-1095q0 -33 -31 -33h-295q-30 0 -30 33zM133 1368l150 277q6 12 24 12h357q20 0 20 -21v-14q0 -15 -10 -25l-393 -321q-13 -10 -29 0l-113 63q-16 9 -6 29z" />
<glyph unicode="&#xee;" horiz-adv-x="577" d="M-68 1352l205 286q16 19 43 19h217q29 0 45 -19l205 -286q20 -23 -8 -35l-78 -39q-23 -13 -39 0l-231 156l-234 -156q-16 -13 -39 0l-77 39q-28 13 -9 35zM111 33v1095q0 33 30 33h295q31 0 31 -33v-1095q0 -33 -31 -33h-295q-30 0 -30 33z" />
<glyph unicode="&#xef;" horiz-adv-x="577" d="M-131 1464q0 76 45.5 119t130.5 43q84 0 129 -43t45 -119q0 -80 -45 -123t-129 -43q-86 0 -131 43t-45 123zM111 33v1095q0 33 30 33h295q31 0 31 -33v-1095q0 -33 -31 -33h-295q-30 0 -30 33zM358 1464q0 76 45 119t129 43t129.5 -43t45.5 -119q0 -80 -44.5 -123 t-130.5 -43t-130 43t-44 123z" />
<glyph unicode="&#xf0;" horiz-adv-x="1230" d="M66 524q3 306 96 406q95 102 379 102q49 0 92 -6l-160 264l-172 -59q-30 -12 -39 18l-20 54q-10 29 18 38l150 54l-103 170q-10 17 -4 27t25 10l315 2q25 0 37 -21l45 -76l152 56q29 12 38 -19l21 -53q10 -30 -18 -39l-132 -47l316 -535q55 -88 55 -346q0 -320 -108 -428 q-106 -106 -437 -106q-176 0 -275.5 23.5t-160.5 84.5q-62 62 -86 159t-24 267zM426 524q0 -133 35 -180q38 -47 151 -47q112 0 150 47q37 46 37 180q0 135 -37 181q-38 47 -150 47q-113 0 -151 -47q-35 -47 -35 -181z" />
<glyph unicode="&#xf1;" horiz-adv-x="1265" d="M109 33v1071q0 12 4 18.5t8.5 8.5t15.5 4q144 36 525 36q164 0 253.5 -20.5t147.5 -75.5t79 -145t21 -256v-641q0 -33 -30 -33h-297q-29 0 -29 33v530q0 129 -5 176t-28 80q-23 32 -52.5 38.5t-115.5 6.5h-137v-831q0 -33 -31 -33h-301q-28 0 -28 33zM238 1370 q37 148 85 202t142 54q59 0 168 -41q104 -39 133 -39q55 0 90 68q9 27 37 18l108 -28q27 -9 21 -41q-35 -148 -83 -202t-144 -54q-64 0 -168 39q-107 40 -131 40q-60 0 -90 -67q-12 -30 -37 -21l-109 31q-28 9 -22 41z" />
<glyph unicode="&#xf2;" horiz-adv-x="1241" d="M76 580q0 358 106 473q106 118 439 118q330 0 436 -118q108 -117 108 -473q0 -357 -108 -474q-107 -116 -436 -116q-332 0 -439 116q-106 115 -106 474zM188 1622v14q0 21 21 21h356q19 0 25 -12l149 -277q10 -20 -6 -29l-112 -63q-19 -10 -29 0l-393 321q-11 11 -11 25z M434 580q0 -172 35 -228q37 -55 152 -55t149 55q37 55 37 228q0 171 -37 229q-34 55 -149 55t-152 -57q-35 -56 -35 -227z" />
<glyph unicode="&#xf3;" horiz-adv-x="1241" d="M76 580q0 358 106 473q106 118 439 118q330 0 436 -118q108 -117 108 -473q0 -357 -108 -474q-107 -116 -436 -116q-332 0 -439 116q-106 115 -106 474zM434 580q0 -172 35 -228q37 -55 152 -55t149 55q37 55 37 228q0 171 -37 229q-34 55 -149 55t-152 -57 q-35 -56 -35 -227zM467 1368l149 277q6 12 25 12h354q21 0 21 -21v-14q0 -18 -10 -25l-394 -321q-9 -9 -28 0l-111 63q-16 9 -6 29z" />
<glyph unicode="&#xf4;" horiz-adv-x="1241" d="M76 580q0 358 106 473q106 118 439 118q330 0 436 -118q108 -117 108 -473q0 -357 -108 -474q-107 -116 -436 -116q-332 0 -439 116q-106 115 -106 474zM264 1352l203 286q16 19 45 19h217q29 0 45 -19l203 -286q20 -20 -6 -35l-78 -39q-23 -13 -39 0l-233 156l-234 -156 q-15 -15 -37 0l-78 39q-31 12 -8 35zM434 580q0 -172 35 -228q37 -55 152 -55t149 55q37 55 37 228q0 171 -37 229q-34 55 -149 55t-152 -57q-35 -56 -35 -227z" />
<glyph unicode="&#xf5;" horiz-adv-x="1241" d="M76 580q0 358 106 473q106 118 439 118q330 0 436 -118q108 -117 108 -473q0 -357 -108 -474q-107 -116 -436 -116q-332 0 -439 116q-106 115 -106 474zM229 1370q35 148 83 202t145 54q60 0 166 -41q104 -39 133 -39q60 0 90 68q9 27 37 18l108 -28q29 -10 21 -41 q-35 -147 -83.5 -201.5t-142.5 -54.5q-66 0 -170 39q-104 40 -131 40q-60 0 -90 -67q-12 -30 -37 -21l-108 31q-27 9 -21 41zM434 580q0 -172 35 -228q37 -55 152 -55t149 55q37 55 37 228q0 171 -37 229q-34 55 -149 55t-152 -57q-35 -56 -35 -227z" />
<glyph unicode="&#xf6;" horiz-adv-x="1241" d="M76 580q0 358 106 473q106 118 439 118q330 0 436 -118q108 -117 108 -473q0 -357 -108 -474q-107 -116 -436 -116q-332 0 -439 116q-106 115 -106 474zM201 1464q0 76 45.5 119t130.5 43q84 0 129 -43t45 -119q0 -80 -44 -123t-130 -43t-131 43t-45 123zM434 580 q0 -172 35 -228q37 -55 152 -55t149 55q37 55 37 228q0 171 -37 229q-34 55 -149 55t-152 -57q-35 -56 -35 -227zM690 1464q0 76 45.5 119t130.5 43q84 0 129 -43t45 -119q0 -80 -45 -123t-129 -43q-86 0 -131 43t-45 123z" />
<glyph unicode="&#xf7;" horiz-adv-x="1179" d="M55 535v268q0 31 33 31h1004q32 0 32 -31v-268q0 -31 -32 -31h-1004q-33 0 -33 31zM383 221q0 88 55 137.5t154 49.5q97 0 151 -49.5t54 -137.5t-54.5 -138t-150.5 -50q-100 0 -154.5 49t-54.5 139zM383 1116q0 88 55 137.5t154 49.5q97 0 151 -49.5t54 -137.5 t-54.5 -138t-150.5 -50q-100 0 -154.5 49t-54.5 139z" />
<glyph unicode="&#xf8;" horiz-adv-x="1241" d="M76 580q0 358 106 473q106 118 439 118q192 0 301 -34l49 71q23 29 43 9l69 -48q25 -16 7 -43l-43 -61q65 -62 91.5 -175.5t26.5 -309.5q0 -357 -108 -474q-107 -116 -436 -116q-200 0 -304 37l-53 -76q-19 -28 -41 -6l-69 49q-24 15 -9 41l48 65q-62 62 -89.5 175.5 t-27.5 304.5zM434 580q0 -76 6 -125l279 395q-32 14 -98 14q-115 0 -152 -57q-35 -56 -35 -227zM518 313q37 -16 103 -16q115 0 149 55q37 55 37 228q0 92 -8 133z" />
<glyph unicode="&#xf9;" horiz-adv-x="1265" d="M102 489v639q0 33 33 33h295q31 0 31 -33v-530q-5 -193 31 -258q23 -27 60 -36t110 -7h137v831q0 33 30 33h299q29 0 29 -33v-1067q0 -18 -5 -23.5t-24 -10.5q-191 -37 -522 -37q-165 0 -255 20.5t-148 75.5t-79.5 146t-21.5 257zM227 1622v14q0 21 21 21h356 q19 0 25 -12l149 -277q10 -20 -6 -29l-113 -63q-16 -9 -28 0l-393 321q-11 11 -11 25z" />
<glyph unicode="&#xfa;" horiz-adv-x="1265" d="M102 489v639q0 33 33 33h295q31 0 31 -33v-530q-5 -193 31 -258q23 -27 60 -36t110 -7h137v831q0 33 30 33h299q29 0 29 -33v-1067q0 -18 -5 -23.5t-24 -10.5q-191 -37 -522 -37q-165 0 -255 20.5t-148 75.5t-79.5 146t-21.5 257zM428 1368l150 277q6 12 24 12h356 q21 0 21 -21v-14q0 -15 -10 -25l-394 -321q-9 -9 -28 0l-113 63q-16 9 -6 29z" />
<glyph unicode="&#xfb;" horiz-adv-x="1265" d="M102 489v639q0 33 33 33h295q31 0 31 -33v-530q-5 -193 31 -258q23 -27 60 -36t110 -7h137v831q0 33 30 33h299q29 0 29 -33v-1067q0 -18 -5 -23.5t-24 -10.5q-191 -37 -522 -37q-165 0 -255 20.5t-148 75.5t-79.5 146t-21.5 257zM272 1352l205 286q16 19 45 19h217 q33 0 43 -19l205 -286q20 -20 -8 -35l-78 -39q-21 -15 -39 0l-231 156l-234 -156q-16 -13 -39 0l-77 39q-28 13 -9 35z" />
<glyph unicode="&#xfc;" horiz-adv-x="1265" d="M102 489v639q0 33 33 33h295q31 0 31 -33v-530q-5 -193 31 -258q23 -27 60 -36t110 -7h137v831q0 33 30 33h299q29 0 29 -33v-1067q0 -18 -5 -23.5t-24 -10.5q-191 -37 -522 -37q-165 0 -255 20.5t-148 75.5t-79.5 146t-21.5 257zM186 1464q0 76 45.5 119t130.5 43 q84 0 129.5 -43t45.5 -119q0 -80 -44.5 -123t-130.5 -43t-131 43t-45 123zM676 1464q0 76 45.5 119t130.5 43q84 0 128 -43t44 -119q0 -80 -44 -123t-128 -43q-176 0 -176 166z" />
<glyph unicode="&#xfd;" horiz-adv-x="1298" d="M100 502v628q0 31 31 31h297q31 0 31 -31v-548q0 -178 43 -230q47 -53 182 -53q88 0 147 12v819q0 31 31 31h295q31 0 31 -31v-1144q0 -93 -10 -148t-39 -108q-41 -80 -152.5 -119t-314.5 -39q-265 0 -424 33q-27 6 -27 33v190q0 31 29 31h385q117 0 156.5 29t39.5 114 v14q-110 -26 -241 -26q-271 0 -381 119q-109 121 -109 393zM479 1368l150 277q6 12 24 12h357q20 0 20 -21v-14q0 -15 -10 -25l-393 -321q-10 -10 -29 0l-113 63q-16 9 -6 29z" />
<glyph unicode="&#xfe;" horiz-adv-x="1257" d="M111 -385v1956q0 33 30 33h297q31 0 31 -33v-412q123 12 242 12q273 0 370 -124q101 -125 101 -467q0 -187 -23.5 -293t-87.5 -176q-61 -67 -164.5 -94t-281.5 -27q-73 0 -156 6v-381q0 -31 -31 -31h-297q-30 0 -30 31zM469 311q66 -14 162 -14q131 0 160 57 q32 54 32 226q0 179 -37 231q-34 51 -170 51h-147v-551z" />
<glyph unicode="&#xff;" horiz-adv-x="1298" d="M100 502v628q0 31 31 31h297q31 0 31 -31v-548q0 -178 43 -230q47 -53 182 -53q88 0 147 12v819q0 31 31 31h295q31 0 31 -31v-1144q0 -93 -10 -148t-39 -108q-41 -80 -152.5 -119t-314.5 -39q-265 0 -424 33q-27 6 -27 33v190q0 31 29 31h385q117 0 156.5 29t39.5 114 v14q-110 -26 -241 -26q-271 0 -381 119q-109 121 -109 393zM219 1464q0 76 45.5 119t130.5 43q84 0 128 -43t44 -119q0 -80 -44 -123t-128 -43q-176 0 -176 166zM707 1464q0 76 45.5 119t130.5 43q84 0 129 -43t45 -119q0 -80 -44 -123t-130 -43t-131 43t-45 123z" />
<glyph unicode="&#x100;" horiz-adv-x="1488" d="M6 33l367 1335q45 166 108 207q62 41 262 41q203 0 265 -41q63 -41 108 -207l365 -1335q6 -33 -27 -33h-313q-20 0 -29 33l-111 413h-514l-114 -413q-9 -33 -27 -33h-313q-33 0 -27 33zM399 1782v145q0 31 31 31h627q30 0 30 -31v-145q0 -31 -30 -31h-627q-31 0 -31 31z M571 756h347l-140 512q-6 21 -12.5 26.5t-24.5 5.5q-16 0 -21 -5t-11 -27z" />
<glyph unicode="&#x101;" horiz-adv-x="1183" d="M51 356q3 208 107 275q103 69 340 69l225 2v41q0 121 -156 121h-401q-27 0 -27 31v209q0 27 27 33q167 34 401 34q95 0 170 -9.5t128.5 -25.5t92.5 -42t62.5 -54.5t37 -68.5t18.5 -78.5t5 -89.5v-705q0 -53 -49 -65q-209 -43 -471 -43q-113 0 -180 6q-62 3 -137 22 q-99 31 -141.5 105.5t-51.5 232.5zM246 1372v146q0 30 30 30h627q31 0 31 -30v-146q0 -31 -31 -31h-627q-30 0 -30 31zM403 381q0 -61 30.5 -83t115.5 -22q97 0 174 17v194h-191q-72 0 -100.5 -24t-28.5 -82z" />
<glyph unicode="&#x102;" horiz-adv-x="1488" d="M6 33l367 1335q45 166 108 207q62 41 262 41q203 0 265 -41q63 -41 108 -207l365 -1335q6 -33 -27 -33h-313q-20 0 -29 33l-111 413h-514l-114 -413q-9 -33 -27 -33h-313q-33 0 -27 33zM365 2005q-6 33 28 33h146q25 0 34 -25q23 -55 61.5 -76.5t108.5 -21.5t107.5 21.5 t60.5 76.5q9 25 35 25h148q34 0 28 -31q-20 -164 -105 -229.5t-274 -65.5q-191 0 -274.5 64.5t-103.5 228.5zM571 756h347l-140 512q-6 21 -12.5 26.5t-24.5 5.5q-16 0 -21 -5t-11 -27z" />
<glyph unicode="&#x103;" horiz-adv-x="1183" d="M51 356q3 208 107 275q103 69 340 69l225 2v41q0 121 -156 121h-401q-27 0 -27 31v209q0 27 27 33q167 34 401 34q95 0 170 -9.5t128.5 -25.5t92.5 -42t62.5 -54.5t37 -68.5t18.5 -78.5t5 -89.5v-705q0 -53 -49 -65q-209 -43 -471 -43q-113 0 -180 6q-62 3 -137 22 q-99 31 -141.5 105.5t-51.5 232.5zM211 1595q-6 33 29 33h145q26 0 35 -24q23 -55 61.5 -77t108.5 -22q69 0 107 22t63 77q9 24 35 24h145q35 0 29 -31q-20 -164 -104.5 -229t-274.5 -65q-191 0 -275 64t-104 228zM403 381q0 -61 30.5 -83t115.5 -22q97 0 174 17v194h-191 q-72 0 -100.5 -24t-28.5 -82z" />
<glyph unicode="&#x104;" horiz-adv-x="1488" d="M6 33l367 1335q45 166 108 207q62 41 262 41q203 0 265 -41q63 -41 108 -207l365 -1335q6 -33 -27 -33h-166q-10 -68 -10 -92q0 -19 7.5 -29t27.5 -14q31 -6 88 -6h72q26 0 26 -27v-151q0 -28 -24 -37q-46 -17 -183 -17q-229 0 -229 160q0 113 51 244l-113 415h-514 l-114 -413q-9 -33 -27 -33h-313q-33 0 -27 33zM571 756h347l-140 512q-6 21 -12.5 26.5t-24.5 5.5q-16 0 -21 -5t-11 -27z" />
<glyph unicode="&#x105;" horiz-adv-x="1183" d="M51 356q3 208 107 275q103 69 340 69l225 2v41q0 121 -156 121h-401q-27 0 -27 31v209q0 27 27 33q167 34 401 34q95 0 170 -9.5t128.5 -25.5t92.5 -42t62.5 -54.5t37 -68.5t18.5 -78.5t5 -89.5v-705q0 -53 -49 -65q-12 -2 -40 -7t-59 -10.5t-63 -9.5q-10 -55 -10 -98 q0 -19 7.5 -29t27.5 -14q31 -6 88 -6h72q26 0 26 -27v-151q0 -28 -24 -37q-46 -17 -183 -17q-229 0 -229 160q0 80 35 205q-31 -2 -119 -2q-113 0 -180 6q-62 3 -137 22q-99 31 -141.5 105.5t-51.5 232.5zM403 381q0 -61 30.5 -83t115.5 -22q97 0 174 17v194h-191 q-72 0 -100.5 -24t-28.5 -82z" />
<glyph unicode="&#x106;" horiz-adv-x="1294" d="M86 805q0 475 137 643t539 168q253 0 414 -37q30 -8 41.5 -21t11.5 -42v-199q0 -31 -31 -31h-436q-180 0 -238 -98q-55 -98 -55 -383q0 -284 55 -385q58 -101 238 -101h436q31 0 31 -30v-199q0 -51 -53 -63q-148 -37 -414 -37q-209 0 -335 38.5t-204 133.5 q-76 96 -106.5 244t-30.5 399zM512 1778l150 276q6 12 24 12h354q21 0 21 -20v-14q0 -15 -10 -25l-394 -321q-9 -9 -28 0l-111 63q-16 9 -6 29z" />
<glyph unicode="&#x107;" horiz-adv-x="1067" d="M78 582q0 150 13.5 243.5t45.5 165.5q53 104 158 139.5t326 40.5q226 0 348 -32q35 -9 35 -43v-199q0 -33 -37 -33h-346q-115 0 -152 -55q-35 -56 -35 -227t35 -230q37 -55 152 -55h346q37 0 37 -33v-198q0 -34 -35 -43q-126 -33 -348 -33q-182 0 -281.5 26t-159.5 93 q-59 70 -80.5 174.5t-21.5 298.5zM375 1368l149 277q6 12 25 12h356q21 0 21 -21v-14q0 -14 -11 -25l-393 -321q-9 -9 -28 0l-113 63q-16 9 -6 29z" />
<glyph unicode="&#x108;" horiz-adv-x="1294" d="M86 805q0 475 137 643t539 168q253 0 414 -37q30 -8 41.5 -21t11.5 -42v-199q0 -31 -31 -31h-436q-180 0 -238 -98q-55 -98 -55 -383q0 -284 55 -385q58 -101 238 -101h436q31 0 31 -30v-199q0 -51 -53 -63q-148 -37 -414 -37q-209 0 -335 38.5t-204 133.5 q-76 96 -106.5 244t-30.5 399zM371 1761l204 287q9 18 43 18h218q30 0 45 -18l202 -287q20 -20 -6 -35l-78 -38q-22 -13 -38 0l-232 155l-235 -155q-15 -15 -37 0l-78 38q-28 15 -8 35z" />
<glyph unicode="&#x109;" horiz-adv-x="1067" d="M78 582q0 150 13.5 243.5t45.5 165.5q53 104 158 139.5t326 40.5q226 0 348 -32q35 -9 35 -43v-199q0 -33 -37 -33h-346q-115 0 -152 -55q-35 -56 -35 -227t35 -230q37 -55 152 -55h346q37 0 37 -33v-198q0 -34 -35 -43q-126 -33 -348 -33q-182 0 -281.5 26t-159.5 93 q-59 70 -80.5 174.5t-21.5 298.5zM223 1352l205 286q16 19 43 19h217q29 0 45 -19l205 -286q20 -23 -8 -35l-78 -39q-23 -13 -39 0l-231 156l-234 -156q-18 -15 -39 0l-78 39q-28 15 -8 35z" />
<glyph unicode="&#x10a;" horiz-adv-x="1294" d="M86 805q0 475 137 643t539 168q253 0 414 -37q30 -8 41.5 -21t11.5 -42v-199q0 -31 -31 -31h-436q-180 0 -238 -98q-55 -98 -55 -383q0 -284 55 -385q58 -101 238 -101h436q31 0 31 -30v-199q0 -51 -53 -63q-148 -37 -414 -37q-209 0 -335 38.5t-204 133.5 q-76 96 -106.5 244t-30.5 399zM553 1874q0 82 49 126t141 44q191 0 191 -170q0 -174 -191 -174q-92 0 -141 44.5t-49 129.5z" />
<glyph unicode="&#x10b;" horiz-adv-x="1067" d="M78 582q0 150 13.5 243.5t45.5 165.5q53 104 158 139.5t326 40.5q226 0 348 -32q35 -9 35 -43v-199q0 -33 -37 -33h-346q-115 0 -152 -55q-35 -56 -35 -227t35 -230q37 -55 152 -55h346q37 0 37 -33v-198q0 -34 -35 -43q-126 -33 -348 -33q-182 0 -281.5 26t-159.5 93 q-59 70 -80.5 174.5t-21.5 298.5zM383 1464q0 82 49.5 126t142.5 44q92 0 140.5 -44t48.5 -126q0 -174 -189 -174q-192 0 -192 174z" />
<glyph unicode="&#x10c;" horiz-adv-x="1294" d="M86 805q0 475 137 643t539 168q253 0 414 -37q30 -8 41.5 -21t11.5 -42v-199q0 -31 -31 -31h-436q-180 0 -238 -98q-55 -98 -55 -383q0 -284 55 -385q58 -101 238 -101h436q31 0 31 -30v-199q0 -51 -53 -63q-148 -37 -414 -37q-209 0 -335 38.5t-204 133.5 q-76 96 -106.5 244t-30.5 399zM291 1987q-16 22 8 34l78 39q23 13 39 0l233 -155l232 155q18 15 39 0l77 -39q26 -14 9 -34l-205 -285q-9 -21 -43 -21h-217q-30 0 -45 21z" />
<glyph unicode="&#x10d;" horiz-adv-x="1067" d="M78 582q0 150 13.5 243.5t45.5 165.5q53 104 158 139.5t326 40.5q226 0 348 -32q35 -9 35 -43v-199q0 -33 -37 -33h-346q-115 0 -152 -55q-35 -56 -35 -227t35 -230q37 -55 152 -55h346q37 0 37 -33v-198q0 -34 -35 -43q-126 -33 -348 -33q-182 0 -281.5 26t-159.5 93 q-59 70 -80.5 174.5t-21.5 298.5zM225 1577q-20 23 8 35l78 39q22 15 37 0l234 -156l233 156q16 13 39 0l76 -39q28 -12 8 -35l-203 -285q-14 -20 -45 -20h-217q-31 0 -45 20z" />
<glyph unicode="&#x10e;" horiz-adv-x="1533" d="M135 39v1524q0 25 31 28q314 25 608 25q366 0 522 -193q156 -191 156 -624q0 -431 -156 -621q-156 -188 -522 -188q-306 0 -608 24q-31 3 -31 25zM356 1987q-19 22 6 34l78 39q23 13 39 0l234 -155l233 155q15 15 37 0l78 -39q25 -14 8 -34l-205 -285q-9 -21 -43 -21 h-217q-30 0 -45 21zM514 319h260q160 0 227.5 111t67.5 369q0 260 -69 373.5t-232 113.5h-254v-967z" />
<glyph unicode="&#x10f;" horiz-adv-x="1318" d="M76 580q0 342 98 467q97 124 373 124q118 0 241 -12v412q0 33 31 33h295q31 0 31 -33v-1479q0 -53 -47 -59q-258 -43 -465 -43q-178 0 -281 27t-168 94q-61 70 -84.5 176.5t-23.5 292.5zM432 580q0 -166 31 -226q34 -57 162 -57q97 0 163 14v551h-147q-134 0 -172 -53 q-37 -52 -37 -229zM1251 1325l54 268q3 21 30 21h322q20 0 20 -21v-14q0 -15 -10 -25l-295 -321q-10 -16 -29 0l-81 59q-17 10 -11 33z" />
<glyph unicode="&#x110;" horiz-adv-x="1564" d="M4 709v145q0 31 31 31h131v678q0 25 31 28q314 25 608 25q366 0 522 -193q156 -191 156 -624q0 -431 -156 -621q-156 -188 -522 -188q-307 0 -608 24q-31 3 -31 25v639h-131q-31 0 -31 31zM545 319h260q160 0 227.5 111t67.5 369q0 262 -68.5 374.5t-232.5 112.5h-254 v-401h235q31 0 31 -31v-145q0 -31 -31 -31h-235v-359z" />
<glyph unicode="&#x111;" horiz-adv-x="1253" d="M76 580q0 342 98 467q97 124 373 124q118 0 241 -12v172h-219q-30 0 -30 31v78q0 30 30 30h219v101q0 33 31 33h295q31 0 31 -33v-101h121q30 0 30 -30v-78q0 -31 -30 -31h-121v-1239q0 -53 -47 -59q-258 -43 -465 -43q-178 0 -281 27t-168 94q-61 70 -84.5 176.5 t-23.5 292.5zM432 580q0 -166 31 -226q34 -57 162 -57q97 0 163 14v551h-147q-134 0 -172 -53q-37 -52 -37 -229z" />
<glyph unicode="&#x112;" horiz-adv-x="1349" d="M135 33v1538q0 33 31 33h1061q33 0 33 -31v-268q0 -31 -33 -31h-713v-320h653q33 0 33 -30v-254q0 -31 -33 -31h-653v-309h713q33 0 33 -31v-268q0 -31 -33 -31h-1061q-31 0 -31 33zM328 1782v145q0 31 30 31h625q31 0 31 -31v-145q0 -31 -31 -31h-625q-30 0 -30 31z" />
<glyph unicode="&#x113;" horiz-adv-x="1200" d="M76 580q0 356 108 473q106 118 430 118q316 0 420 -116q107 -116 107 -469v-64q0 -32 -13 -43.5t-49 -11.5h-639q3 -109 43 -139q45 -31 170 -31h377q31 0 31 -31v-209q0 -28 -29 -34q-146 -33 -418 -33q-323 0 -430 116q-108 120 -108 474zM270 1372v146q0 30 31 30h627 q30 0 30 -30v-146q0 -31 -30 -31h-627q-31 0 -31 31zM438 684h344q0 102 -37.5 141t-130.5 39q-96 0 -136 -39.5t-40 -140.5z" />
<glyph unicode="&#x114;" horiz-adv-x="1349" d="M135 33v1538q0 33 31 33h1061q33 0 33 -31v-268q0 -31 -33 -31h-713v-320h653q33 0 33 -30v-254q0 -31 -33 -31h-653v-309h713q33 0 33 -31v-268q0 -31 -33 -31h-1061q-31 0 -31 33zM322 2005q-6 33 28 33h146q25 0 34 -25q23 -55 61.5 -76.5t108.5 -21.5t107.5 21.5 t62.5 76.5q9 25 35 25h146q34 0 28 -31q-20 -164 -105 -229.5t-274 -65.5q-191 0 -274.5 64.5t-103.5 228.5z" />
<glyph unicode="&#x115;" horiz-adv-x="1200" d="M76 580q0 356 108 473q106 118 430 118q316 0 420 -116q107 -116 107 -469v-64q0 -32 -13 -43.5t-49 -11.5h-639q3 -109 43 -139q45 -31 170 -31h377q31 0 31 -31v-209q0 -28 -29 -34q-146 -33 -418 -33q-323 0 -430 116q-108 120 -108 474zM236 1595q-6 33 28 33h146 q25 0 34 -24q23 -55 61.5 -77t108.5 -22t107.5 22t60.5 77q9 24 35 24h148q34 0 28 -31q-20 -164 -104.5 -229t-274.5 -65q-191 0 -274.5 64t-103.5 228zM438 684h344q0 102 -37.5 141t-130.5 39q-96 0 -136 -39.5t-40 -140.5z" />
<glyph unicode="&#x116;" horiz-adv-x="1349" d="M135 33v1538q0 33 31 33h1061q33 0 33 -31v-268q0 -31 -33 -31h-713v-320h653q33 0 33 -30v-254q0 -31 -33 -31h-653v-309h713q33 0 33 -31v-268q0 -31 -33 -31h-1061q-31 0 -31 33zM479 1874q0 82 49.5 126t143.5 44q92 0 140 -44t48 -126q0 -174 -188 -174 q-193 0 -193 174z" />
<glyph unicode="&#x117;" horiz-adv-x="1200" d="M76 580q0 356 108 473q106 118 430 118q316 0 420 -116q107 -116 107 -469v-64q0 -32 -13 -43.5t-49 -11.5h-639q3 -109 43 -139q45 -31 170 -31h377q31 0 31 -31v-209q0 -28 -29 -34q-146 -33 -418 -33q-323 0 -430 116q-108 120 -108 474zM422 1464q0 82 49.5 126 t142.5 44q92 0 141.5 -44t49.5 -126q0 -85 -49.5 -129.5t-141.5 -44.5q-192 0 -192 174zM438 684h344q0 102 -37.5 141t-130.5 39q-96 0 -136 -39.5t-40 -140.5z" />
<glyph unicode="&#x118;" horiz-adv-x="1349" d="M135 33v1538q0 33 31 33h1061q33 0 33 -31v-268q0 -31 -33 -31h-713v-320h653q33 0 33 -30v-254q0 -31 -33 -31h-653v-309h713q33 0 33 -31v-268q0 -31 -33 -31h-201q-10 -68 -10 -92q0 -19 7.5 -29t27.5 -14q31 -6 88 -6h71q27 0 27 -27v-151q0 -28 -25 -37 q-46 -17 -182 -17q-229 0 -229 160q0 97 39 213h-674q-31 0 -31 33z" />
<glyph unicode="&#x119;" horiz-adv-x="1200" d="M76 580q0 356 108 473q106 118 430 118q316 0 420 -116q107 -116 107 -469v-64q0 -32 -13 -43.5t-49 -11.5h-639q3 -109 43 -139q45 -31 170 -31h377q31 0 31 -31v-209q0 -28 -29 -34q-88 -20 -168 -23q-10 -68 -10 -92q0 -19 7.5 -29t27.5 -14q31 -6 88 -6h72 q26 0 26 -27v-151q0 -28 -24 -37q-46 -17 -183 -17q-229 0 -229 160q0 93 37 203h-62q-323 0 -430 116q-108 120 -108 474zM438 684h344q0 102 -37.5 141t-130.5 39q-96 0 -136 -39.5t-40 -140.5z" />
<glyph unicode="&#x11a;" horiz-adv-x="1349" d="M135 33v1538q0 33 31 33h1061q33 0 33 -31v-268q0 -31 -33 -31h-713v-320h653q33 0 33 -30v-254q0 -31 -33 -31h-653v-309h713q33 0 33 -31v-268q0 -31 -33 -31h-1061q-31 0 -31 33zM313 1987q-19 22 9 34l77 39q22 15 37 0l236 -155l231 155q16 13 39 0l78 -39 q25 -12 6 -34l-203 -285q-15 -21 -45 -21h-217q-34 0 -43 21z" />
<glyph unicode="&#x11b;" horiz-adv-x="1200" d="M76 580q0 356 108 473q106 118 430 118q316 0 420 -116q107 -116 107 -469v-64q0 -32 -13 -43.5t-49 -11.5h-639q3 -109 43 -139q45 -31 170 -31h377q31 0 31 -31v-209q0 -28 -29 -34q-146 -33 -418 -33q-323 0 -430 116q-108 120 -108 474zM256 1577q-16 23 8 35l78 39 q23 13 39 0l233 -156l232 156q18 15 39 0l78 -39q24 -12 8 -35l-205 -285q-14 -20 -43 -20h-217q-31 0 -45 20zM438 684h344q0 102 -37.5 141t-130.5 39q-96 0 -136 -39.5t-40 -140.5z" />
<glyph unicode="&#x11c;" horiz-adv-x="1425" d="M86 803q0 251 30.5 398.5t106.5 242.5q77 96 202.5 134t336.5 38q311 0 459 -37q30 -8 41.5 -21t11.5 -42v-199q0 -31 -31 -31h-481q-181 0 -238 -100q-55 -98 -55 -383q0 -284 55 -385q58 -99 238 -99h227v435q0 34 31 34h293q30 0 30 -34v-566q0 -42 -12 -57 q-38 -62 -198 -102q-153 -39 -371 -39q-402 0 -539 168t-137 645zM387 1761l205 287q15 18 43 18h217q30 0 45 -18l205 -287q20 -23 -8 -35l-78 -38q-23 -13 -39 0l-232 155l-233 -155q-16 -13 -39 0l-78 38q-28 12 -8 35z" />
<glyph unicode="&#x11d;" horiz-adv-x="1257" d="M76 604q0 336 112 451q113 116 449 116q219 0 465 -43q47 -6 47 -59v-1083q0 -93 -10 -148t-39 -108q-41 -80 -152.5 -119t-314.5 -39q-261 0 -420 33q-27 6 -27 33v190q0 31 27 31h383q117 0 157 29t40 114v14q-110 -26 -242 -26q-273 0 -375 129q-100 126 -100 485z M270 1352l203 286q16 19 45 19h217q33 0 43 -19l205 -286q20 -20 -8 -35l-78 -39q-22 -15 -37 0l-233 156l-234 -156q-16 -13 -39 0l-78 39q-26 15 -6 35zM432 582q0 -181 39 -232t174 -51q89 0 148 12v553h-175q-121 0 -155 -57q-31 -60 -31 -225z" />
<glyph unicode="&#x11e;" horiz-adv-x="1425" d="M86 803q0 251 30.5 398.5t106.5 242.5q77 96 202.5 134t336.5 38q311 0 459 -37q30 -8 41.5 -21t11.5 -42v-199q0 -31 -31 -31h-481q-181 0 -238 -100q-55 -98 -55 -383q0 -284 55 -385q58 -99 238 -99h227v435q0 34 31 34h293q30 0 30 -34v-566q0 -42 -12 -57 q-38 -62 -198 -102q-153 -39 -371 -39q-402 0 -539 168t-137 645zM322 2005q-6 33 28 33h146q25 0 34 -25q25 -55 62.5 -76.5t107.5 -21.5t107.5 21.5t62.5 76.5q9 25 35 25h146q34 0 28 -31q-20 -164 -104 -229.5t-275 -65.5t-274.5 64.5t-103.5 228.5z" />
<glyph unicode="&#x11f;" horiz-adv-x="1257" d="M76 604q0 336 112 451q113 116 449 116q219 0 465 -43q47 -6 47 -59v-1083q0 -93 -10 -148t-39 -108q-41 -80 -152.5 -119t-314.5 -39q-261 0 -420 33q-27 6 -27 33v190q0 31 27 31h383q117 0 157 29t40 114v14q-110 -26 -242 -26q-273 0 -375 129q-100 126 -100 485z M248 1595q-6 33 28 33h146q26 0 35 -24q25 -55 63 -77t107 -22q72 0 108.5 21.5t61.5 77.5q9 24 34 24h146q35 0 29 -31q-20 -164 -104 -229t-275 -65t-275 64t-104 228zM432 582q0 -181 39 -232t174 -51q89 0 148 12v553h-175q-121 0 -155 -57q-31 -60 -31 -225z" />
<glyph unicode="&#x120;" horiz-adv-x="1425" d="M86 803q0 251 30.5 398.5t106.5 242.5q77 96 202.5 134t336.5 38q311 0 459 -37q30 -8 41.5 -21t11.5 -42v-199q0 -31 -31 -31h-481q-181 0 -238 -100q-55 -98 -55 -383q0 -284 55 -385q58 -99 238 -99h227v435q0 34 31 34h293q30 0 30 -34v-566q0 -42 -12 -57 q-38 -62 -198 -102q-153 -39 -371 -39q-402 0 -539 168t-137 645zM510 1874q0 170 190 170q191 0 191 -170q0 -174 -191 -174q-190 0 -190 174z" />
<glyph unicode="&#x121;" horiz-adv-x="1257" d="M76 604q0 336 112 451q113 116 449 116q219 0 465 -43q47 -6 47 -59v-1083q0 -93 -10 -148t-39 -108q-41 -80 -152.5 -119t-314.5 -39q-261 0 -420 33q-27 6 -27 33v190q0 31 27 31h383q117 0 157 29t40 114v14q-110 -26 -242 -26q-273 0 -375 129q-100 126 -100 485z M432 582q0 -181 39 -232t174 -51q89 0 148 12v553h-175q-121 0 -155 -57q-31 -60 -31 -225zM436 1464q0 170 191 170q92 0 141 -44t49 -126q0 -85 -49 -129.5t-141 -44.5q-191 0 -191 174z" />
<glyph unicode="&#x122;" horiz-adv-x="1425" d="M86 803q0 251 30.5 398.5t106.5 242.5q77 96 202.5 134t336.5 38q311 0 459 -37q30 -8 41.5 -21t11.5 -42v-199q0 -31 -31 -31h-481q-181 0 -238 -100q-55 -98 -55 -383q0 -284 55 -385q58 -99 238 -99h227v435q0 34 31 34h293q30 0 30 -34v-566q0 -42 -12 -57 q-38 -62 -198 -102q-153 -39 -371 -39q-402 0 -539 168t-137 645zM438 -332l129 238q6 12 25 12h305q21 0 21 -20v-15q0 -13 -11 -24l-344 -273q-9 -9 -28 0l-91 54q-15 9 -6 28z" />
<glyph unicode="&#x123;" horiz-adv-x="1257" d="M76 604q0 336 112 451q113 116 449 116q219 0 465 -43q47 -6 47 -59v-1083q0 -93 -10 -148t-39 -108q-41 -80 -152.5 -119t-314.5 -39q-261 0 -420 33q-27 6 -27 33v190q0 31 27 31h383q117 0 157 29t40 114v14q-110 -26 -242 -26q-273 0 -375 129q-100 126 -100 485z M432 582q0 -181 39 -232t174 -51q89 0 148 12v553h-175q-121 0 -155 -57q-31 -60 -31 -225zM463 1309v14q0 15 10 25l344 272q10 10 29 0l90 -51q16 -13 6 -29l-129 -240q-6 -12 -25 -12h-305q-20 0 -20 21z" />
<glyph unicode="&#x124;" horiz-adv-x="1628" d="M135 35v1536q0 33 31 33h317q31 0 31 -33v-606h600v606q0 33 31 33h317q31 0 31 -33v-1536q0 -35 -31 -35h-317q-31 0 -31 35v596h-600v-596q0 -35 -31 -35h-317q-31 0 -31 35zM461 1761l205 287q15 18 45 18h217q28 0 43 -18l205 -287q19 -19 -9 -35l-77 -38 q-21 -15 -39 0l-232 155l-233 -155q-16 -13 -39 0l-78 38q-28 12 -8 35z" />
<glyph unicode="&#x125;" horiz-adv-x="1267" d="M-72 1753l205 287q9 18 43 18h217q30 0 45 -18l205 -287q20 -23 -8 -35l-78 -39q-23 -13 -39 0l-231 156l-234 -156q-18 -15 -39 0l-77 39q-28 16 -9 35zM109 33v1538q0 33 30 33h297q31 0 31 -33v-410q113 10 195 10q164 0 253.5 -20.5t147.5 -75.5t79 -145t21 -256 v-641q0 -33 -30 -33h-297q-29 0 -29 33v530q5 193 -31 258q-23 26 -60.5 35.5t-109.5 7.5h-137v-831q0 -33 -31 -33h-299q-30 0 -30 33z" />
<glyph unicode="&#x126;" horiz-adv-x="1677" d="M16 1282v82q0 31 31 31h113v176q0 33 30 33h318q31 0 31 -33v-176h600v176q0 33 30 33h318q31 0 31 -33v-176h108q31 0 31 -31v-82q0 -31 -31 -31h-108v-1216q0 -35 -31 -35h-318q-30 0 -30 35v596h-600v-596q0 -35 -31 -35h-318q-30 0 -30 35v1216h-113q-31 0 -31 31z M539 965h600v286h-600v-286z" />
<glyph unicode="&#x127;" horiz-adv-x="1267" d="M-33 1362v78q0 30 31 30h113v101q0 33 30 33h297q31 0 31 -33v-101h227q31 0 31 -30v-78q0 -31 -31 -31h-227v-170q113 10 195 10q164 0 253.5 -20.5t147.5 -75.5t79 -145t21 -256v-641q0 -33 -30 -33h-297q-29 0 -29 33v530q5 193 -31 258q-23 26 -60.5 35.5t-109.5 7.5 h-137v-831q0 -33 -31 -33h-299q-30 0 -30 33v1298h-113q-31 0 -31 31z" />
<glyph unicode="&#x128;" horiz-adv-x="649" d="M-68 1780q35 147 83.5 201.5t142.5 54.5q62 0 168 -41q104 -39 133 -39q60 0 90 67q9 28 37 19l108 -29q27 -9 21 -41q-35 -148 -83 -202t-145 -54q-64 0 -168 39q-106 41 -131 41q-60 0 -90 -67q-12 -30 -37 -21l-108 31q-30 10 -21 41zM135 35v1536q0 33 31 33h317 q31 0 31 -33v-1536q0 -35 -31 -35h-317q-31 0 -31 35z" />
<glyph unicode="&#x129;" horiz-adv-x="579" d="M-102 1370q37 148 85 202t142 54q59 0 168 -41q104 -39 133 -39q55 0 90 68q9 27 37 18l109 -28q26 -9 20 -41q-35 -148 -83 -202t-144 -54q-66 0 -170 39q-104 40 -129 40q-35 0 -54 -14t-36 -53q-17 -30 -37 -21l-109 31q-28 9 -22 41zM111 33v1095q0 33 30 33h297 q31 0 31 -33v-1095q0 -33 -31 -33h-297q-30 0 -30 33z" />
<glyph unicode="&#x12a;" horiz-adv-x="649" d="M-20 1782v145q0 31 30 31h627q31 0 31 -31v-145q0 -31 -31 -31h-627q-30 0 -30 31zM135 35v1536q0 33 31 33h317q31 0 31 -33v-1536q0 -35 -31 -35h-317q-31 0 -31 35z" />
<glyph unicode="&#x12b;" horiz-adv-x="579" d="M-53 1372v146q0 30 30 30h625q31 0 31 -30v-146q0 -31 -31 -31h-625q-30 0 -30 31zM111 33v1095q0 33 30 33h297q31 0 31 -33v-1095q0 -33 -31 -33h-297q-30 0 -30 33z" />
<glyph unicode="&#x12e;" horiz-adv-x="649" d="M90 -213q0 97 45 242v1542q0 33 31 33h317q31 0 31 -33v-1536q0 -35 -31 -35h-168q-10 -68 -10 -92q0 -19 7.5 -29t27.5 -14q31 -6 88 -6h72q26 0 26 -27v-151q0 -28 -24 -37q-46 -17 -183 -17q-229 0 -229 160z" />
<glyph unicode="&#x12f;" horiz-adv-x="579" d="M63 -213q0 94 48 240v1101q0 33 30 33h297q31 0 31 -33v-1095q0 -33 -31 -33h-149q-10 -68 -10 -92q0 -19 7 -29t27 -14q31 -6 86 -6h74q27 0 27 -27v-151q0 -28 -25 -37q-46 -17 -182 -17q-230 0 -230 160zM98 1464q0 82 49.5 126t143.5 44q92 0 141 -44t49 -126 q0 -85 -49 -129.5t-141 -44.5q-193 0 -193 174z" />
<glyph unicode="&#x130;" horiz-adv-x="649" d="M133 1874q0 170 191 170q92 0 141 -44t49 -126q0 -85 -49 -129.5t-141 -44.5q-191 0 -191 174zM135 35v1536q0 33 31 33h317q31 0 31 -33v-1536q0 -35 -31 -35h-317q-31 0 -31 35z" />
<glyph unicode="&#x131;" horiz-adv-x="579" d="M111 33v1095q0 33 30 33h297q31 0 31 -33v-1095q0 -33 -31 -33h-297q-30 0 -30 33z" />
<glyph unicode="&#x132;" horiz-adv-x="1871" d="M135 35v1536q0 33 31 33h317q31 0 31 -33v-1536q0 -35 -31 -35h-317q-31 0 -31 35zM678 84v205q0 30 31 30h360q184 0 244 91q59 92 59 362v502h-377q-32 0 -32 31v268q0 31 32 31h725q31 0 31 -31v-801q0 -454 -141 -618t-541 -164q-190 0 -338 37q-53 12 -53 57z" />
<glyph unicode="&#x133;" horiz-adv-x="1171" d="M82 1477q0 88 55 137t154 49q97 0 151 -49t54 -137t-54.5 -138.5t-150.5 -50.5q-100 0 -154.5 49t-54.5 140zM111 33v1095q0 33 30 33h295q31 0 31 -33v-1095q0 -33 -31 -33h-295q-30 0 -30 33zM508 -152q0 31 37 31h53q67 0 85.5 17t18.5 79v1153q0 33 31 33h297 q31 0 31 -33v-1257q0 -182 -76 -240q-77 -59 -246 -59q-123 0 -196 20q-35 12 -35 43v213zM676 1477q0 88 54.5 137t152.5 49t152.5 -49t54.5 -137q0 -90 -54 -139.5t-153 -49.5t-153 49.5t-54 139.5z" />
<glyph unicode="&#x134;" horiz-adv-x="1206" d="M12 84v205q0 30 31 30h360q184 0 244 91q60 94 60 362v502h-377q-33 0 -33 31v268q0 31 33 31h725q30 0 30 -31v-801q0 -454 -141 -618t-541 -164q-189 0 -337 37q-54 12 -54 57zM330 1761l205 287q15 18 45 18h217q28 0 43 -18l204 -287q20 -23 -8 -35l-78 -38 q-22 -13 -38 0l-232 155l-233 -155q-16 -13 -39 0l-78 38q-28 12 -8 35z" />
<glyph unicode="&#x135;" horiz-adv-x="593" d="M-70 -152q0 31 37 31h53q67 0 86 17t19 79v1153q0 33 31 33h297q30 0 30 -33v-1257q0 -183 -75 -240q-77 -59 -246 -59q-124 0 -197 20q-35 12 -35 43v213zM-59 1352l204 286q16 19 43 19h218q29 0 45 -19l204 -286q20 -23 -8 -35l-78 -39q-23 -13 -39 0l-231 156 l-233 -156q-16 -13 -39 0l-78 39q-28 12 -8 35z" />
<glyph unicode="&#x136;" horiz-adv-x="1449" d="M135 33v1538q0 33 31 33h317q31 0 31 -33v-653l471 665q15 21 43 21h350q42 0 19 -39l-496 -697l555 -813q40 -55 -35 -55h-350q-32 0 -45 23l-512 759v-749q0 -33 -31 -33h-317q-31 0 -31 33zM440 -332l129 238q6 12 25 12h305q21 0 21 -20v-15q0 -13 -11 -24l-344 -273 q-9 -9 -28 0l-91 54q-15 9 -6 28z" />
<glyph unicode="&#x137;" horiz-adv-x="1198" d="M111 33v1538q0 33 30 33h297q31 0 31 -33v-803l272 373q14 20 43 20h328q51 0 18 -39l-311 -420l387 -647q30 -55 -35 -55h-315q-29 0 -45 23l-342 600v-590q0 -33 -31 -33h-297q-30 0 -30 33zM338 -332l129 238q6 12 25 12h305q20 0 20 -20v-15q0 -14 -10 -24l-344 -273 q-10 -10 -29 0l-90 54q-15 9 -6 28z" />
<glyph unicode="&#x138;" horiz-adv-x="1275" d="M111 33v1095q0 33 30 33h318q30 0 30 -33v-489l349 502q14 20 43 20h348q44 0 18 -39l-370 -530l380 -541q35 -53 -30 -53h-359q-32 0 -45 22l-334 484v-471q0 -33 -30 -33h-318q-30 0 -30 33z" />
<glyph unicode="&#x139;" horiz-adv-x="1214" d="M135 33v1538q0 33 31 33h317q31 0 31 -33v-1241h637q31 0 31 -31v-268q0 -31 -31 -31h-985q-31 0 -31 33zM160 1778l149 276q6 12 25 12h354q21 0 21 -20v-14q0 -14 -11 -25l-393 -321q-10 -10 -29 0l-110 63q-16 9 -6 29z" />
<glyph unicode="&#x13a;" horiz-adv-x="577" d="M111 33v1538q0 33 30 33h295q31 0 31 -33v-1538q0 -33 -31 -33h-295q-30 0 -30 33zM131 1772l150 276q6 12 24 12h354q21 0 21 -20v-15q0 -14 -10 -24l-394 -322q-9 -9 -28 0l-111 64q-16 9 -6 29z" />
<glyph unicode="&#x13b;" horiz-adv-x="1214" d="M135 33v1538q0 33 31 33h317q31 0 31 -33v-1241h637q31 0 31 -31v-268q0 -31 -31 -31h-985q-31 0 -31 33zM360 -332l129 238q6 12 25 12h305q21 0 21 -20v-15q0 -13 -11 -24l-344 -273q-9 -9 -28 0l-90 54q-16 10 -7 28z" />
<glyph unicode="&#x13c;" horiz-adv-x="579" d="M-23 -332l129 238q6 12 25 12h305q21 0 21 -20v-15q0 -13 -11 -24l-344 -273q-9 -9 -28 0l-90 54q-16 10 -7 28zM111 33v1538q0 33 30 33h297q31 0 31 -33v-1538q0 -33 -31 -33h-297q-30 0 -30 33z" />
<glyph unicode="&#x13d;" horiz-adv-x="1200" d="M135 33v1538q0 33 31 33h317q31 0 31 -33v-1241h637q31 0 31 -31v-268q0 -31 -31 -31h-985q-31 0 -31 33zM680 1325l53 268q3 21 31 21h321q21 0 21 -21v-14q0 -15 -10 -25l-295 -321q-10 -16 -29 0l-82 59q-17 10 -10 33z" />
<glyph unicode="&#x13e;" horiz-adv-x="643" d="M111 33v1538q0 33 30 33h297q31 0 31 -33v-1538q0 -33 -31 -33h-297q-30 0 -30 33zM573 1325l54 268q3 21 30 21h322q20 0 20 -21v-14q0 -15 -10 -25l-295 -321q-9 -16 -28 0l-82 59q-14 8 -11 33z" />
<glyph unicode="&#x13f;" horiz-adv-x="1216" d="M135 33v1538q0 33 31 33h317q31 0 31 -33v-1241h637q31 0 31 -31v-268q0 -31 -31 -31h-985q-31 0 -31 33zM702 801q0 170 193 170q188 0 188 -170q0 -172 -188 -172q-94 0 -143.5 44t-49.5 128z" />
<glyph unicode="&#x140;" horiz-adv-x="999" d="M111 33v1538q0 33 30 33h297q31 0 31 -33v-1538q0 -33 -31 -33h-297q-30 0 -30 33zM598 801q0 170 193 170q190 0 190 -170q0 -84 -48.5 -128t-141.5 -44q-94 0 -143.5 44t-49.5 128z" />
<glyph unicode="&#x141;" horiz-adv-x="1261" d="M-25 633q-16 26 11 41l196 112v785q0 33 31 33h317q31 0 31 -33v-565l227 131q31 16 43 -11l41 -69q16 -25 -12 -41l-299 -172v-514h637q31 0 31 -31v-268q0 -31 -31 -31h-985q-31 0 -31 33v592l-127 -74q-30 -20 -39 12z" />
<glyph unicode="&#x142;" horiz-adv-x="702" d="M-6 651q-16 26 10 41l139 80v799q0 33 31 33h297q31 0 31 -33v-594l110 63q32 16 43 -10l41 -69q16 -25 -12 -41l-182 -105v-782q0 -33 -31 -33h-297q-31 0 -31 33v575l-69 -41q-29 -19 -39 13z" />
<glyph unicode="&#x143;" horiz-adv-x="1626" d="M135 35v1536q0 33 31 33h233q57 0 78.5 -13t54.5 -59l580 -827v866q0 33 31 33h317q31 0 31 -33v-1536q0 -35 -31 -35h-223q-75 0 -119 59l-604 867v-891q0 -35 -31 -35h-317q-31 0 -31 35zM608 1778l150 276q6 12 24 12h357q20 0 20 -20v-14q0 -15 -10 -25l-393 -321 q-13 -10 -29 0l-113 63q-16 9 -6 29z" />
<glyph unicode="&#x144;" horiz-adv-x="1265" d="M109 33v1071q0 12 4 18.5t8.5 8.5t15.5 4q144 36 525 36q164 0 253.5 -20.5t147.5 -75.5t79 -145t21 -256v-641q0 -33 -30 -33h-297q-29 0 -29 33v530q0 129 -5 176t-28 80q-23 32 -52.5 38.5t-115.5 6.5h-137v-831q0 -33 -31 -33h-301q-28 0 -28 33zM426 1368l149 277 q6 12 25 12h356q21 0 21 -21v-14q0 -15 -10 -25l-394 -321q-9 -9 -28 0l-113 63q-16 9 -6 29z" />
<glyph unicode="&#x145;" horiz-adv-x="1626" d="M135 35v1536q0 33 31 33h233q57 0 78.5 -13t54.5 -59l580 -827v866q0 33 31 33h317q31 0 31 -33v-1536q0 -35 -31 -35h-223q-75 0 -119 59l-604 867v-891q0 -35 -31 -35h-317q-31 0 -31 35zM541 -332l131 238q6 12 24 12h303q21 0 21 -20v-15q0 -17 -10 -24l-342 -273 q-13 -10 -29 0l-92 54q-15 9 -6 28z" />
<glyph unicode="&#x146;" horiz-adv-x="1265" d="M109 33v1071q0 12 4 18.5t8.5 8.5t15.5 4q144 36 525 36q164 0 253.5 -20.5t147.5 -75.5t79 -145t21 -256v-641q0 -33 -30 -33h-297q-29 0 -29 33v530q0 129 -5 176t-28 80q-23 32 -52.5 38.5t-115.5 6.5h-137v-831q0 -33 -31 -33h-301q-28 0 -28 33zM324 -332l129 238 q6 12 24 12h305q21 0 21 -20v-15q0 -14 -10 -24l-344 -273q-10 -10 -29 0l-90 54q-15 9 -6 28z" />
<glyph unicode="&#x147;" horiz-adv-x="1626" d="M135 35v1536q0 33 31 33h233q57 0 78.5 -13t54.5 -59l580 -827v866q0 33 31 33h317q31 0 31 -33v-1536q0 -35 -31 -35h-223q-75 0 -119 59l-604 867v-891q0 -35 -31 -35h-317q-31 0 -31 35zM455 1987q-16 22 8 34l78 39q23 13 39 0l233 -155l231 155q16 13 39 0l78 -39 q24 -12 8 -34l-204 -285q-15 -21 -45 -21h-218q-28 0 -43 21z" />
<glyph unicode="&#x148;" horiz-adv-x="1265" d="M109 33v1071q0 12 4 18.5t8.5 8.5t15.5 4q144 36 525 36q164 0 253.5 -20.5t147.5 -75.5t79 -145t21 -256v-641q0 -33 -30 -33h-297q-29 0 -29 33v530q0 129 -5 176t-28 80q-23 32 -52.5 38.5t-115.5 6.5h-137v-831q0 -33 -31 -33h-301q-28 0 -28 33zM274 1577 q-19 22 7 35l77 39q23 13 39 0l234 -156l233 156q15 15 37 0l78 -39q26 -14 8 -35l-205 -285q-9 -20 -43 -20h-217q-31 0 -45 20z" />
<glyph unicode="&#x149;" horiz-adv-x="1265" d="M-106 1325l53 268q3 21 30 21h322q20 0 20 -21v-14q0 -15 -10 -25l-295 -321q-9 -16 -28 0l-82 59q-13 8 -10 33zM109 33v1071q0 12 4 18.5t8.5 8.5t15.5 4q144 36 525 36q164 0 253.5 -20.5t147.5 -75.5t79 -145t21 -256v-641q0 -33 -30 -33h-297q-29 0 -29 33v530 q0 129 -5 176t-28 80q-23 32 -52.5 38.5t-115.5 6.5h-137v-831q0 -33 -31 -33h-301q-28 0 -28 33z" />
<glyph unicode="&#x14a;" horiz-adv-x="1622" d="M135 35v1536q0 33 31 33h233q57 0 78.5 -13t54.5 -59l580 -827v866q0 33 31 33h317q31 0 31 -33v-1206q-2 -185 -23.5 -315.5t-62.5 -221.5t-111.5 -144t-162.5 -76.5t-224 -25.5q-95 0 -217 25q-53 9 -53 57v217q0 31 31 31h159q136 0 202.5 54t66.5 175l-582 785v-891 q0 -35 -31 -35h-317q-31 0 -31 35z" />
<glyph unicode="&#x14b;" horiz-adv-x="1265" d="M109 33v1071q0 12 4 18.5t8.5 8.5t15.5 4q144 36 525 36q164 0 253.5 -20.5t147.5 -75.5t79 -145t21 -256v-803q0 -182 -76 -240q-74 -59 -243 -59q-130 0 -197 20q-21 6 -28 14.5t-7 28.5v213q0 31 35 31h53q68 0 87.5 17.5t19.5 78.5v588q0 129 -5 176t-28 80 q-23 32 -52.5 38.5t-115.5 6.5h-137v-831q0 -33 -31 -33h-301q-28 0 -28 33z" />
<glyph unicode="&#x14c;" horiz-adv-x="1538" d="M86 801q0 248 31.5 397t109.5 244q80 96 206 135t335 39q400 0 541 -172q143 -168 143 -643q0 -249 -31.5 -397t-111.5 -242q-78 -94 -204.5 -133t-336.5 -39q-397 0 -541 170q-141 170 -141 641zM424 1782v145q0 31 31 31h626q31 0 31 -31v-145q0 -31 -31 -31h-626 q-31 0 -31 31zM469 801q0 -278 59 -381q58 -101 240 -101t240 101q59 103 59 381q0 280 -59 383q-58 102 -240 102t-240 -102q-59 -103 -59 -383z" />
<glyph unicode="&#x14d;" horiz-adv-x="1241" d="M76 580q0 358 106 473q106 118 439 118q330 0 436 -118q108 -117 108 -473q0 -357 -108 -474q-107 -116 -436 -116q-332 0 -439 116q-106 115 -106 474zM279 1372v146q0 30 30 30h625q31 0 31 -30v-146q0 -31 -31 -31h-625q-30 0 -30 31zM434 580q0 -172 35 -228 q37 -55 152 -55t149 55q37 55 37 228q0 171 -37 229q-34 55 -149 55t-152 -57q-35 -56 -35 -227z" />
<glyph unicode="&#x14e;" horiz-adv-x="1538" d="M86 801q0 248 31.5 397t109.5 244q80 96 206 135t335 39q400 0 541 -172q143 -168 143 -643q0 -249 -31.5 -397t-111.5 -242q-78 -94 -204.5 -133t-336.5 -39q-397 0 -541 170q-141 170 -141 641zM389 2005q-6 33 29 33h145q26 0 35 -25q25 -55 62.5 -76.5t107.5 -21.5 t107.5 21.5t62.5 76.5q9 25 35 25h145q35 0 29 -31q-20 -164 -104 -229.5t-275 -65.5t-275 64.5t-104 228.5zM469 801q0 -278 59 -381q58 -101 240 -101t240 101q59 103 59 381q0 280 -59 383q-58 102 -240 102t-240 -102q-59 -103 -59 -383z" />
<glyph unicode="&#x14f;" horiz-adv-x="1241" d="M76 580q0 358 106 473q106 118 439 118q330 0 436 -118q108 -117 108 -473q0 -357 -108 -474q-107 -116 -436 -116q-332 0 -439 116q-106 115 -106 474zM244 1595q-6 33 28 33h144q26 0 35 -24q25 -55 63 -77t107 -22q72 0 108.5 21.5t61.5 77.5q9 24 34 24h146 q34 0 28 -31q-20 -164 -103.5 -229t-274.5 -65q-194 0 -275 63t-102 229zM434 580q0 -172 35 -228q37 -55 152 -55t149 55q37 55 37 228q0 171 -37 229q-34 55 -149 55t-152 -57q-35 -56 -35 -227z" />
<glyph unicode="&#x150;" horiz-adv-x="1538" d="M86 801q0 248 31.5 397t109.5 244q80 96 206 135t335 39q400 0 541 -172q143 -168 143 -643q0 -249 -31.5 -397t-111.5 -242q-78 -94 -204.5 -133t-336.5 -39q-397 0 -541 170q-141 170 -141 641zM469 801q0 -278 59 -381q58 -101 240 -101t240 101q59 103 59 381 q0 280 -59 383q-58 102 -240 102t-240 -102q-59 -103 -59 -383zM492 1778l149 276q6 12 25 12h215q20 0 20 -20v-14q0 -18 -10 -25l-311 -299q-15 -12 -29 0l-53 41q-16 13 -6 29zM883 1778l149 276q6 12 25 12h217q20 0 20 -20v-14q0 -15 -10 -25l-311 -299q-15 -12 -29 0 l-55 41q-16 13 -6 29z" />
<glyph unicode="&#x151;" horiz-adv-x="1241" d="M76 580q0 358 106 473q106 118 439 118q330 0 436 -118q108 -117 108 -473q0 -357 -108 -474q-107 -116 -436 -116q-332 0 -439 116q-106 115 -106 474zM336 1368l149 277q6 12 25 12h215q20 0 20 -21v-14q0 -18 -10 -25l-311 -299q-14 -12 -29 0l-53 41q-16 13 -6 29z M434 580q0 -172 35 -228q37 -55 152 -55t149 55q37 55 37 228q0 171 -37 229q-34 55 -149 55t-152 -57q-35 -56 -35 -227zM729 1368l150 277q6 12 24 12h215q21 0 21 -21v-14q0 -14 -11 -25l-311 -299q-15 -12 -29 0l-53 41q-16 13 -6 29z" />
<glyph unicode="&#x152;" horiz-adv-x="2209" d="M86 801q0 476 143 647q143 174 541 168l715 -12h602q33 0 33 -31v-268q0 -31 -33 -31h-690v-320h631q32 0 32 -30v-254q0 -31 -32 -31h-631v-309h690q33 0 33 -31v-268q0 -31 -33 -31l-1317 -10q-210 -2 -336.5 36t-206.5 134q-78 96 -109.5 245t-31.5 396zM471 801 q0 -282 57 -381q58 -101 242 -101h248v967h-248q-184 0 -242 -102q-57 -99 -57 -383z" />
<glyph unicode="&#x153;" horiz-adv-x="1939" d="M76 580q0 191 23.5 298.5t84.5 174.5t161 92.5t276 25.5q251 0 370 -94q119 94 361 94q318 0 422 -116q103 -115 106 -469v-64q0 -32 -13 -43.5t-48 -11.5h-639q3 -109 43 -139q45 -31 168 -31h376q31 0 31 -31v-209q0 -28 -29 -34q-146 -33 -417 -33q-245 0 -361 94 q-119 -94 -370 -94q-118 3 -196.5 13.5t-142.5 37.5t-99.5 65.5t-60.5 107.5t-34 153.5t-12 212.5zM436 580q0 -172 35 -228q34 -55 150 -55q117 0 151 55q37 55 37 228q0 172 -37 227q-34 57 -151 57q-116 0 -150 -57q-35 -56 -35 -227zM1176 684h344q0 102 -37.5 141 t-130.5 39q-95 0 -135 -39.5t-41 -140.5z" />
<glyph unicode="&#x154;" horiz-adv-x="1452" d="M135 33v1530q0 25 31 28q314 25 600 25q332 0 463 -119q131 -116 131 -420q0 -227 -68.5 -335.5t-234.5 -145.5l348 -555q12 -17 5 -29t-30 -12h-319q-31 0 -47.5 9.5t-34.5 35.5l-334 526h-131v-538q0 -20 -6 -26.5t-25 -6.5h-317q-19 0 -25 6.5t-6 26.5zM514 854h211 q146 0 199 41q51 42 51 170t-52 174.5t-198 46.5h-211v-432zM537 1778l149 276q6 12 25 12h354q20 0 20 -20v-14q0 -18 -10 -25l-393 -321q-10 -10 -29 0l-110 63q-16 9 -6 29z" />
<glyph unicode="&#x155;" horiz-adv-x="849" d="M106 33v825q0 186 101 250q100 63 293 63q179 0 293 -24q34 -6 34 -43v-209q0 -31 -34 -31h-203q-71 0 -98 -20.5t-27 -81.5v-729q0 -33 -31 -33h-297q-31 0 -31 33zM293 1368l149 277q6 12 25 12h354q21 0 21 -21v-14q0 -14 -11 -25l-393 -321q-9 -9 -28 0l-111 63 q-16 9 -6 29z" />
<glyph unicode="&#x156;" horiz-adv-x="1452" d="M135 33v1530q0 25 31 28q314 25 600 25q332 0 463 -119q131 -116 131 -420q0 -227 -68.5 -335.5t-234.5 -145.5l348 -555q12 -17 5 -29t-30 -12h-319q-31 0 -47.5 9.5t-34.5 35.5l-334 526h-131v-538q0 -20 -6 -26.5t-25 -6.5h-317q-19 0 -25 6.5t-6 26.5zM475 -332 l129 238q6 12 25 12h305q20 0 20 -20v-15q0 -14 -10 -24l-344 -273q-10 -10 -29 0l-90 54q-15 9 -6 28zM514 854h211q146 0 199 41q51 42 51 170t-52 174.5t-198 46.5h-211v-432z" />
<glyph unicode="&#x157;" horiz-adv-x="849" d="M-25 -332l129 238q6 12 25 12h305q21 0 21 -20v-15q0 -13 -11 -24l-344 -273q-9 -9 -28 0l-90 54q-16 10 -7 28zM106 33v825q0 186 101 250q100 63 293 63q179 0 293 -24q34 -6 34 -43v-209q0 -31 -34 -31h-203q-71 0 -98 -20.5t-27 -81.5v-729q0 -33 -31 -33h-297 q-31 0 -31 33z" />
<glyph unicode="&#x158;" horiz-adv-x="1452" d="M135 33v1530q0 25 31 28q314 25 600 25q332 0 463 -119q131 -116 131 -420q0 -227 -68.5 -335.5t-234.5 -145.5l348 -555q12 -17 5 -29t-30 -12h-319q-31 0 -47.5 9.5t-34.5 35.5l-334 526h-131v-538q0 -20 -6 -26.5t-25 -6.5h-317q-19 0 -25 6.5t-6 26.5zM360 1987 q-19 22 9 34l77 39q22 15 37 0l236 -155l231 155q16 13 39 0l78 -39q25 -12 6 -34l-203 -285q-15 -21 -45 -21h-217q-34 0 -43 21zM514 854h211q146 0 199 41q51 42 51 170t-52 174.5t-198 46.5h-211v-432z" />
<glyph unicode="&#x159;" horiz-adv-x="849" d="M76 1577q-16 23 8 35l78 39q23 13 39 0l233 -156l232 156q18 15 39 0l77 -39q26 -15 9 -35l-205 -285q-9 -20 -43 -20h-217q-31 0 -45 20zM106 33v825q0 186 101 250q100 63 293 63q179 0 293 -24q34 -6 34 -43v-209q0 -31 -34 -31h-203q-71 0 -98 -20.5t-27 -81.5v-729 q0 -33 -31 -33h-297q-31 0 -31 33z" />
<glyph unicode="&#x15a;" horiz-adv-x="1298" d="M76 92v184q0 43 43 43h592q145 0 145 101v20q0 54 -31 84t-112 60l-355 129q-141 51 -204.5 152t-63.5 296v45q0 218 141.5 314t450.5 96q217 0 440 -47q41 -15 41 -43v-199q0 -41 -41 -41h-497q-152 0 -152 -108v-25q0 -89 105 -129l354 -131q164 -62 235 -154 q72 -90 72 -284v-54q0 -213 -153.5 -312t-460.5 -99q-239 0 -510 51q-39 9 -39 51zM457 1778l149 276q6 12 25 12h356q21 0 21 -20v-14q0 -14 -11 -25l-393 -321q-13 -10 -29 0l-112 63q-16 9 -6 29z" />
<glyph unicode="&#x15b;" horiz-adv-x="1052" d="M66 41v205q0 33 34 33h443q62 0 83 10t21 39v14q0 24 -24 41t-86 37l-234 78q-215 71 -215 321v37q0 161 120 238t372 77q177 0 329 -32q33 -9 33 -33v-188q0 -33 -35 -33h-366q-105 0 -105 -58v-18q0 -43 84 -70l256 -84q116 -37 167.5 -114.5t51.5 -202.5v-37 q0 -311 -444 -311q-272 0 -451 20q-34 0 -34 31zM395 1368l150 277q6 12 24 12h357q20 0 20 -21v-14q0 -15 -10 -25l-393 -321q-10 -10 -29 0l-113 63q-16 9 -6 29z" />
<glyph unicode="&#x15c;" horiz-adv-x="1298" d="M76 92v184q0 43 43 43h592q145 0 145 101v20q0 54 -31 84t-112 60l-355 129q-141 51 -204.5 152t-63.5 296v45q0 218 141.5 314t450.5 96q217 0 440 -47q41 -15 41 -43v-199q0 -41 -41 -41h-497q-152 0 -152 -108v-25q0 -89 105 -129l354 -131q164 -62 235 -154 q72 -90 72 -284v-54q0 -213 -153.5 -312t-460.5 -99q-239 0 -510 51q-39 9 -39 51zM289 1761l205 287q9 18 43 18h217q30 0 45 -18l205 -287q19 -22 -9 -35l-77 -38q-23 -13 -39 0l-232 155l-233 -155q-18 -15 -39 0l-78 38q-28 15 -8 35z" />
<glyph unicode="&#x15d;" horiz-adv-x="1052" d="M66 41v205q0 33 34 33h443q62 0 83 10t21 39v14q0 24 -24 41t-86 37l-234 78q-215 71 -215 321v37q0 161 120 238t372 77q177 0 329 -32q33 -9 33 -33v-188q0 -33 -35 -33h-366q-105 0 -105 -58v-18q0 -43 84 -70l256 -84q116 -37 167.5 -114.5t51.5 -202.5v-37 q0 -311 -444 -311q-272 0 -451 20q-34 0 -34 31zM188 1352l205 286q16 19 45 19h217q27 0 43 -19l205 -286q20 -20 -8 -35l-78 -39q-21 -15 -39 0l-231 156l-234 -156q-16 -13 -39 0l-77 39q-28 13 -9 35z" />
<glyph unicode="&#x15e;" horiz-adv-x="1298" d="M76 92v184q0 43 43 43h592q145 0 145 101v20q0 54 -31 84t-112 60l-355 129q-141 51 -204.5 152t-63.5 296v45q0 218 141.5 314t450.5 96q217 0 440 -47q41 -15 41 -43v-199q0 -41 -41 -41h-497q-152 0 -152 -108v-25q0 -89 105 -129l354 -131q164 -62 235 -154 q72 -90 72 -284v-54q0 -337 -410 -399q41 -128 41 -215q0 -160 -229 -160q-138 0 -184 17q-25 9 -25 37v151q0 27 29 27h71q57 0 84 6q22 4 29.5 13.5t7.5 29.5q0 43 -8 82h-20q-239 0 -510 51q-39 9 -39 51z" />
<glyph unicode="&#x15f;" horiz-adv-x="1052" d="M66 41v205q0 33 34 33h443q62 0 83 10t21 39v14q0 24 -24 41t-86 37l-234 78q-215 71 -215 321v37q0 161 120 238t372 77q177 0 329 -32q33 -9 33 -33v-188q0 -33 -35 -33h-366q-105 0 -105 -58v-18q0 -43 84 -70l256 -84q116 -37 167.5 -114.5t51.5 -202.5v-37 q0 -242 -266 -297q41 -128 41 -217q0 -160 -229 -160q-137 0 -183 17q-24 9 -24 37v151q0 27 26 27h72q59 0 86 6q22 4 29.5 13.5t7.5 29.5q0 27 -8 82q-268 0 -447 20q-34 0 -34 31z" />
<glyph unicode="&#x160;" horiz-adv-x="1298" d="M76 92v184q0 43 43 43h592q145 0 145 101v20q0 54 -31 84t-112 60l-355 129q-141 51 -204.5 152t-63.5 296v45q0 218 141.5 314t450.5 96q217 0 440 -47q41 -15 41 -43v-199q0 -41 -41 -41h-497q-152 0 -152 -108v-25q0 -89 105 -129l354 -131q164 -62 235 -154 q72 -90 72 -284v-54q0 -213 -153.5 -312t-460.5 -99q-239 0 -510 51q-39 9 -39 51zM289 1987q-17 20 8 34l78 39q21 15 39 0l233 -155l232 155q16 13 39 0l77 -39q25 -12 9 -34l-205 -285q-15 -21 -45 -21h-217q-34 0 -43 21z" />
<glyph unicode="&#x161;" horiz-adv-x="1052" d="M66 41v205q0 33 34 33h443q62 0 83 10t21 39v14q0 24 -24 41t-86 37l-234 78q-215 71 -215 321v37q0 161 120 238t372 77q177 0 329 -32q33 -9 33 -33v-188q0 -33 -35 -33h-366q-105 0 -105 -58v-18q0 -43 84 -70l256 -84q116 -37 167.5 -114.5t51.5 -202.5v-37 q0 -311 -444 -311q-272 0 -451 20q-34 0 -34 31zM188 1577q-16 22 9 35l77 39q23 13 39 0l234 -156l231 156q18 15 39 0l78 -39q26 -14 8 -35l-205 -285q-14 -20 -43 -20h-217q-31 0 -45 20z" />
<glyph unicode="&#x162;" horiz-adv-x="1329" d="M33 1305v268q0 31 30 31h1201q32 0 32 -31v-268q0 -31 -32 -31h-412v-1241q49 -154 49 -246q0 -160 -229 -160q-139 0 -185 17q-24 9 -24 37v151q0 27 29 27h71q57 0 84 6q22 4 29.5 13.5t7.5 29.5q0 45 -8 92h-172q-31 0 -31 33v1241h-410q-30 0 -30 31z" />
<glyph unicode="&#x163;" horiz-adv-x="813" d="M33 924v198q0 31 35 31h122v217q0 23 29 33l297 78q13 4 22 -5t9 -28v-295h176q35 0 35 -31v-198q0 -33 -35 -33h-176v-492q0 -62 24.5 -82t92.5 -20h77q35 0 35 -31v-213q0 -35 -35 -41q-65 -13 -143 -20q37 -118 37 -205q0 -160 -229 -160q-139 0 -185 17q-24 9 -24 37 v151q0 27 28 27h72q57 0 84 6q22 4 29.5 13.5t7.5 29.5q0 47 -8 86q-114 13 -167 74t-53 202v621h-122q-35 0 -35 33z" />
<glyph unicode="&#x164;" horiz-adv-x="1329" d="M33 1305v268q0 31 30 31h1201q32 0 32 -31v-268q0 -31 -32 -31h-412v-1241q0 -33 -31 -33h-317q-31 0 -31 33v1241h-410q-30 0 -30 31zM305 1987q-17 20 8 34l78 39q21 15 39 0l234 -155l231 155q16 13 39 0l78 -39q24 -12 8 -34l-205 -285q-15 -21 -45 -21h-217 q-28 0 -43 21z" />
<glyph unicode="&#x165;" horiz-adv-x="860" d="M33 924v198q0 31 35 31h122v217q0 23 29 33l297 78q13 4 22 -5t9 -28v-295h176q35 0 35 -31v-198q0 -33 -35 -33h-176v-492q0 -62 24.5 -82t92.5 -20h77q35 0 35 -31v-213q0 -35 -35 -41q-126 -22 -202 -22q-91 0 -140 6q-41 5 -104 31q-55 26 -80 85t-25 158v621h-122 q-35 0 -35 33zM696 1325l52 266q7 23 32 23h322q20 0 20 -21v-14q0 -15 -10 -25l-293 -294q-9 -15 -31 -5l-81 37q-14 8 -11 33z" />
<glyph unicode="&#x166;" horiz-adv-x="1363" d="M49 1305v268q0 31 33 31h1200q33 0 33 -31v-268q0 -31 -33 -31h-412v-404h285q31 0 31 -30v-135q0 -31 -31 -31h-285v-641q0 -33 -30 -33h-318q-30 0 -30 33v641h-281q-31 0 -31 31v135q0 30 31 30h281v404h-410q-33 0 -33 31z" />
<glyph unicode="&#x167;" horiz-adv-x="813" d="M33 924v198q0 31 35 31h122v217q0 23 29 33l297 78q13 4 22 -5t9 -28v-295h176q35 0 35 -31v-198q0 -33 -35 -33h-176v-182h127q31 0 31 -31v-115q0 -31 -31 -31h-127v-133q0 -62 24.5 -82t92.5 -20h77q35 0 35 -31v-213q0 -35 -35 -41q-126 -22 -202 -22q-91 0 -140 6 q-41 5 -104 31q-55 26 -80 85t-25 158v262h-71q-31 0 -31 31v115q0 31 31 31h71v182h-122q-35 0 -35 33z" />
<glyph unicode="&#x168;" horiz-adv-x="1574" d="M121 801v772q0 31 31 31h317q31 0 31 -31v-772q0 -293 57 -385q60 -97 231 -97q170 0 230 97q57 92 57 385v772q0 31 31 31h317q31 0 31 -31v-772q0 -261 -29 -408t-106 -241q-76 -91 -197 -126.5t-334 -35.5t-334.5 35.5t-199.5 126.5q-76 94 -104.5 241t-28.5 408z M395 1780q35 148 83 202t145 54q59 0 168 -41q104 -39 133 -39q32 0 51.5 14.5t36.5 52.5q16 28 37 19l108 -29q28 -9 23 -41q-37 -147 -85.5 -201.5t-142.5 -54.5q-64 0 -168 39q-109 41 -133 41q-32 0 -51.5 -14.5t-36.5 -52.5q-16 -29 -39 -21l-108 31q-27 9 -21 41z" />
<glyph unicode="&#x169;" horiz-adv-x="1265" d="M102 489v639q0 33 33 33h295q31 0 31 -33v-530q-5 -193 31 -258q23 -27 60 -36t110 -7h137v831q0 33 30 33h299q29 0 29 -33v-1067q0 -18 -5 -23.5t-24 -10.5q-191 -37 -522 -37q-165 0 -255 20.5t-148 75.5t-79.5 146t-21.5 257zM215 1370q35 147 83 201.5t142 54.5 q59 0 168 -41q104 -39 133 -39q55 0 90 68q9 27 37 18l109 -28q26 -9 20 -41q-35 -148 -83 -202t-144 -54q-64 0 -168 39q-107 40 -131 40q-60 0 -90 -67q-12 -30 -37 -21l-108 31q-30 10 -21 41z" />
<glyph unicode="&#x16a;" horiz-adv-x="1574" d="M121 801v772q0 31 31 31h317q31 0 31 -31v-772q0 -293 57 -385q60 -97 231 -97q170 0 230 97q57 92 57 385v772q0 31 31 31h317q31 0 31 -31v-772q0 -261 -29 -408t-106 -241q-76 -91 -197 -126.5t-334 -35.5t-334.5 35.5t-199.5 126.5q-76 94 -104.5 241t-28.5 408z M444 1782v145q0 31 31 31h625q30 0 30 -31v-145q0 -31 -30 -31h-625q-31 0 -31 31z" />
<glyph unicode="&#x16b;" horiz-adv-x="1265" d="M102 489v639q0 33 33 33h295q31 0 31 -33v-530q-5 -193 31 -258q23 -27 60 -36t110 -7h137v831q0 33 30 33h299q29 0 29 -33v-1067q0 -18 -5 -23.5t-24 -10.5q-191 -37 -522 -37q-165 0 -255 20.5t-148 75.5t-79.5 146t-21.5 257zM262 1372v146q0 30 31 30h627 q30 0 30 -30v-146q0 -31 -30 -31h-627q-31 0 -31 31z" />
<glyph unicode="&#x16c;" horiz-adv-x="1574" d="M121 801v772q0 31 31 31h317q31 0 31 -31v-772q0 -293 57 -385q60 -97 231 -97q170 0 230 97q57 92 57 385v772q0 31 31 31h317q31 0 31 -31v-772q0 -261 -29 -408t-106 -241q-76 -91 -197 -126.5t-334 -35.5t-334.5 35.5t-199.5 126.5q-76 94 -104.5 241t-28.5 408z M410 2005q-6 33 28 33h144q25 0 34 -25q25 -55 62.5 -76.5t109.5 -21.5q70 0 107.5 21.5t60.5 76.5q9 25 35 25h148q34 0 28 -31q-20 -164 -105 -229.5t-274 -65.5q-191 0 -274.5 64.5t-103.5 228.5z" />
<glyph unicode="&#x16d;" horiz-adv-x="1265" d="M102 489v639q0 33 33 33h295q31 0 31 -33v-530q-5 -193 31 -258q23 -27 60 -36t110 -7h137v831q0 33 30 33h299q29 0 29 -33v-1067q0 -18 -5 -23.5t-24 -10.5q-191 -37 -522 -37q-165 0 -255 20.5t-148 75.5t-79.5 146t-21.5 257zM227 1595q-6 33 29 33h145q26 0 35 -24 q25 -55 63 -77t107 -22t107 22t63 77q9 24 35 24h145q35 0 29 -31q-20 -164 -104 -229t-275 -65t-275 64t-104 228z" />
<glyph unicode="&#x16e;" horiz-adv-x="1574" d="M121 801v772q0 31 31 31h317q31 0 31 -31v-772q0 -293 57 -385q60 -97 231 -97q170 0 230 97q57 92 57 385v772q0 31 31 31h317q31 0 31 -31v-772q0 -261 -29 -408t-106 -241q-76 -91 -197 -126.5t-334 -35.5t-334.5 35.5t-199.5 126.5q-76 94 -104.5 241t-28.5 408z M539 1913q0 239 249 239q250 0 250 -239q0 -242 -250 -242q-249 0 -249 242zM662 1913q0 -127 126 -127q127 0 127 127t-127 127q-126 0 -126 -127z" />
<glyph unicode="&#x16f;" horiz-adv-x="1265" d="M102 489v639q0 33 33 33h295q31 0 31 -33v-530q-5 -193 31 -258q23 -27 60 -36t110 -7h137v831q0 33 30 33h299q29 0 29 -33v-1067q0 -18 -5 -23.5t-24 -10.5q-191 -37 -522 -37q-165 0 -255 20.5t-148 75.5t-79.5 146t-21.5 257zM356 1503q0 240 250 240t250 -240 q0 -241 -250 -241t-250 241zM479 1503q0 -127 127 -127t127 127t-127 127t-127 -127z" />
<glyph unicode="&#x170;" horiz-adv-x="1574" d="M121 801v772q0 31 31 31h317q31 0 31 -31v-772q0 -293 57 -385q60 -97 231 -97q170 0 230 97q57 92 57 385v772q0 31 31 31h317q31 0 31 -31v-772q0 -261 -29 -408t-106 -241q-76 -91 -197 -126.5t-334 -35.5t-334.5 35.5t-199.5 126.5q-76 94 -104.5 241t-28.5 408z M455 1778l149 276q6 12 25 12h215q20 0 20 -20v-14q0 -18 -10 -25l-311 -299q-15 -12 -29 0l-53 41q-16 13 -6 29zM848 1778l149 276q6 12 25 12h215q20 0 20 -20v-14q0 -15 -10 -25l-311 -299q-14 -12 -29 0l-53 41q-16 13 -6 29z" />
<glyph unicode="&#x171;" horiz-adv-x="1265" d="M102 489v639q0 33 33 33h295q31 0 31 -33v-530q-5 -193 31 -258q23 -27 60 -36t110 -7h137v831q0 33 30 33h299q29 0 29 -33v-1067q0 -18 -5 -23.5t-24 -10.5q-191 -37 -522 -37q-165 0 -255 20.5t-148 75.5t-79.5 146t-21.5 257zM307 1368l150 277q6 12 24 12h215 q21 0 21 -21v-14q0 -18 -10 -25l-312 -299q-14 -11 -28 0l-54 41q-16 13 -6 29zM700 1368l150 277q6 12 24 12h216q20 0 20 -21v-14q0 -18 -10 -25l-312 -299q-14 -11 -28 0l-53 41q-16 13 -7 29z" />
<glyph unicode="&#x172;" horiz-adv-x="1574" d="M121 801v772q0 31 31 31h317q31 0 31 -31v-772q0 -293 57 -385q60 -97 231 -97q170 0 230 97q57 92 57 385v772q0 31 31 31h317q31 0 31 -31v-772q0 -452 -115 -623q-114 -169 -438 -184q-8 -44 -8 -86q0 -19 7.5 -29t27.5 -14q31 -6 86 -6h73q27 0 27 -27v-151 q0 -28 -24 -37q-46 -17 -183 -17q-229 0 -229 160q0 89 35 205q-353 9 -473 176q-119 168 -119 633z" />
<glyph unicode="&#x173;" horiz-adv-x="1265" d="M102 489v639q0 33 33 33h295q31 0 31 -33v-530q-5 -193 31 -258q23 -27 60 -36t110 -7h137v831q0 33 30 33h299q29 0 29 -33v-1067q0 -18 -5 -23.5t-24 -10.5q-71 -13 -167 -23q-11 -71 -11 -96q0 -19 7.5 -29t27.5 -14q31 -6 86 -6h72q28 0 28 -27v-151q0 -28 -24 -37 q-46 -17 -182 -17q-230 0 -230 160q0 89 35 205q-37 -2 -164 -2q-165 0 -255 20.5t-148 75.5t-79.5 146t-21.5 257z" />
<glyph unicode="&#x174;" horiz-adv-x="2263" d="M37 1569q-6 35 29 35h325q13 0 19.5 -7.5t11.5 -27.5l201 -1145q9 -37 30 -37q17 0 23 6.5t12 30.5l258 1094q9 34 45 34h281q34 0 43 -34l258 -1094q11 -37 35 -37.5t32 37.5l199 1145q5 20 11.5 27.5t19.5 7.5h325q37 0 31 -35l-244 -1331q-30 -164 -88 -207 q-56 -41 -239 -41q-122 0 -172.5 7t-89.5 34q-38 27 -55.5 66.5t-43.5 140.5l-164 696l-163 -696q-14 -60 -25 -96t-31 -67t-40.5 -45t-60.5 -24.5t-85 -13t-119 -2.5q-182 0 -241 41q-57 45 -84 207zM774 1761l203 287q15 18 45 18h217q34 0 43 -18l205 -287q20 -20 -8 -35 l-78 -38q-22 -15 -37 0l-234 155l-233 -155q-16 -13 -39 0l-78 38q-26 15 -6 35z" />
<glyph unicode="&#x175;" horiz-adv-x="1855" d="M37 1133q-6 28 24 28h316q16 0 22 -28l127 -830q2 -15 12 -21t20.5 0t12.5 21l187 797q6 24 33 24h274q27 0 33 -24l186 -797q3 -22 21 -22q21 0 24 22l127 830q3 28 23 28h315q28 0 25 -28l-174 -951q-21 -122 -84 -157q-59 -35 -220 -35q-193 0 -249 30q-53 30 -80 162 l-84 393l-84 -393q-27 -132 -82 -162q-52 -30 -250 -30q-159 0 -221 35q-61 36 -82 157zM569 1352l205 286q16 19 43 19h219q27 0 43 -19l205 -286q20 -23 -8 -35l-78 -39q-23 -13 -39 0l-231 156l-234 -156q-16 -13 -39 0l-77 39q-28 13 -9 35z" />
<glyph unicode="&#x176;" horiz-adv-x="1517" d="M2 1559q-23 45 23 45h356q32 0 55 -33l324 -672l325 672q14 33 56 33h354q46 0 23 -45l-570 -1031v-493q0 -35 -30 -35h-318q-31 0 -31 35v497zM403 1761l205 287q15 18 43 18h217q30 0 45 -18l205 -287q20 -23 -8 -35l-78 -38q-23 -13 -39 0l-231 155l-234 -155 q-18 -15 -39 0l-77 38q-28 16 -9 35z" />
<glyph unicode="&#x177;" horiz-adv-x="1298" d="M100 502v628q0 31 31 31h297q31 0 31 -31v-548q0 -178 43 -230q47 -53 182 -53q88 0 147 12v819q0 31 31 31h295q31 0 31 -31v-1144q0 -93 -10 -148t-39 -108q-41 -80 -152.5 -119t-314.5 -39q-265 0 -424 33q-27 6 -27 33v190q0 31 29 31h385q117 0 156.5 29t39.5 114 v14q-110 -26 -241 -26q-271 0 -381 119q-109 121 -109 393zM281 1352l204 286q16 19 43 19h217q30 0 46 -19l204 -286q20 -23 -8 -35l-78 -39q-23 -13 -39 0l-231 156l-233 -156q-18 -15 -39 0l-78 39q-28 12 -8 35z" />
<glyph unicode="&#x178;" horiz-adv-x="1517" d="M2 1559q-23 45 23 45h356q32 0 55 -33l324 -672l325 672q14 33 56 33h354q46 0 23 -45l-570 -1031v-493q0 -35 -30 -35h-318q-31 0 -31 35v497zM342 1874q0 76 45.5 119t130.5 43q84 0 128 -43t44 -119q0 -80 -44 -123t-128 -43q-176 0 -176 166zM829 1874q0 76 46 119 t131 43q84 0 129 -43t45 -119q0 -80 -45 -123t-129 -43q-86 0 -131.5 43t-45.5 123z" />
<glyph unicode="&#x179;" horiz-adv-x="1439" d="M59 276q0 23 15 41l778 957h-735q-33 0 -33 31l-2 266q0 33 33 33h1212q31 0 31 -33v-246q0 -26 -15 -41l-780 -954h780q33 0 33 -31v-266q0 -33 -33 -33h-1251q-31 0 -31 33zM514 1778l150 276q6 12 24 12h356q21 0 21 -20v-14q0 -15 -10 -25l-393 -321q-10 -10 -29 0 l-113 63q-16 9 -6 29z" />
<glyph unicode="&#x17a;" horiz-adv-x="1130" d="M59 33v174q0 24 15 39l481 616h-438q-37 0 -37 31v235q0 33 37 33h891q36 0 36 -33v-184q0 -17 -16 -39l-453 -598h463q35 0 35 -33v-241q0 -33 -35 -33h-944q-35 0 -35 33zM365 1368l149 277q6 12 25 12h356q20 0 20 -21v-14q0 -15 -10 -25l-393 -321q-10 -10 -29 0 l-112 63q-16 9 -6 29z" />
<glyph unicode="&#x17b;" horiz-adv-x="1439" d="M59 276q0 23 15 41l778 957h-735q-33 0 -33 31l-2 266q0 33 33 33h1212q31 0 31 -33v-246q0 -26 -15 -41l-780 -954h780q33 0 33 -31v-266q0 -33 -33 -33h-1251q-31 0 -31 33zM528 1874q0 170 191 170q92 0 141 -44t49 -126q0 -85 -49 -129.5t-141 -44.5q-191 0 -191 174 z" />
<glyph unicode="&#x17c;" horiz-adv-x="1130" d="M59 33v174q0 24 15 39l481 616h-438q-37 0 -37 31v235q0 33 37 33h891q36 0 36 -33v-184q0 -17 -16 -39l-453 -598h463q35 0 35 -33v-241q0 -33 -35 -33h-944q-35 0 -35 33zM379 1464q0 170 190 170q92 0 141.5 -44t49.5 -126q0 -85 -49.5 -129.5t-141.5 -44.5 q-190 0 -190 174z" />
<glyph unicode="&#x17d;" horiz-adv-x="1439" d="M59 276q0 23 15 41l778 957h-735q-33 0 -33 31l-2 266q0 33 33 33h1212q31 0 31 -33v-246q0 -26 -15 -41l-780 -954h780q33 0 33 -31v-266q0 -33 -33 -33h-1251q-31 0 -31 33zM362 1987q-18 21 7 34l77 39q23 13 39 0l234 -155l233 155q15 15 37 0l78 -39q25 -14 8 -34 l-205 -285q-9 -21 -43 -21h-217q-30 0 -45 21z" />
<glyph unicode="&#x17e;" horiz-adv-x="1130" d="M59 33v174q0 24 15 39l481 616h-438q-37 0 -37 31v235q0 33 37 33h891q36 0 36 -33v-184q0 -17 -16 -39l-453 -598h463q35 0 35 -33v-241q0 -33 -35 -33h-944q-35 0 -35 33zM213 1577q-19 22 6 35l78 39q23 13 39 0l233 -156l234 156q15 15 37 0l78 -39q26 -14 8 -35 l-205 -285q-9 -20 -43 -20h-217q-31 0 -45 20z" />
<glyph unicode="&#x192;" horiz-adv-x="1284" d="M84 66l31 210q2 14 6 17.5t22 3.5h185q96 0 108 78l53 381h-116q-37 0 -37 43v200q0 31 31 31h161l39 281q27 195 144 252q58 30 118 40.5t154 10.5q124 0 238 -27q49 -3 43 -49l-29 -203q-6 -28 -39 -28h-176q-98 0 -107 -78l-28 -199h221q31 0 31 -31v-213 q0 -30 -31 -30h-258l-66 -461q-27 -198 -145 -258q-58 -28 -116 -37.5t-154 -9.5q-128 0 -238 26q-48 3 -45 50z" />
<glyph unicode="&#x1cd;" horiz-adv-x="1488" d="M6 33l367 1335q45 166 108 207q62 41 262 41q203 0 265 -41q63 -41 108 -207l365 -1335q6 -33 -27 -33h-313q-20 0 -29 33l-111 413h-514l-114 -413q-9 -33 -27 -33h-313q-33 0 -27 33zM385 1987q-16 22 8 34l78 39q23 13 39 0l233 -155l232 155q16 13 39 0l78 -39 q24 -12 8 -34l-205 -285q-15 -21 -43 -21h-219q-28 0 -43 21zM569 756h349l-142 512q-5 21 -11 26.5t-24 5.5q-17 0 -22 -5.5t-10 -26.5z" />
<glyph unicode="&#x1ce;" horiz-adv-x="1183" d="M51 356q3 208 107 275q103 69 340 69l225 2v41q0 121 -156 121h-401q-27 0 -27 31v209q0 27 27 33q167 34 401 34q95 0 170 -9.5t128.5 -25.5t92.5 -42t62.5 -54.5t37 -68.5t18.5 -78.5t5 -89.5v-705q0 -53 -49 -65q-209 -43 -471 -43q-113 0 -180 6q-62 3 -137 22 q-99 31 -141.5 105.5t-51.5 232.5zM231 1577q-16 22 9 35l77 39q23 13 39 0l234 -156l231 156q18 15 39 0l78 -39q24 -12 8 -35l-205 -285q-14 -20 -43 -20h-217q-31 0 -45 20zM403 381q0 -61 30.5 -83t115.5 -22q97 0 174 17v194h-191q-72 0 -100.5 -24t-28.5 -82z" />
<glyph unicode="&#x1cf;" horiz-adv-x="649" d="M-33 1987q-19 22 6 34l78 39q23 13 39 0l234 -155l233 155q15 15 37 0l78 -39q27 -12 8 -34l-205 -285q-9 -21 -43 -21h-217q-30 0 -45 21zM135 35v1536q0 33 31 33h317q31 0 31 -33v-1536q0 -35 -31 -35h-317q-31 0 -31 35z" />
<glyph unicode="&#x1d0;" horiz-adv-x="579" d="M-68 1577q-16 22 9 35l77 39q23 13 39 0l234 -156l231 156q18 15 39 0l78 -39q26 -14 8 -35l-205 -285q-14 -20 -43 -20h-217q-31 0 -45 20zM111 33v1095q0 33 30 33h297q31 0 31 -33v-1095q0 -33 -31 -33h-297q-30 0 -30 33z" />
<glyph unicode="&#x1d1;" horiz-adv-x="1538" d="M86 801q0 248 31.5 397t109.5 244q80 96 206 135t335 39q400 0 541 -172q143 -168 143 -643q0 -249 -31.5 -397t-111.5 -242q-78 -94 -204.5 -133t-336.5 -39q-397 0 -541 170q-141 170 -141 641zM412 1987q-19 22 6 34l78 39q23 13 39 0l233 -155l233 155q15 15 37 0 l78 -39q25 -14 8 -34l-204 -285q-9 -21 -43 -21h-218q-30 0 -45 21zM469 801q0 -278 59 -381q58 -101 240 -101t240 101q59 103 59 381q0 280 -59 383q-58 102 -240 102t-240 -102q-59 -103 -59 -383z" />
<glyph unicode="&#x1d2;" horiz-adv-x="1241" d="M76 580q0 358 106 473q106 118 439 118q330 0 436 -118q108 -117 108 -473q0 -357 -108 -474q-107 -116 -436 -116q-332 0 -439 116q-106 115 -106 474zM264 1577q-20 23 8 35l78 39q22 15 37 0l234 -156l233 156q16 13 39 0l78 -39q25 -13 6 -35l-203 -285 q-14 -20 -45 -20h-217q-31 0 -45 20zM434 580q0 -172 35 -228q37 -55 152 -55t149 55q37 55 37 228q0 171 -37 229q-34 55 -149 55t-152 -57q-35 -56 -35 -227z" />
<glyph unicode="&#x1d3;" horiz-adv-x="1574" d="M121 801v772q0 31 31 31h317q31 0 31 -31v-772q0 -293 57 -385q60 -97 231 -97q170 0 230 97q57 92 57 385v772q0 31 31 31h317q31 0 31 -31v-772q0 -261 -29 -408t-106 -241q-76 -91 -197 -126.5t-334 -35.5t-334.5 35.5t-199.5 126.5q-76 94 -104.5 241t-28.5 408z M430 1987q-17 20 8 34l78 39q21 15 39 0l233 -155l232 155q16 13 39 0l78 -39q24 -12 8 -34l-205 -285q-15 -21 -45 -21h-217q-28 0 -43 21z" />
<glyph unicode="&#x1d4;" horiz-adv-x="1265" d="M102 489v639q0 33 33 33h295q31 0 31 -33v-530q-5 -193 31 -258q23 -27 60 -36t110 -7h137v831q0 33 30 33h299q29 0 29 -33v-1067q0 -18 -5 -23.5t-24 -10.5q-191 -37 -522 -37q-165 0 -255 20.5t-148 75.5t-79.5 146t-21.5 257zM250 1577q-19 22 6 35l78 39q23 13 39 0 l233 -156l234 156q15 15 37 0l77 -39q26 -15 9 -35l-205 -285q-9 -20 -43 -20h-217q-31 0 -45 20z" />
<glyph unicode="&#x1d5;" horiz-adv-x="1574" d="M121 801v772q0 31 31 31h317q31 0 31 -31v-772q0 -293 57 -385q60 -97 231 -97q170 0 230 97q57 92 57 385v772q0 31 31 31h317q31 0 31 -31v-772q0 -261 -29 -408t-106 -241q-76 -91 -197 -126.5t-334 -35.5t-334.5 35.5t-199.5 126.5q-76 94 -104.5 241t-28.5 408z M369 1874q0 76 45.5 119t130.5 43q84 0 128 -43t44 -119q0 -80 -44 -123t-128 -43q-176 0 -176 166zM444 2202v145q0 31 31 31h625q30 0 30 -31v-145q0 -31 -30 -31h-625q-31 0 -31 31zM856 1874q0 76 45.5 119t130.5 43q84 0 129 -43t45 -119q0 -80 -45 -123t-129 -43 q-86 0 -131 43t-45 123z" />
<glyph unicode="&#x1d6;" horiz-adv-x="1265" d="M102 489v639q0 33 33 33h295q31 0 31 -33v-530q-5 -193 31 -258q23 -27 60 -36t110 -7h137v831q0 33 30 33h299q29 0 29 -33v-1067q0 -18 -5 -23.5t-24 -10.5q-191 -37 -522 -37q-165 0 -255 20.5t-148 75.5t-79.5 146t-21.5 257zM186 1464q0 76 45.5 119t130.5 43 q84 0 129.5 -43t45.5 -119q0 -80 -44.5 -123t-130.5 -43t-131 43t-45 123zM262 1759v146q0 30 31 30h627q30 0 30 -30v-146q0 -30 -30 -30h-627q-31 0 -31 30zM676 1464q0 76 45.5 119t130.5 43q84 0 128 -43t44 -119q0 -80 -44 -123t-128 -43q-176 0 -176 166z" />
<glyph unicode="&#x1d7;" horiz-adv-x="1574" d="M121 801v772q0 31 31 31h317q31 0 31 -31v-772q0 -293 57 -385q60 -97 231 -97q170 0 230 97q57 92 57 385v772q0 31 31 31h317q31 0 31 -31v-772q0 -261 -29 -408t-106 -241q-76 -91 -197 -126.5t-334 -35.5t-334.5 35.5t-199.5 126.5q-76 94 -104.5 241t-28.5 408z M369 1874q0 76 45.5 119t130.5 43q84 0 128 -43t44 -119q0 -80 -44 -123t-128 -43q-176 0 -176 166zM686 2157l150 276q6 12 24 12h357q20 0 20 -20v-15q0 -14 -10 -24l-393 -322q-10 -10 -29 0l-113 64q-16 9 -6 29zM856 1874q0 76 45.5 119t130.5 43q84 0 129 -43t45 -119 q0 -80 -45 -123t-129 -43q-86 0 -131 43t-45 123z" />
<glyph unicode="&#x1d8;" horiz-adv-x="1265" d="M102 489v639q0 33 33 33h295q31 0 31 -33v-530q-5 -193 31 -258q23 -27 60 -36t110 -7h137v831q0 33 30 33h299q29 0 29 -33v-1067q0 -18 -5 -23.5t-24 -10.5q-191 -37 -522 -37q-165 0 -255 20.5t-148 75.5t-79.5 146t-21.5 257zM186 1464q0 76 45.5 119t130.5 43 q84 0 129.5 -43t45.5 -119q0 -80 -44.5 -123t-130.5 -43t-131 43t-45 123zM498 1761l149 275q6 12 25 12h354q21 0 21 -20v-15q0 -13 -11 -24l-393 -320q-10 -10 -29 0l-110 64q-15 9 -6 28zM676 1464q0 76 45.5 119t130.5 43q84 0 128 -43t44 -119q0 -80 -44 -123t-128 -43 q-176 0 -176 166z" />
<glyph unicode="&#x1d9;" horiz-adv-x="1574" d="M121 801v772q0 31 31 31h317q31 0 31 -31v-772q0 -293 57 -385q60 -97 231 -97q170 0 230 97q57 92 57 385v772q0 31 31 31h317q31 0 31 -31v-772q0 -261 -29 -408t-106 -241q-76 -91 -197 -126.5t-334 -35.5t-334.5 35.5t-199.5 126.5q-76 94 -104.5 241t-28.5 408z M369 1874q0 76 45.5 119t130.5 43q84 0 128 -43t44 -119q0 -80 -44 -123t-128 -43q-176 0 -176 166zM430 2384q-18 21 8 35l78 39q21 15 39 0l233 -156l232 156q16 13 39 0l78 -39q24 -12 8 -35l-205 -285q-14 -20 -45 -20h-217q-29 0 -43 20zM856 1874q0 76 45.5 119 t130.5 43q84 0 129 -43t45 -119q0 -80 -45 -123t-129 -43q-86 0 -131 43t-45 123z" />
<glyph unicode="&#x1da;" horiz-adv-x="1265" d="M102 489v639q0 33 33 33h295q31 0 31 -33v-530q-5 -193 31 -258q23 -27 60 -36t110 -7h137v831q0 33 30 33h299q29 0 29 -33v-1067q0 -18 -5 -23.5t-24 -10.5q-191 -37 -522 -37q-165 0 -255 20.5t-148 75.5t-79.5 146t-21.5 257zM186 1464q0 76 45.5 119t130.5 43 q84 0 129.5 -43t45.5 -119q0 -80 -44.5 -123t-130.5 -43t-131 43t-45 123zM250 1978q-19 22 6 35l78 39q23 13 39 0l233 -156l234 156q15 15 37 0l77 -39q26 -15 9 -35l-205 -284q-10 -19 -43 -19h-217q-32 0 -45 19zM676 1464q0 76 45.5 119t130.5 43q84 0 128 -43t44 -119 q0 -80 -44 -123t-128 -43q-176 0 -176 166z" />
<glyph unicode="&#x1db;" horiz-adv-x="1574" d="M121 801v772q0 31 31 31h317q31 0 31 -31v-772q0 -293 57 -385q60 -97 231 -97q170 0 230 97q57 92 57 385v772q0 31 31 31h317q31 0 31 -31v-772q0 -261 -29 -408t-106 -241q-76 -91 -197 -126.5t-334 -35.5t-334.5 35.5t-199.5 126.5q-76 94 -104.5 241t-28.5 408z M369 1874q0 76 45.5 119t130.5 43q84 0 128 -43t44 -119q0 -80 -44 -123t-128 -43q-176 0 -176 166zM371 2410v15q0 20 20 20h357q18 0 24 -12l150 -276q10 -19 -7 -29l-112 -64q-19 -10 -29 0l-393 322q-10 10 -10 24zM856 1874q0 76 45.5 119t130.5 43q84 0 129 -43 t45 -119q0 -80 -45 -123t-129 -43q-86 0 -131 43t-45 123z" />
<glyph unicode="&#x1dc;" horiz-adv-x="1265" d="M102 489v639q0 33 33 33h295q31 0 31 -33v-530q-5 -193 31 -258q23 -27 60 -36t110 -7h137v831q0 33 30 33h299q29 0 29 -33v-1067q0 -18 -5 -23.5t-24 -10.5q-191 -37 -522 -37q-165 0 -255 20.5t-148 75.5t-79.5 146t-21.5 257zM158 2013v15q0 20 20 20h354 q19 0 25 -12l150 -275q9 -18 -7 -28l-110 -64q-19 -10 -29 0l-393 320q-10 10 -10 24zM186 1464q0 76 45.5 119t130.5 43q84 0 129.5 -43t45.5 -119q0 -80 -44.5 -123t-130.5 -43t-131 43t-45 123zM676 1464q0 76 45.5 119t130.5 43q84 0 128 -43t44 -119q0 -80 -44 -123 t-128 -43q-176 0 -176 166z" />
<glyph unicode="&#x1fa;" horiz-adv-x="1488" d="M6 33l367 1335q45 166 108 207q62 41 262 41q203 0 265 -41q63 -41 108 -207l365 -1335q6 -33 -27 -33h-313q-20 0 -29 33l-111 413h-514l-114 -413q-9 -33 -27 -33h-313q-33 0 -27 33zM494 1913q0 177 137 223l121 225q6 13 24 13h357q20 0 20 -21v-14q0 -15 -10 -25 l-283 -180q133 -50 133 -221q0 -242 -250 -242q-249 0 -249 242zM571 756h347l-140 512q-6 21 -12.5 26.5t-24.5 5.5q-16 0 -21 -5t-11 -27zM616 1913q0 -127 127 -127t127 127t-127 127t-127 -127z" />
<glyph unicode="&#x1fb;" horiz-adv-x="1183" d="M51 356q3 208 107 275q103 69 340 69l225 2v41q0 121 -156 121h-401q-27 0 -27 31v209q0 27 27 33q167 34 401 34q95 0 170 -9.5t128.5 -25.5t92.5 -42t62.5 -54.5t37 -68.5t18.5 -78.5t5 -89.5v-705q0 -53 -49 -65q-209 -43 -471 -43q-113 0 -180 6q-62 3 -137 22 q-99 31 -141.5 105.5t-51.5 232.5zM340 1503q0 177 137 223l123 226q6 12 25 12h354q20 0 20 -20v-15q0 -14 -10 -24l-282 -181q133 -47 133 -221q0 -241 -250 -241t-250 241zM403 381q0 -61 30.5 -83t115.5 -22q97 0 174 17v194h-191q-72 0 -100.5 -24t-28.5 -82zM463 1503 q0 -127 127 -127t127 127t-127 127t-127 -127z" />
<glyph unicode="&#x1fc;" horiz-adv-x="2152" d="M6 33l369 1335q46 167 106 207q65 41 262 41l611 -12h678q30 0 30 -31v-268q0 -31 -30 -31h-689v-320h629q33 0 33 -30v-254q0 -31 -33 -31h-629v-309h689q30 0 30 -31v-268q0 -31 -30 -31h-1037q-30 0 -30 33v413h-478l-112 -413q-9 -33 -29 -33h-313q-33 0 -27 33z M571 756h394v544h-174q-43 0 -64 -15.5t-31 -57.5zM1042 1778l150 276q6 12 25 12h356q20 0 20 -20v-14q0 -15 -10 -25l-393 -321q-10 -10 -29 0l-112 63q-17 10 -7 29z" />
<glyph unicode="&#x1fd;" horiz-adv-x="1849" d="M51 356q3 208 107 275q103 69 340 69l225 2v41q0 121 -156 121h-401q-17 0 -23 6t-6 25v209q0 18 5 23t24 10q164 34 401 34q234 0 353 -88q125 88 344 88q315 0 419 -116q107 -116 107 -469v-64q0 -32 -13 -43.5t-48 -11.5h-639q3 -109 43 -139q45 -31 170 -31h376 q31 0 31 -31v-209q0 -28 -29 -34q-146 -33 -417 -33q-96 0 -193 20q-102 21 -158 56q-143 -76 -352 -76q-113 0 -180 6q-62 3 -137 22q-99 31 -141.5 105.5t-51.5 232.5zM403 381q0 -62 31.5 -86.5t112.5 -24.5q138 0 219 37q-29 82 -29 180h-205q-72 0 -100.5 -24 t-28.5 -82zM772 1368l150 277q6 12 24 12h357q20 0 20 -21v-14q0 -15 -10 -25l-393 -321q-13 -10 -29 0l-113 63q-16 9 -6 29zM1087 684h345q-1 102 -38.5 141t-129.5 39q-96 0 -136.5 -39.5t-40.5 -140.5z" />
<glyph unicode="&#x1fe;" horiz-adv-x="1538" d="M86 801q0 248 31.5 397t109.5 244q80 96 206 135t335 39q283 0 428 -80l59 86q22 29 43 8l70 -47q24 -15 6 -43l-67 -94q145 -171 145 -645q0 -249 -31.5 -397t-111.5 -242q-78 -94 -204.5 -133t-336.5 -39q-279 0 -426 78l-63 -91q-19 -28 -41 -6l-70 49q-23 14 -8 41 l69 97q-143 168 -143 643zM469 801q0 -181 20 -271l486 695q-61 61 -207 61q-182 0 -240 -102q-59 -103 -59 -383zM561 381q65 -62 207 -62q182 0 240 101q59 103 59 381q0 193 -20 272zM627 1778l149 276q6 12 25 12h356q21 0 21 -20v-14q0 -14 -11 -25l-393 -321 q-10 -10 -29 0l-112 63q-16 9 -6 29z" />
<glyph unicode="&#x1ff;" horiz-adv-x="1241" d="M76 580q0 358 106 473q106 118 439 118q192 0 301 -34l49 71q23 29 43 9l69 -48q25 -16 7 -43l-43 -61q65 -62 91.5 -175.5t26.5 -309.5q0 -357 -108 -474q-107 -116 -436 -116q-200 0 -304 37l-53 -76q-19 -28 -41 -6l-69 49q-24 15 -9 41l48 65q-62 62 -89.5 175.5 t-27.5 304.5zM434 580q0 -76 6 -125l279 395q-32 14 -98 14q-115 0 -152 -57q-35 -56 -35 -227zM487 1368l150 277q6 12 25 12h354q20 0 20 -21v-14q0 -15 -10 -25l-393 -321q-10 -10 -29 0l-110 63q-17 10 -7 29zM518 313q37 -16 103 -16q115 0 149 55q37 55 37 228 q0 92 -8 133z" />
<glyph unicode="&#x218;" horiz-adv-x="1298" d="M76 92v184q0 43 43 43h592q145 0 145 101v20q0 54 -31 84t-112 60l-355 129q-141 51 -204.5 152t-63.5 296v45q0 218 141.5 314t450.5 96q217 0 440 -47q41 -15 41 -43v-199q0 -41 -41 -41h-497q-152 0 -152 -108v-25q0 -89 105 -129l354 -131q164 -62 235 -154 q72 -90 72 -284v-54q0 -213 -153.5 -312t-460.5 -99q-239 0 -510 51q-39 9 -39 51zM319 -332l130 238q6 12 24 12h305q21 0 21 -20v-15q0 -13 -11 -24l-344 -273q-9 -9 -28 0l-90 54q-16 10 -7 28z" />
<glyph unicode="&#x219;" horiz-adv-x="1052" d="M66 41v205q0 33 34 33h443q62 0 83 10t21 39v14q0 24 -24 41t-86 37l-234 78q-215 71 -215 321v37q0 161 120 238t372 77q177 0 329 -32q33 -9 33 -33v-188q0 -33 -35 -33h-366q-105 0 -105 -58v-18q0 -43 84 -70l256 -84q116 -37 167.5 -114.5t51.5 -202.5v-37 q0 -311 -444 -311q-272 0 -451 20q-34 0 -34 31zM217 -332l129 238q6 12 25 12h305q20 0 20 -20v-15q0 -14 -10 -24l-344 -273q-10 -10 -29 0l-90 54q-15 9 -6 28z" />
<glyph unicode="&#x21a;" horiz-adv-x="1329" d="M33 1305v268q0 31 30 31h1201q32 0 32 -31v-268q0 -31 -32 -31h-412v-1241q0 -33 -31 -33h-317q-31 0 -31 33v1241h-410q-30 0 -30 31zM356 -332l131 238q6 12 25 12h303q21 0 21 -20v-15q0 -13 -11 -24l-342 -273q-12 -9 -28 0l-93 54q-15 9 -6 28z" />
<glyph unicode="&#x21b;" horiz-adv-x="813" d="M33 924v198q0 31 35 31h122v217q0 23 29 33l297 78q13 4 22 -5t9 -28v-295h176q35 0 35 -31v-198q0 -33 -35 -33h-176v-492q0 -62 24.5 -82t92.5 -20h77q35 0 35 -31v-213q0 -35 -35 -41q-126 -22 -202 -22q-91 0 -140 6q-41 5 -104 31q-55 26 -80 85t-25 158v621h-122 q-35 0 -35 33zM158 -332l129 238q6 12 24 12h305q21 0 21 -20v-15q0 -14 -10 -24l-344 -273q-10 -10 -29 0l-90 54q-15 9 -6 28z" />
<glyph unicode="&#x2c6;" horiz-adv-x="1220" d="M254 1352l203 286q16 19 45 19h217q33 0 43 -19l205 -286q19 -19 -9 -35l-77 -39q-22 -15 -37 0l-234 156l-233 -156q-16 -13 -39 0l-78 39q-26 15 -6 35z" />
<glyph unicode="&#x2c7;" horiz-adv-x="1220" d="M254 1577q-19 22 6 35l78 39q23 13 39 0l233 -156l234 156q15 15 37 0l77 -39q26 -15 9 -35l-205 -285q-9 -20 -43 -20h-217q-31 0 -45 20z" />
<glyph unicode="&#x2d8;" horiz-adv-x="1251" d="M248 1595q-6 33 28 33h146q26 0 35 -24q23 -55 61.5 -77t108.5 -22t107.5 22t60.5 77q9 24 34 24h148q35 0 29 -31q-20 -164 -104.5 -229t-274.5 -65q-191 0 -275 64t-104 228z" />
<glyph unicode="&#x2d9;" horiz-adv-x="872" d="M246 1464q0 82 49.5 126t142.5 44q92 0 140.5 -44t48.5 -126q0 -174 -189 -174q-192 0 -192 174z" />
<glyph unicode="&#x2da;" horiz-adv-x="991" d="M246 1503q0 240 250 240q249 0 249 -240q0 -241 -249 -241q-250 0 -250 241zM369 1503q0 -127 127 -127t127 127t-127 127t-127 -127z" />
<glyph unicode="&#x2db;" horiz-adv-x="890" d="M246 -213q0 106 49 240q9 24 35 24h116q33 0 27 -33q-12 -82 -12 -110q0 -19 7.5 -29t27.5 -14q31 -6 88 -6h71q27 0 27 -27v-151q0 -28 -25 -37q-46 -17 -182 -17q-229 0 -229 160z" />
<glyph unicode="&#x2dc;" horiz-adv-x="1280" d="M248 1370q35 148 83 202t144 54q59 0 168 -41q104 -39 131 -39q35 0 53.5 14.5t36.5 53.5q15 27 37 18l109 -28q28 -9 22 -41q-37 -148 -85 -202t-142 -54q-64 0 -168 39q-107 40 -133 40q-56 0 -90 -67q-13 -30 -37 -21l-109 31q-26 9 -20 41z" />
<glyph unicode="&#x2dd;" horiz-adv-x="1298" d="M250 1368l149 277q6 12 25 12h215q20 0 20 -21v-14q0 -18 -10 -25l-311 -299q-14 -12 -29 0l-53 41q-16 13 -6 29zM643 1368l150 277q6 12 24 12h215q21 0 21 -21v-14q0 -14 -11 -25l-311 -299q-15 -12 -29 0l-53 41q-16 13 -6 29z" />
<glyph unicode="&#x326;" horiz-adv-x="0" d="M227 -332l129 238q6 12 25 12h305q21 0 21 -20v-15q0 -13 -11 -24l-344 -273q-9 -9 -28 0l-91 54q-15 9 -6 28z" />
<glyph unicode="&#x3c0;" horiz-adv-x="1456" d="M37 864v269q0 30 31 30h1323q30 0 30 -30v-269q0 -30 -30 -30h-179v-803q0 -31 -30 -31h-283q-31 0 -31 31v803h-266q0 -416 -61 -803q-3 -31 -31 -31h-281q-36 0 -30 31q59 399 59 803h-190q-31 0 -31 30z" />
<glyph unicode="&#x401;" horiz-adv-x="1345" d="M135 33v1538q0 33 31 33h1061q33 0 33 -31v-268q0 -31 -33 -31h-713v-320h653q33 0 33 -30v-254q0 -31 -33 -31h-653v-309h713q33 0 33 -31v-268q0 -31 -33 -31h-1061q-31 0 -31 33zM250 1874q0 76 45.5 119t130.5 43q84 0 129 -43t45 -119q0 -80 -44 -123t-130 -43 t-131 43t-45 123zM739 1874q0 76 45.5 119t130.5 43q84 0 129.5 -43t45.5 -119q0 -80 -45 -123t-130 -43q-86 0 -131 43t-45 123z" />
<glyph unicode="&#x410;" horiz-adv-x="1488" d="M6 33l367 1335q45 166 108 207q62 41 262 41q203 0 265 -41q63 -41 108 -207l365 -1335q6 -33 -27 -33h-313q-20 0 -29 33l-111 413h-514l-114 -413q-9 -33 -27 -33h-313q-33 0 -27 33zM571 756h347l-140 512q-6 21 -12.5 26.5t-24.5 5.5q-16 0 -21 -5t-11 -27z" />
<glyph unicode="&#x411;" horiz-adv-x="1445" d="M135 43v1530q0 31 33 31h1098q30 0 30 -31v-268q0 -31 -30 -31h-752v-273h287q315 0 446 -98t131 -344v-127q0 -246 -131 -344t-446 -98q-333 0 -635 24q-31 3 -31 29zM514 319h252q126 0 176.5 37t50.5 133v21q0 97 -51 134.5t-174 37.5h-254v-363z" />
<glyph unicode="&#x412;" horiz-adv-x="1452" d="M135 43v1520q0 25 31 28q314 25 596 25q319 0 448 -100q133 -103 133 -345q0 -179 -57 -261t-196 -105v-6q158 -13 223 -97.5t65 -269.5q0 -246 -131 -344t-446 -98q-333 0 -635 24q-31 3 -31 29zM514 319h252q126 0 176.5 37t50.5 133q0 100 -51.5 141.5t-173.5 41.5 h-254v-353zM514 936h188q147 0 201.5 36.5t54.5 135.5t-53 138.5t-184 39.5h-207v-350z" />
<glyph unicode="&#x413;" horiz-adv-x="1163" d="M135 33v1538q0 33 31 33h942q33 0 33 -31v-268q0 -31 -33 -31h-594v-1241q0 -33 -31 -33h-317q-31 0 -31 33z" />
<glyph unicode="&#x414;" horiz-adv-x="1529" d="M43 -262v569q0 23 31 23h82q116 47 137 305l90 936q3 33 31 33h878q31 0 31 -33v-1241h115q30 0 30 -31v-561q0 -35 -30 -35h-301q-31 0 -31 35v262h-700v-262q0 -35 -31 -35h-301q-31 0 -31 35zM625 330h319v944h-215l-70 -750q-17 -132 -34 -194z" />
<glyph unicode="&#x415;" horiz-adv-x="1345" d="M135 33v1538q0 33 31 33h1061q33 0 33 -31v-268q0 -31 -33 -31h-713v-320h653q33 0 33 -30v-254q0 -31 -33 -31h-653v-309h713q33 0 33 -31v-268q0 -31 -33 -31h-1061q-31 0 -31 33z" />
<glyph unicode="&#x416;" horiz-adv-x="2179" d="M-6 55l549 813l-488 697q-26 39 19 39h350q28 0 43 -21l434 -665v653q0 33 31 33h317q31 0 31 -33v-653l434 665q15 21 43 21h350q42 0 19 -39l-488 -697l547 -813q40 -55 -35 -55h-350q-32 0 -45 23l-475 759v-749q0 -33 -31 -33h-317q-31 0 -31 33v749l-475 -759 q-13 -23 -45 -23h-352q-69 0 -35 55z" />
<glyph unicode="&#x417;" horiz-adv-x="1327" d="M74 84v207q0 28 30 28h463q172 0 228 29q53 30 53 125v21q0 94 -49 127.5t-195 33.5h-393q-31 0 -31 31v234q0 30 31 30h393q151 0 195 33q49 34 49 129v27q0 91 -55 118q-60 29 -230 29h-459q-30 0 -30 29v205q0 26 11.5 38.5t41.5 20.5q161 37 483 37q235 0 371 -45 q246 -74 246 -352v-117q0 -258 -215 -299q215 -44 215 -297v-117q0 -189 -111 -285q-81 -63 -205.5 -89.5t-300.5 -24.5q-322 0 -483 37q-30 8 -41.5 19.5t-11.5 37.5z" />
<glyph unicode="&#x418;" horiz-adv-x="1626" d="M135 35v1536q0 33 31 33h317q31 0 31 -33v-866l580 827q21 30 25.5 36.5t20.5 17.5t32 13t53 5h235q31 0 31 -33v-1536q0 -35 -31 -35h-317q-31 0 -31 35v891l-606 -867q-44 -59 -117 -59h-223q-31 0 -31 35z" />
<glyph unicode="&#x419;" horiz-adv-x="1626" d="M135 35v1536q0 33 31 33h317q31 0 31 -33v-866l580 827q21 30 25.5 36.5t20.5 17.5t32 13t53 5h235q31 0 31 -33v-1536q0 -35 -31 -35h-317q-31 0 -31 35v891l-606 -867q-44 -59 -117 -59h-223q-31 0 -31 35zM426 2005q-6 33 29 33h143q26 0 35 -25q25 -55 62.5 -76.5 t109.5 -21.5q69 0 106 21.5t62 76.5q9 25 35 25h145q35 0 29 -31q-20 -164 -104 -229.5t-273 -65.5q-191 0 -275 64.5t-104 228.5z" />
<glyph unicode="&#x41a;" horiz-adv-x="1449" d="M135 33v1538q0 33 31 33h317q31 0 31 -33v-653l471 665q15 21 43 21h350q42 0 19 -39l-496 -697l555 -813q40 -55 -35 -55h-350q-32 0 -45 23l-512 759v-749q0 -33 -31 -33h-317q-31 0 -31 33z" />
<glyph unicode="&#x41b;" horiz-adv-x="1478" d="M31 76v213q0 30 30 30h54q100 0 140 53.5t52 188.5l96 1010q3 33 31 33h879q30 0 30 -33v-1538q0 -33 -30 -33h-318q-30 0 -30 33v1241h-215l-76 -823q-24 -235 -124 -348t-302 -113q-93 0 -164 22q-31 10 -42 24t-11 40z" />
<glyph unicode="&#x41c;" horiz-adv-x="2052" d="M74 35l155 1536q3 33 27 33h291q57 0 84.5 -17.5t46.5 -64.5l348 -916l348 918q20 49 47.5 65.5t83.5 16.5h293q22 0 25 -35l155 -1536q3 -35 -30 -35h-318q-28 0 -31 35l-88 893l-329 -846q-14 -33 -45 -33h-219q-35 0 -46 33l-329 846l-90 -893q-3 -35 -31 -35h-318 q-33 0 -30 35z" />
<glyph unicode="&#x41d;" horiz-adv-x="1628" d="M135 35v1536q0 33 31 33h317q31 0 31 -33v-606h600v606q0 33 31 33h317q31 0 31 -33v-1536q0 -35 -31 -35h-317q-31 0 -31 35v596h-600v-596q0 -35 -31 -35h-317q-31 0 -31 35z" />
<glyph unicode="&#x41e;" horiz-adv-x="1538" d="M86 801q0 248 31.5 397t109.5 244q80 96 206 135t335 39q400 0 541 -172q143 -168 143 -643q0 -249 -31.5 -397t-111.5 -242q-78 -94 -204.5 -133t-336.5 -39q-397 0 -541 170q-141 170 -141 641zM469 801q0 -278 59 -381q58 -101 240 -101t240 101q59 103 59 381 q0 280 -59 383q-58 102 -240 102t-240 -102q-59 -103 -59 -383z" />
<glyph unicode="&#x41f;" horiz-adv-x="1466" d="M135 33v1538q0 33 31 33h1134q31 0 31 -33v-1538q0 -33 -31 -33h-317q-31 0 -31 33v1241h-438v-1241q0 -33 -31 -33h-317q-31 0 -31 33z" />
<glyph unicode="&#x420;" horiz-adv-x="1411" d="M135 33v1530q0 25 31 28q314 25 600 25q332 0 463 -119q131 -116 131 -420q0 -297 -127 -403q-127 -103 -467 -103h-252v-538q0 -20 -6 -26.5t-25 -6.5h-317q-19 0 -25 6.5t-6 26.5zM514 854h211q146 0 199 41q51 42 51 170t-52 174.5t-198 46.5h-211v-432z" />
<glyph unicode="&#x421;" horiz-adv-x="1294" d="M86 805q0 475 137 643t539 168q253 0 414 -37q30 -8 41.5 -21t11.5 -42v-199q0 -31 -31 -31h-436q-180 0 -238 -98q-55 -98 -55 -383q0 -284 55 -385q58 -101 238 -101h436q31 0 31 -30v-199q0 -51 -53 -63q-148 -37 -414 -37q-209 0 -335 38.5t-204 133.5 q-76 96 -106.5 244t-30.5 399z" />
<glyph unicode="&#x422;" horiz-adv-x="1329" d="M33 1305v268q0 31 30 31h1201q32 0 32 -31v-268q0 -31 -32 -31h-412v-1241q0 -33 -31 -33h-317q-31 0 -31 33v1241h-410q-30 0 -30 31z" />
<glyph unicode="&#x423;" horiz-adv-x="1286" d="M2 1567q-15 37 23 37h350q25 0 35 -23l280 -614l217 612q9 25 35 25h338q40 0 25 -35l-410 -1174q-73 -212 -194.5 -308.5t-309.5 -96.5q-98 0 -213 33q-57 15 -57 65v201q0 30 31 30h157q83 0 125.5 28.5t75.5 103.5z" />
<glyph unicode="&#x424;" horiz-adv-x="1740" d="M55 809q0 353 133 483q133 133 500 148v143q0 35 31 35h301q31 0 31 -35v-143q368 -15 501 -148q134 -131 134 -483t-134 -483t-501 -146v-145q0 -35 -31 -35h-301q-31 0 -31 35v145q-366 15 -500 146q-133 130 -133 483zM438 809q0 -154 49 -215q54 -63 201 -78v586 q-150 -15 -201 -78q-49 -61 -49 -215zM1051 516q149 15 200 78q49 61 49 215t-49 215q-48 63 -200 78v-586z" />
<glyph unicode="&#x425;" horiz-adv-x="1495" d="M-4 45l530 789l-485 725q-14 23 -9 34t31 11h355q35 0 55 -33l275 -449l274 449q20 33 55 33h355q26 0 31 -11t-9 -34l-485 -725l530 -791q29 -45 -22 -45h-355q-35 0 -55 33l-319 514l-320 -512q-23 -33 -55 -33h-355q-51 0 -22 45z" />
<glyph unicode="&#x426;" horiz-adv-x="1546" d="M135 33v1538q0 33 31 33h317q31 0 31 -33v-1241h442v1241q0 33 31 33h318q30 0 30 -33v-1241h131q33 0 33 -31v-561q0 -35 -31 -35h-301q-30 0 -30 35v262h-971q-31 0 -31 33z" />
<glyph unicode="&#x427;" horiz-adv-x="1425" d="M90 1044v529q0 31 31 31h319q31 0 31 -31v-494q0 -129 51 -168q53 -41 199 -41h190v701q0 33 31 33h318q30 0 30 -33v-1536q0 -35 -30 -35h-318q-31 0 -31 35v504h-229q-178 0 -284.5 22t-178.5 78t-101.5 151.5t-27.5 253.5z" />
<glyph unicode="&#x428;" horiz-adv-x="2041" d="M135 33v1538q0 33 31 33h317q31 0 31 -33v-1241h317v1241q0 33 31 33h318q30 0 30 -33v-1241h318v1241q0 33 31 33h317q31 0 31 -33v-1538q0 -33 -31 -33h-1710q-31 0 -31 33z" />
<glyph unicode="&#x429;" horiz-adv-x="2117" d="M135 33v1538q0 33 31 33h317q31 0 31 -33v-1241h317v1241q0 33 31 33h318q30 0 30 -33v-1241h318v1241q0 33 31 33h317q31 0 31 -33v-1241h133q31 0 31 -31v-561q0 -35 -31 -35h-301q-31 0 -31 35v262h-1542q-31 0 -31 33z" />
<glyph unicode="&#x42a;" horiz-adv-x="1585" d="M33 1305v268q0 31 33 31h571q31 0 31 -31v-572h288q314 0 445 -98t131 -344v-127q0 -246 -131 -344t-445 -98q-336 0 -637 24q-30 3 -30 29v1231h-223q-33 0 -33 31zM668 319h252q128 0 178.5 37t50.5 133v21q0 96 -51.5 134t-175.5 38h-254v-363z" />
<glyph unicode="&#x42b;" horiz-adv-x="2054" d="M135 43v1530q0 31 31 31h317q31 0 31 -31v-572h287q315 0 446 -98t131 -344v-127q0 -246 -131 -344t-446 -98q-333 0 -635 24q-31 3 -31 29zM514 319h252q126 0 176.5 37t50.5 133v21q0 97 -51 134.5t-174 37.5h-254v-363zM1540 35v1536q0 33 31 33h317q31 0 31 -33 v-1536q0 -35 -31 -35h-317q-31 0 -31 35z" />
<glyph unicode="&#x42c;" horiz-adv-x="1431" d="M135 43v1530q0 31 31 31h317q31 0 31 -31v-572h287q315 0 446 -98t131 -344v-127q0 -246 -131 -344t-446 -98q-333 0 -635 24q-31 3 -31 29zM514 319h252q126 0 176.5 37t50.5 133v21q0 97 -51 134.5t-174 37.5h-254v-363z" />
<glyph unicode="&#x42d;" horiz-adv-x="1347" d="M66 90v199q0 30 30 30h490q155 0 215 72q62 71 71 260h-546q-33 0 -33 31v244q0 30 33 30h546q-9 187 -71 258q-60 72 -215 72h-490q-30 0 -30 31v199q0 29 11.5 42t41.5 21q161 37 467 37q210 0 334.5 -38t201.5 -134q78 -95 109 -242t31 -397q0 -473 -140 -645 q-138 -170 -536 -170q-319 0 -467 37q-53 12 -53 63z" />
<glyph unicode="&#x42e;" horiz-adv-x="2127" d="M135 35v1536q0 33 31 33h317q31 0 31 -33v-606h168q21 371 166 510q147 141 512 141q209 0 334.5 -39t203.5 -135q80 -94 112 -243.5t32 -397.5q0 -471 -144 -641q-141 -170 -538 -170q-364 0 -510 137q-149 140 -170 504h-166v-596q0 -35 -31 -35h-317q-31 0 -31 35z M1059 801q0 -278 59 -381q58 -101 242 -101q181 0 239 101q60 105 60 381q0 278 -60 383q-59 102 -239 102q-184 0 -242 -102q-59 -103 -59 -383z" />
<glyph unicode="&#x42f;" horiz-adv-x="1452" d="M42 12q-7 12 5 29l348 555q-168 37 -235 145q-68 109 -68 336q0 303 129 420q131 119 465 119q286 0 600 -25q31 -3 31 -28v-1530q0 -20 -6 -26.5t-25 -6.5h-317q-19 0 -25 6.5t-6 26.5v538h-131l-334 -526q-18 -26 -34.5 -35.5t-47.5 -9.5h-319q-23 0 -30 12zM475 1065 q0 -128 51 -170q53 -41 201 -41h211v432h-211q-146 0 -199 -46.5t-53 -174.5z" />
<glyph unicode="&#x430;" horiz-adv-x="1185" d="M53 315v54q3 200 107 264q104 67 340 67l225 2v41q0 121 -156 121h-401q-17 0 -23 6t-6 25v209q0 18 5 23t24 10q164 34 401 34q326 0 424 -104q52 -49 71 -109t19 -155v-705q0 -53 -51 -65q-206 -43 -469 -43q-121 0 -186.5 5t-130.5 21q-99 28 -141.5 94.5t-51.5 204.5 zM406 371q0 -55 29.5 -75t109.5 -20q103 0 180 17v194h-190q-77 0 -103 -20.5t-26 -73.5v-22z" />
<glyph unicode="&#x431;" horiz-adv-x="1261" d="M98 580v204q0 206 34 343.5t108 222.5q76 86 185 131t284 69q157 20 194 33q2 1 9.5 7.5t15 11.5t21 9.5t28.5 4.5h104q37 0 37 -84q0 -146 -63.5 -208.5t-210.5 -74.5q-239 -24 -324 -69q-89 -47 -104 -168q87 78 293 78q267 0 372 -111q107 -110 107 -399 q0 -356 -109 -474q-107 -116 -436 -116q-331 0 -438 116q-110 122 -107 474zM457 580q0 -172 35 -228q37 -55 151 -55q116 0 150 55q36 53 36 228q0 131 -37.5 177t-148.5 46t-148.5 -46t-37.5 -177z" />
<glyph unicode="&#x432;" horiz-adv-x="1171" d="M111 39v1085q0 22 24 25q242 22 477 22q252 0 357.5 -74t105.5 -247q0 -134 -47 -192.5t-166 -75.5v-4q136 -11 187 -67t51 -196q0 -174 -105.5 -249.5t-355.5 -75.5q-292 0 -504 22q-24 3 -24 27zM471 285l133 -2q90 1 127 22.5t37 71.5q0 94 -164 94h-133v-186z M471 696h102q168 0 168 95q0 92 -163 92h-107v-187z" />
<glyph unicode="&#x433;" horiz-adv-x="968" d="M111 29v1104q0 28 28 28h766q29 0 29 -28v-273q0 -29 -29 -29h-416v-802q0 -29 -28 -29h-322q-28 0 -28 29z" />
<glyph unicode="&#x434;" horiz-adv-x="1245" d="M37 -166v436q0 29 29 29h59q85 36 106 236l58 600q3 26 30 26h721q31 0 31 -28v-834h94q29 0 29 -29v-436q0 -31 -29 -31h-268q-29 0 -29 31v166h-506v-166q0 -31 -28 -31h-268q-29 0 -29 31zM543 299h182v563h-119l-41 -428q-5 -48 -22 -135z" />
<glyph unicode="&#x435;" horiz-adv-x="1200" d="M76 580q0 356 108 473q106 118 430 118q316 0 420 -116q107 -116 107 -469v-64q0 -32 -13 -43.5t-49 -11.5h-639q3 -109 43 -139q45 -31 170 -31h377q31 0 31 -31v-209q0 -28 -29 -34q-146 -33 -418 -33q-323 0 -430 116q-108 120 -108 474zM438 684h344 q-1 102 -38.5 141t-129.5 39q-96 0 -136 -39.5t-40 -140.5z" />
<glyph unicode="&#x436;" horiz-adv-x="1896" d="M-4 37l387 596l-328 495q-10 14 -2.5 23.5t27.5 9.5h350q25 0 33 -14l305 -475v458q0 31 31 31h301q30 0 30 -31v-458l306 475q6 14 32 14h351q19 0 25.5 -9.5t-3.5 -23.5l-328 -495l390 -596q16 -37 -23 -37h-375q-25 0 -35 16l-340 533v-518q0 -31 -30 -31h-301 q-31 0 -31 31v518l-340 -533q-10 -16 -35 -16h-375q-38 0 -22 37z" />
<glyph unicode="&#x437;" horiz-adv-x="1093" d="M72 94v178q0 33 28 33h398q80 0 109.5 15t29.5 51v16q0 39 -24.5 53.5t-92.5 14.5h-323q-31 0 -31 32v185q0 30 31 30h323q65 0 91 16t26 50v23q0 38 -28.5 51.5t-112.5 13.5h-396q-28 0 -28 33v182q0 50 49 62q118 38 411 38q474 0 474 -272v-133q0 -162 -185 -186 q185 -24 185 -191v-129q0 -270 -474 -270q-281 0 -411 39q-49 15 -49 65z" />
<glyph unicode="&#x438;" horiz-adv-x="1312" d="M111 27v1108q0 26 24 26h303q25 0 25 -26v-547l395 516q42 57 109 57h211q24 0 24 -26v-1108q0 -27 -24 -27h-304q-22 0 -22 27v538l-403 -516q-37 -49 -111 -49h-203q-24 0 -24 27z" />
<glyph unicode="&#x439;" horiz-adv-x="1312" d="M111 27v1108q0 26 24 26h303q25 0 25 -26v-547l395 516q42 57 109 57h211q24 0 24 -26v-1108q0 -27 -24 -27h-304q-22 0 -22 27v538l-403 -516q-37 -49 -111 -49h-203q-24 0 -24 27zM272 1595q-6 33 29 33h145q26 0 35 -24q25 -55 63 -77t107 -22t107 22t63 77 q9 24 35 24h145q35 0 29 -31q-20 -164 -104 -229t-275 -65t-275 64t-104 228z" />
<glyph unicode="&#x43a;" horiz-adv-x="1255" d="M111 31v1099q0 31 30 31h318q30 0 30 -31v-458l306 475q8 14 32 14h351q20 0 27 -9.5t-3 -23.5l-330 -495l390 -596q16 -37 -23 -37h-375q-25 0 -35 16l-340 533v-518q0 -31 -30 -31h-318q-30 0 -30 31z" />
<glyph unicode="&#x43b;" horiz-adv-x="1216" d="M20 68v211q0 20 25 20h49q70 0 99.5 37.5t37.5 122.5l64 676q3 26 24 26h764q23 0 23 -24v-1112q0 -25 -23 -25h-307q-22 0 -22 25v829h-138l-43 -496q-34 -368 -360 -368q-85 0 -143 18q-31 10 -40.5 22t-9.5 38z" />
<glyph unicode="&#x43c;" horiz-adv-x="1685" d="M61 25l132 1110q3 26 28 26h258q56 0 83 -12.5t40 -48.5l240 -594l239 596q13 35 39.5 47t83.5 12h262q24 0 27 -24l129 -1110q3 -27 -25 -27h-313q-21 0 -24 27l-66 602l-215 -568q-12 -26 -37 -26h-201q-24 0 -36 26l-213 568l-68 -602q-3 -27 -25 -27h-313 q-28 0 -25 25z" />
<glyph unicode="&#x43d;" horiz-adv-x="1333" d="M111 31v1099q0 31 30 31h318q30 0 30 -31v-397h355v397q0 31 30 31h318q31 0 31 -31v-1099q0 -31 -31 -31h-318q-30 0 -30 31v366h-355v-366q0 -31 -30 -31h-318q-30 0 -30 31z" />
<glyph unicode="&#x43e;" horiz-adv-x="1243" d="M76 580q0 358 106 473q106 118 439 118q332 0 438 -118q108 -117 108 -473q-3 -128 -12 -212.5t-34 -153.5t-61 -107.5t-100 -65.5t-142.5 -37.5t-196.5 -13.5q-332 0 -439 116q-106 115 -106 474zM434 580q0 -172 35 -228q37 -55 152 -55q117 0 151 55q37 55 37 228 q0 172 -37 227q-34 57 -151 57q-115 0 -152 -57q-35 -56 -35 -227z" />
<glyph unicode="&#x43f;" horiz-adv-x="1214" d="M111 31v1099q0 31 30 31h932q31 0 31 -31v-1099q0 -31 -31 -31h-317q-31 0 -31 31v800h-236v-800q0 -31 -30 -31h-318q-30 0 -30 31z" />
<glyph unicode="&#x440;" horiz-adv-x="1257" d="M109 -385v1454q0 50 49 59q255 43 463 43q335 0 448 -116q115 -118 115 -451q0 -357 -101 -485q-102 -129 -374 -129q-136 0 -244 12v-387q0 -31 -31 -31h-295q-30 0 -30 31zM465 309q65 -10 147 -10q135 0 174 51t39 232q0 171 -32 225q-29 57 -154 57h-174v-555z" />
<glyph unicode="&#x441;" horiz-adv-x="1073" d="M78 582q0 150 13.5 243.5t45.5 165.5q53 104 158 139.5t326 40.5q226 0 348 -32q35 -9 35 -43v-199q0 -33 -35 -33h-348q-115 0 -152 -55q-35 -56 -35 -227t35 -230q37 -55 152 -55h348q35 0 35 -33v-198q0 -34 -35 -43q-126 -33 -348 -33q-182 0 -281.5 26t-159.5 93 q-59 70 -80.5 174.5t-21.5 298.5z" />
<glyph unicode="&#x442;" horiz-adv-x="1091" d="M37 862v268q0 31 31 31h956q31 0 31 -31v-268q0 -31 -31 -31h-289v-800q0 -31 -30 -31h-318q-31 0 -31 31v800h-288q-31 0 -31 31z" />
<glyph unicode="&#x443;" horiz-adv-x="1298" d="M100 502v628q0 31 31 31h295q31 0 31 -31v-548q0 -175 43 -230q47 -53 184 -53q86 0 145 12v819q0 31 31 31h297q31 0 31 -31v-1144q0 -93 -10 -148t-39 -108q-41 -80 -152.5 -119t-314.5 -39q-265 0 -424 33q-27 6 -27 33v190q0 31 27 31h387q115 0 154.5 29t39.5 114 v14q-110 -26 -241 -26q-269 0 -379 119q-109 121 -109 393z" />
<glyph unicode="&#x444;" horiz-adv-x="1708" d="M72 580q0 591 405 591q117 0 197 -45v445q0 33 31 33h294q31 0 31 -33v-445q80 45 197 45q407 0 407 -591q0 -590 -407 -590q-148 0 -197 43v-418q0 -31 -31 -31h-294q-31 0 -31 31v418q-49 -43 -197 -43q-202 0 -303.5 143t-101.5 447zM430 580q0 -158 30.5 -219.5 t119.5 -61.5q54 0 94 27v510q-40 24 -94 24q-89 0 -119.5 -61t-30.5 -219zM1032 326q40 -27 92 -27q91 0 120.5 60.5t29.5 220.5t-29.5 220t-120.5 60q-52 0 -92 -24v-510z" />
<glyph unicode="&#x445;" horiz-adv-x="1228" d="M0 13q-5 13 6 26l385 565l-354 518q-13 17 -8.5 28t24.5 11h359q23 0 37 -20l165 -258l166 258q14 20 37 20h357q20 0 24.5 -11t-8.5 -28l-352 -518l385 -565q11 -13 6 -26t-25 -13h-358q-19 0 -33 20l-199 308l-200 -308q-14 -20 -33 -20h-356q-20 0 -25 13z" />
<glyph unicode="&#x446;" horiz-adv-x="1277" d="M111 31v1099q0 31 30 31h318q30 0 30 -31v-800h232v800q0 31 31 31h317q31 0 31 -31v-800h96q31 0 31 -31v-459q0 -30 -31 -30h-305q-31 0 -31 30v160h-719q-30 0 -30 31z" />
<glyph unicode="&#x447;" horiz-adv-x="1216" d="M68 836v294q0 31 30 31h322q31 0 31 -31v-260q0 -130 43 -170q41 -38 188 -38h45v464q0 35 31 35h317q31 0 31 -35v-1091q0 -35 -31 -35h-317q-31 0 -31 35v295h-86q-337 0 -455 100t-118 406z" />
<glyph unicode="&#x448;" horiz-adv-x="1687" d="M111 31v1099q0 31 30 31h318q30 0 30 -31v-815h183v815q0 31 30 31h285q31 0 31 -31v-815h180v815q0 31 31 31h317q31 0 31 -31v-1099q0 -31 -31 -31h-1405q-30 0 -30 31z" />
<glyph unicode="&#x449;" horiz-adv-x="1732" d="M111 31v1099q0 31 30 31h318q30 0 30 -31v-800h154v800q0 31 31 31h317q31 0 31 -31v-800h154v800q0 31 30 31h318q30 0 30 -31v-800h97q30 0 30 -31v-463q0 -31 -30 -31h-303q-31 0 -31 31v164h-1176q-30 0 -30 31z" />
<glyph unicode="&#x44a;" horiz-adv-x="1320" d="M33 862v277q0 22 26 22h543q25 0 25 -22v-394h182q265 0 365 -75q102 -74 102 -246v-111q0 -173 -102 -250q-101 -73 -365 -73q-307 0 -516 24q-25 3 -25 19v807h-209q-26 0 -26 22zM627 295h141q91 0 122.5 15t31.5 57v30q0 76 -113 76h-182v-178z" />
<glyph unicode="&#x44b;" horiz-adv-x="1701" d="M111 33v1106q0 22 24 22h311q25 0 25 -22v-394h180q265 0 365 -75q102 -74 102 -246v-111q0 -173 -102 -250q-101 -73 -365 -73q-307 0 -516 24q-24 3 -24 19zM471 295h141q90 0 121 15t31 57v30q0 76 -113 76h-180v-178zM1233 33v1095q0 33 31 33h297q30 0 30 -33v-1095 q0 -33 -30 -33h-297q-31 0 -31 33z" />
<glyph unicode="&#x44c;" horiz-adv-x="1163" d="M111 39v1096q0 26 28 26h301q31 0 31 -28v-388h180q265 0 365 -75q102 -74 102 -246v-111q0 -173 -102 -250q-101 -73 -365 -73q-307 0 -516 24q-24 3 -24 25zM471 295h141q90 0 121 15t31 57v30q0 76 -113 76h-180v-178z" />
<glyph unicode="&#x44d;" horiz-adv-x="1107" d="M72 82v184q0 25 24 25h396q92 0 135 38.5t55 125.5h-420q-26 0 -26 20v213q0 21 26 21h420q-11 87 -54 125t-136 38h-396q-24 0 -24 23v186q0 25 10.5 36.5t38.5 19.5q118 34 371 34q318 0 430 -124q112 -121 112 -463q0 -345 -112 -469q-113 -125 -430 -125 q-235 0 -371 37q-27 6 -38 17.5t-11 37.5z" />
<glyph unicode="&#x44e;" horiz-adv-x="1767" d="M111 31v1099q0 31 30 31h318q30 0 30 -31v-397h117q18 260 131 348q116 90 408 90q332 0 438 -118q109 -118 109 -473q-3 -128 -12.5 -212.5t-34.5 -153.5t-61 -108t-99.5 -65.5t-142.5 -37t-197 -13.5q-284 0 -400 84q-116 87 -137 323h-119v-366q0 -31 -30 -31h-318 q-30 0 -30 31zM958 580q0 -172 35 -228q37 -55 152 -55t149 55q37 55 37 228q0 172 -37 227q-34 57 -149 57t-152 -57q-35 -56 -35 -227z" />
<glyph unicode="&#x44f;" horiz-adv-x="1189" d="M20 29l273 391q-122 32 -173.5 112.5t-51.5 231.5q0 215 119 311t395 96q261 0 471 -20q24 -3 24 -18v-1108q0 -17 -3.5 -21t-20.5 -4h-312q-13 0 -17.5 5.5t-4.5 19.5v372h-53l-260 -366q-22 -31 -64 -31h-303q-42 0 -19 29zM436 745q0 -58 28.5 -82t100.5 -24h154v217 h-154q-73 0 -101 -25t-28 -86z" />
<glyph unicode="&#x451;" horiz-adv-x="1200" d="M76 580q0 356 108 473q106 118 430 118q316 0 420 -116q107 -116 107 -469v-64q0 -32 -13 -43.5t-49 -11.5h-639q3 -109 43 -139q45 -31 170 -31h377q31 0 31 -31v-209q0 -28 -29 -34q-146 -33 -418 -33q-323 0 -430 116q-108 120 -108 474zM195 1464q0 76 45.5 119 t130.5 43q84 0 129 -43t45 -119q0 -80 -45 -123t-129 -43q-86 0 -131 43t-45 123zM438 684h344q-1 102 -38.5 141t-129.5 39q-96 0 -136 -39.5t-40 -140.5zM684 1464q0 76 45 119t129 43t129 -43t45 -119q0 -80 -44 -123t-130 -43t-130 43t-44 123z" />
<glyph unicode="&#x1e80;" horiz-adv-x="2263" d="M37 1569q-6 35 29 35h325q13 0 19.5 -7.5t11.5 -27.5l201 -1145q9 -37 30 -37q17 0 23 6.5t12 30.5l258 1094q9 34 45 34h281q34 0 43 -34l258 -1094q11 -37 35 -37.5t32 37.5l199 1145q5 20 11.5 27.5t19.5 7.5h325q37 0 31 -35l-244 -1331q-30 -164 -88 -207 q-56 -41 -239 -41q-122 0 -172.5 7t-89.5 34q-38 27 -55.5 66.5t-43.5 140.5l-164 696l-163 -696q-14 -60 -25 -96t-31 -67t-40.5 -45t-60.5 -24.5t-85 -13t-119 -2.5q-182 0 -241 41q-57 45 -84 207zM700 2032v14q0 20 21 20h356q19 0 25 -12l149 -276q10 -20 -6 -29 l-112 -63q-16 -10 -29 0l-393 321q-11 11 -11 25z" />
<glyph unicode="&#x1e81;" horiz-adv-x="1855" d="M37 1133q-6 28 24 28h316q16 0 22 -28l127 -830q2 -15 12 -21t20.5 0t12.5 21l187 797q6 24 33 24h274q27 0 33 -24l186 -797q3 -22 21 -22q21 0 24 22l127 830q3 28 23 28h315q28 0 25 -28l-174 -951q-21 -122 -84 -157q-59 -35 -220 -35q-193 0 -249 30q-53 30 -80 162 l-84 393l-84 -393q-27 -132 -82 -162q-52 -30 -250 -30q-159 0 -221 35q-61 36 -82 157zM489 1622v14q0 21 21 21h356q19 0 25 -12l149 -277q10 -20 -6 -29l-112 -63q-19 -10 -29 0l-393 321q-11 11 -11 25z" />
<glyph unicode="&#x1e82;" horiz-adv-x="2263" d="M37 1569q-6 35 29 35h325q13 0 19.5 -7.5t11.5 -27.5l201 -1145q9 -37 30 -37q17 0 23 6.5t12 30.5l258 1094q9 34 45 34h281q34 0 43 -34l258 -1094q11 -37 35 -37.5t32 37.5l199 1145q5 20 11.5 27.5t19.5 7.5h325q37 0 31 -35l-244 -1331q-30 -164 -88 -207 q-56 -41 -239 -41q-122 0 -172.5 7t-89.5 34q-38 27 -55.5 66.5t-43.5 140.5l-164 696l-163 -696q-14 -60 -25 -96t-31 -67t-40.5 -45t-60.5 -24.5t-85 -13t-119 -2.5q-182 0 -241 41q-57 45 -84 207zM981 1778l149 276q6 12 25 12h356q21 0 21 -20v-14q0 -15 -10 -25 l-394 -321q-9 -9 -28 0l-113 63q-16 9 -6 29z" />
<glyph unicode="&#x1e83;" horiz-adv-x="1855" d="M37 1133q-6 28 24 28h316q16 0 22 -28l127 -830q2 -15 12 -21t20.5 0t12.5 21l187 797q6 24 33 24h274q27 0 33 -24l186 -797q3 -22 21 -22q21 0 24 22l127 830q3 28 23 28h315q28 0 25 -28l-174 -951q-21 -122 -84 -157q-59 -35 -220 -35q-193 0 -249 30q-53 30 -80 162 l-84 393l-84 -393q-27 -132 -82 -162q-52 -30 -250 -30q-159 0 -221 35q-61 36 -82 157zM774 1368l150 277q6 12 24 12h357q20 0 20 -21v-14q0 -15 -10 -25l-393 -321q-10 -10 -29 0l-113 63q-16 9 -6 29z" />
<glyph unicode="&#x1e84;" horiz-adv-x="2263" d="M37 1569q-6 35 29 35h325q13 0 19.5 -7.5t11.5 -27.5l201 -1145q9 -37 30 -37q17 0 23 6.5t12 30.5l258 1094q9 34 45 34h281q34 0 43 -34l258 -1094q11 -37 35 -37.5t32 37.5l199 1145q5 20 11.5 27.5t19.5 7.5h325q37 0 31 -35l-244 -1331q-30 -164 -88 -207 q-56 -41 -239 -41q-122 0 -172.5 7t-89.5 34q-38 27 -55.5 66.5t-43.5 140.5l-164 696l-163 -696q-14 -60 -25 -96t-31 -67t-40.5 -45t-60.5 -24.5t-85 -13t-119 -2.5q-182 0 -241 41q-57 45 -84 207zM711 1874q0 76 45.5 119t130.5 43q84 0 129 -43t45 -119q0 -80 -44 -123 t-130 -43t-131 43t-45 123zM1200 1874q0 76 45 119t129 43t129 -43t45 -119q0 -80 -44 -123t-130 -43t-130 43t-44 123z" />
<glyph unicode="&#x1e85;" horiz-adv-x="1855" d="M37 1133q-6 28 24 28h316q16 0 22 -28l127 -830q2 -15 12 -21t20.5 0t12.5 21l187 797q6 24 33 24h274q27 0 33 -24l186 -797q3 -22 21 -22q21 0 24 22l127 830q3 28 23 28h315q28 0 25 -28l-174 -951q-21 -122 -84 -157q-59 -35 -220 -35q-193 0 -249 30q-53 30 -80 162 l-84 393l-84 -393q-27 -132 -82 -162q-52 -30 -250 -30q-159 0 -221 35q-61 36 -82 157zM508 1464q0 76 45.5 119t130.5 43q84 0 129 -43t45 -119q0 -80 -45 -123t-129 -43q-86 0 -131 43t-45 123zM995 1464q0 76 45.5 119t130.5 43q84 0 129.5 -43t45.5 -119 q0 -80 -44.5 -123t-130.5 -43t-131 43t-45 123z" />
<glyph unicode="&#x1ef2;" horiz-adv-x="1517" d="M2 1559q-23 45 23 45h356q32 0 55 -33l324 -672l325 672q14 33 56 33h354q46 0 23 -45l-570 -1031v-493q0 -35 -30 -35h-318q-31 0 -31 35v497zM303 2032v14q0 20 21 20h354q18 0 24 -12l150 -276q10 -20 -6 -29l-111 -63q-19 -9 -28 0l-394 321q-10 10 -10 25z" />
<glyph unicode="&#x1ef3;" horiz-adv-x="1298" d="M100 502v628q0 31 31 31h297q31 0 31 -31v-548q0 -178 43 -230q47 -53 182 -53q88 0 147 12v819q0 31 31 31h295q31 0 31 -31v-1144q0 -93 -10 -148t-39 -108q-41 -80 -152.5 -119t-314.5 -39q-265 0 -424 33q-27 6 -27 33v190q0 31 29 31h385q117 0 156.5 29t39.5 114 v14q-110 -26 -241 -26q-271 0 -381 119q-109 121 -109 393zM236 1622v14q0 21 20 21h356q19 0 25 -12l149 -277q10 -20 -6 -29l-112 -63q-19 -10 -29 0l-393 321q-10 10 -10 25z" />
<glyph unicode="&#x1ef8;" horiz-adv-x="1517" d="M2 1559q-23 45 23 45h356q32 0 55 -33l324 -672l325 672q14 33 56 33h354q46 0 23 -45l-570 -1031v-493q0 -35 -30 -35h-318q-31 0 -31 35v497zM369 1780q35 148 83 202t144 54q60 0 166 -41q104 -39 133 -39q35 0 54 14t36 53q16 28 37 19l108 -29q28 -9 23 -41 q-37 -148 -85 -202t-142 -54q-64 0 -168 39q-109 41 -133 41q-56 0 -90 -67q-13 -30 -37 -21l-109 31q-26 9 -20 41z" />
<glyph unicode="&#x1ef9;" horiz-adv-x="1298" d="M100 502v628q0 31 31 31h297q31 0 31 -31v-548q0 -178 43 -230q47 -53 182 -53q88 0 147 12v819q0 31 31 31h295q31 0 31 -31v-1144q0 -93 -10 -148t-39 -108q-41 -80 -152.5 -119t-314.5 -39q-265 0 -424 33q-27 6 -27 33v190q0 31 29 31h385q117 0 156.5 29t39.5 114 v14q-110 -26 -241 -26q-271 0 -381 119q-109 121 -109 393zM246 1370q35 148 83 202t144 54q59 0 168 -41q104 -39 133 -39q32 0 51.5 15t36.5 53q15 27 37 18l109 -28q28 -9 22 -41q-38 -151 -84 -203q-47 -53 -143 -53q-64 0 -168 39q-107 40 -133 40q-32 0 -51.5 -14.5 t-36.5 -52.5q-16 -29 -39 -21l-109 31q-26 9 -20 41z" />
<glyph unicode="&#x2000;" horiz-adv-x="1232" />
<glyph unicode="&#x2001;" horiz-adv-x="2465" />
<glyph unicode="&#x2002;" horiz-adv-x="1232" />
<glyph unicode="&#x2003;" horiz-adv-x="2465" />
<glyph unicode="&#x2004;" horiz-adv-x="821" />
<glyph unicode="&#x2005;" horiz-adv-x="616" />
<glyph unicode="&#x2006;" horiz-adv-x="410" />
<glyph unicode="&#x2007;" horiz-adv-x="410" />
<glyph unicode="&#x2008;" horiz-adv-x="308" />
<glyph unicode="&#x2009;" horiz-adv-x="493" />
<glyph unicode="&#x200a;" horiz-adv-x="136" />
<glyph unicode="&#x2010;" horiz-adv-x="950" d="M106 496v268q0 31 33 31h672q33 0 33 -31v-268q0 -31 -33 -31h-672q-33 0 -33 31z" />
<glyph unicode="&#x2011;" horiz-adv-x="950" d="M106 496v268q0 31 33 31h672q33 0 33 -31v-268q0 -31 -33 -31h-672q-33 0 -33 31z" />
<glyph unicode="&#x2012;" horiz-adv-x="950" d="M106 496v268q0 31 33 31h672q33 0 33 -31v-268q0 -31 -33 -31h-672q-33 0 -33 31z" />
<glyph unicode="&#x2013;" horiz-adv-x="1259" d="M106 496v268q0 31 33 31h981q33 0 33 -31v-268q0 -31 -33 -31h-981q-33 0 -33 31z" />
<glyph unicode="&#x2014;" horiz-adv-x="1992" d="M106 496v268q0 31 33 31h1714q33 0 33 -31v-268q0 -31 -33 -31h-1714q-33 0 -33 31z" />
<glyph unicode="&#x2018;" horiz-adv-x="653" d="M41 967v55q0 12 10 29l412 542q12 15 31 6l112 -61q12 -9 6 -29l-157 -544q-6 -19 -23 -19h-371q-20 0 -20 21z" />
<glyph unicode="&#x2019;" horiz-adv-x="636" d="M51 1040l158 545q6 19 22 19h371q21 0 21 -21v-55q0 -13 -11 -31l-411 -541q-12 -15 -31 -6l-113 62q-12 9 -6 28z" />
<glyph unicode="&#x201a;" horiz-adv-x="614" d="M-31 -297l158 545q6 18 23 18h370q21 0 21 -20v-56q0 -12 -11 -30l-411 -541q-17 -17 -31 -8l-113 63q-12 9 -6 29z" />
<glyph unicode="&#x201c;" horiz-adv-x="1230" d="M41 967v55q0 12 10 29l412 542q12 15 31 6l112 -61q12 -9 6 -29l-157 -544q-6 -19 -23 -19h-371q-20 0 -20 21zM618 967v55q0 11 11 29l409 542q12 15 31 6l115 -61q12 -9 6 -29l-158 -544q-6 -19 -24 -19h-369q-21 0 -21 21z" />
<glyph unicode="&#x201d;" horiz-adv-x="1220" d="M51 1040l158 545q6 19 22 19h371q21 0 21 -21v-55q0 -13 -11 -31l-411 -541q-12 -15 -31 -6l-113 62q-12 9 -6 28zM633 1040l158 545q6 19 24 19h371q20 0 20 -21v-55q0 -14 -10 -31l-412 -541q-12 -15 -30 -6l-115 62q-12 9 -6 28z" />
<glyph unicode="&#x201e;" horiz-adv-x="1179" d="M-31 -297l158 545q6 18 23 18h370q21 0 21 -20v-56q0 -12 -11 -30l-411 -541q-17 -17 -31 -8l-113 63q-12 9 -6 29zM535 -297l157 545q6 18 25 18h368q21 0 21 -20v-56q0 -13 -10 -30l-410 -541q-17 -17 -31 -8l-114 63q-12 9 -6 29z" />
<glyph unicode="&#x2020;" horiz-adv-x="1071" d="M80 981v236q0 30 33 30h243v324q0 33 31 33h297q31 0 31 -33v-324h243q33 0 33 -30v-236q0 -31 -33 -31h-243v-917q0 -33 -31 -33h-297q-31 0 -31 33v917h-243q-33 0 -33 31z" />
<glyph unicode="&#x2021;" horiz-adv-x="1071" d="M80 385v236q0 30 33 30h243v299h-243q-33 0 -33 31v236q0 30 33 30h243v324q0 33 31 33h297q31 0 31 -33v-324h243q33 0 33 -30v-236q0 -31 -33 -31h-243v-299h243q33 0 33 -30v-238q0 -31 -33 -31h-243v-319q0 -33 -31 -33h-297q-31 0 -31 33v321h-243q-33 0 -33 31z " />
<glyph unicode="&#x2022;" horiz-adv-x="1146" d="M188 594q0 162 102.5 254t284.5 92q180 0 283 -92.5t103 -253.5q0 -164 -102.5 -256t-283.5 -92q-183 0 -285 92t-102 256z" />
<glyph unicode="&#x2026;" horiz-adv-x="1689" d="M68 178q0 88 54.5 137.5t153.5 49.5q97 0 151 -49.5t54 -137.5t-54.5 -138t-150.5 -50q-100 0 -154 48.5t-54 139.5zM631 178q0 88 55 137.5t154 49.5q97 0 150.5 -49.5t53.5 -137.5t-54 -138t-150 -50q-100 0 -154.5 49t-54.5 139zM1208 178q0 88 55.5 137.5t153.5 49.5 q97 0 151 -49.5t54 -137.5t-54.5 -138t-150.5 -50q-98 0 -153.5 50t-55.5 138z" />
<glyph unicode="&#x202f;" horiz-adv-x="493" />
<glyph unicode="&#x2030;" horiz-adv-x="2842" d="M51 1190q0 254 80 340t315 86q236 0 316 -86q82 -85 82 -340q0 -252 -80 -338q-81 -84 -318 -84q-234 0 -315 84q-80 86 -80 338zM317 1190q0 -115 27 -155t102 -40t102 40t27 155q0 116 -26.5 156t-102.5 40t-102.5 -40t-26.5 -156zM467 31l811 1544q16 31 49 31h121 q31 0 12 -31l-809 -1544q-15 -31 -47 -31h-123q-29 0 -14 31zM1094 412q0 254 80 340t315 86t315 -86t80 -340q0 -252 -80 -338q-81 -84 -315 -84t-315 84q-80 86 -80 338zM1360 412q0 -115 27 -155t102 -40t102 40t27 155q0 116 -26.5 156t-102.5 40t-102.5 -40t-26.5 -156 zM1999 412q0 254 80 340t315 86q236 0 316 -86q81 -84 81 -340q0 -253 -79 -338q-81 -84 -318 -84q-234 0 -315 84q-80 86 -80 338zM2265 412q0 -115 27 -155t102 -40q78 0 104.5 39.5t26.5 155.5q0 117 -26.5 156.5t-104.5 39.5q-76 0 -102.5 -40t-26.5 -156z" />
<glyph unicode="&#x2039;" horiz-adv-x="737" d="M61 510v125q0 30 21 57l219 289q15 18 37 18h295q31 0 31 -30v-15q0 -21 -15 -36l-276 -347l276 -344q15 -15 15 -37v-14q0 -31 -31 -31h-295q-21 0 -37 19l-219 287q-21 27 -21 59z" />
<glyph unicode="&#x203a;" horiz-adv-x="735" d="M74 176v14q0 23 14 37l274 344l-274 347q-14 14 -14 36v15q0 30 30 30h293q22 0 37 -18l221 -289q21 -27 21 -57v-125q0 -32 -21 -59l-221 -287q-16 -19 -37 -19h-293q-30 0 -30 31z" />
<glyph unicode="&#x2044;" horiz-adv-x="286" d="M-313 -61l759 1714q15 35 46 35h88q31 0 16 -35l-758 -1714q-18 -35 -45 -35h-90q-34 0 -16 35z" />
<glyph unicode="&#x205f;" horiz-adv-x="616" />
<glyph unicode="&#x2070;" horiz-adv-x="780" d="M70 1495q0 254 63 340q64 88 258 88q190 0 254 -88q66 -91 66 -340t-66 -340q-64 -88 -254 -88q-194 0 -258 88q-63 86 -63 340zM254 1495q0 -157 27 -213q27 -55 110 -55q82 0 109 55q28 58 28 213t-28 213q-26 57 -109 57q-84 0 -110 -57q-27 -56 -27 -213z" />
<glyph unicode="&#x2074;" horiz-adv-x="800" d="M41 1286v66q0 17 8 41l137 510q6 16 29 16h137q25 0 15 -29l-125 -467h188v201q0 22 19 31l135 51q30 9 30 -16v-267h125q27 0 27 -24v-113q0 -24 -27 -24h-125v-164q0 -25 -22 -25h-137q-25 0 -25 25v164h-367q-22 0 -22 24z" />
<glyph unicode="&#x2075;" horiz-adv-x="749" d="M76 1104v108q0 15 22 15h230q106 0 139 18t33 80v23q0 65 -34 85.5t-138 20.5h-222q-30 0 -30 21v110l22 316q0 18 17 18h534q23 0 23 -25v-110q0 -25 -23 -25h-381l-12 -151q47 8 98 8q201 0 264 -57q66 -57 66 -216v-8q-1 -59 -5 -94.5t-18.5 -68t-36.5 -49t-65 -30 t-98.5 -18.5t-141.5 -8q-126 0 -227 16q-16 3 -16 21z" />
<glyph unicode="&#x2076;" horiz-adv-x="718" d="M51 1315v41q3 73 27 125l205 422q13 16 28 16h152q31 0 16 -31l-141 -303q30 6 65 6q126 0 199.5 -57.5t73.5 -165.5v-78q0 -113 -73.5 -168t-237.5 -55q-160 0 -234.5 60t-79.5 188zM236 1327q0 -57 28.5 -78.5t100.5 -21.5t99.5 21.5t27.5 78.5v21q0 56 -27.5 77 t-99.5 21q-74 0 -101.5 -20.5t-27.5 -77.5v-21z" />
<glyph unicode="&#x2077;" horiz-adv-x="700" d="M39 1780v114q0 25 27 25h575q25 0 25 -25v-82q0 -13 -13 -36l-352 -686q-10 -17 -29 -17h-157q-33 0 -17 29l340 657h-372q-27 0 -27 21z" />
<glyph unicode="&#x2078;" horiz-adv-x="755" d="M59 1298q0 142 142 201q-111 41 -111 193q0 118 69 174.5t212 56.5h18q143 0 212 -55.5t69 -173.5q0 -76 -25 -119t-84 -80q131 -46 131 -190q0 -122 -73.5 -180t-231.5 -58h-20q-308 0 -308 231zM250 1321q0 -94 119 -94h16q63 0 91 20.5t28 67.5q0 75 -80 96l-82 21 q-92 -35 -92 -111zM281 1675q0 -71 73 -92l64 -14q61 34 61 106q0 90 -92 90h-20q-86 0 -86 -90z" />
<glyph unicode="&#x2079;" horiz-adv-x="714" d="M43 1624v78q0 113 72.5 168t236.5 55q160 0 235 -59.5t81 -188.5v-41q-3 -77 -29 -125l-205 -421q-10 -17 -28 -17h-152q-29 0 -16 29l143 303q-30 -6 -66 -6q-126 0 -199 58.5t-73 166.5zM225 1645q0 -57 27.5 -79t99.5 -22q74 0 102.5 22t28.5 79v18q0 57 -28.5 78.5 t-102.5 21.5q-72 0 -99.5 -21.5t-27.5 -78.5v-18z" />
<glyph unicode="&#x207d;" horiz-adv-x="444" d="M63 1434q0 187 29 282q25 85 162 258q4 11 20 11h142q6 0 6 -7v-12q0 -8 -4 -12q-134 -176 -160 -254q-27 -82 -27 -266v-37q0 -169 27 -252t160 -234q4 -4 4 -12v-10q0 -6 -6 -6h-142q-15 0 -20 8q-130 176 -160 266q-31 95 -31 277z" />
<glyph unicode="&#x207e;" horiz-adv-x="446" d="M23 889v10q0 8 4 12q133 173 159 254q27 83 27 269v36q0 125 -8 172q-14 127 -178 312q-4 4 -4 12v12q0 7 6 7h141q12 0 23 -11q127 -176 157 -266q31 -91 31 -274q0 -189 -29 -287q-27 -90 -159 -256q-8 -8 -23 -8h-141q-6 0 -6 6z" />
<glyph unicode="&#x20a4;" horiz-adv-x="1357" d="M51 31l47 268q6 31 39 31h133v219h-120q-33 0 -33 31v86q0 30 33 30h120v144h-120q-33 0 -33 30v86q0 31 33 31h120v221q0 244 174 330q86 42 189.5 59t255.5 17t313 -37q30 -8 41.5 -20.5t11.5 -38.5v-205q0 -31 -30 -31h-297q-174 0 -226 -37q-53 -35 -53 -133v-125 h418q31 0 31 -31v-86q0 -30 -31 -30h-418v-144h418q31 0 31 -30v-86q0 -31 -31 -31h-418v-219h606q33 0 33 -31v-268q0 -31 -33 -31h-1175q-32 0 -29 31z" />
<glyph unicode="&#x20ac;" horiz-adv-x="1443" d="M43 649l23 80q6 31 38 31h189v45v63h-158q-30 0 -24 31l20 80q9 31 41 31h127q24 346 168 475q143 131 500 131q199 0 360 -37q65 -18 51 -63l-59 -199q-12 -31 -37 -31h-315q-142 0 -204 -60.5t-79 -215.5h494q33 0 24 -31l-22 -80q-6 -31 -39 -31h-465v-63v-45h434 q31 0 25 -31l-21 -80q-9 -31 -41 -31h-391q15 -169 76 -233q63 -66 209 -66h327q31 0 31 -30v-199q0 -51 -53 -63q-148 -37 -305 -37q-360 0 -504 135q-143 134 -164 493h-231q-31 0 -25 31z" />
<glyph unicode="&#x20b9;" horiz-adv-x="1497" d="M88 602v221q0 31 31 31h401q138 0 190.5 33.5t59.5 130.5h-649q-33 0 -33 31v81q0 31 33 31h639q-13 69 -67.5 97t-172.5 28h-401q-31 0 -31 31v256q0 31 31 31h1294q33 0 33 -31v-84q0 -31 -33 -31l-356 2q84 -104 96 -299h260q33 0 33 -31v-81q0 -31 -33 -31h-260 q-8 -195 -77 -292.5t-224 -129.5l348 -555q12 -17 5.5 -29t-29.5 -12h-320q-31 0 -47.5 9.5t-34.5 35.5l-334 526h-321q-31 0 -31 31z" />
<glyph unicode="&#x20bd;" horiz-adv-x="1531" d="M68 299v145q0 31 32 31h156v207h-156q-32 0 -32 31v143q0 31 32 31h156v676q0 25 31 28q314 25 600 25q338 0 465 -109q129 -108 129 -409q0 -158 -29.5 -252t-101.5 -148q-71 -54 -176.5 -74t-286.5 -20h-252v-129h358q33 0 33 -31v-145q0 -31 -33 -31h-358v-235 q0 -20 -6 -26.5t-25 -6.5h-317q-19 0 -25 6.5t-6 26.5v235h-156q-32 0 -32 31zM635 887h211q152 0 201 37q51 39 51 163t-51 160q-51 39 -201 39h-211v-399z" />
<glyph unicode="&#x2113;" horiz-adv-x="849" d="M106 252v1102q0 262 326 262q173 0 260.5 -58t87.5 -204v-643q0 -148 -82 -205t-252 -57h-100v-127q0 -113 105 -113h219q30 0 30 -31v-143q0 -30 -28 -33q-114 -12 -234 -12q-170 0 -251 57.5t-81 204.5zM346 666h96q56 1 77.5 24.5t21.5 79.5v537q0 51 -21 70.5 t-76 19.5q-57 0 -77.5 -19.5t-20.5 -70.5v-641z" />
<glyph unicode="&#x2116;" horiz-adv-x="2338" d="M147 35v1536q0 33 31 33h234q57 0 78.5 -13t54.5 -59l579 -827v866q0 33 31 33h318q30 0 30 -33v-1536q0 -35 -30 -35h-224q-75 0 -119 59l-604 867v-891q0 -35 -30 -35h-318q-31 0 -31 35zM1688 815v84q0 31 30 31h535q31 0 31 -31v-84q0 -31 -31 -31h-535q-30 0 -30 31 zM1688 1329q0 287 297 287q299 0 299 -287q0 -285 -299 -285q-297 0 -297 285zM1860 1329q0 -125 125 -125q124 0 124 125t-124 125q-125 0 -125 -125z" />
<glyph unicode="&#x2117;" horiz-adv-x="1712" d="M78 768q0 403 188 594q187 190 590 190t590 -190q188 -191 188 -594t-188 -594q-187 -190 -590 -190t-590 190q-188 191 -188 594zM203 768q0 -340 158 -498.5t495 -158.5t495 158.5t158 498.5t-158 498.5t-495 158.5q-338 0 -495.5 -158.5t-157.5 -498.5zM580 354v752 q0 14 4 18t18 4q144 15 311 15q164 0 229.5 -61.5t65.5 -213.5q0 -151 -63 -202q-64 -52 -232 -52h-131v-260q0 -17 -3.5 -20.5t-20.5 -3.5h-156q-14 0 -18 3.5t-4 20.5zM782 776h109q73 0 93 15.5t20 72.5q0 58 -22.5 79.5t-90.5 21.5h-109v-189z" />
<glyph unicode="&#x2120;" horiz-adv-x="2084" d="M94 682v127q0 18 19 18h379q75 0 75 52v22q0 36 -20 55.5t-66 38.5l-256 92q-119 43 -119 246v35q0 120 72 178q29 26 82 41q92 23 219 23q101 0 248 -25q16 -6 16 -18v-131q0 -19 -18 -19h-303q-96 0 -96 -63v-25q0 -57 63 -80l229 -88q94 -34 134 -80q39 -45 39 -157 v-43q0 -246 -369 -246q-148 0 -311 27q-17 3 -17 20zM854 668l92 915q3 21 17 21h178q31 0 44 -9.5t25 -40.5l217 -571l220 573q11 30 24 40t45 10h178q14 0 17 -21l90 -917q3 -27 -27 -27h-168q-23 0 -26 27l-49 540l-203 -512q-6 -16 -25 -16h-149q-17 0 -27 16l-203 514 l-49 -542q-3 -27 -24 -27h-170q-27 0 -27 27z" />
<glyph unicode="&#x2122;" horiz-adv-x="2054" d="M47 1440v139q0 27 27 27h714q27 0 27 -27v-139q0 -27 -27 -27h-247v-743q0 -27 -27 -27h-168q-24 0 -24 27v743h-248q-27 0 -27 27zM813 670l92 915q3 21 17 21h180q31 0 43.5 -9.5t23.5 -40.5l217 -573l220 573q12 31 25 40.5t44 9.5h178q17 0 17 -21l90 -915 q3 -27 -25 -27h-168q-23 0 -26 27l-49 540l-205 -512q-6 -16 -25 -16h-149q-19 0 -25 16l-203 512l-49 -540q-3 -27 -26 -27h-170q-27 0 -27 27z" />
<glyph unicode="&#x2126;" horiz-adv-x="1804" d="M84 889q0 373 199 549t618 176q422 0 620.5 -175t198.5 -546q0 -476 -336 -578h275q31 0 31 -30v-254q0 -31 -31 -31h-617q-30 0 -30 31v315q0 26 24 35q162 57 241 163.5t79 282.5q0 238 -110 348.5t-345 110.5q-231 0 -340.5 -112t-109.5 -347q0 -176 78.5 -282.5 t240.5 -163.5q25 -9 25 -35v-315q0 -31 -31 -31h-617q-30 0 -30 31v254q0 30 30 30h277q-340 102 -340 574z" />
<glyph unicode="&#x212e;" horiz-adv-x="1243" d="M72 584q0 252 153 422q153 172 410 172q256 0 405 -174q154 -174 154 -422h-879v-396q135 -129 312 -129q148 0 245.5 63.5t184.5 196.5l63 -38q-96 -148 -209 -218.5t-284 -70.5q-244 0 -400 172q-155 174 -155 422zM315 649h633v334q-139 127 -313 127 q-196 0 -320 -127v-334z" />
<glyph unicode="&#x215b;" horiz-adv-x="1816" d="M55 1477v86q0 18 23 28q46 17 115 17q82 0 145 -23q78 -29 78 -135v-532h133q24 0 24 -25v-113q0 -22 -24 -22h-459q-24 0 -24 22v113q0 25 24 25h146v468q0 37 -19 51.5t-74 14.5h-61q-27 0 -27 25zM434 -61l760 1714q15 35 45 35h88q31 0 16 -35l-755 -1714 q-18 -35 -47 -35h-90q-32 0 -17 35zM1135 225q0 141 141 203q-113 37 -113 190q0 119 68.5 176.5t214.5 57.5h18q281 0 281 -229q0 -77 -25.5 -120.5t-85.5 -80.5q133 -47 133 -191q0 -121 -74.5 -179t-230.5 -58h-20q-307 0 -307 231zM1325 248q0 -94 119 -94h14 q121 0 121 88q0 78 -82 96l-80 20q-92 -35 -92 -110zM1354 602q0 -68 73 -92l66 -14q61 34 61 106q0 90 -94 90h-18q-88 0 -88 -90z" />
<glyph unicode="&#x215c;" horiz-adv-x="1804" d="M59 795v98q0 16 23 16h149q127 0 165 16t38 70v25q0 88 -131 88h-178q-19 0 -19 18v109q0 16 19 16h178q78 0 104.5 20t26.5 75v18q0 54 -38 70t-165 16h-149q-23 0 -23 16v101q0 17 17 20q120 21 246 21q168 0 232 -49t64 -183v-18q0 -142 -108 -176q108 -24 108 -174 v-25q0 -137 -65 -184t-231 -47q-132 0 -246 20q-17 3 -17 23zM424 -61l760 1714q15 35 45 35h88q31 0 16 -35l-758 -1714q-18 -35 -45 -35h-90q-34 0 -16 35zM1122 225q0 141 142 203q-113 37 -113 190q0 119 68.5 176.5t214.5 57.5h18q281 0 281 -229q0 -77 -25.5 -120.5 t-85.5 -80.5q133 -47 133 -191q0 -121 -74.5 -179t-230.5 -58h-20q-308 0 -308 231zM1313 248q0 -94 119 -94h14q121 0 121 88q0 78 -82 96l-80 20q-92 -35 -92 -110zM1341 602q0 -68 74 -92l66 -14q61 34 61 106q0 90 -94 90h-18q-89 0 -89 -90z" />
<glyph unicode="&#x215d;" horiz-adv-x="1871" d="M66 788v109q0 14 22 14h231q105 0 139 18.5t34 80.5v22q0 65 -34.5 86t-138.5 21h-223q-30 0 -30 20v111l22 315q0 19 16 19h535q23 0 23 -25v-111q0 -24 -23 -24h-381l-12 -152q47 8 98 8q201 0 264 -57q66 -57 66 -215v-8q-1 -59 -5 -94.5t-18.5 -68t-36.5 -49t-65 -30 t-98.5 -18.5t-141.5 -8q-124 0 -225 16q-18 3 -18 20zM494 -61l759 1714q15 35 45 35h88q32 0 17 -35l-756 -1714q-15 -35 -45 -35h-92q-34 0 -16 35zM1188 225q0 141 141 203q-110 37 -110 190q0 119 69 176.5t211 57.5h19q282 0 282 -229q0 -77 -25.5 -120.5t-84.5 -80.5 q133 -47 133 -191q0 -122 -74.5 -179.5t-232.5 -57.5h-21q-307 0 -307 231zM1378 248q0 -94 121 -94h14q121 0 121 88q0 78 -82 96l-82 20q-92 -35 -92 -110zM1409 602q0 -68 74 -92l63 -14q64 34 64 106q0 90 -94 90h-21q-86 0 -86 -90z" />
<glyph unicode="&#x215e;" horiz-adv-x="1720" d="M47 1464v115q0 25 27 25h575q25 0 25 -25v-82q0 -16 -12 -37l-353 -686q-10 -16 -28 -16h-158q-33 0 -17 28l340 658h-372q-27 0 -27 20zM309 -61l758 1714q15 35 47 35h88q29 0 17 -35l-758 -1714q-18 -35 -45 -35h-92q-33 0 -15 35zM1034 225q0 141 142 203 q-113 37 -113 190q0 119 68.5 176.5t214.5 57.5h18q281 0 281 -229q0 -77 -25.5 -120.5t-85.5 -80.5q133 -47 133 -191q0 -121 -74.5 -179t-230.5 -58h-21q-307 0 -307 231zM1225 248q0 -94 118 -94h15q121 0 121 88q0 78 -82 96l-80 20q-92 -35 -92 -110zM1253 602 q0 -68 74 -92l66 -14q61 34 61 106q0 90 -94 90h-19q-88 0 -88 -90z" />
<glyph unicode="&#x2190;" horiz-adv-x="2004" d="M127 555v53q0 29 20 43l691 400q32 14 41 14h59q23 0 23 -23v-335h868q33 0 33 -31v-189q0 -30 -33 -30h-868v-334q0 -23 -23 -23h-59q-6 0 -43 13l-689 397q-20 14 -20 45z" />
<glyph unicode="&#x2191;" horiz-adv-x="1210" d="M123 637v59q0 4 12 41l402 690q12 21 43 21h53q31 0 43 -21l399 -688q12 -27 12 -43v-59q0 -23 -22 -23h-336v-868q0 -31 -31 -31h-188q-31 0 -31 31v868h-336q-20 0 -20 23z" />
<glyph unicode="&#x2192;" horiz-adv-x="2004" d="M143 487v189q0 31 33 31h866v335q0 23 25 23h59q9 0 41 -14l688 -400q23 -13 23 -43v-53q0 -29 -23 -45l-686 -397q-37 -13 -43 -13h-59q-25 0 -25 23v334h-866q-33 0 -33 30z" />
<glyph unicode="&#x2193;" horiz-adv-x="1210" d="M123 467v59q0 23 20 23h336v868q0 31 31 31h188q31 0 31 -31v-868h336q22 0 22 -23v-59q0 -16 -14 -41l-399 -690q-12 -21 -45 -21h-54q-28 0 -43 21l-397 688q-12 27 -12 43z" />
<glyph unicode="&#x2194;" horiz-adv-x="2613" d="M127 555v53q0 29 23 45l690 398q25 14 41 14h59q20 0 23 -21v-337h686v337q3 21 24 21h60q9 0 41 -14l688 -398q24 -18 24 -45v-53q-3 -33 -24 -45l-686 -397q-37 -13 -43 -13l-60 2q-24 -3 -24 21v334h-686v-334q0 -24 -23 -21l-59 -2q-14 0 -43 13l-688 397 q-20 14 -23 45z" />
<glyph unicode="&#x2195;" horiz-adv-x="1228" d="M131 156v59q0 23 21 23h335v688h-335q-21 3 -21 22v60q0 4 12 41l400 690q19 22 45 22h53q33 -3 43 -22l399 -688q13 -29 13 -43l-2 -60q3 -22 -21 -22h-336v-688h336q24 0 21 -23l2 -59q0 -6 -13 -43l-399 -686q-9 -22 -43 -25h-53q-26 0 -45 25l-400 688l-6 17 q-6 18 -6 24z" />
<glyph unicode="&#x2196;" horiz-adv-x="1587" d="M135 1151q-6 23 15 47l38 37q23 23 45 14l768 -202q28 -12 39 -23l43 -43q15 -15 0 -31l-237 -237l612 -615q24 -21 2 -43l-133 -133q-23 -22 -45 0l-612 615l-238 -240q-16 -13 -31 2l-43 43q-9 9 -18 39z" />
<glyph unicode="&#x2197;" horiz-adv-x="1589" d="M127 55q-20 20 2 45l612 615l-237 237q-16 13 2 31l41 41q5 5 39 20l770 205q23 6 45 -16l37 -37q22 -22 16 -47l-203 -766q-18 -37 -22 -41l-43 -41q-13 -17 -31 -2l-237 238l-613 -615q-23 -22 -45 0z" />
<glyph unicode="&#x2198;" horiz-adv-x="1585" d="M127 1063q-21 24 0 45l131 135q22 21 45 -2l615 -612l237 237q16 13 31 -2l43 -43l18 -37l205 -772q7 -23 -14 -47l-39 -37q-23 -23 -45 -14l-768 203q-30 13 -39 22l-41 43q-21 15 -2 31l237 238z" />
<glyph unicode="&#x2199;" horiz-adv-x="1591" d="M135 12l203 770q7 22 20 39l43 41q14 14 33 2l238 -237l612 612q24 23 45 2l133 -135q20 -20 -2 -43l-612 -614l237 -238q16 -13 -2 -31l-41 -41q-11 -11 -38 -20l-771 -205q-25 -6 -47 16l-36 37q-24 24 -15 45z" />
<glyph unicode="&#x2202;" horiz-adv-x="1361" d="M51 397l37 205q76 387 600 387q67 0 139 -10l-180 586q-9 37 29 37h334q23 0 32 -21l248 -793q18 -81 -2 -186l-35 -205q-22 -113 -77 -192t-144.5 -126t-203.5 -68t-265 -21q-267 0 -407 80q-151 88 -105 327zM449 494q-21 -102 8 -138q30 -37 168 -37q140 0 192 37 q53 38 74 138l2 12q21 100 -18 136t-177 36q-136 0 -182 -37q-47 -38 -67 -137v-10z" />
<glyph unicode="&#x2206;" horiz-adv-x="1495" d="M41 27v98q0 17 6 35l506 1282q12 24 37 24h330q27 0 36 -24l490 -1280q6 -18 6 -35v-100q0 -27 -29 -27h-1355q-27 0 -27 27zM528 334h447l-223 649z" />
<glyph unicode="&#x220f;" horiz-adv-x="1484" d="M18 1329v266q0 31 31 31h1387q30 0 30 -31v-266q0 -31 -30 -31h-179v-1431q0 -31 -30 -31h-295q-31 0 -31 31v1431h-317v-1431q0 -31 -31 -31h-295q-31 0 -31 31v1431h-178q-31 0 -31 31z" />
<glyph unicode="&#x2211;" horiz-adv-x="1230" d="M20 45q0 17 13 37l411 594q13 20 13 37v8q0 15 -11 33l-397 616q-12 21 -12 39v186q0 31 31 31h1038q31 0 31 -31v-282q0 -31 -31 -31h-574l338 -520q13 -23 13 -31v-12q0 -15 -13 -35l-348 -508h641q31 0 31 -31v-282q0 -31 -31 -31h-1112q-31 0 -31 31v182z" />
<glyph unicode="&#x2212;" horiz-adv-x="1089" d="M109 510v268q0 31 32 31h807q33 0 33 -31v-268q0 -31 -33 -31h-807q-32 0 -32 31z" />
<glyph unicode="&#x221a;" horiz-adv-x="1370" d="M-10 692q-9 30 20 39l445 137q31 9 37 -20l188 -584l315 1342q6 26 35 26h299q36 0 27 -35l-432 -1871q-6 -27 -33 -27h-381q-26 0 -35 25l-248 739l-121 -39q-30 -9 -36 18z" />
<glyph unicode="&#x221e;" horiz-adv-x="1712" d="M76 651q0 209 90.5 295t310.5 86q154 0 297 -125l82 -78l86 78q78 69 143.5 97t149.5 28q220 0 310.5 -86t90.5 -295q0 -213 -90 -303q-89 -86 -311 -86q-88 0 -162.5 34.5t-161.5 115.5l-57 53l-45 -45q-94 -88 -167.5 -123t-164.5 -35q-222 0 -311 86q-90 90 -90 303z M344 649q1 -61 30 -86.5t95 -25.5q83 0 166 65l61 47l-61 47q-79 64 -166 64q-66 0 -95 -25.5t-30 -85.5zM1016 649l63 -51q76 -61 164 -61q66 0 95 25.5t30 86.5q-1 60 -30 85.5t-95 25.5q-87 0 -164 -62z" />
<glyph unicode="&#x222b;" horiz-adv-x="927" d="M20 -104v208q0 33 37 33h185q48 0 67 14t19 52q0 191 -43 559q-43 371 -43 559q0 197 114 258q55 31 117 43t158 12q109 0 241 -22q35 -6 35 -41v-211q0 -33 -37 -33h-184q-50 0 -68 -13.5t-18 -51.5q0 -192 43 -560t43 -559q0 -196 -115 -258q-55 -31 -117 -43t-157 -12 q-111 0 -242 23q-35 6 -35 43z" />
<glyph unicode="&#x2248;" horiz-adv-x="1366" d="M84 1034q47 128 147 199.5t230 71.5q64 0 127.5 -21t107.5 -53q113 -72 191 -72q106 0 168 103q15 21 41 4l170 -109q18 -12 6 -39q-47 -127 -147.5 -197.5t-231.5 -70.5q-107 0 -236 72q-127 71 -188 71q-111 0 -168 -100q-12 -24 -37 -8l-170 110q-22 12 -10 39z M92 512q47 128 147 199t230 71q59 2 123.5 -21t111 -51.5t99 -51.5t90.5 -21q106 0 168 102q16 22 43 4l168 -108q20 -12 8 -39q-47 -127 -148 -197.5t-231 -70.5q-108 0 -235 71q-129 72 -189 72q-111 0 -168 -100q-12 -24 -37 -9l-170 111q-22 12 -10 39z" />
<glyph unicode="&#x2260;" horiz-adv-x="1353" d="M111 229v265q0 30 30 30h432l101 228h-533q-30 0 -30 30v265q0 30 30 30h676l70 160q15 35 47 35h110q30 0 15 -35l-70 -160h223q31 0 31 -30v-265q0 -30 -31 -30h-366l-98 -228h464q31 0 31 -30v-265q0 -30 -31 -30h-608l-67 -156q-15 -35 -45 -35h-113q-32 0 -17 35 l68 156h-289q-30 0 -30 30z" />
<glyph unicode="&#x2264;" horiz-adv-x="1267" d="M98 203v203q0 30 31 30h983q31 0 31 -30v-203q0 -31 -31 -31h-983q-31 0 -31 31zM98 874v197q0 26 27 35l928 293q6 1 13.5 2t11 1.5t5.5 0.5h37q27 0 27 -27v-225q0 -27 -27 -33l-510 -145l510 -148q27 -6 27 -32v-226q0 -26 -27 -26h-37q-12 0 -30 6l-930 293 q-25 9 -25 34z" />
<glyph unicode="&#x2265;" horiz-adv-x="1267" d="M121 567v226q0 26 26 32l510 148l-510 145q-26 6 -26 33v225q0 27 26 27h37q2 0 6 -0.5t11.5 -1.5t13.5 -2l928 -293q26 -9 26 -35v-197q0 -25 -24 -34l-930 -293q-18 -6 -31 -6h-37q-26 0 -26 26zM125 203v203q0 30 31 30h983q30 0 30 -30v-203q0 -31 -30 -31h-983 q-31 0 -31 31z" />
<glyph unicode="&#x2460;" horiz-adv-x="1638" d="M68 799q0 367 192 559t559 192q370 0 561 -191.5t191 -559.5q0 -367 -192.5 -558.5t-559.5 -191.5t-559 191.5t-192 558.5zM176 799q0 -641 643 -641q641 0 641 641q0 643 -641 643q-643 0 -643 -643zM567 1085v86q0 15 25 31q49 17 113 17q77 0 145 -25q78 -29 78 -135 v-533h133q26 0 26 -24v-113q0 -22 -26 -22h-457q-26 0 -26 24v111q0 24 26 24h144v469q0 38 -19.5 53t-73.5 15h-61q-27 0 -27 22z" />
<glyph unicode="&#x2461;" horiz-adv-x="1638" d="M68 799q0 367 192 559t559 192q371 0 561.5 -192.5t190.5 -558.5t-193 -559q-194 -191 -559 -191t-559 191q-192 192 -192 559zM176 799q0 -641 643 -641q641 0 641 641q0 643 -641 643q-643 0 -643 -643zM512 397v107q0 82 36 133t130 102l209 117q51 26 51 88v49 q0 38 -21.5 52t-76.5 14h-254q-15 0 -15 16v101q0 17 15 20q125 23 241 23q53 0 91 -3t79.5 -14.5t66.5 -31.5t41.5 -55.5t16.5 -84.5v-104q0 -72 -22 -117t-82 -76l-225 -117q-43 -21 -57.5 -35.5t-14.5 -39.5v-15h391q14 0 14 -10v-139q0 -10 -12 -10h-573q-29 0 -29 30z " />
<glyph unicode="&#x2462;" horiz-adv-x="1638" d="M68 799q0 367 192 559t559 192q369 0 560.5 -193t191.5 -558q0 -366 -193 -559q-194 -191 -559 -191t-559 191q-192 192 -192 559zM176 799q0 -641 643 -641q641 0 641 641q0 643 -641 643q-643 0 -643 -643zM539 403v99q0 18 22 18h152q121 0 164 17q36 14 36 69v23 q2 42 -27 65t-102 23h-178q-18 0 -18 18v109q0 16 18 16h176q78 0 104.5 19.5t26.5 74.5v19q0 55 -36 69q-43 17 -164 17h-152q-22 0 -22 16v101q0 17 18 20q125 23 246 23q164 0 229 -50q66 -48 66 -184v-16q0 -144 -107 -178q107 -21 107 -175v-24q0 -134 -64 -183 t-231 -49q-126 0 -246 21q-18 3 -18 22z" />
<glyph unicode="&#x2463;" horiz-adv-x="1638" d="M68 799q0 367 192 559t559 192q369 0 560.5 -193t191.5 -558q0 -366 -193 -559q-194 -191 -559 -191t-559 191q-192 192 -192 559zM176 799q0 -641 643 -641q641 0 641 641q0 643 -641 643q-643 0 -643 -643zM457 582v63q0 20 8 41l137 510q3 16 29 16h137q22 0 16 -28 l-127 -467h189v201q0 24 18 30l137 51q29 10 29 -16v-266h125q27 0 27 -25v-112q0 -25 -27 -25h-125v-164q0 -24 -22 -24h-138q-24 0 -24 24v164h-367q-22 0 -22 27z" />
<glyph unicode="&#x2464;" horiz-adv-x="1638" d="M68 799q0 367 192 559t559 192q369 0 560.5 -193t191.5 -558q0 -366 -193 -559q-194 -191 -559 -191t-559 191q-192 192 -192 559zM176 799q0 -641 643 -641q641 0 641 641q0 643 -641 643q-643 0 -643 -643zM514 397v109q0 14 23 14h229q106 0 139 18t33 80v23 q0 65 -35.5 87t-136.5 22h-221q-31 0 -31 18v111l23 317q0 16 16 16h534q23 0 23 -24v-111q0 -24 -23 -24h-380l-13 -152q47 8 99 8q201 0 264 -57q65 -56 65 -215v-8q-1 -59 -5 -94.5t-18 -68.5t-36.5 -49t-65 -30t-98 -19t-141.5 -8q-121 0 -228 17q-16 3 -16 20z" />
<glyph unicode="&#x2465;" horiz-adv-x="1638" d="M68 799q0 367 192 559t559 192q369 0 560.5 -193t191.5 -558q0 -366 -193 -559q-194 -191 -559 -191t-559 191q-192 192 -192 559zM176 799q0 -641 643 -641q641 0 641 641q0 643 -641 643q-643 0 -643 -643zM506 608v41q3 74 26 127l207 420q10 16 29 16h152 q28 0 16 -30l-143 -301q61 6 65 6q126 0 199 -58.5t73 -166.5v-78q0 -113 -73.5 -168.5t-237.5 -55.5q-160 0 -233.5 59.5t-79.5 188.5zM690 623q0 -57 28.5 -80t100.5 -23t100.5 23t28.5 80v18q0 57 -27.5 77.5t-101.5 20.5t-101.5 -20.5t-27.5 -77.5v-18z" />
<glyph unicode="&#x2466;" horiz-adv-x="1638" d="M68 799q0 367 192 559t559 192q369 0 560.5 -193t191.5 -558q0 -366 -193 -559q-194 -191 -559 -191t-559 191q-192 192 -192 559zM176 799q0 -641 643 -641q641 0 641 641q0 643 -641 643q-643 0 -643 -643zM506 1073v115q0 24 26 24h576q22 0 22 -24v-82q0 -20 -10 -37 l-354 -686q-6 -16 -29 -16h-157q-29 0 -17 28l342 658h-373q-26 0 -26 20z" />
<glyph unicode="&#x2467;" horiz-adv-x="1638" d="M68 799q0 367 192 559t559 192q369 0 560.5 -193t191.5 -558q0 -366 -193 -559q-194 -191 -559 -191t-559 191q-192 192 -192 559zM176 799q0 -641 643 -641q641 0 641 641q0 643 -641 643q-643 0 -643 -643zM502 592q0 142 141 203q-111 37 -111 190q0 119 69.5 176.5 t211.5 57.5h18q281 0 281 -230q0 -77 -24.5 -121t-83.5 -80q131 -46 131 -190q0 -122 -74 -180t-232 -58h-20q-307 0 -307 232zM692 614q0 -94 119 -94h16q119 0 119 88q0 76 -82 97l-80 20q-92 -35 -92 -111zM719 969q0 -38 17.5 -59t56.5 -33l63 -15q64 34 64 107 q0 90 -95 90h-20q-86 0 -86 -90z" />
<glyph unicode="&#x2468;" horiz-adv-x="1638" d="M68 799q0 367 192 559t559 192q369 0 560.5 -193t191.5 -558q0 -366 -193 -559q-194 -191 -559 -191t-559 191q-192 192 -192 559zM176 799q0 -641 643 -641q641 0 641 641q0 643 -641 643q-643 0 -643 -643zM506 918v77q0 113 73.5 168.5t237.5 55.5q160 0 234 -59.5 t79 -188.5v-41q-3 -75 -26 -125l-207 -422q-10 -16 -29 -16h-149q-32 0 -17 30l142 303q-30 -6 -66 -6q-127 0 -199.5 58t-72.5 166zM690 938q0 -57 27.5 -77.5t101.5 -20.5q72 0 100.5 21.5t28.5 76.5v20q0 57 -28.5 79t-100.5 22t-100.5 -22t-28.5 -79v-20z" />
<glyph unicode="&#x24ea;" horiz-adv-x="1638" d="M68 799q0 367 192 559t559 192q371 0 561.5 -192.5t190.5 -558.5t-193 -559q-194 -191 -559 -191t-559 191q-192 192 -192 559zM176 799q0 -641 643 -641t643 641q0 643 -643 643t-643 -643zM498 788q0 254 63 340q66 91 258 91q191 0 256 -89q66 -91 66 -342 q0 -248 -66 -339q-65 -89 -256 -89t-256 89t-65 339zM682 788q0 -158 27 -213q27 -53 110 -53q82 0 109 53q28 58 28 213t-28 213q-27 58 -109 58q-83 0 -110 -58q-27 -55 -27 -213z" />
<glyph unicode="&#x24ff;" horiz-adv-x="1638" d="M121 758q0 344 177 520t521 176q345 0 521 -176.5t176 -519.5t-177 -520t-520 -177q-342 0 -522 177q-176 176 -176 520zM498 748q0 -251 65 -340t256 -89t256 89q66 91 66 340q0 251 -66 342q-64 88 -256 88t-258 -91q-63 -86 -63 -339zM682 748q0 158 27 213 q26 57 110 57q83 0 109 -57q28 -58 28 -213t-28 -213q-28 -54 -109 -54q-82 0 -110 54q-27 55 -27 213z" />
<glyph unicode="&#x25ca;" horiz-adv-x="1255" d="M47 741l432 711q12 21 37 21h221q25 0 37 -21l434 -711q12 -21 -2 -41l-436 -680q-11 -20 -37 -20h-213q-26 0 -37 20l-434 680q-14 20 -2 41zM442 698l162 -249q21 -35 43 0l162 253q15 21 0 41l-162 263q-21 34 -41 0l-164 -267q-15 -20 0 -41z" />
<glyph unicode="&#x25fc;" horiz-adv-x="1157" d="M0 0v1157h1157v-1157h-1157z" />
<glyph unicode="&#x261e;" horiz-adv-x="1992" d="M209 332v4q-123 402 0 803q0 20 22 20h279q22 0 22 -22v-37q197 80 381 108q192 29 504 29l316 -6q102 0 139 -32t37 -120q0 -90 -36.5 -121.5t-139.5 -31.5h-101q4 -16 4 -47q0 -58 -28 -86q28 -31 28 -93q0 -58 -28 -86q28 -31 28 -92q0 -63 -29 -91.5t-110 -41.5 q-341 -48 -526 -45q-191 3 -439 62v-68q0 -25 -22 -25h-279q-5 0 -8.5 0.5t-6 3.5t-3 4t-2.5 5.5t-2 5.5zM279 410h161v655h-157q-89 -303 -4 -655zM532 504q221 -60 400 -66q189 -6 526 37q54 8 69 16t15 31q0 29 -15 37t-69 8h-289q-22 0 -22 25v49q0 23 22 23h291 q52 0 67 6.5t15 29.5q0 31 -15 39.5t-69 8.5h-289q-22 0 -22 22v49q0 23 22 23h291q51 0 66.5 7t15.5 30q0 31 -15 39t-69 8h-287q-22 0 -22 22v49q0 23 22 23h562q51 0 67.5 11.5t16.5 47.5q0 37 -17 47.5t-74 10.5l-309 6q-320 0 -504 -31q-170 -26 -381 -117v-491z" />
<glyph unicode="&#x267c;" horiz-adv-x="1638" d="M94 778q0 299 213 512t512 213t512 -213t213 -512q0 -301 -213 -514q-211 -211 -512 -211t-512 211q-213 213 -213 514zM238 918l86 -50l-54 -96q-13 -25 -16 -56.5t4 -47.5l6 -17l166 -286q23 -30 52.5 -48t49.5 -18h17h231l-2 266h-295q-28 3 -12 29l82 145l82 -47 l-135 228zM420 1036l233 -133l146 256q21 21 30 -4l84 -141l-79 -49l264 2l129 229l-86 -51l-58 94q-16 25 -40 42t-44 22l-16 2l-332 2q-35 -4 -64 -21t-42 -33l-8 -16zM840 428l133 -229v100l110 2q28 0 55.5 13.5t41.5 29.5l10 12l166 287q16 32 16.5 68.5t-8.5 50.5 l-8 16l-117 199l-231 -131l147 -258q5 -11 -0.5 -17.5t-17.5 -5.5l-166 -2v94z" />
<glyph unicode="&#x2776;" horiz-adv-x="1638" d="M121 758q0 344 177 520t521 176q345 0 521 -176.5t176 -519.5t-177 -520t-520 -177q-342 0 -522 177q-176 176 -176 520zM567 1044q0 -22 27 -22h61q54 0 73.5 -15t19.5 -53v-469h-144q-26 0 -26 -24v-111q0 -24 26 -24h457q26 0 26 22v113q0 24 -26 24h-133v533 q0 106 -78 135q-68 25 -145 25q-64 0 -113 -17q-25 -16 -25 -31v-86z" />
<glyph unicode="&#x2777;" horiz-adv-x="1638" d="M121 758q0 344 177 520t521 176q345 0 521 -176.5t176 -519.5t-177 -520t-520 -177q-342 0 -522 177q-176 176 -176 520zM512 356q0 -30 29 -30h573q12 0 12 10v139q0 10 -14 10h-391v15q0 25 14.5 39.5t57.5 35.5l225 117q60 31 82 76t22 117v104q0 49 -16.5 84.5 t-41.5 55.5t-66.5 31.5t-79.5 14.5t-91 3q-116 0 -241 -23q-15 -3 -15 -20v-101q0 -16 15 -16h254q55 0 76.5 -14t21.5 -52v-49q0 -62 -51 -88l-209 -117q-94 -51 -130 -102t-36 -133v-107z" />
<glyph unicode="&#x2778;" horiz-adv-x="1638" d="M121 758q0 344 177 520t521 176q345 0 521 -176.5t176 -519.5t-177 -520t-520 -177q-342 0 -522 177q-176 176 -176 520zM539 362q0 -19 18 -22q120 -21 246 -21q167 0 231 49t64 183v24q0 154 -107 175q107 34 107 178v16q0 136 -66 184q-65 50 -229 50q-121 0 -246 -23 q-18 -3 -18 -20v-101q0 -16 22 -16h152q121 0 164 -17q36 -14 36 -69v-19q0 -55 -26.5 -74.5t-104.5 -19.5h-176q-18 0 -18 -16v-109q0 -18 18 -18h178q73 0 102 -23t27 -65v-23q0 -55 -36 -69q-43 -17 -164 -17h-152q-22 0 -22 -18v-99z" />
<glyph unicode="&#x2779;" horiz-adv-x="1638" d="M121 758q0 344 177 520t521 176q345 0 521 -176.5t176 -519.5t-177 -520t-520 -177q-342 0 -522 177q-176 176 -176 520zM457 541q0 -27 22 -27h367v-164q0 -24 24 -24h138q22 0 22 24v164h125q27 0 27 25v112q0 25 -27 25h-125v266q0 26 -29 16l-137 -51q-18 -6 -18 -30 v-201h-189l127 467q6 28 -16 28h-137q-26 0 -29 -16l-137 -510q-8 -21 -8 -41v-63z" />
<glyph unicode="&#x277a;" horiz-adv-x="1638" d="M121 758q0 344 177 520t521 176q345 0 521 -176.5t176 -519.5t-177 -520t-520 -177q-342 0 -522 177q-176 176 -176 520zM514 356q0 -17 16 -20q107 -17 228 -17q86 3 141.5 8t98 19t65 30t36.5 49t18 68.5t5 94.5v8q0 159 -65 215q-63 57 -264 57q-52 0 -99 -8l13 152 h380q23 0 23 24v111q0 24 -23 24h-534q-16 0 -16 -16l-23 -317v-111q0 -18 31 -18h221q101 0 136.5 -22t35.5 -87v-22q0 -62 -33 -80.5t-139 -18.5h-229q-23 0 -23 -14v-109z" />
<glyph unicode="&#x277b;" horiz-adv-x="1638" d="M121 758q0 344 177 520t521 176q345 0 521 -176.5t176 -519.5t-177 -520t-520 -177q-342 0 -522 177q-176 176 -176 520zM506 567q6 -129 79.5 -188.5t233.5 -59.5q164 0 237.5 55.5t73.5 168.5v78q0 108 -73 166.5t-199 58.5q-4 0 -65 -6l143 301q12 30 -16 30h-152 q-19 0 -29 -16l-207 -420q-23 -53 -26 -127v-41zM690 582v18q0 57 27.5 77.5t101.5 20.5t101.5 -20.5t27.5 -77.5v-18q0 -57 -28.5 -80t-100.5 -23t-100.5 23t-28.5 80z" />
<glyph unicode="&#x277c;" horiz-adv-x="1638" d="M121 758q0 344 177 520t521 176q345 0 521 -176.5t176 -519.5t-177 -520t-520 -177q-342 0 -522 177q-176 176 -176 520zM506 1032q0 -20 26 -20h373l-342 -658q-12 -28 17 -28h157q23 0 29 16l354 686q10 17 10 37v82q0 24 -22 24h-576q-26 0 -26 -24v-115z" />
<glyph unicode="&#x277d;" horiz-adv-x="1638" d="M121 758q0 344 177 520t521 176q345 0 521 -176.5t176 -519.5t-177 -520t-520 -177q-342 0 -522 177q-176 176 -176 520zM502 551q0 -232 307 -232h20q158 0 232 58t74 180q0 145 -131 191q59 37 83.5 80t24.5 120q0 230 -281 230h-18q-142 0 -211.5 -57.5t-69.5 -176.5 q0 -152 111 -190q-141 -62 -141 -203zM692 573q0 76 92 111l80 -20q82 -21 82 -97q0 -88 -119 -88h-16q-119 0 -119 94zM719 928q0 90 86 90h20q95 0 95 -90q0 -73 -64 -107l-63 15q-39 12 -56.5 33t-17.5 59z" />
<glyph unicode="&#x277e;" horiz-adv-x="1638" d="M121 758q0 344 177 520t521 176q345 0 521 -176.5t176 -519.5t-177 -520t-520 -177q-342 0 -522 177q-176 176 -176 520zM506 877q0 -108 72.5 -166t199.5 -58q36 0 66 6l-142 -303q-15 -30 17 -30h149q19 0 29 16l207 422q23 50 26 125v41q-5 129 -79 188.5t-234 59.5 q-164 0 -237.5 -55.5t-73.5 -168.5v-77zM690 897v21q0 57 28.5 78.5t100.5 21.5t100.5 -21.5t28.5 -78.5v-21q0 -55 -28.5 -76.5t-100.5 -21.5q-74 0 -101.5 20.5t-27.5 77.5z" />
<glyph unicode="&#xf8ff;" horiz-adv-x="1886" d="M102 41v1434h1682v-1434h-1682zM254 678h41v-123h22v123h43v18h-106v-18zM268 795h21v67q0 39 -2 51h2l41 -118h20l41 116h2q0 -12 -2 -20v-96h23v141h-33l-41 -113l-39 113h-33v-141zM367 664l43 -109l-4 -10q-6 -19 -23 -19h-12v-16q4 -2 14 -2q32 0 43 33l45 123h-24 q-5 -20 -11.5 -37t-10 -25.5t-3.5 -11.5q-2 -2 -2 -12h-2q0 12 -6 24l-23 62h-24zM446 848q0 -15 7 -29q5 -14 18 -20q9 -6 27 -6q26 0 37 14q13 19 13 41t-13 41q-12 13 -37.5 13t-38.5 -13q-13 -16 -13 -41zM469 848q0 18 8 26q7 11 21 11q26 0 26 -37t-26 -37 q-29 0 -29 37zM494 508h22v59q11 -14 33 -14q17 0 31 14q12 15 12 41q0 29 -12 41q-8 14 -30.5 14.5t-33.5 -16.5l-4 17h-18v-156zM516 608v4q0 19 6 25q5 8 21 8q13 0 18 -8q6 -11 6 -29t-6 -26q-7 -11 -18 -11q-14 0 -21 11q-6 6 -6 26zM571 799q12 -6 35 -5.5t33 7.5 q12 9 12 24q0 1 -4 13l-8 10l-21 8l-20 10q-4 4 -4 8q0 11 18 11q11 0 29 -6l8 16q-17 7 -37 7t-30 -7q-11 -7 -11 -21q0 -11 7 -18q5 -8 24 -14l16 -8q7 0 7 -5q4 -4 4 -8q0 -12 -23 -12q-14 0 -35 8v-18zM619.5 629.5q-13.5 -34.5 9.5 -62.5q14 -14 41 -14q14 0 18 2 q11 0 17 6v19q-11 -7 -17 -7q-4 -2 -18 -2t-23 9q-8 11 -8 24h72v12q0 23 -12 35.5t-33 12.5q-33 0 -46.5 -34.5zM639 621q1 5 4 11.5t4 8.5q6 6 19 6q10 0 16 -6q6 -9 6 -20h-49zM666 885h16v-60q0 -32 31 -32h12q6 0 10 4v16q-2 -2 -16 -2q-6 0 -10 4t-4 12v58h30v16h-30 v25h-15l-8 -23l-16 -8v-10zM754 825q0 -22 20.5 -30t32.5 0q4 2 16 14l6 -14h15v71q0 19 -10 29q-8 8 -31 8q-15 0 -19 -2q-5 -1 -11.5 -4t-8.5 -4l8 -16q6 6 14 6q4 2 17 2q10 0 14 -4t4 -17v-4l-18 -2q-29 0 -37 -8q-12 -9 -12 -25zM778 825q0 9 6 15q16 4 25 4l12 2v-10 q0 -13 -6 -19q-8 -8 -20 -8q-9 0 -13 4t-4 12zM799 555h22v59h53v19h-53v45h58v18h-80v-141zM881 795h22v55q0 11 8 22q11 11 23 11q8 0 10 -2l2 22h-10q-12 0 -18 -6q-13 -10 -15 -14h-2l-2 18h-18v-106zM899 608q0 -16 6 -28q9 -13 19 -21q12 -6 26 -6q33 -6 47 32.5 t-10 63.5q-12 13 -37 13t-37 -13q-14 -11 -14 -41zM924 608q0 20 6 29q5 8 20 8q27 0 27 -37q0 -23 -13.5 -32.5t-26.5 0t-13 32.5zM964 848q0 -24 11 -41q11 -14 31 -14q24 0 32 14h2l4 -12h17v149h-23v-39q0 -12 2 -18h-2q-11 17 -30.5 16.5t-32.5 -14.5q-11 -17 -11 -41z M987 848q0 18 6 26q7 11 19 11q15 0 20 -8q8 -8 8 -29v-4q0 -20 -8 -25q-5 -8 -20 -8q-14 0 -19 8q-6 11 -6 29zM1030 592q0 -39 39 -39q5 0 21 4l14 12l4 -14h16v109h-22v-56q0 -19 -6 -28q-9 -9 -21 -9q-22 0 -22 25v68h-23v-72zM1092 846q0 -25 14 -39t39 -14h20l17 6v18 l-19 -6q-1 0 -7 -1t-9 -1q-16 0 -23 10q-8 5 -8 23h72v12q0 33 -29.5 46.5t-52.5 -11.5q-14 -14 -14 -43zM1116 858q0 16 8 21q10 12 25.5 6t15.5 -27h-49zM1161 555h23v53q0 18 8 29q5 8 20 8q11 0 17 -6q4 -12 4 -18v-66h22v70q0 39 -36 39q-11 0 -21 -5q-8 -4 -14 -10 l-4 15h-19v-109zM1210 799q22 -11 53 -4t25 30q0 13 -10 23l-21 8l-20 10q-4 4 -4 8q0 11 18 11q11 0 29 -6l8 16q-17 7 -36.5 7t-30.5 -7t-11 -21q0 -11 7 -18q5 -8 24 -14l16 -8q7 0 7 -5q2 -2 2 -8q0 -12 -21 -12q-14 0 -35 8v-18zM1286 608q0 -24 10 -41 q13 -14 33 -14.5t31 16.5h2l4 -14h16v152h-22v-39l1 -8q1 -8 1 -11q-12 13 -33 13t-33 -13q-10 -17 -10 -41zM1308 608.5q0 15.5 7 28.5q8 8 18 8q15 0 23 -8q6 -9 6 -29v-2q0 -17 -6 -26q-9 -9 -21 -9q-13 0 -20 11t-7 26.5zM1317 795h24v106h-24v-106zM1319 920 q1 -2 10 -2t10 2q3 10 0 20q-1 2 -10 2t-10 -2q-3 -10 0 -20zM1364 776q0 -12 10 -22q15 -9 35 -9q25 0 43 11q14 8 14 28q0 15 -8 23q-9 6 -28 6h-19q-6 0 -8 2h-4q-4 4 -4 6q0 7 8 10h10q22 0 31 9q12 9 12 26q0 4 -2 6v5q-2 2 -4 8l18 4v12h-36h-2q-2 2 -7 2h-10 q-21 0 -31 -10q-12 -9 -12 -27q0 -12 6 -18q6 -9 15 -12q-2 0 -11 -9q-4 -4 -4 -10l2 -8q3 -6 8 -6q-9 -3 -16 -10q-6 -6 -6 -17zM1384 776q0 10 5 15q12 4 16 4h16q15 0 19 -4q6 -3 6 -11q0 -9 -10 -12q-9 -6 -27 -6q-6 0 -18 4q-7 4 -7 10zM1393 866.5q0 10.5 6 16.5 q1 6 14 6t14 -6q7 -7 7 -17q0 -20 -21 -20q-2 0 -14 4q-6 6 -6 16.5zM1419 555h23v55q0 15 10 25q5 8 21 8h10l2 21h-10q-20 0 -33 -21l-4 21h-19v-109zM1491 795h25v53q0 37 26 37q11 0 17 -6q4 -4 4 -19v-65h24v69q0 39 -39 39q-4 0 -20 -4q-9 -3 -15 -12l-4 14h-18v-106z M1493 664l43 -109l-4 -10q-6 -19 -23 -19h-12v-16q4 -2 14 -2q32 0 43 33l45 123h-24q-5 -20 -11.5 -37t-10 -25.5t-3.5 -11.5q-2 -2 -2 -12h-2q0 12 -6 24l-22 62h-25z" />
<glyph unicode="&#x1f603;" horiz-adv-x="1761" d="M104 805q0 401 187 591.5t581 190.5q406 0 595.5 -189t189.5 -593t-189.5 -593t-595.5 -189q-395 0 -581.5 189t-186.5 593zM227 805q0 -338 156.5 -498t488.5 -160q343 0 502.5 159t159.5 499q0 338 -161 497.5t-501 159.5q-332 0 -488.5 -159.5t-156.5 -497.5zM434 967 q0 149 148 149q149 0 149 -149q0 -78 -35.5 -114t-113.5 -36t-113 36t-35 114zM444 610h834q2 -156 -98.5 -237t-307.5 -82q-218 0 -324 81t-104 238zM993 967q0 78 36 113.5t114 35.5q147 0 147 -149q0 -150 -147 -150q-78 0 -114 36t-36 114z" />
<glyph horiz-adv-x="0" />
<glyph horiz-adv-x="681" />
<glyph horiz-adv-x="1538" d="M86 801q0 248 31.5 397t109.5 244q80 96 206 135t335 39q400 0 541 -172q143 -168 143 -643q0 -316 -59 -490q-58 -170 -207 -248l198 -86q28 -13 13 -43l-135 -231q-13 -29 -41 -10l-502 297q-369 9 -500 180q-133 177 -133 631zM469 801q0 -278 59 -381 q58 -101 240 -101t240 101q59 103 59 381q0 280 -59 383q-58 102 -240 102t-240 -102q-59 -103 -59 -383z" />
<glyph horiz-adv-x="579" d="M98 1464q0 82 49.5 126t143.5 44q92 0 140 -44t48 -126q0 -174 -188 -174q-193 0 -193 174zM111 33v1095q0 33 30 33h297q31 0 31 -33v-1095q0 -33 -31 -33h-297q-30 0 -30 33z" />
<glyph horiz-adv-x="1249" d="M70 741q3 95 12 156t33 111.5t58 78t97 47t140 27t196 10.5q204 0 316 -28l108 110q22 21 43 0l139 -137q22 -22 -2 -45l-94 -96q29 -89 29 -234q-3 -86 -11.5 -142.5t-33 -103t-59.5 -72t-98 -44t-141 -25.5t-196 -10q-100 0 -127 2l-10 -29q-11 -30 2 -42.5t66 -16.5 l391 -37q132 -13 179.5 -86t47.5 -219v-33q0 -177 -129 -239q-127 -62 -403 -62q-207 0 -492 21q-29 3 -29 28v197q0 33 37 33h563q62 0 82.5 8.5t20.5 34.5v8q0 21 -15.5 30.5t-58.5 10.5l-407 37q-229 21 -150 266l47 139q-85 38 -118 116.5t-33 229.5zM428 739 q0 -83 36.5 -113t141.5 -30t141.5 30t36.5 113q0 80 -35.5 109t-142.5 29t-142.5 -29t-35.5 -109z" />
</font>
</defs>
</svg>
