<?xml version="1.0" standalone="no"?>
<!DOCTYPE svg PUBLIC "-//W3C//DTD SVG 1.1//EN" "http://www.w3.org/Graphics/SVG/1.1/DTD/svg11.dtd" >
<svg xmlns="http://www.w3.org/2000/svg" xmlns:xlink="http://www.w3.org/1999/xlink" version="1.1">
<metadata></metadata>
<defs>
<font id="univia_probold" horiz-adv-x="1638" >
<font-face units-per-em="2048" ascent="1638" descent="-410" />
<missing-glyph horiz-adv-x="421" />
<glyph unicode="ff" horiz-adv-x="1624" d="M39 940v174q0 31 35 31h133v162q0 182 112 241q53 28 108 37.5t140 9.5q118 0 221 -20q33 -6 33 -39v-170q0 -33 -35 -33h-161q-65 0 -90 -16t-25 -64v-108h512v162q0 181 113 241q53 28 107.5 37.5t139.5 9.5q119 0 222 -20q32 -6 32 -39v-170q0 -33 -32 -33h-162 q-65 0 -90 -16t-25 -64v-108h248q33 0 27 -35l-33 -172q-6 -29 -35 -29h-207v-876q0 -33 -31 -33h-243q-31 0 -31 33v876h-512v-876q0 -33 -31 -33h-241q-31 0 -31 33v876h-133q-35 0 -35 31z" />
<glyph unicode="fi" horiz-adv-x="1382" d="M39 940v174q0 31 35 31h133v162q0 182 112 241q53 28 108 37.5t140 9.5q73 0 176 -20q33 -6 33 -39v-170q0 -33 -33 -33h-118q-65 0 -90 -16t-25 -64v-108h719q31 0 31 -33v-1079q0 -33 -31 -33h-242q-31 0 -31 33v876h-446v-876q0 -33 -31 -33h-241q-31 0 -31 33v876 h-133q-35 0 -35 31zM930 1466q0 78 47 121t133 43q85 0 131.5 -43t46.5 -121t-47 -122t-131 -44q-86 0 -133 44t-47 122z" />
<glyph unicode="fl" horiz-adv-x="1359" d="M39 940v174q0 31 35 31h133v162q0 143 84 213q42 33 100 47q62 18 122.5 23t164.5 5q241 0 528 -26q31 -3 31 -33v-1503q0 -33 -31 -33h-241q-31 0 -31 33v1298l-293 2q-69 2 -100 -15t-31 -65v-108h233q33 0 27 -35l-33 -172q-6 -29 -35 -29h-192v-876q0 -33 -31 -33 h-241q-31 0 -31 33v876h-133q-35 0 -35 31z" />
<glyph unicode="ffi" horiz-adv-x="2199" d="M39 940v174q0 31 35 31h133v162q0 182 112 241q53 28 108 37.5t140 9.5q98 0 201 -20q33 -6 33 -39v-170q0 -33 -35 -33h-141q-65 0 -90 -16t-25 -64v-108h512v162q0 181 113 241q53 28 107.5 37.5t139.5 9.5q82 0 193 -20q33 -6 33 -39v-170q0 -33 -35 -33h-131 q-65 0 -90 -16t-25 -64v-108h719q31 0 31 -33v-1079q0 -33 -31 -33h-242q-30 0 -30 33v876h-447v-876q0 -33 -31 -33h-243q-31 0 -31 33v876h-512v-876q0 -33 -31 -33h-241q-31 0 -31 33v876h-133q-35 0 -35 31zM1747 1466q0 78 47 121t133 43q84 0 130 -43t46 -121 t-46 -122t-130 -44q-86 0 -133 44t-47 122z" />
<glyph unicode="ffl" horiz-adv-x="2177" d="M39 940v174q0 31 35 31h133v162q0 182 112 241q53 28 108 37.5t140 9.5q123 0 226 -20q32 -6 32 -39v-170q0 -33 -34 -33h-166q-65 0 -90 -16t-25 -64v-108h512v162q0 143 84 213q42 33 100 47q62 18 123.5 23t165.5 5q235 0 528 -26q31 -3 31 -33v-1503q0 -33 -31 -33 h-241q-31 0 -31 33v1298l-293 2q-69 2 -100 -15t-31 -65v-108h219q33 0 27 -35l-33 -172q-6 -29 -35 -29h-178v-876q0 -33 -31 -33h-243q-31 0 -31 33v876h-512v-876q0 -33 -31 -33h-241q-31 0 -31 33v876h-133q-35 0 -35 31z" />
<glyph unicode="fb" horiz-adv-x="2043" d="M39 940v174q0 31 33 31h133v162q0 143 84 213q42 33 100 47q62 18 122.5 23t164.5 5q237 0 530 -26q31 -3 31 -31v-393q111 12 252 12q279 0 373 -123q96 -122 96 -463q0 -348 -105 -465q-104 -116 -426 -116q-216 0 -450 39q-45 6 -45 51v1251l-291 2q-71 2 -102 -15 t-31 -65v-108h235q31 0 25 -35l-31 -172q-6 -29 -35 -29h-194v-876q0 -33 -31 -33h-241q-31 0 -31 33v876h-133q-33 0 -33 31zM1237 266q80 -14 195 -14q147 0 184 63q39 62 39 258q0 202 -41 261t-193 59h-184v-627z" />
<glyph unicode="ffb" horiz-adv-x="2865" d="M39 940v174q0 31 33 31h133v162q0 182 112 241q53 28 108 37.5t140 9.5q118 0 221 -20q33 -6 33 -39v-170q0 -33 -35 -33h-159q-68 0 -92.5 -16t-24.5 -64v-108h516v162q0 143 84 213q42 33 100 47q62 18 123.5 23t165.5 5q241 0 528 -26q31 -3 31 -31v-393 q114 12 252 12q278 0 373 -121q96 -122 96 -465q0 -349 -104 -465t-426 -116q-214 0 -451 39q-43 6 -43 51v1251l-293 2q-69 2 -100 -15t-31 -65v-108h234q30 0 24 -35l-31 -172q-6 -29 -34 -29h-193v-876q0 -33 -31 -33h-243q-31 0 -31 33v876h-516v-876q0 -33 -31 -33 h-241q-31 0 -31 33v876h-133q-33 0 -33 31zM2056 266q80 -14 197 -14q145 0 182 63q39 62 39 258q0 202 -41 261t-192 59h-185v-627z" />
<glyph unicode="ffj" horiz-adv-x="2183" d="M39 940v174q0 31 35 31h133v162q0 182 112 241q53 28 108 37.5t140 9.5q98 0 201 -20q31 -6 31 -39v-170q0 -33 -33 -33h-141q-65 0 -90 -16t-25 -64v-108h512v162q0 181 113 241q84 39 176 45.5t258 -18.5q33 -6 33 -39v-170q0 -33 -33 -33h-127q-65 0 -90 -16t-25 -64 v-108h703q30 0 30 -33v-1278q0 -157 -71 -207q-68 -51 -217 -51q-99 0 -168 16q-21 6 -28 14.5t-7 26.5v174q0 33 35 33h51q66 0 83 15.5t17 76.5v977h-428v-876q0 -33 -31 -33h-243q-31 0 -31 33v876h-512v-876q0 -33 -31 -33h-241q-31 0 -31 33v876h-133q-35 0 -35 31z M1731 1466q0 78 46.5 121t131.5 43q86 0 132 -43t46 -121q0 -79 -46 -122.5t-132 -43.5q-84 0 -131 44t-47 122z" />
<glyph unicode="ffk" horiz-adv-x="2766" d="M39 940v174q0 31 33 31h133v162q0 182 112 241q53 28 108 37.5t140 9.5q118 0 221 -20q33 -6 33 -39v-170q0 -33 -35 -33h-159q-68 0 -92.5 -16t-24.5 -64v-108h512v162q0 143 84 213q42 33 100 47q62 18 122.5 23t164.5 5q241 0 528 -26q31 -3 31 -33v-782l295 372 q15 21 43 21h274q52 0 19 -39l-328 -412l418 -641q34 -55 -35 -55h-258q-29 0 -45 23l-383 604v-594q0 -33 -31 -33h-241q-31 0 -31 33v1298l-293 2q-69 2 -100 -15t-31 -65v-108h233q33 0 27 -35l-33 -172q-6 -29 -34 -29h-193v-876q0 -33 -31 -33h-241q-31 0 -31 33v876 h-512v-876q0 -33 -31 -33h-241q-31 0 -31 33v876h-133q-33 0 -33 31z" />
<glyph unicode="fj" horiz-adv-x="1366" d="M39 940v174q0 31 35 31h133v162q0 182 112 241q53 28 108 37.5t140 9.5q86 0 189 -20q32 -6 32 -39v-170q0 -33 -34 -33h-129q-65 0 -90 -16t-25 -64v-108h702q31 0 31 -33v-1278q0 -156 -72 -207q-68 -51 -217 -51q-93 0 -168 16q-32 11 -32 41v174q0 33 34 33h52 q66 0 83 15.5t17 76.5v977h-430v-876q0 -33 -31 -33h-241q-31 0 -31 33v876h-133q-35 0 -35 31zM913 1466q0 78 47.5 121t133.5 43q84 0 130 -43t46 -121t-46 -122t-130 -44q-86 0 -133.5 44t-47.5 122z" />
<glyph unicode="fk" horiz-adv-x="1953" d="M39 940v174q0 31 35 31h133v162q0 143 84 213q42 33 100 47q62 18 122.5 23t164.5 5q241 0 528 -26q31 -3 31 -33v-782l295 372q15 21 43 21h274q52 0 19 -39l-328 -412l418 -641q34 -55 -35 -55h-258q-29 0 -45 23l-383 604v-594q0 -33 -31 -33h-241q-31 0 -31 33v1298 l-293 2q-69 2 -100 -15t-31 -65v-108h233q33 0 27 -35l-33 -172q-6 -29 -35 -29h-192v-876q0 -33 -31 -33h-241q-31 0 -31 33v876h-133q-35 0 -35 31z" />
<glyph unicode=" "  horiz-adv-x="421" />
<glyph unicode="&#x09;" horiz-adv-x="421" />
<glyph unicode="&#xa0;" horiz-adv-x="421" />
<glyph unicode="!" horiz-adv-x="602" d="M123 156q0 78 47 120.5t133 42.5q85 0 130.5 -42.5t45.5 -120.5t-46 -122t-130 -44q-86 0 -133 44t-47 122zM137 860v692q0 33 31 33h266q31 0 31 -33v-692q0 -27 -2 -39l-62 -325q-9 -33 -30 -33h-138q-24 0 -30 33l-62 325q-1 11 -2 20.5t-1.5 13.5t-0.5 5z" />
<glyph unicode="&#x22;" horiz-adv-x="1034" d="M90 1311v241q0 33 31 33h268q31 0 31 -33v-241q0 -1 -0.5 -5t-1.5 -13.5t-2 -20.5l-62 -326q-6 -33 -30 -33h-138q-24 0 -30 33l-62 326q-1 11 -2 20.5t-1.5 13.5t-0.5 5zM616 1311v241q0 33 31 33h266q31 0 31 -33v-241q0 -27 -2 -39l-63 -326q-6 -33 -31 -33h-135 q-25 0 -31 33l-61 326q-1 11 -2 20.5t-2 13.5t-1 5z" />
<glyph unicode="#" horiz-adv-x="1458" d="M90 383v213q0 31 33 31h164v327h-164q-33 0 -33 31v211q0 31 33 31h164v327q0 31 30 31h240q31 0 31 -31v-327h260v327q0 31 31 31h237q31 0 31 -31v-327h190q33 0 33 -31v-211q0 -31 -33 -31h-190v-327h190q33 0 33 -31v-213q0 -31 -33 -31h-190v-319q0 -33 -31 -33 h-237q-31 0 -31 33v319h-260v-319q0 -33 -31 -33h-240q-30 0 -30 33v319h-164q-33 0 -33 31zM588 627h260v327h-260v-327z" />
<glyph unicode="$" horiz-adv-x="1275" d="M82 139v176q0 29 33 29h616q83 0 120.5 23.5t37.5 76.5v25q0 53 -32 83t-116 60l-399 138q-130 43 -187 130t-57 246v43q0 173 112.5 256t346.5 95v143q0 31 31 31h112q31 0 31 -31v-139q153 -3 375 -39q31 -6 31 -27v-188q0 -27 -33 -27h-520q-87 0 -123.5 -23.5 t-36.5 -82.5v-19q0 -51 27 -81.5t94 -55.5l383 -133q156 -57 219 -137q65 -80 65 -236v-53q0 -172 -120 -256t-361 -98v-142q0 -30 -31 -30h-112q-31 0 -31 30v140q-228 7 -444 38q-31 6 -31 35z" />
<glyph unicode="%" horiz-adv-x="1918" d="M53 1174q0 248 78 335q80 86 307 86q230 0 307 -86q80 -86 80 -335q0 -248 -80 -334q-77 -86 -307 -86q-227 0 -307 86q-78 87 -78 334zM293 1174q0 -124 30 -168.5t115 -44.5q86 0 117 44.5t31 168.5q0 127 -31 172t-117 45q-85 0 -115 -45t-30 -172zM465 31l801 1525 q19 31 49 31h110q32 0 13 -31l-799 -1525q-15 -31 -47 -31h-113q-29 0 -14 31zM1094 410q0 249 77 335q80 86 308 86q230 0 307 -86q80 -86 80 -335q0 -248 -80 -334q-77 -86 -307 -86q-228 0 -308 86q-77 86 -77 334zM1333 410q0 -124 30.5 -168.5t115.5 -44.5 q86 0 116.5 44t30.5 169t-30.5 170t-116.5 45q-85 0 -115.5 -45t-30.5 -170z" />
<glyph unicode="&#x26;" horiz-adv-x="1380" d="M106 395v90q0 263 203 310q-203 47 -203 311v92q0 232 136 315q137 84 407 84q175 0 316 -30q47 -12 47 -49v-175q0 -26 -31 -26h-299q-148 0 -201 -33q-53 -35 -53 -139v-29q0 -111 47.5 -152.5t179.5 -41.5h590q35 0 35 -31v-143q0 -24 -35 -33l-139 -33v-336 q0 -65 24 -84.5t97 -19.5h63q37 0 37 -33v-162q0 -33 -35 -39q-64 -18 -151 -18q-174 0 -234 63q-126 -63 -307 -63q-213 0 -346 76q-148 88 -148 329zM428 451q0 -101 52 -141t175 -40q102 0 181 33v371h-199q-122 0 -165.5 -41.5t-43.5 -151.5v-30z" />
<glyph unicode="'" horiz-adv-x="507" d="M90 1311v241q0 33 31 33h266q31 0 31 -33v-241q0 -1 -0.5 -5t-1.5 -13.5t-2 -20.5l-62 -326q-6 -33 -30 -33h-136q-24 0 -30 33l-64 326q-2 12 -2 39z" />
<glyph unicode="(" horiz-adv-x="727" d="M88 690q0 231 16 359q18 119 89 264q73 149 233 362q14 17 31 17h233q17 0 17 -17v-20q0 -11 -7 -21q-156 -222 -249 -411q-36 -71 -52 -164q-15 -88 -18 -160q-4 -90 -4 -211q0 -150 4 -256q6 -84 39 -192q35 -117 94 -217q78 -126 186 -281q7 -10 7 -21v-20 q0 -16 -17 -16h-233q-18 0 -31 16q-167 219 -236 360q-71 148 -86 267q-16 128 -16 362z" />
<glyph unicode=")" horiz-adv-x="729" d="M23 -279q0 12 6 21q121 178 182 281q60 97 96 217q34 112 37 192q6 79 6 256q0 121 -4 211q-4 88 -16 160q-25 122 -77 219t-203 324q-4 7 -6.5 11t-7 10t-7.5 11q-6 9 -6 21v20q0 17 16 17h231q19 0 33 -17q132 -179 189 -274q68 -113 100 -223q35 -119 41 -211 q8 -84 8 -277q0 -234 -16 -362q-14 -113 -88 -267q-73 -148 -234 -360q-13 -16 -33 -16h-231q-16 0 -16 16v20z" />
<glyph unicode="*" horiz-adv-x="870" d="M55 1305l39 120q9 32 41 19l217 -86l-14 237q-3 31 31 31h131q30 0 30 -31l-16 -235l223 86q29 10 39 -19l37 -124q9 -32 -22 -37l-222 -64l150 -186q22 -22 -6 -43l-101 -70q-25 -18 -43 6l-131 193l-139 -197q-18 -28 -43 -6l-98 76q-25 19 -4 43l147 180l-225 68 q-30 6 -21 39z" />
<glyph unicode="+" horiz-adv-x="1153" d="M63 528v209q0 31 31 31h342v330q0 30 31 30h223q31 0 31 -30v-330h338q31 0 31 -31v-209q0 -30 -31 -30h-338v-332q0 -31 -31 -31h-223q-31 0 -31 31v332h-342q-31 0 -31 30z" />
<glyph unicode="," horiz-adv-x="577" d="M-12 -285l151 525q6 18 25 18h307q21 0 21 -20v-48q0 -10 -11 -28l-366 -516q-17 -17 -31 -8l-90 49q-14 9 -6 28z" />
<glyph unicode="-" horiz-adv-x="927" d="M115 498v219q0 31 30 31h637q31 0 31 -31v-219q0 -31 -31 -31h-637q-30 0 -30 31z" />
<glyph unicode="." horiz-adv-x="512" d="M78 156q0 78 46 120.5t132 42.5q85 0 131.5 -42.5t46.5 -120.5t-47 -122t-131 -44q-86 0 -132 43.5t-46 122.5z" />
<glyph unicode="/" horiz-adv-x="1019" d="M49 -53l742 1683q15 35 47 35h120q30 0 15 -35l-740 -1683q-15 -35 -45 -35h-125q-29 0 -14 35z" />
<glyph unicode="0" horiz-adv-x="1411" d="M98 791q0 247 26.5 392.5t94.5 241.5q67 95 181.5 133.5t306.5 38.5t305 -38t180 -134q68 -96 94.5 -241.5t26.5 -392.5q0 -471 -123 -637q-120 -164 -483 -164q-150 0 -251.5 24t-174.5 78q-103 85 -142 244.5t-41 454.5zM422 791q0 -309 57 -414q58 -107 228 -107 q167 0 225 107q57 105 57 414q0 310 -57 415q-58 111 -225 111q-169 0 -228 -111q-57 -105 -57 -415z" />
<glyph unicode="1" horiz-adv-x="997" d="M68 1362v172q0 33 32 39q108 24 211 24q132 0 213 -28q164 -52 164 -260v-1028h250q31 0 31 -31v-219q0 -31 -31 -31h-819q-31 0 -31 31l-2 219q0 31 33 31h260v944q0 65 -28.5 85.5t-114.5 20.5h-134q-34 -3 -34 31z" />
<glyph unicode="2" horiz-adv-x="1273" d="M63 57v185q0 120 54 196q55 72 207 176l436 287q46 32 63 72t17 114v70q0 92 -64 126t-223 34h-397q-25 0 -25 22v177q0 36 39 45q189 36 418 36q111 0 184 -7.5t146 -30.5q119 -36 181 -115t62 -219v-187q0 -128 -37 -209t-170 -167l-366 -228q-47 -26 -64.5 -51 t-17.5 -64v-36h663q17 0 17 -13v-258q0 -12 -15 -12h-1052q-56 0 -56 57z" />
<glyph unicode="3" horiz-adv-x="1259" d="M88 63v183q0 24 31 24h385q202 0 264 35q63 37 63 150v18q-3 113 -51 152q-50 41 -200 41h-365q-29 0 -29 28v199q0 29 29 29h365q150 0 200 41q51 42 51 153v27q0 106 -65 141q-62 33 -270 33h-377q-31 0 -31 24v179q0 35 45 47q169 30 395 30q334 0 478 -81 q147 -80 147 -318v-92q0 -264 -203 -311q203 -47 203 -310v-90q0 -238 -147 -321q-150 -84 -478 -84q-242 0 -395 30q-26 6 -35.5 14.5t-9.5 28.5z" />
<glyph unicode="4" horiz-adv-x="1392" d="M49 418v151q0 28 14 74l265 922q3 20 37 20h258q31 0 22 -37l-248 -880h373v354q0 29 29 39l260 88q33 9 33 -27v-454h231q33 0 33 -31v-219q0 -31 -33 -31h-231v-354q0 -33 -31 -33h-260q-31 0 -31 33v354h-690q-31 0 -31 31z" />
<glyph unicode="5" horiz-adv-x="1290" d="M106 66v178q0 26 31 26h420q194 0 258 43t64 164v17q-3 123 -66 165q-61 46 -256 46h-395q-56 0 -56 40v195l50 614q3 31 32 31h951q30 0 30 -31v-219q0 -30 -30 -30h-707l-26 -332q92 12 208 12q302 0 445 -90q140 -88 143 -332v-153q-3 -246 -149 -334 q-148 -86 -475 -86q-262 0 -424 28q-48 9 -48 48z" />
<glyph unicode="6" horiz-adv-x="1292" d="M74 414v149q0 119 41 209l401 793q11 20 37 20h276q39 0 21 -37l-295 -592q58 15 154 15q528 0 528 -408v-151q0 -227 -141.5 -324.5t-433.5 -97.5q-298 0 -443 98.5t-145 325.5zM397 483q0 -120 56 -166.5t209 -46.5q149 0 202 47q51 45 51 164v11q0 120 -53 166.5 t-200 46.5q-154 0 -211 -48q-54 -48 -54 -163v-11z" />
<glyph unicode="7" horiz-adv-x="1234" d="M41 1333v221q0 31 33 31h1095q31 0 31 -31v-165q0 -26 -14 -48l-690 -1321q-11 -20 -37 -20h-303q-39 0 -21 37l670 1268h-731q-33 0 -33 28z" />
<glyph unicode="8" horiz-adv-x="1355" d="M84 424q0 252 260 389q-213 106 -213 346q0 223 129 329.5t404 106.5h34q272 0 402.5 -106t130.5 -328q0 -136 -51 -225.5t-162 -151.5q133 -58 192.5 -142.5t59.5 -221.5q0 -217 -141.5 -323.5t-434.5 -106.5h-37q-293 0 -433 106.5t-140 327.5zM406 471 q0 -201 258 -201h26q258 0 258 172q0 132 -170 185l-194 61q-96 -43 -137 -94.5t-41 -122.5zM455 1145q0 -73 41.5 -119t126.5 -78l149 -45q137 73 137 223q0 189 -217 189h-22q-215 0 -215 -170z" />
<glyph unicode="9" horiz-adv-x="1292" d="M55 1022v152q0 227 142 324t434 97q298 0 443 -98.5t145 -325.5v-149q0 -119 -41 -209l-402 -793q-11 -20 -37 -20h-276q-39 0 -21 37l295 592q-80 -17 -153 -17q-529 0 -529 410zM379 1094q0 -121 52.5 -167t199.5 -46q153 0 209.5 46t56.5 165v10q0 119 -56.5 165 t-209.5 46q-148 0 -201 -47q-51 -45 -51 -164v-8z" />
<glyph unicode=":" horiz-adv-x="581" d="M113 156q0 78 46.5 120.5t131.5 42.5q86 0 132 -42.5t46 -120.5q0 -79 -46 -122.5t-132 -43.5q-84 0 -131 44t-47 122zM113 995q0 78 46.5 121t131.5 43q86 0 132 -43t46 -121q0 -79 -46 -122.5t-132 -43.5q-84 0 -131 44t-47 122z" />
<glyph unicode=";" horiz-adv-x="626" d="M-6 -285l151 525q6 18 25 18h309q21 0 21 -20v-48q0 -10 -11 -28l-368 -516q-17 -17 -31 -8l-90 49q-14 9 -6 28zM152 995q0 78 47 121t133 43q85 0 131.5 -43t46.5 -121t-47 -122t-131 -44q-86 0 -133 44t-47 122z" />
<glyph unicode="&#x3c;" horiz-adv-x="1153" d="M51 655v179q0 22 25 34l887 398q12 4 26 4h37q21 0 21 -21v-231q0 -24 -25 -37l-553 -238l553 -237q25 -12 25 -35v-231q0 -23 -21 -23h-37q-11 0 -26 6l-887 398q-25 9 -25 34z" />
<glyph unicode="=" horiz-adv-x="1345" d="M119 266v217q0 31 31 31h1046q31 0 31 -31v-217q0 -30 -31 -30h-1046q-31 0 -31 30zM119 799v217q0 31 31 31h1046q31 0 31 -31v-217q0 -31 -31 -31h-1046q-31 0 -31 31z" />
<glyph unicode="&#x3e;" horiz-adv-x="1153" d="M106 240v231q0 23 25 35l555 237l-555 238q-25 13 -25 37v231q0 21 23 21h35q17 0 29 -4l886 -398q23 -13 23 -34v-179q0 -24 -23 -34l-886 -398q-15 -6 -29 -6h-35q-23 0 -23 23z" />
<glyph unicode="?" horiz-adv-x="1114" d="M53 1348v163q0 44 47 56q169 30 385 30q111 0 184 -7.5t146 -30.5q240 -69 240 -338v-117q0 -164 -49 -240q-46 -76 -177 -135l-208 -100q-57 -27 -80.5 -49.5t-30.5 -59.5l-4 -35q0 -22 -25 -22h-198q-22 0 -25 22l-14 109q-9 89 16 133q26 44 133 104l228 115 q64 32 88 66t24 100v62q0 87 -54.5 115t-197.5 28h-397q-31 0 -31 31zM201 156q0 78 47 120.5t133 42.5q85 0 130.5 -42.5t45.5 -120.5t-46 -122t-130 -44q-86 0 -133 44t-47 122z" />
<glyph unicode="@" horiz-adv-x="2103" d="M84 598q0 510 238 748.5t747 238.5q482 0 714 -203t232 -632q0 -616 -563 -625l-426 2q-221 0 -309 49t-88 219v39q0 156 81.5 215.5t272.5 59.5h219v61q0 63 -39 91t-125 28h-313q-25 0 -25 26v144q0 23 25 26q135 27 307 27q249 0 338 -74q90 -72 90 -225v-580 q436 0 436 515q0 372 -205.5 550.5t-623.5 178.5q-444 0 -655 -215t-211 -668q0 -193 41 -347t112 -251q109 -141 269.5 -205.5t371.5 -69.5q27 0 27 -26v-60q0 -24 -27 -24q-466 1 -688.5 243.5t-222.5 743.5zM883 428q0 -58 29 -76t110 -18h180v207h-196q-77 0 -100 -19 t-23 -76v-18z" />
<glyph unicode="A" horiz-adv-x="1456" d="M18 33l367 1319q46 165 102 204q59 41 238 41q187 0 246 -41q56 -39 102 -204l361 -1319q6 -33 -27 -33h-262q-12 0 -17.5 6.5t-9.5 26.5l-117 426h-548l-119 -426q-5 -20 -10.5 -26.5t-18.5 -6.5h-260q-33 0 -27 33zM524 725h406l-148 543q-12 44 -20 51q-10 8 -37 8 q-24 0 -32 -10t-19 -49z" />
<glyph unicode="B" horiz-adv-x="1433" d="M145 39v1507q0 17 6 22t25 7q261 22 572 22q303 0 434 -98q133 -100 133 -342q0 -168 -54 -251.5t-178 -106.5v-6q145 -18 206 -106t61 -263q0 -246 -129 -340q-128 -94 -424 -94q-375 0 -621 20q-31 3 -31 29zM467 270h307q138 0 194 43t56 154q0 119 -57.5 165 t-190.5 46h-309v-408zM467 909h209q184 0 248 37q65 41 65 162q0 119 -61 164t-213 45h-248v-408z" />
<glyph unicode="C" horiz-adv-x="1275" d="M98 795q0 245 30 391t103 241q76 95 197.5 132.5t327.5 37.5q234 0 403 -30q47 -12 47 -56v-163q0 -31 -30 -31h-420q-207 0 -271 -107q-61 -107 -61 -415q0 -311 61 -418q64 -107 271 -107h420q30 0 30 -30v-166q0 -42 -47 -54q-150 -30 -403 -30q-206 0 -327.5 37.5 t-197.5 132.5q-73 96 -103 243t-30 392z" />
<glyph unicode="D" horiz-adv-x="1525" d="M145 37v1509q0 17 6 22t25 7q261 22 594 22q360 0 510 -188q154 -189 154 -616q0 -428 -154 -617q-149 -186 -510 -186q-348 0 -594 20q-18 1 -24.5 7t-6.5 20zM467 270h303q183 0 260.5 121.5t77.5 401.5q0 279 -81.5 401.5t-272.5 122.5h-287v-1047z" />
<glyph unicode="E" horiz-adv-x="1327" d="M145 33v1521q0 31 31 31h1026q31 0 31 -31v-219q0 -30 -31 -30h-735v-387h672q32 0 32 -31v-209q0 -31 -32 -31h-672v-366h735q31 0 31 -31v-219q0 -31 -31 -31h-1026q-31 0 -31 33z" />
<glyph unicode="F" horiz-adv-x="1243" d="M145 33v1521q0 31 31 31h987q31 0 31 -31v-219q0 -30 -31 -30h-696v-390h633q33 0 33 -30v-209q0 -31 -33 -31h-633v-612q0 -33 -31 -33h-260q-31 0 -31 33z" />
<glyph unicode="G" horiz-adv-x="1404" d="M98 793q0 469 133 637q133 167 525 167q288 0 438 -30q47 -12 47 -56v-163q0 -31 -31 -31h-454q-207 0 -271 -107q-61 -107 -61 -417q0 -309 61 -416q64 -107 271 -107h256v478q0 32 30 32h240q31 0 31 -32v-582q0 -38 -8 -51q-33 -57 -193 -92q-149 -33 -356 -33 q-203 0 -324 37q-124 38 -201 133q-73 95 -103 241.5t-30 391.5z" />
<glyph unicode="H" horiz-adv-x="1611" d="M145 33v1519q0 33 31 33h260q31 0 31 -33v-616h678v616q0 33 31 33h260q30 0 30 -33v-1519q0 -33 -30 -33h-260q-31 0 -31 33v618h-678v-618q0 -33 -31 -33h-260q-31 0 -31 33z" />
<glyph unicode="I" horiz-adv-x="612" d="M145 33v1519q0 33 31 33h260q31 0 31 -33v-1519q0 -33 -31 -33h-260q-31 0 -31 33z" />
<glyph unicode="J" horiz-adv-x="1206" d="M31 72v168q0 30 30 30h342q214 0 281 101q68 99 68 377v24v533h-420q-33 0 -33 30v219q0 31 31 31h712q31 0 31 -31v-782v-19q0 -436 -137 -599q-138 -164 -533 -164q-175 0 -325 30q-47 9 -47 52z" />
<glyph unicode="K" horiz-adv-x="1388" d="M145 33v1521q0 31 31 31h260q31 0 31 -31v-651l514 662q14 20 43 20h289q44 0 18 -39l-532 -690l587 -801q14 -19 14 -32q0 -23 -48 -23h-287q-32 0 -45 23l-553 759v-749q0 -33 -31 -33h-260q-31 0 -31 33z" />
<glyph unicode="L" horiz-adv-x="1202" d="M145 33v1521q0 31 31 31h260q31 0 31 -31v-1273h672q30 0 30 -31v-219q0 -31 -30 -31h-963q-31 0 -31 33z" />
<glyph unicode="M" horiz-adv-x="2011" d="M86 33l147 1519q3 33 27 33h248q49 0 73 -16.5t44 -63.5l381 -997l380 997q19 49 43 65.5t74 16.5h248q24 0 27 -33l147 -1521q3 -33 -31 -33h-260q-27 0 -30 33l-91 983l-368 -936q-12 -31 -43 -31h-195q-27 0 -43 31l-366 936l-90 -983q-3 -33 -31 -33h-260 q-34 0 -31 33z" />
<glyph unicode="N" horiz-adv-x="1607" d="M145 33v1519q0 33 31 33h203q62 -6 78.5 -15t48.5 -52l635 -928v962q0 33 30 33h261q30 0 30 -33v-1519q0 -33 -30 -33h-191q-66 0 -102 51l-672 985v-1003q0 -33 -31 -33h-260q-31 0 -31 33z" />
<glyph unicode="O" horiz-adv-x="1519" d="M96 791q0 248 30.5 393.5t106.5 240.5q76 96 198 134t329 38t328.5 -38t197.5 -134q76 -95 106.5 -240.5t30.5 -393.5q0 -467 -137 -635q-138 -166 -526 -166q-389 0 -527 166q-137 168 -137 635zM422 791q0 -305 65 -414q64 -107 273 -107q208 0 272 107q66 111 66 414 q0 306 -66 417q-65 109 -272 109q-208 0 -273 -109t-65 -417z" />
<glyph unicode="P" horiz-adv-x="1380" d="M145 33v1513q0 17 6 22t25 7q261 22 545 22q342 0 469 -112q131 -110 131 -414q0 -162 -30 -255.5t-103 -147.5t-178 -74.5t-289 -20.5h-254v-540q0 -20 -6 -26.5t-25 -6.5h-260q-19 0 -25 6.5t-6 26.5zM467 821h221q190 0 248 43q59 47 59 199q0 154 -61 203 q-60 51 -246 51h-221v-496z" />
<glyph unicode="Q" horiz-adv-x="1519" d="M96 791q0 248 30.5 393.5t106.5 240.5q76 96 198 134t329 38t328.5 -38t197.5 -134q76 -95 106.5 -240.5t30.5 -393.5q0 -418 -106 -590q-105 -173 -389 -203l73 -252q9 -33 -30 -33h-232q-28 0 -37 33l-73 248q-306 24 -420 196q-113 171 -113 601zM422 791 q0 -305 65 -414q64 -107 273 -107q208 0 272 107q66 111 66 414q0 306 -66 417q-65 109 -272 109q-208 0 -273 -109t-65 -417z" />
<glyph unicode="R" horiz-adv-x="1417" d="M145 33v1513q0 17 6 22t25 7q261 22 545 22q342 0 469 -112q131 -110 131 -414q0 -231 -70 -338q-71 -105 -243 -139l348 -553q12 -17 5 -29t-30 -12h-258q-31 0 -47.5 9.5t-34.5 35.5l-336 528h-188v-540q0 -20 -6 -26.5t-25 -6.5h-260q-19 0 -25 6.5t-6 26.5zM467 821 h221q190 0 248 43q59 47 59 199q0 154 -61 203q-60 51 -246 51h-221v-496z" />
<glyph unicode="S" horiz-adv-x="1280" d="M82 78v155q0 37 39 37h581q187 0 187 127v27q0 65 -32.5 102t-115.5 68l-399 149q-130 50 -187 146t-57 272v45q0 212 138.5 301.5t435.5 89.5q197 0 428 -41q37 -12 37 -36v-166q0 -37 -39 -37h-486q-188 0 -188 -133v-29q0 -107 121 -154l383 -149q153 -62 219 -152 q65 -89 65 -260v-57q0 -209 -146 -301t-443 -92q-239 0 -506 43q-35 9 -35 45z" />
<glyph unicode="T" horiz-adv-x="1306" d="M33 1335v219q0 31 30 31h1178q33 0 33 -31v-219q0 -30 -33 -30h-428v-1272q0 -33 -31 -33h-260q-30 0 -30 33v1272h-429q-30 0 -30 30z" />
<glyph unicode="U" horiz-adv-x="1562" d="M133 791v763q0 31 31 31h260q31 0 31 -31v-763q0 -310 65 -416q64 -105 262 -105q196 0 260 105q66 107 66 416v763q0 31 31 31h260q31 0 31 -31v-763q0 -377 -78 -560q-67 -136 -196 -187t-374 -54q-207 0 -326 35.5t-192 126.5q-73 92 -102 238.5t-29 400.5z" />
<glyph unicode="V" horiz-adv-x="1427" d="M31 1552q-9 33 24 33h262q12 0 17.5 -6.5t11.5 -26.5l320 -1239q8 -28 12 -38t12 -16.5t21 -6.5q22 0 31 11.5t20 49.5l315 1239q9 33 29 33h262q34 0 25 -33l-338 -1319q-44 -164 -101 -204q-53 -39 -241 -39q-183 0 -236 39t-100 204z" />
<glyph unicode="W" horiz-adv-x="2254" d="M49 1552q-6 33 27 33h272q23 0 29 -33l219 -1173q7 -38 16.5 -50t30.5 -12q24 0 33 11t20 51l269 1118q9 33 43 33h241q32 0 41 -33l271 -1118q11 -40 19 -51t32 -11q20 0 30 12.5t17 49.5l219 1173q4 20 10.5 26.5t20.5 6.5h270q35 0 29 -33l-256 -1319 q-29 -160 -84 -202q-53 -41 -221 -41q-193 0 -244 39q-52 40 -92 204l-183 775l-184 -775q-14 -52 -20.5 -76t-21 -56t-20.5 -43t-28.5 -27.5t-36 -19.5t-52 -9.5t-66.5 -7.5t-89 -4q-170 0 -223 41q-49 38 -84 202z" />
<glyph unicode="X" horiz-adv-x="1437" d="M8 45l524 780l-481 715q-14 23 -8.5 34t31.5 11h288q36 0 56 -33l303 -477l299 477q20 33 55 33h289q26 0 31 -11t-9 -34l-479 -715l525 -780q10 -16 10 -26q0 -19 -33 -19h-289q-35 0 -55 33l-344 540l-346 -540q-20 -33 -56 -33h-288q-33 0 -33 19q0 10 10 26z" />
<glyph unicode="Y" horiz-adv-x="1460" d="M6 1540q-8 15 -8 25q0 20 31 20h288q36 0 56 -33l356 -721l358 721q17 33 56 33h289q30 0 30 -20q0 -10 -8 -25l-563 -1032v-475q0 -33 -31 -33h-260q-31 0 -31 33v479z" />
<glyph unicode="Z" horiz-adv-x="1409" d="M61 227q0 23 15 41l823 1037h-780q-33 0 -33 30l-2 219q0 31 33 31h1177q31 0 31 -31v-198q0 -27 -14 -41l-824 -1034h824q32 0 32 -31v-217q0 -33 -32 -33h-1217q-31 0 -31 33z" />
<glyph unicode="[" horiz-adv-x="868" d="M152 -287v1948q0 31 30 31h606q31 0 31 -31v-164q0 -31 -31 -31h-346v-1558h346q31 0 31 -31v-164q0 -30 -31 -30h-606q-30 0 -30 30z" />
<glyph unicode="\" horiz-adv-x="1019" d="M47 1630q-15 35 16 35h119q33 0 45 -35l746 -1683q15 -35 -17 -35h-125q-30 0 -45 35z" />
<glyph unicode="]" horiz-adv-x="868" d="M49 -123q0 31 31 31h346v1558h-346q-31 0 -31 31v164q0 31 31 31h606q31 0 31 -31v-1948q0 -30 -31 -30h-606q-31 0 -31 30v164z" />
<glyph unicode="^" horiz-adv-x="1140" d="M56.5 756.5q-5.5 8.5 2.5 27.5l361 717q10 23 37 23h231q25 0 35 -23l358 -717q20 -36 -22 -36h-246q-28 0 -37 22l-205 440l-209 -440q-9 -22 -36 -22h-244q-20 0 -25.5 8.5z" />
<glyph unicode="_" horiz-adv-x="1314" d="M0 -129q0 31 31 31h1253q31 0 31 -31v-109q0 -30 -31 -30h-1253q-31 0 -31 30v109z" />
<glyph unicode="`" horiz-adv-x="987" d="M246 1587v15q0 20 20 20h297q19 0 25 -12l149 -267q9 -16 -6 -28l-88 -51q-16 -10 -29 0l-358 299q-10 17 -10 24z" />
<glyph unicode="a" horiz-adv-x="1157" d="M59 344q3 196 101 266q101 70 319 70h260v74q0 141 -192 141h-371q-17 0 -23 6t-6 25v168q0 16 5.5 21.5t23.5 10.5q161 31 371 31q285 0 391 -86q104 -85 104 -266v-709q0 -48 -45 -63q-185 -43 -465 -43q-137 0 -210 10.5t-138 44.5q-65 36 -94 107.5t-31 191.5z M360 360q0 -71 38 -97.5t137 -26.5q134 0 204 20v227h-235q-79 0 -111.5 -27.5t-32.5 -95.5z" />
<glyph unicode="b" horiz-adv-x="1232" d="M121 80v1472q0 33 31 33h241q31 0 31 -33v-407q114 12 252 12q280 0 375 -123q96 -122 96 -463q0 -349 -107 -465q-104 -116 -426 -116q-213 0 -450 39q-43 6 -43 51zM424 266q80 -14 197 -14q147 0 184 63q37 64 37 258q0 202 -41 261t-193 59h-184v-627z" />
<glyph unicode="c" horiz-adv-x="1046" d="M88 573q0 191 20.5 294.5t75.5 170.5q58 69 153.5 94t270.5 25q202 0 334 -27q35 -6 35 -40v-162q0 -33 -35 -33h-334q-138 0 -178 -61q-39 -59 -39 -261q0 -198 39 -260q40 -61 178 -61h334q35 0 35 -31v-164q0 -33 -35 -39q-134 -28 -334 -28q-174 0 -270 24.5 t-154 91.5q-56 70 -76 173.5t-20 293.5z" />
<glyph unicode="d" horiz-adv-x="1232" d="M88 571q0 346 94 465q95 121 375 121q138 0 252 -12v407q0 33 31 33h241q31 0 31 -33v-1472q0 -45 -43 -51q-237 -39 -451 -39q-321 0 -425 116q-105 117 -105 465zM391 573q0 -194 37 -258q40 -63 184 -63q117 0 197 14v627h-184q-152 0 -193 -59t-41 -261z" />
<glyph unicode="e" horiz-adv-x="1175" d="M88 573q0 353 102 467q102 117 412 117q302 0 402 -115q99 -111 102 -454v-64q0 -31 -14 -43t-52 -12h-643q3 -138 47 -176q47 -41 185 -41h362q31 0 31 -31v-170q0 -30 -29 -33q-143 -28 -391 -28q-311 0 -412 116q-102 117 -102 467zM395 668h406q-1 133 -43.5 180 t-155.5 47q-118 0 -162 -47t-45 -180z" />
<glyph unicode="f" horiz-adv-x="806" d="M39 940v174q0 31 35 31h133v162q0 182 112 241q53 28 108 37.5t140 9.5q118 0 221 -20q33 -6 33 -39v-170q0 -33 -35 -33h-161q-65 0 -90 -16t-25 -64v-108h250q30 0 24 -35l-30 -172q-6 -29 -35 -29h-209v-876q0 -33 -31 -33h-241q-31 0 -31 33v876h-133q-35 0 -35 31z " />
<glyph unicode="g" horiz-adv-x="1236" d="M88 590q0 339 107 452q109 115 428 115q246 0 450 -39q43 -6 43 -51v-1042q0 -105 -10.5 -169.5t-40.5 -119.5q-40 -83 -148 -121.5t-303 -38.5q-199 0 -378 29q-29 3 -29 33v155q0 31 29 31h352q133 0 178 36.5t45 139.5v12q-126 -22 -250 -22q-278 0 -377 123 q-96 125 -96 477zM391 575q0 -200 41 -262q44 -59 197 -59q111 0 182 12v629h-203q-140 0 -180 -64q-37 -64 -37 -256z" />
<glyph unicode="h" horiz-adv-x="1251" d="M123 33v1519q0 33 31 33h241q31 0 31 -33v-405q105 10 217 10q163 0 248 -18.5t143 -71.5q59 -54 81 -144.5t22 -256.5v-633q0 -33 -31 -33h-244q-28 0 -28 33v555q0 146 -19 211q-18 61 -57 78.5t-146 17.5h-184v-862q0 -33 -31 -33h-245q-29 0 -29 33z" />
<glyph unicode="i" horiz-adv-x="548" d="M96 1466q0 78 47 121t133 43q85 0 131 -43t46 -121t-46.5 -122t-130.5 -44q-86 0 -133 44t-47 122zM123 33v1083q0 31 31 31h241q31 0 31 -31v-1083q0 -33 -31 -33h-241q-31 0 -31 33z" />
<glyph unicode="j" horiz-adv-x="561" d="M-53 -193q0 33 37 33h49q66 0 83 15.5t17 76.5v1184q0 31 31 31h244q30 0 30 -31v-1282q0 -157 -71 -207q-68 -51 -217 -51q-99 0 -168 16q-35 12 -35 41v174zM109 1466q0 78 46.5 121t131.5 43q86 0 132 -43t46 -121q0 -79 -46 -122.5t-132 -43.5q-84 0 -131 44t-47 122 z" />
<glyph unicode="k" horiz-adv-x="1142" d="M123 33v1519q0 33 31 33h241q31 0 31 -33v-798l293 372q15 21 43 21h276q32 0 32 -15q0 -9 -13 -24l-330 -412l420 -641q9 -17 9 -29q0 -26 -44 -26h-258q-32 0 -45 23l-383 604v-594q0 -33 -31 -33h-241q-31 0 -31 33z" />
<glyph unicode="l" horiz-adv-x="548" d="M123 33v1521q0 31 31 31h241q31 0 31 -31v-1521q0 -33 -31 -33h-241q-31 0 -31 33z" />
<glyph unicode="m" horiz-adv-x="1816" d="M121 33v1059q0 24 26 30q161 35 394 35q230 0 366 -65q174 67 357 67q247 0 342 -92q96 -90 96 -344l-2 -690q0 -33 -31 -33h-242q-30 0 -30 33v555q-2 63 -3.5 99t-6.5 73.5t-9.5 54.5t-15.5 35t-22.5 23.5t-32.5 11.5t-43.5 7t-57.5 3h-4q-90 0 -166 -12 q27 -80 27 -217l-2 -633q0 -33 -29 -33h-244q-28 0 -28 33v624q0 93 -8 137t-33 66q-25 23 -54 29t-102 6h-139v-862q0 -33 -31 -33h-241q-31 0 -31 33z" />
<glyph unicode="n" horiz-adv-x="1251" d="M121 33v1059q0 9 1.5 14.5t7 8.5t9 4t13.5 3q158 35 489 35q163 0 249 -18.5t144 -71.5q59 -54 81 -144.5t22 -256.5v-633q0 -33 -33 -33h-242q-31 0 -31 33v555q0 130 -6.5 181t-33.5 81q-25 30 -58.5 37.5t-120.5 7.5h-186v-862q0 -33 -31 -33h-243q-31 0 -31 33z" />
<glyph unicode="o" horiz-adv-x="1220" d="M88 573q0 353 102 467q102 117 420 117q170 0 265 -26t155 -93q59 -65 81 -169.5t22 -295.5q0 -351 -103 -469q-102 -114 -420 -114t-420 114q-102 117 -102 469zM393 573q0 -198 39 -260q40 -61 178 -61t178 61q41 65 41 260q0 196 -41 258q-40 64 -178 64t-178 -64 q-39 -59 -39 -258z" />
<glyph unicode="p" horiz-adv-x="1234" d="M121 -381v1448q0 42 43 51q237 39 450 39q320 0 428 -117q107 -113 107 -450q0 -355 -98 -477q-95 -123 -375 -123q-144 0 -252 12v-383q0 -31 -31 -31h-241q-31 0 -31 31zM424 266q89 -12 184 -12q154 0 195 59q43 58 43 260q0 194 -37 258t-180 64h-205v-629z" />
<glyph unicode="q" horiz-adv-x="1236" d="M88 590q0 339 107 452q109 115 428 115q213 0 450 -39q43 -9 43 -51v-1448q0 -31 -31 -31h-241q-31 0 -31 31v383q-108 -12 -252 -12q-278 0 -377 123q-96 125 -96 477zM391 575q0 -200 41 -262q44 -59 197 -59q102 0 184 10v631h-205q-143 0 -180 -64q-37 -61 -37 -256z " />
<glyph unicode="r" horiz-adv-x="821" d="M119 33v835q0 141 76 213q53 44 124.5 60t169.5 16q169 0 273 -22q33 -9 33 -41v-168q0 -31 -35 -31h-193q-85 0 -114 -20.5t-29 -83.5v-758q0 -33 -31 -33h-243q-31 0 -31 33z" />
<glyph unicode="s" horiz-adv-x="1036" d="M74 41v166q0 31 35 31h419q83 0 112.5 14t29.5 55v19q0 31 -24 52t-89 44l-252 90q-209 71 -209 311v39q0 155 114.5 225t350.5 70q171 0 324 -27q33 -9 33 -32v-156q0 -33 -35 -33h-369q-121 0 -121 -73v-21q0 -59 99 -94l262 -92q119 -41 167 -114t48 -193v-33 q0 -162 -107.5 -230.5t-329.5 -68.5q-236 0 -423 20q-35 0 -35 31z" />
<glyph unicode="t" horiz-adv-x="778" d="M41 946v164q0 31 33 31h121v227q0 27 28 33l242 63q33 9 33 -30v-293h188q35 0 35 -31v-164q0 -31 -35 -31h-188v-559q0 -62 25 -83t95 -21h84q35 0 35 -31v-174q0 -33 -32 -39q-91 -18 -175 -18q-75 0 -110 3t-82 15q-73 20 -105 75t-38 171v661h-121q-33 0 -33 31z" />
<glyph unicode="u" horiz-adv-x="1249" d="M115 483v633q0 31 32 31h242q29 0 29 -31v-555q0 -151 18 -215q18 -60 57 -77t146 -17h184v864q0 31 31 31h246q28 0 28 -31v-1057q0 -18 -5 -23.5t-23 -10.5q-184 -35 -492 -35q-162 0 -248 18.5t-145 71.5q-58 54 -79 144.5t-21 258.5z" />
<glyph unicode="v" horiz-adv-x="1202" d="M35 1114q-6 33 26 33h261q12 0 16.5 -6t9.5 -27l205 -817q11 -38 18 -47.5t27 -9.5q24 0 32 9.5t19 47.5l201 817q5 20 9.5 26.5t17.5 6.5h260q32 0 26 -33l-231 -881q-46 -164 -98 -204q-51 -39 -236 -39q-178 0 -229 39q-49 40 -95 204z" />
<glyph unicode="w" horiz-adv-x="1810" d="M49 1118q-6 29 25 29h260q16 0 22 -29l142 -835q6 -24 12 -31.5t20 -7.5q17 0 23 6.5t10 32.5l191 800q10 29 32 29h240q25 0 31 -29l190 -800q6 -27 11 -33t22 -6q14 0 21.5 7.5t13.5 31.5l141 835q6 29 23 29h260q27 0 24 -29l-176 -923q-24 -132 -80 -170 q-53 -35 -200 -35q-177 0 -224 33q-47 35 -77 172l-101 454l-100 -454q-27 -136 -78 -172q-44 -33 -221 -33q-147 0 -203 35q-53 38 -80 170z" />
<glyph unicode="x" horiz-adv-x="1183" d="M10 13q-5 13 6 26l390 561l-355 510q-12 17 -7 27t24 10h292q21 0 37 -19l195 -290l194 290q13 19 37 19h293q19 0 22.5 -10t-8.5 -27l-352 -510l389 -561q11 -13 6.5 -26t-22.5 -13h-295q-19 0 -33 20l-231 345l-234 -345q-9 -20 -32 -20h-293q-18 0 -23 13z" />
<glyph unicode="y" horiz-adv-x="1273" d="M113 518v598q0 31 30 31h244q31 0 31 -31v-541q0 -200 45 -260q46 -61 201 -61q112 0 182 12v850q0 31 31 31h243q31 0 31 -31v-1091q0 -105 -10.5 -169.5t-40.5 -119.5q-40 -83 -148 -121.5t-303 -38.5q-209 0 -385 29q-28 3 -28 33v155q0 31 28 31h359q133 0 178 36.5 t45 139.5v12q-126 -22 -250 -22q-277 0 -381 116q-102 120 -102 412z" />
<glyph unicode="z" horiz-adv-x="1110" d="M61 33v133q0 18 15 39l520 686h-475q-35 0 -35 31v194q0 31 35 31h864q35 0 35 -31v-139q0 -19 -14 -39l-504 -676h510q35 0 35 -31v-198q0 -33 -35 -33h-914q-37 0 -37 33z" />
<glyph unicode="{" horiz-adv-x="743" d="M37 653v70q0 27 16 37l160 100q21 9 18 37l-57 555q-13 134 61.5 194t241.5 60q89 0 168 -20q35 -9 35 -46v-155q0 -31 -31 -31h-80q-56 0 -79 -21.5t-19 -70.5l55 -469q9 -85 -53 -121l-147 -78v-12l147 -78q62 -36 53 -121l-55 -469q-4 -49 19 -70.5t79 -21.5h80 q31 0 31 -31v-155q0 -36 -35 -45q-83 -21 -168 -21q-167 0 -241.5 60t-61.5 194l57 555q3 28 -18 37l-160 100q-16 10 -16 37z" />
<glyph unicode="|" horiz-adv-x="606" d="M152 -172v1812q0 31 30 31h242q31 0 31 -31v-1812q0 -33 -31 -33h-242q-30 0 -30 33z" />
<glyph unicode="}" horiz-adv-x="743" d="M63 -109q0 31 31 31h78q57 0 80.5 21.5t17.5 70.5l-53 469q-6 50 5.5 75t47.5 46l148 78v12l-148 78q-36 21 -47.5 46t-5.5 75l53 469q6 49 -17.5 70.5t-80.5 21.5h-78q-31 0 -31 31v155q0 23 7 32t28 14q73 20 168 20q167 0 241.5 -60t61.5 -194l-57 -555q-3 -28 18 -37 l160 -100q17 -10 17 -37v-70q0 -27 -17 -37l-160 -100q-21 -9 -18 -37l57 -555q13 -134 -61.5 -194t-241.5 -60q-92 0 -168 21q-21 5 -28 13.5t-7 31.5v155z" />
<glyph unicode="~" horiz-adv-x="1290" d="M76 657q43 117 134.5 183.5t211.5 66.5q47 2 98.5 -14.5t96 -40.5t86 -48.5t82 -41t71.5 -14.5q110 0 166 102q15 24 41 6l139 -90q20 -12 8 -39q-41 -116 -134 -183t-214 -67q-56 -2 -121 23.5t-113.5 56.5t-103.5 56.5t-94 23.5q-109 0 -166 -100q-12 -24 -37 -9 l-141 90q-19 13 -10 39z" />
<glyph unicode="&#xa1;" horiz-adv-x="581" d="M113 991q0 80 47 123t133 43q85 0 130.5 -43t45.5 -123q0 -78 -46 -121t-130 -43q-86 0 -133 43t-47 121zM127 313q0 15 4 39l62 326q6 33 30 33h137q22 0 31 -33l62 -326q2 -12 2 -39v-692q0 -33 -31 -33h-266q-31 0 -31 33v692z" />
<glyph unicode="&#xa2;" horiz-adv-x="1075" d="M92 573q0 183 18 284.5t68 168.5q49 70 134.5 98t238.5 33l27 152q6 32 36 32h111q30 0 27 -32l-27 -154q137 -9 221 -25q35 -6 35 -40v-162q0 -33 -35 -33h-334q-138 0 -178 -61q-39 -59 -39 -261q0 -198 39 -260q40 -61 178 -61h334q35 0 35 -31v-164q0 -33 -35 -39 q-134 -28 -334 -28h-47l-26 -152q-3 -33 -35 -33h-113q-30 0 -24 33l28 166q-180 34 -241 156q-62 124 -62 413z" />
<glyph unicode="&#xa3;" horiz-adv-x="1329" d="M51 31l39 219q9 31 39 31h135v321h-117q-32 0 -32 31v129q0 31 32 31h117v378q0 245 148 334q149 88 477 88q120 0 285 -28q45 -12 45 -47v-181q0 -26 -31 -26h-279q-196 0 -260 -43q-61 -40 -61 -162v-313h444q33 0 33 -31v-129q0 -31 -33 -31h-444v-321h637 q32 0 32 -31v-219q0 -31 -32 -31h-1145q-32 0 -29 31z" />
<glyph unicode="&#xa4;" horiz-adv-x="1224" d="M102 256q-20 20 2 43l97 98q-70 107 -70 271q0 160 70 270l-97 96q-24 24 -2 45l80 78q22 23 45 0l105 -104q117 57 278 57q162 0 279 -57l104 104q23 23 45 0l80 -78q22 -21 -2 -45l-96 -96q70 -110 70 -270q0 -164 -70 -271l96 -98q22 -23 2 -43l-80 -80q-22 -22 -45 0 l-104 105q-119 -58 -279 -58q-159 0 -278 58l-105 -105q-23 -22 -45 0zM408 668q0 -211 202 -211q99 0 151 53.5t52 157.5q0 102 -52 155.5t-151 53.5q-202 0 -202 -209z" />
<glyph unicode="&#xa5;" horiz-adv-x="1546" d="M49 1540q-23 45 23 45h288q36 0 56 -33l356 -661l358 661q17 33 56 33h289q45 0 22 -45l-516 -887h270q31 0 31 -30v-80q0 -31 -31 -31h-317v-160h317q31 0 31 -30v-80q0 -31 -31 -31h-317v-178q0 -33 -31 -33h-260q-31 0 -31 33v178h-315q-33 0 -33 31v80q0 30 33 30 h315v160h-315q-33 0 -33 31v80q0 30 33 30h268z" />
<glyph unicode="&#xa6;" horiz-adv-x="602" d="M150 -172v729q0 27 24 27h254q25 0 25 -27v-729q0 -33 -31 -33h-242q-30 0 -30 33zM150 920v720q0 31 30 31h242q31 0 31 -31v-720q0 -25 -25 -25h-254q-24 0 -24 25z" />
<glyph unicode="&#xa7;" horiz-adv-x="958" d="M92 711v596q0 172 94 227q92 57 328 57q121 0 211 -20q23 -3 23 -23v-149q0 -21 -23 -21h-268q-125 0 -125 -102v-125l334 -123q115 -43 157.5 -110t42.5 -193v-588q0 -171 -96 -227q-92 -57 -326 -57q-114 0 -211 20q-22 3 -22 23v149q0 21 22 21h269q125 0 125 102v117 l-334 123q-115 43 -158 110.5t-43 192.5zM332 713q0 -48 23.5 -77t82.5 -52l189 -70v205q0 48 -24 77.5t-83 49.5l-188 74v-207z" />
<glyph unicode="&#xa8;" horiz-adv-x="1261" d="M246 1440q0 72 41 110.5t119 38.5q75 0 116 -38.5t41 -110.5t-41 -112t-116 -40q-160 0 -160 152zM698 1440q0 72 41 110.5t119 38.5q75 0 116.5 -38.5t41.5 -110.5t-41.5 -112t-116.5 -40q-160 0 -160 152z" />
<glyph unicode="&#xa9;" horiz-adv-x="1732" d="M88 768q0 403 188 594q187 190 590 190t590 -190q189 -192 189 -594t-189 -594q-187 -190 -590 -190t-590 190q-188 191 -188 594zM209 768q0 -340 159.5 -501t497.5 -161t498 161t160 501t-160 501t-498 161q-339 0 -498 -160t-159 -502zM530 762q0 241 70 323 q72 84 268 84q144 0 211 -20q29 -6 29 -31v-94q0 -23 -21 -23h-219q-91 0 -118 -47q-27 -46 -27 -192t27 -195q27 -47 118 -47h219q21 0 21 -20v-94q0 -27 -29 -33q-78 -19 -211 -19q-196 0 -268 84q-70 82 -70 324z" />
<glyph unicode="&#xaa;" horiz-adv-x="784" d="M94 1094v24q0 106 57.5 150.5t182.5 44.5h170v55q0 45 -29 65.5t-100 20.5h-211q-21 0 -21 21v79q0 22 21 25q102 18 211 18q159 0 225 -48.5t66 -151.5v-426q0 -30 -25 -39q-102 -31 -287 -31q-145 0 -202.5 39t-57.5 154zM133 692v60q0 30 31 30h454q31 0 31 -30v-60 q0 -30 -31 -30h-454q-31 0 -31 30zM258 1108q0 -70 104 -70q78 0 142 11v133h-139q-107 0 -107 -66v-8z" />
<glyph unicode="&#xab;" horiz-adv-x="1208" d="M68 514v109q0 30 18 51l221 291q15 18 37 18h242q30 0 30 -31v-14q0 -23 -14 -37l-268 -334l268 -334q14 -14 14 -36v-15q0 -30 -30 -30h-242q-22 0 -37 18l-221 291q-18 21 -18 53zM571 514v109q0 26 19 51l223 291q15 18 37 18h240q30 0 30 -31v-14q0 -23 -14 -37 l-266 -334l266 -334q14 -14 14 -36v-15q0 -30 -30 -30h-240q-22 0 -37 18l-223 291q-19 25 -19 53z" />
<glyph unicode="&#xac;" horiz-adv-x="1269" d="M84 725v236q0 30 31 30h1001q31 0 31 -30l-2 -564q0 -30 -31 -30h-231q-31 0 -31 30v297h-737q-31 0 -31 31z" />
<glyph unicode="&#xad;" horiz-adv-x="927" d="M115 498v219q0 31 30 31h637q31 0 31 -31v-219q0 -31 -31 -31h-637q-30 0 -30 31z" />
<glyph unicode="&#xae;" horiz-adv-x="1732" d="M88 768q0 403 188 594q187 190 590 190t590 -190q189 -192 189 -594t-189 -594q-187 -190 -590 -190t-590 190q-188 191 -188 594zM209 768q0 -340 159.5 -501t497.5 -161t498 161t160 501t-160 501t-498 161q-339 0 -498 -160t-159 -502zM580 387v756q0 18 18 18 q141 15 301 15q166 0 231.5 -59.5t65.5 -211.5q0 -115 -35 -169.5t-117 -71.5l168 -271q20 -26 -16 -26h-143q-40 0 -56 28l-163 258l-64 -2v-264q0 -13 -3 -16.5t-17 -3.5h-152q-12 0 -15 3.5t-3 16.5zM770 801h109q78 0 101.5 18.5t23.5 79.5q0 64 -25.5 86.5t-99.5 22.5 h-109v-207z" />
<glyph unicode="&#xaf;" horiz-adv-x="1146" d="M246 1358v125q0 30 30 30h594q31 0 31 -30v-125q0 -31 -31 -31h-594q-30 0 -30 31z" />
<glyph unicode="&#xb0;" horiz-adv-x="718" d="M70 1319q0 278 290 278q289 0 289 -278q0 -279 -289 -279q-290 0 -290 279zM231 1319q0 -129 129 -129q127 0 127 129t-127 129q-129 0 -129 -129z" />
<glyph unicode="&#xb1;" horiz-adv-x="1236" d="M106 174v162q0 31 31 31h965q31 0 31 -31v-162q0 -31 -31 -31h-965q-31 0 -31 31zM111 805v170q0 31 30 31h340v262q0 30 31 30h215q31 0 31 -30v-262h338q30 0 30 -31v-170q0 -31 -30 -31h-338v-260q0 -31 -31 -31h-215q-31 0 -31 31v260h-340q-30 0 -30 31z" />
<glyph unicode="&#xb2;" horiz-adv-x="724" d="M53 1090v102q0 73 32.5 118.5t119.5 96.5l215 131q53 30 53 98v39q0 46 -27.5 63t-95.5 17h-235q-15 0 -15 14v97q0 17 19 20q102 21 229 21q135 0 207 -33q92 -39 92 -160v-100q0 -72 -21 -115t-85 -82l-213 -119q-74 -38 -74 -75v-13h389q12 0 12 -8v-135q0 -8 -10 -8 h-563q-29 0 -29 31z" />
<glyph unicode="&#xb3;" horiz-adv-x="706" d="M70 1096v92q0 16 18 16h174q118 0 155.5 17.5t37.5 72.5v25q0 92 -146 92h-172q-18 0 -18 16v105q0 16 18 16h172q84 0 115 20.5t31 76.5v20q0 55 -38.5 72.5t-154.5 17.5h-174q-18 0 -18 14v95q0 19 18 22q108 21 244 21q160 0 228.5 -49t68.5 -175v-30 q0 -145 -117 -172q117 -21 117 -170v-37q0 -126 -68.5 -173.5t-228.5 -47.5q-130 0 -244 18q-18 3 -18 25z" />
<glyph unicode="&#xb4;" horiz-adv-x="987" d="M250 1343l149 267q6 12 25 12h297q20 0 20 -20v-15q0 -14 -10 -24l-358 -299q-10 -10 -29 0l-88 51q-15 12 -6 28z" />
<glyph unicode="&#xb5;" horiz-adv-x="1257" d="M123 -266v1382q0 31 33 31h241q29 0 29 -31v-555q0 -151 18 -215q18 -60 57 -77t146 -17h184v864q0 31 31 31h246q29 0 29 -31v-1057q0 -18 -5.5 -23.5t-23.5 -10.5q-184 -35 -492 -35q-128 0 -190 16v-272q0 -33 -31 -33h-241q-31 0 -31 33z" />
<glyph unicode="&#xb6;" horiz-adv-x="1406" d="M59 999v158q3 259 136 348q133 92 442 92q160 0 267 -25t181 -79q73 -52 113 -150q41 -97 57.5 -223.5t16.5 -324.5v-795h-217v879q0 276 -76 383q-73 108 -246 120v-804h-82q-310 -3 -450 79q-139 86 -142 342z" />
<glyph unicode="&#xb7;" horiz-adv-x="532" d="M88 575q0 78 47 121t133 43q84 0 130 -43t46 -121t-46 -121.5t-130 -43.5q-86 0 -133 43.5t-47 121.5z" />
<glyph unicode="&#xb8;" horiz-adv-x="894" d="M246 -184q0 28 28 28h72q65 0 85.5 8.5t27.5 45.5q0 39 -13 112q-9 35 27 35h96q28 0 37 -27q43 -130 43 -221q0 -84 -52 -121.5t-163 -37.5q-121 0 -164 16q-24 9 -24 37v125z" />
<glyph unicode="&#xb9;" horiz-adv-x="585" d="M57 1780v86q0 17 21 26q43 15 112 15q78 0 138 -25q71 -27 71 -131v-541h133q21 0 21 -20v-113q0 -18 -21 -18h-444q-20 0 -20 20v111q0 20 20 20h141v486q0 37 -18.5 51t-65.5 14h-65q-23 0 -23 19z" />
<glyph unicode="&#xba;" horiz-adv-x="811" d="M100 1249q0 210 60 279q57 69 246 69q188 0 245 -69q60 -69 60 -279q0 -211 -60 -280q-59 -68 -245 -68q-189 0 -248 68q-58 70 -58 280zM147 692v60q0 30 31 30h455q31 0 31 -30v-60q0 -30 -31 -30h-455q-31 0 -31 30zM264 1249q0 -126 25 -168q24 -37 117 -37 q95 0 116 37q25 42 25 168q0 127 -25 166q-20 39 -116 39q-94 0 -117 -39q-25 -39 -25 -166z" />
<glyph unicode="&#xbb;" horiz-adv-x="1208" d="M88 182v15q0 22 14 36l269 334l-269 334q-14 14 -14 37v14q0 31 31 31h241q22 0 37 -18l221 -291q19 -25 19 -51v-109q0 -28 -19 -53l-221 -291q-15 -18 -37 -18h-241q-31 0 -31 30zM594 182v15q0 22 14 36l266 334l-266 334q-14 14 -14 37v14q0 31 31 31h239 q22 0 37 -18l223 -291q19 -25 19 -51v-109q0 -28 -19 -53l-223 -291q-15 -18 -37 -18h-239q-31 0 -31 30z" />
<glyph unicode="&#xbc;" horiz-adv-x="1818" d="M70 1464v86q0 16 20 27q43 14 113 14q62 0 98 -8q46 -8 79.5 -46t33.5 -101v-541h131q22 0 22 -21v-112q0 -19 -22 -19h-443q-22 0 -22 21v110q0 21 22 21h142v485q0 37 -19.5 51.5t-66.5 14.5h-66q-22 0 -22 18zM412 -53l743 1683q15 35 45 35h80q31 0 16 -35 l-739 -1683q-15 -35 -47 -35h-82q-34 0 -16 35zM1069 219v70q0 20 8 39l137 501q3 13 25 13h133q24 0 14 -23l-129 -469h197v197q0 18 14 24l136 47q24 9 24 -14v-254h123q23 0 23 -20v-113q0 -20 -23 -20h-123v-177q0 -20 -20 -20h-133q-21 0 -21 20v177h-367q-18 0 -18 22 z" />
<glyph unicode="&#xbd;" horiz-adv-x="1763" d="M55 1464v86q0 18 21 27q41 14 112 14q81 0 138 -24q71 -27 71 -131v-541h133q21 0 21 -21v-112q0 -19 -21 -19h-444q-20 0 -20 21v110q0 21 20 21h141v485q0 37 -18.5 51.5t-65.5 14.5h-65q-23 0 -23 18zM406 -53l743 1683q15 35 45 35h80q31 0 16 -35l-739 -1683 q-18 -35 -47 -35h-82q-31 0 -16 35zM1104 31v102q0 73 31 118t118 99l215 129q54 28 54 99v38q0 46 -26.5 63t-94.5 17h-236q-14 0 -14 17v94q0 16 16 22q117 19 232 19q152 0 225.5 -41t73.5 -150v-102q0 -72 -21.5 -115t-85.5 -82l-213 -116q-73 -40 -73 -76v-12h389 q12 0 12 -11v-133q0 -10 -12 -10h-561q-29 0 -29 31z" />
<glyph unicode="&#xbe;" horiz-adv-x="1890" d="M76 780v92q0 17 20 17h172q118 0 155.5 17.5t37.5 72.5v25q3 92 -144 92h-174q-16 0 -16 16v105q0 16 16 16h172q85 0 115.5 20t30.5 76v21q0 55 -38.5 72.5t-154.5 17.5h-172q-20 0 -20 14v94q0 20 20 23q100 20 242 20q160 0 228.5 -48.5t68.5 -174.5v-31 q0 -145 -117 -172q117 -21 117 -170v-37q0 -126 -68.5 -173.5t-228.5 -47.5q-125 0 -242 19q-20 3 -20 24zM483 -53l744 1683q15 35 45 35h80q28 0 16 -35l-739 -1683q-18 -35 -47 -35h-82q-32 0 -17 35zM1139 219v70q0 8 8 39l137 501q10 13 27 13h133q21 0 14 -23 l-129 -469h197v197q0 18 14 24l135 47q25 9 25 -14v-254h123q22 0 22 -20v-113q0 -20 -22 -20h-123v-177q0 -20 -21 -20h-135q-18 0 -18 20v177h-367q-20 0 -20 22z" />
<glyph unicode="&#xbf;" horiz-adv-x="1099" d="M53 -31v99q0 162 47 239q49 76 179 135l208 101q58 30 80.5 52t28.5 58l4 35q3 23 25 23h198q24 0 27 -23l12 -108q12 -83 -16 -131q-28 -49 -133 -107l-228 -115q-62 -32 -86 -66.5t-24 -99.5v-45q0 -90 68 -124.5t223 -34.5h356q31 0 31 -31v-166q0 -41 -45 -53 q-155 -31 -344 -31q-137 0 -236 17t-188 57q-187 79 -187 319zM549 991q0 80 47 123t133 43q85 0 131.5 -43.5t46.5 -122.5q0 -78 -46.5 -121t-131.5 -43q-86 0 -133 43t-47 121z" />
<glyph unicode="&#xc0;" horiz-adv-x="1456" d="M18 33l367 1319q46 165 102 204q59 41 238 41q187 0 246 -41q56 -39 102 -204l361 -1319q6 -33 -27 -33h-262q-12 0 -17.5 6.5t-9.5 26.5l-117 426h-548l-119 -426q-5 -20 -10.5 -26.5t-18.5 -6.5h-260q-33 0 -27 33zM344 1997v14q0 21 21 21h299q18 0 24 -13l150 -266 q9 -16 -7 -29l-88 -51q-19 -9 -28 0l-361 299q-10 17 -10 25zM524 725h406l-148 543q-12 44 -20 51q-10 8 -37 8q-24 0 -32 -10t-19 -49z" />
<glyph unicode="&#xc1;" horiz-adv-x="1456" d="M18 33l367 1319q46 165 102 204q59 41 238 41q187 0 246 -41q56 -39 102 -204l361 -1319q6 -33 -27 -33h-262q-12 0 -17.5 6.5t-9.5 26.5l-117 426h-548l-119 -426q-5 -20 -10.5 -26.5t-18.5 -6.5h-260q-33 0 -27 33zM524 725h406l-148 543q-12 44 -20 51q-10 8 -37 8 q-24 0 -32 -10t-19 -49zM598 1753l150 266q6 13 24 13h297q21 0 21 -21v-14q0 -14 -11 -25l-358 -299q-13 -10 -29 0l-88 51q-16 13 -6 29z" />
<glyph unicode="&#xc2;" horiz-adv-x="1456" d="M18 33l367 1319q46 165 102 204q59 41 238 41q187 0 246 -41q56 -39 102 -204l361 -1319q6 -33 -27 -33h-262q-12 0 -17.5 6.5t-9.5 26.5l-117 426h-548l-119 -426q-5 -20 -10.5 -26.5t-18.5 -6.5h-260q-33 0 -27 33zM401 1743l197 272q10 17 41 17h172q31 0 41 -17 l197 -272q16 -22 -7 -35l-63 -33q-22 -12 -37 0l-217 154l-217 -154q-15 -12 -37 0l-63 33q-23 13 -7 35zM524 725h406l-148 543q-12 44 -20 51q-10 8 -37 8q-24 0 -32 -10t-19 -49z" />
<glyph unicode="&#xc3;" horiz-adv-x="1456" d="M18 33l367 1319q46 165 102 204q59 41 238 41q187 0 246 -41q56 -39 102 -204l361 -1319q6 -33 -27 -33h-262q-12 0 -17.5 6.5t-9.5 26.5l-117 426h-548l-119 -426q-5 -20 -10.5 -26.5t-18.5 -6.5h-260q-33 0 -27 33zM352 1763q35 137 80 186.5t135 49.5q57 0 160 -41 q101 -39 133 -39q35 0 53.5 14.5t36.5 53.5q13 29 39 20l88 -25q29 -10 21 -40q-35 -139 -79.5 -188.5t-135.5 -49.5q-61 0 -162 39q-103 41 -131 41q-35 0 -53.5 -14.5t-36.5 -53.5q-13 -29 -39 -20l-88 24q-30 10 -21 43zM524 725h406l-148 543q-12 44 -20 51q-10 8 -37 8 q-24 0 -32 -10t-19 -49z" />
<glyph unicode="&#xc4;" horiz-adv-x="1456" d="M18 33l367 1319q46 165 102 204q59 41 238 41q187 0 246 -41q56 -39 102 -204l361 -1319q6 -33 -27 -33h-262q-12 0 -17.5 6.5t-9.5 26.5l-117 426h-548l-119 -426q-5 -20 -10.5 -26.5t-18.5 -6.5h-260q-33 0 -27 33zM340 1849q0 72 41 111t119 39q75 0 116 -39t41 -111 t-41 -111.5t-116 -39.5q-160 0 -160 151zM524 725h406l-148 543q-12 44 -20 51q-10 8 -37 8q-24 0 -32 -10t-19 -49zM793 1849q0 72 40.5 111t118.5 39q75 0 116.5 -39t41.5 -111t-41.5 -111.5t-116.5 -39.5q-159 0 -159 151z" />
<glyph unicode="&#xc5;" horiz-adv-x="1456" d="M18 33l367 1319q46 165 102 204q59 41 238 41q187 0 246 -41q56 -39 102 -204l361 -1319q6 -33 -27 -33h-262q-12 0 -17.5 6.5t-9.5 26.5l-117 426h-548l-119 -426q-5 -20 -10.5 -26.5t-18.5 -6.5h-260q-33 0 -27 33zM485 1894q0 230 240 230t240 -230q0 -229 -240 -229 t-240 229zM524 725h406l-148 543q-12 44 -20 51q-10 8 -37 8q-24 0 -32 -10t-19 -49zM598 1894q0 -127 127 -127t127 127t-127 127t-127 -127z" />
<glyph unicode="&#xc6;" horiz-adv-x="2095" d="M18 33l365 1319q46 165 102 204q59 41 240 41l559 -12h686q31 0 31 -31v-219q0 -30 -31 -30h-682v-387h619q32 0 32 -31v-209q0 -31 -32 -31h-619v-366h682q31 0 31 -31v-219q0 -31 -31 -31h-975q-30 0 -30 33v426h-514l-117 -426q-9 -33 -29 -33h-262q-31 0 -25 33z M524 725h441v602h-207q-45 0 -63 -16.5t-31 -71.5z" />
<glyph unicode="&#xc7;" horiz-adv-x="1275" d="M98 795q0 245 30 391t103 241q76 95 197.5 132.5t327.5 37.5q234 0 403 -30q47 -12 47 -56v-163q0 -31 -30 -31h-420q-207 0 -271 -107q-61 -107 -61 -415q0 -311 61 -418q64 -107 271 -107h420q30 0 30 -30v-166q0 -42 -47 -54q-135 -27 -354 -30q35 -122 35 -193 q0 -84 -52 -121.5t-165 -37.5q-119 0 -162 16q-25 9 -25 37v125q0 28 29 28h72q65 0 85 8.5t27 45.5q0 24 -10 96q-315 21 -428 192q-113 174 -113 609z" />
<glyph unicode="&#xc8;" horiz-adv-x="1327" d="M145 33v1521q0 31 31 31h1026q31 0 31 -31v-219q0 -30 -31 -30h-735v-387h672q32 0 32 -31v-209q0 -31 -32 -31h-672v-366h735q31 0 31 -31v-219q0 -31 -31 -31h-1026q-31 0 -31 33zM371 1997v14q0 21 20 21h297q18 0 25 -13l149 -266q10 -16 -6 -29l-88 -51 q-19 -10 -29 0l-358 299q-10 10 -10 25z" />
<glyph unicode="&#xc9;" horiz-adv-x="1327" d="M145 33v1521q0 31 31 31h1026q31 0 31 -31v-219q0 -30 -31 -30h-735v-387h672q32 0 32 -31v-209q0 -31 -32 -31h-672v-366h735q31 0 31 -31v-219q0 -31 -31 -31h-1026q-31 0 -31 33zM512 1753l150 266q6 13 24 13h299q21 0 21 -21v-14q0 -7 -11 -25l-360 -299 q-10 -10 -29 0l-88 51q-16 13 -6 29z" />
<glyph unicode="&#xca;" horiz-adv-x="1327" d="M145 33v1521q0 31 31 31h1026q31 0 31 -31v-219q0 -30 -31 -30h-735v-387h672q32 0 32 -31v-209q0 -31 -32 -31h-672v-366h735q31 0 31 -31v-219q0 -31 -31 -31h-1026q-31 0 -31 33zM344 1743l195 272q14 17 41 17h174q31 0 41 -17l196 -272q16 -22 -6 -35l-65 -33 q-19 -13 -35 0l-217 154l-217 -154q-15 -15 -37 0l-64 33q-23 15 -6 35z" />
<glyph unicode="&#xcb;" horiz-adv-x="1327" d="M145 33v1521q0 31 31 31h1026q31 0 31 -31v-219q0 -30 -31 -30h-735v-387h672q32 0 32 -31v-209q0 -31 -32 -31h-672v-366h735q31 0 31 -31v-219q0 -31 -31 -31h-1026q-31 0 -31 33zM283 1849q0 72 40.5 111t118.5 39q156 0 156 -150q0 -151 -156 -151q-159 0 -159 151z M735 1849q0 72 41 111t119 39q75 0 116.5 -39t41.5 -111t-41.5 -111.5t-116.5 -39.5q-160 0 -160 151z" />
<glyph unicode="&#xcc;" horiz-adv-x="612" d="M-49 1997v14q0 21 20 21h297q18 0 25 -13l149 -266q10 -16 -6 -29l-88 -51q-16 -10 -29 0l-358 299q-10 17 -10 25zM145 33v1519q0 33 31 33h260q31 0 31 -33v-1519q0 -33 -31 -33h-260q-31 0 -31 33z" />
<glyph unicode="&#xcd;" horiz-adv-x="612" d="M145 33v1519q0 33 31 33h260q31 0 31 -33v-1519q0 -33 -31 -33h-260q-31 0 -31 33zM166 1753l149 266q7 13 25 13h299q20 0 20 -21v-14q0 -8 -10 -25l-360 -299q-10 -10 -29 0l-88 51q-16 13 -6 29z" />
<glyph unicode="&#xce;" horiz-adv-x="612" d="M-20 1743l196 272q14 17 41 17h174q27 0 41 -17l197 -272q16 -23 -8 -35l-64 -33q-19 -13 -35 0l-217 154l-219 -154q-16 -13 -35 0l-63 33q-24 12 -8 35zM145 33v1519q0 33 31 33h260q31 0 31 -33v-1519q0 -33 -31 -33h-260q-31 0 -31 33z" />
<glyph unicode="&#xcf;" horiz-adv-x="612" d="M-82 1849q0 72 42.5 111t117.5 39q158 0 158 -150q0 -151 -158 -151q-75 0 -117.5 39.5t-42.5 111.5zM145 33v1519q0 33 31 33h260q31 0 31 -33v-1519q0 -33 -31 -33h-260q-31 0 -31 33zM373 1849q0 72 41 111t116 39q158 0 158 -150q0 -151 -158 -151q-75 0 -116 39.5 t-41 111.5z" />
<glyph unicode="&#xd0;" horiz-adv-x="1548" d="M2 717v125q0 30 31 30h137v674q0 17 6 22t25 7q261 22 594 22q360 0 510 -188q153 -188 153 -616q0 -429 -153 -617q-149 -186 -510 -186q-345 0 -594 20q-18 1 -24.5 7t-6.5 20v649h-137q-31 0 -31 31zM492 270h303q183 0 260.5 121.5t77.5 401.5t-81 402t-272 122h-288 v-445h264q30 0 30 -30v-125q0 -31 -30 -31h-264v-416z" />
<glyph unicode="&#xd1;" horiz-adv-x="1607" d="M145 33v1519q0 33 31 33h203q62 -6 78.5 -15t48.5 -52l635 -928v962q0 33 30 33h261q30 0 30 -33v-1519q0 -33 -30 -33h-191q-66 0 -102 51l-672 985v-1003q0 -33 -31 -33h-260q-31 0 -31 33zM430 1763q35 137 80 186.5t135 49.5q57 0 160 -41q101 -39 133 -39 q35 0 53.5 14.5t36.5 53.5q13 29 39 20l88 -25q29 -10 21 -40q-35 -139 -79.5 -188.5t-135.5 -49.5q-61 0 -162 39q-103 41 -131 41q-35 0 -53.5 -14.5t-36.5 -53.5q-16 -29 -37 -20l-90 24q-27 9 -21 43z" />
<glyph unicode="&#xd2;" horiz-adv-x="1519" d="M96 791q0 248 30.5 393.5t106.5 240.5q76 96 198 134t329 38t328.5 -38t197.5 -134q76 -95 106.5 -240.5t30.5 -393.5q0 -467 -137 -635q-138 -166 -526 -166q-389 0 -527 166q-137 168 -137 635zM340 1997v14q0 21 20 21h297q19 0 25 -13l149 -266q10 -16 -6 -29 l-88 -51q-16 -9 -28 0l-359 299q-10 10 -10 25zM422 791q0 -305 65 -414q64 -107 273 -107q208 0 272 107q66 111 66 414q0 306 -66 417q-65 109 -272 109q-208 0 -273 -109t-65 -417z" />
<glyph unicode="&#xd3;" horiz-adv-x="1519" d="M96 791q0 248 30.5 393.5t106.5 240.5q76 96 198 134t329 38t328.5 -38t197.5 -134q76 -95 106.5 -240.5t30.5 -393.5q0 -467 -137 -635q-138 -166 -526 -166q-389 0 -527 166q-137 168 -137 635zM422 791q0 -305 65 -414q64 -107 273 -107q208 0 272 107q66 111 66 414 q0 306 -66 417q-65 109 -272 109q-208 0 -273 -109t-65 -417zM633 1753l149 266q6 13 25 13h297q20 0 20 -21v-14q0 -15 -10 -25l-358 -299q-10 -10 -29 0l-88 51q-16 13 -6 29z" />
<glyph unicode="&#xd4;" horiz-adv-x="1519" d="M96 791q0 248 30.5 393.5t106.5 240.5q76 96 198 134t329 38t328.5 -38t197.5 -134q76 -95 106.5 -240.5t30.5 -393.5q0 -467 -137 -635q-138 -166 -526 -166q-389 0 -527 166q-137 168 -137 635zM422 791q0 -305 65 -414q64 -107 273 -107q208 0 272 107q66 111 66 414 q0 306 -66 417q-65 109 -272 109q-208 0 -273 -109t-65 -417zM434 1743l197 272q14 17 41 17h174q27 0 41 -17l196 -272q16 -23 -8 -35l-63 -33q-19 -13 -35 0l-217 154l-219 -154q-16 -13 -35 0l-64 33q-22 16 -8 35z" />
<glyph unicode="&#xd5;" horiz-adv-x="1519" d="M96 791q0 248 30.5 393.5t106.5 240.5q76 96 198 134t329 38t328.5 -38t197.5 -134q76 -95 106.5 -240.5t30.5 -393.5q0 -467 -137 -635q-138 -166 -526 -166q-389 0 -527 166q-137 168 -137 635zM385 1763q37 137 82 186.5t133 49.5q59 0 162 -41q98 -39 131 -39 q35 0 54 14.5t38 53.5q13 29 37 20l88 -25q28 -9 23 -40q-37 -140 -81 -189t-134 -49q-61 0 -162 39q-103 41 -131 41q-35 0 -54.5 -14.5t-38.5 -53.5q-10 -29 -36 -20l-88 24q-29 10 -23 43zM422 791q0 -305 65 -414q64 -107 273 -107q208 0 272 107q66 111 66 414 q0 306 -66 417q-65 109 -272 109q-208 0 -273 -109t-65 -417z" />
<glyph unicode="&#xd6;" horiz-adv-x="1519" d="M96 791q0 248 30.5 393.5t106.5 240.5q76 96 198 134t329 38t328.5 -38t197.5 -134q76 -95 106.5 -240.5t30.5 -393.5q0 -467 -137 -635q-138 -166 -526 -166q-389 0 -527 166q-137 168 -137 635zM375 1849q0 72 41 111t119 39q155 0 155 -150q0 -151 -155 -151 q-160 0 -160 151zM422 791q0 -305 65 -414q64 -107 273 -107q208 0 272 107q66 111 66 414q0 306 -66 417q-65 109 -272 109q-208 0 -273 -109t-65 -417zM827 1849q0 72 41 111t119 39q75 0 116.5 -39t41.5 -111t-41.5 -111.5t-116.5 -39.5q-160 0 -160 151z" />
<glyph unicode="&#xd7;" horiz-adv-x="1132" d="M86 356q-19 23 0 45l279 273l-273 274q-19 23 0 45l166 166q22 21 43 0l272 -272l275 274q22 23 45 0l151 -149q22 -22 -2 -45l-276 -275l274 -272q22 -22 0 -45l-166 -166q-22 -19 -45 0l-274 270l-272 -274q-23 -23 -45 0z" />
<glyph unicode="&#xd8;" horiz-adv-x="1519" d="M96 791q0 248 30.5 393.5t106.5 240.5q76 96 198 134t329 38q280 0 420 -79l59 81q23 29 43 9l70 -47q24 -15 6 -43l-68 -97q133 -168 133 -630q0 -467 -137 -635q-138 -166 -526 -166q-276 0 -420 78l-61 -88q-19 -29 -41 -7l-70 47q-23 14 -8 41l69 101 q-133 168 -133 629zM422 791q0 -215 29 -316l542 778q-70 64 -233 64q-208 0 -273 -109t-65 -417zM526 334q70 -64 234 -64q208 0 272 107q66 111 66 414q0 215 -29 317z" />
<glyph unicode="&#xd9;" horiz-adv-x="1562" d="M133 791v763q0 31 31 31h260q31 0 31 -31v-763q0 -310 65 -416q64 -105 262 -105q196 0 260 105q66 107 66 416v763q0 31 31 31h260q31 0 31 -31v-763q0 -377 -78 -560q-67 -136 -196 -187t-374 -54q-207 0 -326 35.5t-192 126.5q-73 92 -102 238.5t-29 400.5zM410 1997 v14q0 21 20 21h297q19 0 25 -13l149 -266q10 -16 -6 -29l-88 -51q-19 -10 -29 0l-358 299q-10 10 -10 25z" />
<glyph unicode="&#xda;" horiz-adv-x="1562" d="M133 791v763q0 31 31 31h260q31 0 31 -31v-763q0 -310 65 -416q64 -105 262 -105q196 0 260 105q66 107 66 416v763q0 31 31 31h260q31 0 31 -31v-763q0 -377 -78 -560q-67 -136 -196 -187t-374 -54q-207 0 -326 35.5t-192 126.5q-73 92 -102 238.5t-29 400.5zM621 1753 l149 266q6 13 25 13h297q20 0 20 -21v-14q0 -15 -10 -25l-359 -299q-9 -9 -28 0l-88 51q-16 13 -6 29z" />
<glyph unicode="&#xdb;" horiz-adv-x="1562" d="M133 791v763q0 31 31 31h260q31 0 31 -31v-763q0 -310 65 -416q64 -105 262 -105q196 0 260 105q66 107 66 416v763q0 31 31 31h260q31 0 31 -31v-763q0 -377 -78 -560q-67 -136 -196 -187t-374 -54q-207 0 -326 35.5t-192 126.5q-73 92 -102 238.5t-29 400.5zM457 1743 l196 272q10 17 41 17h174q27 0 41 -17l197 -272q14 -19 -8 -35l-64 -33q-19 -13 -35 0l-217 154l-219 -154q-16 -13 -35 0l-63 33q-24 12 -8 35z" />
<glyph unicode="&#xdc;" horiz-adv-x="1562" d="M133 791v763q0 31 31 31h260q31 0 31 -31v-763q0 -310 65 -416q64 -105 262 -105q196 0 260 105q66 107 66 416v763q0 31 31 31h260q31 0 31 -31v-763q0 -377 -78 -560q-67 -136 -196 -187t-374 -54q-207 0 -326 35.5t-192 126.5q-73 92 -102 238.5t-29 400.5zM395 1849 q0 72 41 111t119 39q158 0 158 -150q0 -151 -158 -151q-160 0 -160 151zM850 1849q0 150 158 150q157 0 157 -150q0 -151 -157 -151q-158 0 -158 151z" />
<glyph unicode="&#xdd;" horiz-adv-x="1460" d="M6 1540q-23 45 23 45h288q36 0 56 -33l356 -721l358 721q17 33 56 33h289q45 0 22 -45l-563 -1032v-475q0 -33 -31 -33h-260q-31 0 -31 33v479zM602 1753l150 266q6 13 24 13h299q21 0 21 -21v-14q0 -7 -11 -25l-360 -299q-10 -10 -29 0l-88 51q-16 13 -6 29z" />
<glyph unicode="&#xde;" horiz-adv-x="1372" d="M145 37v1519q0 33 31 33h260q31 0 31 -33v-239q129 6 246 6q341 0 469 -113q131 -110 131 -413t-131 -416q-129 -111 -469 -111q-117 0 -246 6v-239q0 -33 -31 -33h-260q-31 0 -31 33zM467 545h213q184 0 246 47q61 49 61 203q0 153 -61 202q-61 52 -246 52h-213v-504z " />
<glyph unicode="&#xdf;" horiz-adv-x="1294" d="M123 31v1091q0 255 110 365q113 110 406 110q287 0 413 -100.5t126 -339.5q0 -169 -52 -252t-176 -106v-6q145 -18 204.5 -105.5t59.5 -263.5q0 -246 -129 -340q-125 -94 -421 -94q-64 0 -125 6q-37 3 -27 35l45 213q6 26 25 26h69q132 2 187 45t55 152q0 119 -58 165 t-192 46h-80q-31 0 -31 31v170q0 30 35 30h74q115 2 166 45t51 154q0 119 -49.5 164t-169.5 45q-110 0 -154.5 -47.5t-44.5 -169.5v-1069q0 -31 -30 -31h-256q-31 0 -31 31z" />
<glyph unicode="&#xe0;" horiz-adv-x="1157" d="M59 344q3 196 101 266q101 70 319 70h260v74q0 141 -192 141h-371q-17 0 -23 6t-6 25v168q0 16 5.5 21.5t23.5 10.5q161 31 371 31q285 0 391 -86q104 -85 104 -266v-709q0 -48 -45 -63q-185 -43 -465 -43q-137 0 -210 10.5t-138 44.5q-65 36 -94 107.5t-31 191.5z M221 1587v15q0 20 21 20h297q18 0 24 -12l150 -267q9 -16 -6 -28l-89 -51q-19 -9 -28 0l-359 299q-10 10 -10 24zM360 360q0 -71 38 -97.5t137 -26.5q134 0 204 20v227h-235q-79 0 -111.5 -27.5t-32.5 -95.5z" />
<glyph unicode="&#xe1;" horiz-adv-x="1157" d="M59 344q3 196 101 266q101 70 319 70h260v74q0 141 -192 141h-371q-17 0 -23 6t-6 25v168q0 16 5.5 21.5t23.5 10.5q161 31 371 31q285 0 391 -86q104 -85 104 -266v-709q0 -48 -45 -63q-185 -43 -465 -43q-137 0 -210 10.5t-138 44.5q-65 36 -94 107.5t-31 191.5z M360 360q0 -71 38 -97.5t137 -26.5q134 0 204 20v227h-235q-79 0 -111.5 -27.5t-32.5 -95.5zM387 1343l150 267q6 12 24 12h297q21 0 21 -20v-15q0 -13 -11 -24l-358 -299q-13 -10 -29 0l-88 51q-15 12 -6 28z" />
<glyph unicode="&#xe2;" horiz-adv-x="1157" d="M59 344q3 196 101 266q101 70 319 70h260v74q0 141 -192 141h-371q-17 0 -23 6t-6 25v168q0 16 5.5 21.5t23.5 10.5q161 31 371 31q285 0 391 -86q104 -85 104 -266v-709q0 -48 -45 -63q-185 -43 -465 -43q-137 0 -210 10.5t-138 44.5q-65 36 -94 107.5t-31 191.5z M248 1333l196 273q13 16 41 16h174q28 0 41 -16l197 -273q14 -19 -8 -35l-64 -32q-19 -12 -34 0l-218 153l-219 -153q-16 -13 -35 0l-63 32q-24 12 -8 35zM360 360q0 -71 38 -97.5t137 -26.5q134 0 204 20v227h-235q-79 0 -111.5 -27.5t-32.5 -95.5z" />
<glyph unicode="&#xe3;" horiz-adv-x="1157" d="M59 344q3 196 101 266q101 70 319 70h260v74q0 141 -192 141h-371q-17 0 -23 6t-6 25v168q0 16 5.5 21.5t23.5 10.5q161 31 371 31q285 0 391 -86q104 -85 104 -266v-709q0 -48 -45 -63q-185 -43 -465 -43q-137 0 -210 10.5t-138 44.5q-65 36 -94 107.5t-31 191.5z M199 1354q37 137 80 186q46 49 135 49q56 0 159 -41q101 -39 134 -39q35 0 54 14.5t38 53.5q10 29 37 20l88 -24q28 -9 20 -41q-35 -139 -79.5 -188.5t-135.5 -49.5q-62 0 -160 39q-103 41 -131 41q-35 0 -54 -14t-38 -53q-13 -30 -37 -21l-88 25q-28 9 -22 43zM360 360 q0 -71 38 -97.5t137 -26.5q134 0 204 20v227h-235q-79 0 -111.5 -27.5t-32.5 -95.5z" />
<glyph unicode="&#xe4;" horiz-adv-x="1157" d="M59 344q3 196 101 266q101 70 319 70h260v74q0 141 -192 141h-371q-17 0 -23 6t-6 25v168q0 16 5.5 21.5t23.5 10.5q161 31 371 31q285 0 391 -86q104 -85 104 -266v-709q0 -48 -45 -63q-185 -43 -465 -43q-137 0 -210 10.5t-138 44.5q-65 36 -94 107.5t-31 191.5z M186 1440q0 72 41 110.5t119 38.5q158 0 158 -149q0 -152 -158 -152q-160 0 -160 152zM360 360q0 -71 38 -97.5t137 -26.5q134 0 204 20v227h-235q-79 0 -111.5 -27.5t-32.5 -95.5zM641 1440q0 149 158 149q157 0 157 -149q0 -152 -157 -152q-158 0 -158 152z" />
<glyph unicode="&#xe5;" horiz-adv-x="1157" d="M59 344q3 196 101 266q101 70 319 70h260v74q0 141 -192 141h-371q-17 0 -23 6t-6 25v168q0 16 5.5 21.5t23.5 10.5q161 31 371 31q285 0 391 -86q104 -85 104 -266v-709q0 -48 -45 -63q-185 -43 -465 -43q-137 0 -210 10.5t-138 44.5q-65 36 -94 107.5t-31 191.5z M334 1485q0 229 239 229q240 0 240 -229q0 -230 -240 -230q-239 0 -239 230zM360 360q0 -71 38 -97.5t137 -26.5q134 0 204 20v227h-235q-79 0 -111.5 -27.5t-32.5 -95.5zM446 1485q0 -127 127 -127t127 127t-127 127t-127 -127z" />
<glyph unicode="&#xe6;" horiz-adv-x="1828" d="M59 344q3 196 101 266q101 70 319 70h260v74q0 141 -192 141h-371q-17 0 -23 6t-6 25v168q0 16 5.5 21.5t23.5 10.5q161 31 371 31q240 0 358 -92q115 92 350 92q302 0 402 -115q99 -111 102 -454v-64q0 -31 -14 -43t-51 -12h-643q3 -138 47 -176q47 -41 184 -41h363 q30 0 30 -31v-170q0 -30 -28 -33q-146 -28 -392 -28q-89 0 -196 22q-100 21 -154 56q-147 -78 -373 -78q-137 0 -210 10.5t-138 44.5q-65 36 -94 107.5t-31 191.5zM360 360q0 -73 38 -100t137 -27q163 0 247 41q-34 81 -34 209h-244q-79 0 -111.5 -27.5t-32.5 -95.5z M1049 668h405q-1 133 -43.5 180t-155.5 47q-119 0 -162.5 -47t-43.5 -180z" />
<glyph unicode="&#xe7;" horiz-adv-x="1046" d="M88 573q0 191 20.5 294.5t75.5 170.5q58 69 153.5 94t270.5 25q202 0 334 -27q35 -6 35 -40v-162q0 -33 -35 -33h-334q-138 0 -178 -61q-39 -59 -39 -261q0 -198 39 -260q40 -61 178 -61h334q35 0 35 -31v-164q0 -33 -35 -39q-109 -23 -262 -26q35 -122 35 -195 q0 -84 -52 -121.5t-165 -37.5q-119 0 -162 16q-25 9 -25 37v125q0 28 29 28h72q65 0 85 8.5t27 45.5q0 50 -8 94q-264 15 -346 131q-82 119 -82 450z" />
<glyph unicode="&#xe8;" horiz-adv-x="1175" d="M88 573q0 353 102 467q102 117 412 117q302 0 402 -115q99 -111 102 -454v-64q0 -31 -14 -43t-52 -12h-643q3 -138 47 -176q47 -41 185 -41h362q31 0 31 -31v-170q0 -30 -29 -33q-143 -28 -391 -28q-311 0 -412 116q-102 117 -102 467zM225 1587v15q0 20 21 20h299 q18 0 24 -12l150 -267q9 -16 -6 -28l-88 -51q-19 -10 -29 0l-360 299q-11 18 -11 24zM395 668h406q-1 133 -43.5 180t-155.5 47q-118 0 -162 -47t-45 -180z" />
<glyph unicode="&#xe9;" horiz-adv-x="1175" d="M88 573q0 353 102 467q102 117 412 117q302 0 402 -115q99 -111 102 -454v-64q0 -31 -14 -43t-52 -12h-643q3 -138 47 -176q47 -41 185 -41h362q31 0 31 -31v-170q0 -30 -29 -33q-143 -28 -391 -28q-311 0 -412 116q-102 117 -102 467zM395 668h406q-1 133 -43.5 180 t-155.5 47q-118 0 -162 -47t-45 -180zM440 1343l150 267q6 12 24 12h297q21 0 21 -20v-15q0 -7 -10 -24l-359 -299q-12 -9 -28 0l-89 51q-15 12 -6 28z" />
<glyph unicode="&#xea;" horiz-adv-x="1175" d="M88 573q0 353 102 467q102 117 412 117q302 0 402 -115q99 -111 102 -454v-64q0 -31 -14 -43t-52 -12h-643q3 -138 47 -176q47 -41 185 -41h362q31 0 31 -31v-170q0 -30 -29 -33q-143 -28 -391 -28q-311 0 -412 116q-102 117 -102 467zM276 1333l197 273q10 16 41 16h174 q28 0 41 -16l197 -273q14 -19 -8 -35l-64 -32q-22 -15 -37 0l-217 153l-217 -153q-16 -13 -35 0l-65 32q-23 13 -7 35zM395 668h406q-1 133 -43.5 180t-155.5 47q-118 0 -162 -47t-45 -180z" />
<glyph unicode="&#xeb;" horiz-adv-x="1175" d="M88 573q0 353 102 467q102 117 412 117q302 0 402 -115q99 -111 102 -454v-64q0 -31 -14 -43t-52 -12h-643q3 -138 47 -176q47 -41 185 -41h362q31 0 31 -31v-170q0 -30 -29 -33q-143 -28 -391 -28q-311 0 -412 116q-102 117 -102 467zM215 1440q0 72 41 110.5t119 38.5 q75 0 116 -38.5t41 -110.5t-41 -112t-116 -40q-160 0 -160 152zM395 668h406q-1 133 -43.5 180t-155.5 47q-118 0 -162 -47t-45 -180zM670 1440q0 149 157 149q75 0 116.5 -38.5t41.5 -110.5t-41.5 -112t-116.5 -40q-157 0 -157 152z" />
<glyph unicode="&#xec;" horiz-adv-x="550" d="M-78 1587v15q0 20 21 20h297q18 0 24 -12l150 -267q9 -16 -6 -28l-89 -51q-16 -9 -28 0l-359 299q-10 17 -10 24zM123 33v1083q0 31 31 31h243q31 0 31 -31v-1083q0 -33 -31 -33h-243q-31 0 -31 33z" />
<glyph unicode="&#xed;" horiz-adv-x="550" d="M123 33v1083q0 31 31 31h243q31 0 31 -31v-1083q0 -33 -31 -33h-243q-31 0 -31 33zM145 1343l150 267q6 12 24 12h297q21 0 21 -20v-15q0 -14 -10 -24l-359 -299q-9 -9 -28 0l-88 51q-16 13 -7 28z" />
<glyph unicode="&#xee;" horiz-adv-x="548" d="M-49 1333l196 273q10 16 39 16h174q31 0 41 -16l197 -273q16 -22 -6 -35l-66 -32q-19 -12 -34 0l-218 153l-217 -153q-15 -15 -37 0l-63 32q-23 15 -6 35zM123 33v1083q0 31 31 31h241q31 0 31 -31v-1083q0 -33 -31 -33h-241q-31 0 -31 33z" />
<glyph unicode="&#xef;" horiz-adv-x="548" d="M-113 1440q0 72 41 110.5t119 38.5q158 0 158 -149q0 -152 -158 -152q-160 0 -160 152zM123 33v1083q0 31 31 31h241q31 0 31 -31v-1083q0 -33 -31 -33h-241q-31 0 -31 33zM342 1440q0 149 158 149q157 0 157 -149q0 -152 -157 -152q-158 0 -158 152z" />
<glyph unicode="&#xf0;" horiz-adv-x="1206" d="M76 518q3 307 94 408q94 102 379 102q55 0 104 -6l-157 258l-172 -61q-30 -12 -39 18l-21 53q-10 29 19 39l151 55l-98 162q-11 14 -5 25.5t25 11.5l260 2q26 0 37 -20l49 -84l160 57q30 12 39 -18l21 -54q10 -29 -19 -39l-139 -49l303 -512q55 -88 55 -348 q-3 -85 -8.5 -146.5t-18 -116.5t-30 -91t-47.5 -67t-66 -49t-90 -31t-116.5 -19t-147.5 -8q-317 0 -418 104q-101 107 -104 424zM381 518q3 -164 41 -213q41 -53 176 -53t176 53q40 52 43 213q-3 161 -43 213q-41 53 -176 53t-176 -53q-38 -49 -41 -213z" />
<glyph unicode="&#xf1;" horiz-adv-x="1251" d="M121 33v1059q0 9 1.5 14.5t7 8.5t9 4t13.5 3q158 35 489 35q163 0 249 -18.5t144 -71.5q59 -54 81 -144.5t22 -256.5v-633q0 -33 -33 -33h-242q-31 0 -31 33v555q0 130 -6.5 181t-33.5 81q-25 30 -58.5 37.5t-120.5 7.5h-186v-862q0 -33 -31 -33h-243q-31 0 -31 33z M252 1354q35 137 80 186t135 49q57 0 160 -41q101 -39 133 -39q35 0 53.5 14.5t36.5 53.5q13 29 39 20l88 -24q28 -9 20 -41q-35 -139 -79.5 -188.5t-135.5 -49.5q-60 0 -161 39q-103 41 -132 41q-35 0 -54 -14t-36 -53q-13 -30 -39 -21l-88 25q-29 10 -20 43z" />
<glyph unicode="&#xf2;" horiz-adv-x="1220" d="M88 573q0 353 102 467q102 117 420 117q170 0 265 -26t155 -93q59 -65 81 -169.5t22 -295.5q0 -351 -103 -469q-102 -114 -420 -114t-420 114q-102 117 -102 469zM217 1587v15q0 20 21 20h299q18 0 24 -12l150 -267q9 -16 -6 -28l-89 -51q-19 -9 -28 0l-361 299 q-10 17 -10 24zM393 573q0 -198 39 -260q40 -61 178 -61t178 61q41 65 41 260q0 196 -41 258q-40 64 -178 64t-178 -64q-39 -59 -39 -258z" />
<glyph unicode="&#xf3;" horiz-adv-x="1220" d="M88 573q0 353 102 467q102 117 420 117q170 0 265 -26t155 -93q59 -65 81 -169.5t22 -295.5q0 -351 -103 -469q-102 -114 -420 -114t-420 114q-102 117 -102 469zM393 573q0 -198 39 -260q40 -61 178 -61t178 61q41 65 41 260q0 196 -41 258q-40 64 -178 64t-178 -64 q-39 -59 -39 -258zM481 1343l150 267q6 12 24 12h297q21 0 21 -20v-15q0 -7 -10 -24l-359 -299q-13 -10 -29 0l-88 51q-15 12 -6 28z" />
<glyph unicode="&#xf4;" horiz-adv-x="1220" d="M88 573q0 353 102 467q102 117 420 117q170 0 265 -26t155 -93q59 -65 81 -169.5t22 -295.5q0 -351 -103 -469q-102 -114 -420 -114t-420 114q-102 117 -102 469zM287 1333l196 273q10 16 41 16h174q28 0 41 -16l197 -273q14 -19 -8 -35l-64 -32q-18 -12 -37 0l-215 153 l-219 -153q-16 -13 -35 0l-65 32q-22 13 -6 35zM393 573q0 -198 39 -260q40 -61 178 -61t178 61q41 65 41 260q0 196 -41 258q-40 64 -178 64t-178 -64q-39 -59 -39 -258z" />
<glyph unicode="&#xf5;" horiz-adv-x="1220" d="M88 573q0 353 102 467q102 117 420 117q170 0 265 -26t155 -93q59 -65 81 -169.5t22 -295.5q0 -351 -103 -469q-102 -114 -420 -114t-420 114q-102 117 -102 469zM238 1354q38 139 79 186q46 49 136 49q56 0 159 -41q101 -39 133 -39q35 0 54.5 14.5t36.5 53.5 q13 28 38 20l89 -24q28 -9 20 -41q-35 -139 -79.5 -188.5t-135.5 -49.5q-61 0 -162 39q-103 41 -131 41q-35 0 -53 -14t-37 -53q-13 -30 -37 -21l-88 25q-28 9 -22 43zM393 573q0 -198 39 -260q40 -61 178 -61t178 61q41 65 41 260q0 196 -41 258q-40 64 -178 64t-178 -64 q-39 -59 -39 -258z" />
<glyph unicode="&#xf6;" horiz-adv-x="1220" d="M88 573q0 353 102 467q102 117 420 117q170 0 265 -26t155 -93q59 -65 81 -169.5t22 -295.5q0 -351 -103 -469q-102 -114 -420 -114t-420 114q-102 117 -102 469zM225 1440q0 72 41 110.5t119 38.5q158 0 158 -149q0 -152 -158 -152q-160 0 -160 152zM393 573 q0 -198 39 -260q40 -61 178 -61t178 61q41 65 41 260q0 196 -41 258q-40 64 -178 64t-178 -64q-39 -59 -39 -258zM680 1440q0 149 158 149q157 0 157 -149q0 -152 -157 -152q-158 0 -158 152z" />
<glyph unicode="&#xf7;" horiz-adv-x="1167" d="M66 545v221q0 31 30 31h973q33 0 33 -31v-221q0 -31 -33 -31h-973q-30 0 -30 31zM406 248q0 78 47 121t133 43q84 0 130 -43t46 -121t-46 -122t-130 -44q-86 0 -133 44t-47 122zM406 1065q0 78 47 120t133 42q85 0 130.5 -42t45.5 -120q0 -80 -45.5 -123t-130.5 -43 q-86 0 -133 43t-47 123z" />
<glyph unicode="&#xf8;" horiz-adv-x="1220" d="M88 573q0 353 102 467q102 117 420 117q195 0 291 -35l45 64q22 29 43 8l70 -47q24 -15 6 -43l-41 -57q60 -60 84.5 -170t24.5 -304q0 -351 -103 -469q-102 -114 -420 -114q-203 0 -301 39l-47 -68q-19 -28 -41 -6l-69 47q-24 15 -9 41l47 68q-102 114 -102 462zM393 573 q0 -112 8 -161l330 467q-43 16 -121 16q-138 0 -178 -64q-39 -59 -39 -258zM481 272q41 -20 129 -20q138 0 178 61q41 65 41 260q0 122 -14 177z" />
<glyph unicode="&#xf9;" horiz-adv-x="1249" d="M115 483v633q0 31 32 31h242q29 0 29 -31v-555q0 -151 18 -215q18 -60 57 -77t146 -17h184v864q0 31 31 31h246q28 0 28 -31v-1057q0 -18 -5 -23.5t-23 -10.5q-184 -35 -492 -35q-162 0 -248 18.5t-145 71.5q-58 54 -79 144.5t-21 258.5zM256 1587v15q0 20 20 20h299 q19 0 25 -12l150 -267q9 -15 -7 -28l-88 -51q-19 -9 -28 0l-361 299q-10 17 -10 24z" />
<glyph unicode="&#xfa;" horiz-adv-x="1249" d="M115 483v633q0 31 32 31h242q29 0 29 -31v-555q0 -151 18 -215q18 -60 57 -77t146 -17h184v864q0 31 31 31h246q28 0 28 -31v-1057q0 -18 -5 -23.5t-23 -10.5q-184 -35 -492 -35q-162 0 -248 18.5t-145 71.5q-58 54 -79 144.5t-21 258.5zM453 1343l149 267q6 12 25 12 h299q20 0 20 -20v-15q0 -7 -10 -24l-361 -299q-9 -9 -28 0l-88 51q-15 12 -6 28z" />
<glyph unicode="&#xfb;" horiz-adv-x="1249" d="M115 483v633q0 31 32 31h242q29 0 29 -31v-555q0 -151 18 -215q18 -60 57 -77t146 -17h184v864q0 31 31 31h246q28 0 28 -31v-1057q0 -18 -5 -23.5t-23 -10.5q-184 -35 -492 -35q-162 0 -248 18.5t-145 71.5q-58 54 -79 144.5t-21 258.5zM297 1333l197 273q13 16 41 16 h174q31 0 41 -16l196 -273q16 -22 -6 -35l-66 -32q-19 -12 -34 0l-217 153l-217 -153q-18 -12 -37 0l-64 32q-22 16 -8 35z" />
<glyph unicode="&#xfc;" horiz-adv-x="1249" d="M115 483v633q0 31 32 31h242q29 0 29 -31v-555q0 -151 18 -215q18 -60 57 -77t146 -17h184v864q0 31 31 31h246q28 0 28 -31v-1057q0 -18 -5 -23.5t-23 -10.5q-184 -35 -492 -35q-162 0 -248 18.5t-145 71.5q-58 54 -79 144.5t-21 258.5zM219 1440q0 72 41 110.5 t119 38.5q158 0 158 -149q0 -152 -158 -152q-160 0 -160 152zM674 1440q0 149 157 149q158 0 158 -149q0 -152 -158 -152q-157 0 -157 152z" />
<glyph unicode="&#xfd;" horiz-adv-x="1273" d="M113 518v598q0 31 30 31h244q31 0 31 -31v-541q0 -200 45 -260q46 -61 201 -61q112 0 182 12v850q0 31 31 31h243q31 0 31 -31v-1091q0 -105 -10.5 -169.5t-40.5 -119.5q-40 -83 -148 -121.5t-303 -38.5q-209 0 -385 29q-28 3 -28 33v155q0 31 28 31h359q133 0 178 36.5 t45 139.5v12q-126 -22 -250 -22q-277 0 -381 116q-102 120 -102 412zM494 1343l149 267q6 12 25 12h297q20 0 20 -20v-15q0 -14 -10 -24l-359 -299q-9 -9 -28 0l-88 51q-15 12 -6 28z" />
<glyph unicode="&#xfe;" horiz-adv-x="1236" d="M123 -381v1933q0 33 31 33h243q31 0 31 -33v-407q114 12 252 12q278 0 373 -121q96 -122 96 -465q0 -348 -105 -465q-104 -116 -426 -116q-111 0 -190 8v-379q0 -31 -31 -31h-243q-31 0 -31 31zM428 266q80 -14 197 -14q145 0 182 63q39 62 39 258q0 202 -41 261t-193 59 h-184v-627z" />
<glyph unicode="&#xff;" horiz-adv-x="1273" d="M113 518v598q0 31 30 31h244q31 0 31 -31v-541q0 -200 45 -260q46 -61 201 -61q112 0 182 12v850q0 31 31 31h243q31 0 31 -31v-1091q0 -105 -10.5 -169.5t-40.5 -119.5q-40 -83 -148 -121.5t-303 -38.5q-209 0 -385 29q-28 3 -28 33v155q0 31 28 31h359q133 0 178 36.5 t45 139.5v12q-126 -22 -250 -22q-277 0 -381 116q-102 120 -102 412zM248 1440q0 72 41 110.5t119 38.5q157 0 157 -149q0 -152 -157 -152q-160 0 -160 152zM702 1440q0 149 158 149t158 -149q0 -152 -158 -152t-158 152z" />
<glyph unicode="&#x100;" horiz-adv-x="1456" d="M18 33l367 1319q46 165 102 204q59 41 238 41q187 0 246 -41q56 -39 102 -204l361 -1319q6 -33 -27 -33h-262q-12 0 -17.5 6.5t-9.5 26.5l-117 426h-548l-119 -426q-5 -20 -10.5 -26.5t-18.5 -6.5h-260q-33 0 -27 33zM397 1767v125q0 31 31 31h594q31 0 31 -31v-125 q0 -30 -31 -30h-594q-31 0 -31 30zM524 725h406l-148 543q-12 44 -20 51q-10 8 -37 8q-24 0 -32 -10t-19 -49z" />
<glyph unicode="&#x101;" horiz-adv-x="1157" d="M59 344q3 196 101 266q101 70 319 70h260v74q0 141 -192 141h-371q-17 0 -23 6t-6 25v168q0 16 5.5 21.5t23.5 10.5q161 31 371 31q285 0 391 -86q104 -85 104 -266v-709q0 -48 -45 -63q-185 -43 -465 -43q-137 0 -210 10.5t-138 44.5q-65 36 -94 107.5t-31 191.5z M246 1358v125q0 30 30 30h592q31 0 31 -30v-125q0 -31 -31 -31h-592q-30 0 -30 31zM360 360q0 -71 38 -97.5t137 -26.5q134 0 204 20v227h-235q-79 0 -111.5 -27.5t-32.5 -95.5z" />
<glyph unicode="&#x102;" horiz-adv-x="1456" d="M18 33l367 1319q46 165 102 204q59 41 238 41q187 0 246 -41q56 -39 102 -204l361 -1319q6 -33 -27 -33h-262q-12 0 -17.5 6.5t-9.5 26.5l-117 426h-548l-119 -426q-5 -20 -10.5 -26.5t-18.5 -6.5h-260q-33 0 -27 33zM371 1974q-6 33 28 33h119q26 0 35 -25 q25 -57 62.5 -79.5t109.5 -22.5t109.5 22.5t62.5 79.5q9 25 35 25h121q34 0 28 -31q-21 -155 -100 -219q-76 -61 -256 -61q-179 0 -256 59q-77 62 -98 219zM524 725h406l-148 543q-12 44 -20 51q-10 8 -37 8q-24 0 -32 -10t-19 -49z" />
<glyph unicode="&#x103;" horiz-adv-x="1157" d="M59 344q3 196 101 266q101 70 319 70h260v74q0 141 -192 141h-371q-17 0 -23 6t-6 25v168q0 16 5.5 21.5t23.5 10.5q161 31 371 31q285 0 391 -86q104 -85 104 -266v-709q0 -48 -45 -63q-185 -43 -465 -43q-137 0 -210 10.5t-138 44.5q-65 36 -94 107.5t-31 191.5z M217 1565q-6 32 29 32h119q25 0 34 -24q25 -57 63 -80t111 -23q71 0 108 22.5t64 80.5q9 24 35 24h119q35 0 29 -30q-21 -155 -101 -219q-77 -62 -254 -62q-178 0 -258 62q-77 62 -98 217zM360 360q0 -71 38 -97.5t137 -26.5q134 0 204 20v227h-235q-79 0 -111.5 -27.5 t-32.5 -95.5z" />
<glyph unicode="&#x104;" horiz-adv-x="1456" d="M18 33l367 1319q46 165 102 204q59 41 238 41q187 0 246 -41q56 -39 102 -204l361 -1319q6 -33 -27 -33h-135q-12 -68 -12 -102q0 -35 22.5 -44.5t89.5 -9.5h74q29 0 29 -28v-125q0 -28 -25 -37q-43 -16 -164 -16q-111 0 -163 37.5t-52 121.5q0 109 47 230l-117 432h-548 l-119 -426q-5 -20 -10.5 -26.5t-18.5 -6.5h-260q-33 0 -27 33zM524 725h406l-148 543q-12 44 -20 51q-10 8 -37 8q-24 0 -32 -10t-19 -49z" />
<glyph unicode="&#x105;" horiz-adv-x="1157" d="M59 344q3 196 101 266q101 70 319 70h260v74q0 141 -192 141h-371q-17 0 -23 6t-6 25v168q0 16 5.5 21.5t23.5 10.5q161 31 371 31q285 0 391 -86q104 -85 104 -266v-709q0 -48 -45 -63q-82 -18 -151 -25q-12 -59 -12 -110q0 -35 22.5 -44.5t89.5 -9.5h72q29 0 29 -28 v-125q0 -28 -25 -37q-43 -16 -164 -16q-111 0 -163 37.5t-52 121.5q0 85 33 197q-132 -4 -144 -4q-137 0 -210 10.5t-138 44.5q-65 36 -94 107.5t-31 191.5zM360 360q0 -71 38 -97.5t137 -26.5q134 0 204 20v227h-235q-79 0 -111.5 -27.5t-32.5 -95.5z" />
<glyph unicode="&#x106;" horiz-adv-x="1275" d="M98 795q0 245 30 391t103 241q76 95 197.5 132.5t327.5 37.5q234 0 403 -30q47 -12 47 -56v-163q0 -31 -30 -31h-420q-207 0 -271 -107q-61 -107 -61 -415q0 -311 61 -418q64 -107 271 -107h420q30 0 30 -30v-166q0 -42 -47 -54q-150 -30 -403 -30q-206 0 -327.5 37.5 t-197.5 132.5q-73 96 -103 243t-30 392zM541 1753l149 266q6 13 25 13h297q20 0 20 -21v-14q0 -15 -10 -25l-358 -299q-10 -10 -29 0l-88 51q-16 13 -6 29z" />
<glyph unicode="&#x107;" horiz-adv-x="1046" d="M88 573q0 191 20.5 294.5t75.5 170.5q58 69 153.5 94t270.5 25q202 0 334 -27q35 -6 35 -40v-162q0 -33 -35 -33h-334q-138 0 -178 -61q-39 -59 -39 -261q0 -198 39 -260q40 -61 178 -61h334q35 0 35 -31v-164q0 -33 -35 -39q-134 -28 -334 -28q-174 0 -270 24.5 t-154 91.5q-56 70 -76 173.5t-20 293.5zM397 1343l150 267q6 12 24 12h297q21 0 21 -20v-15q0 -14 -10 -24l-359 -299q-9 -9 -28 0l-89 51q-15 12 -6 28z" />
<glyph unicode="&#x108;" horiz-adv-x="1275" d="M98 795q0 245 30 391t103 241q76 95 197.5 132.5t327.5 37.5q234 0 403 -30q47 -12 47 -56v-163q0 -31 -30 -31h-420q-207 0 -271 -107q-61 -107 -61 -415q0 -311 61 -418q64 -107 271 -107h420q30 0 30 -30v-166q0 -42 -47 -54q-150 -30 -403 -30q-206 0 -327.5 37.5 t-197.5 132.5q-73 96 -103 243t-30 392zM401 1743l197 272q10 17 41 17h174q27 0 41 -17l197 -272q14 -19 -9 -35l-63 -33q-19 -12 -37 0l-215 154l-219 -154q-16 -13 -35 0l-65 33q-23 13 -7 35z" />
<glyph unicode="&#x109;" horiz-adv-x="1046" d="M88 573q0 191 20.5 294.5t75.5 170.5q58 69 153.5 94t270.5 25q202 0 334 -27q35 -6 35 -40v-162q0 -33 -35 -33h-334q-138 0 -178 -61q-39 -59 -39 -261q0 -198 39 -260q40 -61 178 -61h334q35 0 35 -31v-164q0 -33 -35 -39q-134 -28 -334 -28q-174 0 -270 24.5 t-154 91.5q-56 70 -76 173.5t-20 293.5zM246 1333l194 273q13 16 41 16h174q31 0 41 -16l197 -273q16 -22 -6 -35l-66 -32q-19 -13 -35 0l-217 153l-217 -153q-15 -15 -37 0l-63 32q-23 15 -6 35z" />
<glyph unicode="&#x10a;" horiz-adv-x="1275" d="M98 795q0 245 30 391t103 241q76 95 197.5 132.5t327.5 37.5q234 0 403 -30q47 -12 47 -56v-163q0 -31 -30 -31h-420q-207 0 -271 -107q-61 -107 -61 -415q0 -311 61 -418q64 -107 271 -107h420q30 0 30 -30v-166q0 -42 -47 -54q-150 -30 -403 -30q-206 0 -327.5 37.5 t-197.5 132.5q-73 96 -103 243t-30 392zM565 1849q0 154 170 154q168 0 168 -154q0 -155 -168 -155q-170 0 -170 155z" />
<glyph unicode="&#x10b;" horiz-adv-x="1046" d="M88 573q0 191 20.5 294.5t75.5 170.5q58 69 153.5 94t270.5 25q202 0 334 -27q35 -6 35 -40v-162q0 -33 -35 -33h-334q-138 0 -178 -61q-39 -59 -39 -261q0 -198 39 -260q40 -61 178 -61h334q35 0 35 -31v-164q0 -33 -35 -39q-134 -28 -334 -28q-174 0 -270 24.5 t-154 91.5q-56 70 -76 173.5t-20 293.5zM393 1440q0 153 170 153q168 0 168 -153q0 -156 -168 -156q-170 0 -170 156z" />
<glyph unicode="&#x10c;" horiz-adv-x="1275" d="M98 795q0 245 30 391t103 241q76 95 197.5 132.5t327.5 37.5q234 0 403 -30q47 -12 47 -56v-163q0 -31 -30 -31h-420q-207 0 -271 -107q-61 -107 -61 -415q0 -311 61 -418q64 -107 271 -107h420q30 0 30 -30v-166q0 -42 -47 -54q-150 -30 -403 -30q-206 0 -327.5 37.5 t-197.5 132.5q-73 96 -103 243t-30 392zM342 1958q-16 23 8 35l64 32q19 13 35 0l219 -153l217 153q16 13 35 0l63 -32q22 -16 8 -35l-196 -272q-14 -17 -41 -17h-174q-31 0 -41 17z" />
<glyph unicode="&#x10d;" horiz-adv-x="1046" d="M88 573q0 191 20.5 294.5t75.5 170.5q58 69 153.5 94t270.5 25q202 0 334 -27q35 -6 35 -40v-162q0 -33 -35 -33h-334q-138 0 -178 -61q-39 -59 -39 -261q0 -198 39 -260q40 -61 178 -61h334q35 0 35 -31v-164q0 -33 -35 -39q-134 -28 -334 -28q-174 0 -270 24.5 t-154 91.5q-56 70 -76 173.5t-20 293.5zM252 1548q-14 19 8 35l64 33q19 12 34 0l220 -154l217 154q15 12 34 0l64 -33q24 -12 8 -35l-196 -272q-13 -16 -41 -16h-175q-27 0 -40 16z" />
<glyph unicode="&#x10e;" horiz-adv-x="1525" d="M145 37v1509q0 17 6 22t25 7q261 22 594 22q360 0 510 -188q154 -189 154 -616q0 -428 -154 -617q-149 -186 -510 -186q-348 0 -594 20q-18 1 -24.5 7t-6.5 20zM377 1958q-14 19 8 35l64 32q21 15 36 0l217 -153l218 153q15 12 34 0l66 -32q22 -13 6 -35l-197 -272 q-10 -17 -41 -17h-174q-27 0 -41 17zM467 270h303q183 0 260.5 121.5t77.5 401.5q0 279 -81.5 401.5t-272.5 122.5h-287v-1047z" />
<glyph unicode="&#x10f;" horiz-adv-x="1296" d="M88 571q0 346 94 465q95 121 375 121q138 0 252 -12v407q0 33 31 33h241q31 0 31 -33v-1472q0 -45 -43 -51q-237 -39 -451 -39q-321 0 -425 116q-105 117 -105 465zM391 573q0 -194 37 -258q40 -63 184 -63q117 0 197 14v627h-184q-152 0 -193 -59t-41 -261zM1221 1313 l59 260q3 18 29 18h270q20 0 20 -20v-15q0 -7 -10 -24l-264 -299q-10 -16 -29 0l-65 49q-16 10 -10 31z" />
<glyph unicode="&#x110;" horiz-adv-x="1548" d="M2 717v125q0 30 31 30h137v674q0 17 6 22t25 7q261 22 594 22q360 0 510 -188q153 -188 153 -616q0 -429 -153 -617q-149 -186 -510 -186q-345 0 -594 20q-18 1 -24.5 7t-6.5 20v649h-137q-31 0 -31 31zM492 270h303q183 0 260.5 121.5t77.5 401.5t-81 402t-272 122h-288 v-445h264q30 0 30 -30v-125q0 -31 -30 -31h-264v-416z" />
<glyph unicode="&#x111;" horiz-adv-x="1232" d="M88 571q0 346 94 465q95 121 375 121q138 0 252 -12v168h-244q-30 0 -30 30v72q0 31 30 31h244v106q0 33 31 33h241q31 0 31 -33v-106h123q31 0 31 -31v-72q0 -30 -31 -30h-123v-1233q0 -45 -43 -51q-237 -39 -451 -39q-321 0 -425 116q-105 117 -105 465zM391 573 q0 -194 37 -258q40 -63 184 -63q117 0 197 14v627h-184q-152 0 -193 -59t-41 -261z" />
<glyph unicode="&#x112;" horiz-adv-x="1327" d="M145 33v1521q0 31 31 31h1026q31 0 31 -31v-219q0 -30 -31 -30h-735v-387h672q32 0 32 -31v-209q0 -31 -32 -31h-672v-366h735q31 0 31 -31v-219q0 -31 -31 -31h-1026q-31 0 -31 33zM340 1767v125q0 31 31 31h594q30 0 30 -31v-125q0 -30 -30 -30h-594q-31 0 -31 30z" />
<glyph unicode="&#x113;" horiz-adv-x="1175" d="M88 573q0 353 102 467q102 117 412 117q302 0 402 -115q99 -111 102 -454v-64q0 -31 -14 -43t-52 -12h-643q3 -138 47 -176q47 -41 185 -41h362q31 0 31 -31v-170q0 -30 -29 -33q-143 -28 -391 -28q-311 0 -412 116q-102 117 -102 467zM272 1358v125q0 30 31 30h594 q31 0 31 -30v-125q0 -31 -31 -31h-594q-31 0 -31 31zM395 668h406q-1 133 -43.5 180t-155.5 47q-118 0 -162 -47t-45 -180z" />
<glyph unicode="&#x114;" horiz-adv-x="1327" d="M145 33v1521q0 31 31 31h1026q31 0 31 -31v-219q0 -30 -31 -30h-735v-387h672q32 0 32 -31v-209q0 -31 -32 -31h-672v-366h735q31 0 31 -31v-219q0 -31 -31 -31h-1026q-31 0 -31 33zM342 1974q-6 33 29 33h118q26 0 35 -25q25 -57 62.5 -79.5t109.5 -22.5t109.5 22.5 t62.5 79.5q9 25 35 25h121q35 0 29 -31q-21 -155 -101 -219q-76 -61 -256 -61q-179 0 -256 59q-77 62 -98 219z" />
<glyph unicode="&#x115;" horiz-adv-x="1175" d="M88 573q0 353 102 467q102 117 412 117q302 0 402 -115q99 -111 102 -454v-64q0 -31 -14 -43t-52 -12h-643q3 -138 47 -176q47 -41 185 -41h362q31 0 31 -31v-170q0 -30 -29 -33q-143 -28 -391 -28q-311 0 -412 116q-102 117 -102 467zM246 1565q-6 32 28 32h119 q26 0 35 -24q25 -57 62.5 -80t109.5 -23q71 0 109.5 23t64.5 80q9 24 35 24h119q34 0 28 -30q-21 -155 -100 -219q-77 -62 -256 -62q-176 0 -256 62q-77 62 -98 217zM395 668h406q-1 133 -43.5 180t-155.5 47q-118 0 -162 -47t-45 -180z" />
<glyph unicode="&#x116;" horiz-adv-x="1327" d="M145 33v1521q0 31 31 31h1026q31 0 31 -31v-219q0 -30 -31 -30h-735v-387h672q32 0 32 -31v-209q0 -31 -32 -31h-672v-366h735q31 0 31 -31v-219q0 -31 -31 -31h-1026q-31 0 -31 33zM498 1849q0 154 170 154q168 0 168 -154q0 -155 -168 -155q-170 0 -170 155z" />
<glyph unicode="&#x117;" horiz-adv-x="1175" d="M88 573q0 353 102 467q102 117 412 117q302 0 402 -115q99 -111 102 -454v-64q0 -31 -14 -43t-52 -12h-643q3 -138 47 -176q47 -41 185 -41h362q31 0 31 -31v-170q0 -30 -29 -33q-143 -28 -391 -28q-311 0 -412 116q-102 117 -102 467zM395 668h406q-1 133 -43.5 180 t-155.5 47q-118 0 -162 -47t-45 -180zM430 1440q0 153 170 153t170 -153q0 -156 -170 -156t-170 156z" />
<glyph unicode="&#x118;" horiz-adv-x="1327" d="M145 33v1521q0 31 31 31h1026q31 0 31 -31v-219q0 -30 -31 -30h-735v-387h672q32 0 32 -31v-209q0 -31 -32 -31h-672v-366h735q31 0 31 -31v-219q0 -31 -31 -31h-192q-13 -73 -13 -102q0 -35 23 -44.5t90 -9.5h74q28 0 28 -28v-125q0 -28 -24 -37q-43 -16 -164 -16 q-111 0 -163 37.5t-52 121.5q0 75 35 203h-668q-31 0 -31 33z" />
<glyph unicode="&#x119;" horiz-adv-x="1175" d="M88 573q0 353 102 467q102 117 412 117q302 0 402 -115q99 -111 102 -454v-64q0 -31 -14 -43t-52 -12h-643q3 -138 47 -176q47 -41 185 -41h362q31 0 31 -31v-170q0 -30 -29 -33q-54 -14 -149 -20q-10 -58 -10 -100q0 -35 22.5 -44.5t89.5 -9.5h72q29 0 29 -28v-125 q0 -28 -25 -37q-43 -16 -164 -16q-109 -4 -162 38t-52.5 122t34.5 192h-76q-311 0 -412 116q-102 117 -102 467zM395 668h406q-1 133 -43.5 180t-155.5 47q-118 0 -162 -47t-45 -180z" />
<glyph unicode="&#x11a;" horiz-adv-x="1327" d="M145 33v1521q0 31 31 31h1026q31 0 31 -31v-219q0 -30 -31 -30h-735v-387h672q32 0 32 -31v-209q0 -31 -32 -31h-672v-366h735q31 0 31 -31v-219q0 -31 -31 -31h-1026q-31 0 -31 33zM344 1958q-17 20 6 35l64 32q22 15 37 0l217 -153l217 153q16 13 35 0l65 -32 q22 -13 6 -35l-196 -272q-10 -17 -41 -17h-174q-27 0 -41 17z" />
<glyph unicode="&#x11b;" horiz-adv-x="1175" d="M88 573q0 353 102 467q102 117 412 117q302 0 402 -115q99 -111 102 -454v-64q0 -31 -14 -43t-52 -12h-643q3 -138 47 -176q47 -41 185 -41h362q31 0 31 -31v-170q0 -30 -29 -33q-143 -28 -391 -28q-311 0 -412 116q-102 117 -102 467zM276 1548q-16 22 7 35l65 33 q19 13 35 0l217 -154l217 154q15 15 37 0l64 -33q22 -16 8 -35l-197 -272q-13 -16 -41 -16h-174q-31 0 -41 16zM395 668h406q-1 133 -43.5 180t-155.5 47q-118 0 -162 -47t-45 -180z" />
<glyph unicode="&#x11c;" horiz-adv-x="1404" d="M98 793q0 469 133 637q133 167 525 167q288 0 438 -30q47 -12 47 -56v-163q0 -31 -31 -31h-454q-207 0 -271 -107q-61 -107 -61 -417q0 -309 61 -416q64 -107 271 -107h256v478q0 32 30 32h240q31 0 31 -32v-582q0 -38 -8 -51q-33 -57 -193 -92q-149 -33 -356 -33 q-203 0 -324 37q-124 38 -201 133q-73 95 -103 241.5t-30 391.5zM408 1743l196 272q10 17 41 17h174q27 0 41 -17l197 -272q14 -19 -8 -35l-64 -33q-22 -15 -37 0l-217 154l-217 -154q-16 -13 -35 0l-65 33q-22 13 -6 35z" />
<glyph unicode="&#x11d;" horiz-adv-x="1236" d="M88 590q0 339 107 452q109 115 428 115q246 0 450 -39q43 -6 43 -51v-1042q0 -105 -10.5 -169.5t-40.5 -119.5q-40 -83 -148 -121.5t-303 -38.5q-199 0 -378 29q-29 3 -29 33v155q0 31 29 31h352q133 0 178 36.5t45 139.5v12q-126 -22 -250 -22q-278 0 -377 123 q-96 125 -96 477zM293 1333l196 273q13 16 41 16h175q30 0 40 -16l197 -273q16 -22 -6 -35l-66 -32q-19 -12 -34 0l-218 153l-217 -153q-18 -12 -36 0l-64 32q-22 16 -8 35zM391 575q0 -200 41 -262q44 -59 197 -59q111 0 182 12v629h-203q-140 0 -180 -64q-37 -64 -37 -256 z" />
<glyph unicode="&#x11e;" horiz-adv-x="1404" d="M98 793q0 469 133 637q133 167 525 167q288 0 438 -30q47 -12 47 -56v-163q0 -31 -31 -31h-454q-207 0 -271 -107q-61 -107 -61 -417q0 -309 61 -416q64 -107 271 -107h256v478q0 32 30 32h240q31 0 31 -32v-582q0 -38 -8 -51q-33 -57 -193 -92q-149 -33 -356 -33 q-203 0 -324 37q-124 38 -201 133q-73 95 -103 241.5t-30 391.5zM352 1974q-6 33 29 33h117q25 0 34 -25q26 -57 64.5 -79.5t110.5 -22.5t109.5 22.5t62.5 79.5q9 25 34 25h119q35 0 29 -31q-20 -158 -97.5 -219t-256.5 -61q-180 0 -256 61q-78 63 -99 217z" />
<glyph unicode="&#x11f;" horiz-adv-x="1236" d="M88 590q0 339 107 452q109 115 428 115q246 0 450 -39q43 -6 43 -51v-1042q0 -105 -10.5 -169.5t-40.5 -119.5q-40 -83 -148 -121.5t-303 -38.5q-199 0 -378 29q-29 3 -29 33v155q0 31 29 31h352q133 0 178 36.5t45 139.5v12q-126 -22 -250 -22q-278 0 -377 123 q-96 125 -96 477zM264 1565q-6 32 29 32h117q25 0 34 -24q26 -57 64.5 -80t109.5 -23q72 0 110 23t63 80q9 24 34 24h121q35 0 29 -30q-21 -155 -101 -219q-77 -62 -256 -62q-178 0 -256 60q-77 62 -98 219zM391 575q0 -200 41 -262q44 -59 197 -59q111 0 182 12v629h-203 q-140 0 -180 -64q-37 -64 -37 -256z" />
<glyph unicode="&#x120;" horiz-adv-x="1404" d="M98 793q0 469 133 637q133 167 525 167q288 0 438 -30q47 -12 47 -56v-163q0 -31 -31 -31h-454q-207 0 -271 -107q-61 -107 -61 -417q0 -309 61 -416q64 -107 271 -107h256v478q0 32 30 32h240q31 0 31 -32v-582q0 -38 -8 -51q-33 -57 -193 -92q-149 -33 -356 -33 q-203 0 -324 37q-124 38 -201 133q-73 95 -103 241.5t-30 391.5zM537 1849q0 154 170 154t170 -154q0 -155 -170 -155t-170 155z" />
<glyph unicode="&#x121;" horiz-adv-x="1236" d="M88 590q0 339 107 452q109 115 428 115q246 0 450 -39q43 -6 43 -51v-1042q0 -105 -10.5 -169.5t-40.5 -119.5q-40 -83 -148 -121.5t-303 -38.5q-199 0 -378 29q-29 3 -29 33v155q0 31 29 31h352q133 0 178 36.5t45 139.5v12q-126 -22 -250 -22q-278 0 -377 123 q-96 125 -96 477zM391 575q0 -200 41 -262q44 -59 197 -59q111 0 182 12v629h-203q-140 0 -180 -64q-37 -64 -37 -256zM449 1440q0 153 169 153q168 0 168 -153q0 -156 -168 -156q-169 0 -169 156z" />
<glyph unicode="&#x122;" horiz-adv-x="1404" d="M98 793q0 469 133 637q133 167 525 167q288 0 438 -30q47 -12 47 -56v-163q0 -31 -31 -31h-454q-207 0 -271 -107q-61 -107 -61 -417q0 -309 61 -416q64 -107 271 -107h256v478q0 32 30 32h240q31 0 31 -32v-582q0 -38 -8 -51q-33 -57 -193 -92q-149 -33 -356 -33 q-203 0 -324 37q-124 38 -201 133q-73 95 -103 241.5t-30 391.5zM461 -334l135 240q6 12 25 12h256q20 0 20 -20v-15q0 -7 -10 -24l-320 -265q-9 -9 -28 0l-72 44q-15 12 -6 28z" />
<glyph unicode="&#x123;" horiz-adv-x="1236" d="M88 590q0 339 107 452q109 115 428 115q246 0 450 -39q43 -6 43 -51v-1042q0 -105 -10.5 -169.5t-40.5 -119.5q-40 -83 -148 -121.5t-303 -38.5q-199 0 -378 29q-29 3 -29 33v155q0 31 29 31h352q133 0 178 36.5t45 139.5v12q-126 -22 -250 -22q-278 0 -377 123 q-96 125 -96 477zM391 575q0 -200 41 -262q44 -59 197 -59q111 0 182 12v629h-203q-140 0 -180 -64q-37 -64 -37 -256zM475 1292v15q0 14 10 24l318 264q14 11 28 0l74 -43q15 -9 6 -28l-135 -240q-6 -12 -24 -12h-256q-21 0 -21 20z" />
<glyph unicode="&#x124;" horiz-adv-x="1611" d="M145 33v1519q0 33 31 33h260q31 0 31 -33v-616h678v616q0 33 31 33h260q30 0 30 -33v-1519q0 -33 -30 -33h-260q-31 0 -31 33v618h-678v-618q0 -33 -31 -33h-260q-31 0 -31 33zM492 1743l196 272q10 17 41 17h172q31 0 41 -17l197 -272q16 -22 -6 -35l-64 -33 q-22 -12 -37 0l-217 154l-217 -154q-15 -12 -37 0l-63 33q-22 13 -6 35z" />
<glyph unicode="&#x125;" horiz-adv-x="1251" d="M-57 1724l196 273q15 18 41 18h174q32 0 41 -18l197 -273q15 -21 -8 -32l-64 -35q-16 -13 -35 0l-217 155l-219 -155q-16 -13 -35 0l-63 35q-23 14 -8 32zM121 33v1519q0 33 31 33h241q31 0 31 -33v-405q105 10 217 10q163 0 248 -18.5t143 -71.5q59 -54 81 -144.5 t22 -256.5v-633q0 -33 -31 -33h-244q-29 0 -29 33v555q0 150 -18 211t-57 78.5t-146 17.5h-184v-862q0 -33 -31 -33h-245q-29 0 -29 33z" />
<glyph unicode="&#x126;" horiz-adv-x="1652" d="M33 1270v80q0 30 30 30h103v172q0 33 31 33h262q30 0 30 -33v-172h676v172q0 33 31 33h262q31 0 31 -33v-172h100q31 0 31 -30v-80q0 -31 -31 -31h-100v-1206q0 -33 -31 -33h-262q-31 0 -31 33v618h-676v-618q0 -33 -30 -33h-262q-31 0 -31 33v1206h-103q-30 0 -30 31z M489 936h676v303h-676v-303z" />
<glyph unicode="&#x127;" horiz-adv-x="1251" d="M-27 1343v72q0 31 31 31h119v106q0 33 31 33h241q31 0 31 -33v-106h250q31 0 31 -31v-72q0 -30 -31 -30h-250v-166q105 10 217 10q163 0 248 -18.5t143 -71.5q59 -54 81 -144.5t22 -256.5v-633q0 -33 -31 -33h-244q-28 0 -28 33v555q0 146 -19 211q-18 61 -57 78.5 t-146 17.5h-184v-862q0 -33 -31 -33h-245q-29 0 -29 33v1280h-119q-31 0 -31 30z" />
<glyph unicode="&#x128;" horiz-adv-x="612" d="M-70 1763q38 139 80 187q46 49 135 49q59 0 162 -41q98 -39 131 -39q35 0 54 14.5t38 53.5q10 29 37 20l88 -25q28 -9 23 -40q-37 -140 -81 -189t-134 -49q-61 0 -162 39q-103 41 -131 41q-35 0 -54 -14.5t-38 -53.5q-13 -29 -37 -20l-88 24q-29 10 -23 43zM145 33v1519 q0 33 31 33h260q31 0 31 -33v-1519q0 -33 -31 -33h-260q-31 0 -31 33z" />
<glyph unicode="&#x129;" horiz-adv-x="548" d="M-98 1354q35 137 80 186t135 49q56 0 159 -41q101 -39 134 -39q35 0 53.5 14.5t36.5 53.5q13 29 39 20l88 -24q28 -9 20 -41q-35 -139 -79.5 -188.5t-135.5 -49.5q-61 0 -162 39q-103 41 -131 41q-35 0 -54 -14t-36 -53q-13 -30 -39 -21l-88 25q-29 10 -20 43zM123 33 v1083q0 31 31 31h241q31 0 31 -31v-1083q0 -33 -31 -33h-241q-31 0 -31 33z" />
<glyph unicode="&#x12a;" horiz-adv-x="612" d="M-23 1767v125q0 31 31 31h592q31 0 31 -31v-125q0 -30 -31 -30h-592q-31 0 -31 30zM145 33v1519q0 33 31 33h260q31 0 31 -33v-1519q0 -33 -31 -33h-260q-31 0 -31 33z" />
<glyph unicode="&#x12b;" horiz-adv-x="550" d="M-51 1358v125q0 30 31 30h591q31 0 31 -30v-125q0 -31 -31 -31h-591q-31 0 -31 31zM123 33v1083q0 31 31 31h243q31 0 31 -31v-1083q0 -33 -31 -33h-243q-31 0 -31 33z" />
<glyph unicode="&#x12e;" horiz-adv-x="612" d="M104 -203q0 77 41 223v1532q0 33 31 33h260q31 0 31 -33v-1519q0 -33 -31 -33h-131q-12 -68 -12 -102q0 -35 23 -44.5t90 -9.5h73q29 0 29 -28v-125q0 -28 -25 -37q-43 -16 -164 -16q-111 0 -163 37.5t-52 121.5z" />
<glyph unicode="&#x12f;" horiz-adv-x="548" d="M80 -203q0 91 43 221v1098q0 31 31 31h241q31 0 31 -31v-1083q0 -33 -31 -33h-112q-13 -73 -13 -102q0 -35 23 -44.5t90 -9.5h72q28 0 28 -28v-125q0 -28 -24 -37q-43 -16 -162 -16q-113 0 -165 37.5t-52 121.5zM106 1440q0 153 170 153q168 0 168 -153q0 -156 -168 -156 q-170 0 -170 156z" />
<glyph unicode="&#x130;" horiz-adv-x="612" d="M135 1849q0 154 170 154q168 0 168 -154q0 -155 -168 -155q-170 0 -170 155zM145 33v1519q0 33 31 33h260q31 0 31 -33v-1519q0 -33 -31 -33h-260q-31 0 -31 33z" />
<glyph unicode="&#x131;" horiz-adv-x="548" d="M123 33v1083q0 31 31 31h241q31 0 31 -31v-1083q0 -33 -31 -33h-241q-31 0 -31 33z" />
<glyph unicode="&#x132;" horiz-adv-x="1818" d="M145 33v1519q0 33 31 33h260q31 0 31 -33v-1519q0 -33 -31 -33h-260q-31 0 -31 33zM643 72v168q0 30 31 30h342q213 0 280 101q71 103 68 401v533h-420q-33 0 -33 30v219q0 31 31 31h713q31 0 31 -31v-782q3 -451 -138 -618q-138 -164 -532 -164q-176 0 -326 30 q-47 9 -47 52z" />
<glyph unicode="&#x133;" horiz-adv-x="1110" d="M96 1466q0 78 47 121t133 43q85 0 131 -43t46 -121t-46.5 -122t-130.5 -44q-86 0 -133 44t-47 122zM123 33v1083q0 31 31 31h241q31 0 31 -31v-1083q0 -33 -31 -33h-241q-31 0 -31 33zM496 -193q0 33 36 33h50q66 0 83 15.5t17 76.5v1184q0 31 31 31h243q31 0 31 -31 v-1282q0 -156 -72 -207q-68 -51 -217 -51q-99 0 -168 16q-34 12 -34 41v174zM657 1466q0 78 47 121t132 43q86 0 132 -43t46 -121q0 -79 -46 -122.5t-132 -43.5q-85 0 -132 44t-47 122z" />
<glyph unicode="&#x134;" horiz-adv-x="1191" d="M16 72v168q0 30 31 30h342q214 0 281 101q70 101 67 401v533h-420q-32 0 -32 30v219q0 31 30 31h713q31 0 31 -31v-782q3 -452 -137 -618q-138 -164 -533 -164q-176 0 -326 30q-47 9 -47 52zM340 1743l197 272q14 17 41 17h174q27 0 41 -17l196 -272q14 -19 -8 -35 l-63 -33q-19 -13 -35 0l-217 154l-220 -154q-15 -12 -34 0l-64 33q-24 12 -8 35z" />
<glyph unicode="&#x135;" horiz-adv-x="559" d="M-53 -193q0 33 35 33h51q66 0 83 15.5t17 76.5v1184q0 31 31 31h242q30 0 30 -31v-1282q0 -157 -71 -207q-68 -51 -218 -51q-98 0 -167 16q-33 11 -33 41v174zM-45 1333l197 273q13 16 41 16h174q28 0 41 -16l196 -273q14 -19 -8 -35l-64 -32q-19 -12 -34 0l-217 153 l-220 -153q-15 -12 -34 0l-64 32q-24 12 -8 35z" />
<glyph unicode="&#x136;" horiz-adv-x="1388" d="M145 33v1521q0 31 31 31h260q31 0 31 -31v-651l514 662q14 20 43 20h289q44 0 18 -39l-532 -690l587 -801q40 -55 -34 -55h-287q-32 0 -45 23l-553 759v-749q0 -33 -31 -33h-260q-31 0 -31 33zM438 -334l135 240q6 12 25 12h256q20 0 20 -20v-15q0 -7 -10 -24l-317 -265 q-13 -10 -29 0l-74 44q-15 12 -6 28z" />
<glyph unicode="&#x137;" horiz-adv-x="1142" d="M123 33v1519q0 33 31 33h243q31 0 31 -33v-798l293 372q15 21 43 21h276q52 0 19 -39l-330 -414l418 -639q34 -55 -35 -55h-256q-32 0 -45 23l-383 604v-594q0 -33 -31 -33h-243q-31 0 -31 33zM332 -334l135 240q6 12 25 12h256q20 0 20 -20v-15q0 -14 -10 -24l-318 -265 q-12 -9 -28 0l-74 44q-15 12 -6 28z" />
<glyph unicode="&#x138;" horiz-adv-x="1210" d="M121 33v1083q0 31 31 31h260q30 0 30 -31v-487l375 497q15 21 43 21h289q23 0 26.5 -9.5t-10.5 -29.5l-391 -520l414 -543q35 -47 -27 -47h-301q-29 0 -43 20l-375 490v-475q0 -33 -30 -33h-260q-31 0 -31 33z" />
<glyph unicode="&#x139;" horiz-adv-x="1202" d="M145 33v1521q0 31 31 31h260q31 0 31 -31v-1273h672q30 0 30 -31v-219q0 -31 -30 -31h-963q-31 0 -31 33zM168 1753l149 266q7 13 25 13h297q20 0 20 -21v-14q0 -8 -10 -25l-358 -299q-13 -10 -29 0l-88 51q-16 13 -6 29z" />
<glyph unicode="&#x13a;" horiz-adv-x="548" d="M123 33v1521q0 31 31 31h241q31 0 31 -31v-1521q0 -33 -31 -33h-241q-31 0 -31 33zM137 1745l150 266q6 12 24 12h297q21 0 21 -20v-14q0 -14 -11 -25l-358 -299q-10 -10 -29 0l-88 51q-16 13 -6 29z" />
<glyph unicode="&#x13b;" horiz-adv-x="1202" d="M145 33v1521q0 31 31 31h260q31 0 31 -31v-1273h672q30 0 30 -31v-219q0 -31 -30 -31h-963q-31 0 -31 33zM393 -334l135 240q6 12 25 12h256q20 0 20 -20v-15q0 -7 -10 -24l-319 -265q-10 -10 -29 0l-72 44q-15 12 -6 28z" />
<glyph unicode="&#x13c;" horiz-adv-x="548" d="M-18 -334l135 240q6 12 24 12h256q21 0 21 -20v-15q0 -7 -10 -24l-318 -265q-13 -10 -29 0l-73 44q-15 12 -6 28zM123 33v1521q0 31 31 31h241q31 0 31 -31v-1521q0 -33 -31 -33h-241q-31 0 -31 33z" />
<glyph unicode="&#x13d;" horiz-adv-x="1187" d="M145 33v1521q0 31 31 31h260q31 0 31 -31v-1273h672q30 0 30 -31v-219q0 -31 -30 -31h-963q-31 0 -31 33zM639 1313l59 260q3 18 29 18h270q21 0 21 -20v-15q0 -7 -10 -24l-265 -299q-9 -16 -28 0l-68 49q-14 9 -8 31z" />
<glyph unicode="&#x13e;" horiz-adv-x="610" d="M123 33v1521q0 31 31 31h241q31 0 31 -31v-1521q0 -33 -31 -33h-241q-31 0 -31 33zM526 1313l60 260q3 18 28 18h271q20 0 20 -20v-15q0 -7 -10 -24l-264 -299q-10 -16 -29 0l-67 49q-15 9 -9 31z" />
<glyph unicode="&#x13f;" horiz-adv-x="1202" d="M145 33v1521q0 31 31 31h260q31 0 31 -31v-1273h672q30 0 30 -31v-219q0 -31 -30 -31h-963q-31 0 -31 33zM678 764q0 154 172 154q168 0 168 -154q0 -158 -168 -158q-172 0 -172 158z" />
<glyph unicode="&#x140;" horiz-adv-x="882" d="M123 33v1521q0 31 31 31h241q31 0 31 -31v-1521q0 -33 -31 -33h-241q-31 0 -31 33zM547 764q0 154 170 154q168 0 168 -154q0 -158 -168 -158q-170 0 -170 158z" />
<glyph unicode="&#x141;" horiz-adv-x="1247" d="M-16 614q-16 26 10 41l196 113v786q0 31 31 31h260q31 0 31 -31v-602l225 129q32 16 43 -10l37 -65q16 -25 -12 -41l-293 -170v-514h672q30 0 30 -31v-219q0 -31 -30 -31h-963q-31 0 -31 33v575l-129 -73q-29 -19 -38 12z" />
<glyph unicode="&#x142;" horiz-adv-x="667" d="M4 643q-16 26 10 41l144 82v788q0 31 30 31h242q31 0 31 -31v-612l108 62q31 16 43 -11l39 -67q16 -25 -12 -41l-178 -101v-751q0 -33 -31 -33h-242q-30 0 -30 33v575l-78 -45q-30 -20 -39 12z" />
<glyph unicode="&#x143;" horiz-adv-x="1607" d="M145 33v1519q0 33 31 33h203q62 -6 78.5 -15t48.5 -52l635 -928v962q0 33 30 33h261q30 0 30 -33v-1519q0 -33 -30 -33h-191q-66 0 -102 51l-672 985v-1003q0 -33 -31 -33h-260q-31 0 -31 33zM618 1753l150 266q6 13 25 13h297q20 0 20 -21v-14q0 -8 -10 -25l-359 -299 q-12 -9 -28 0l-88 51q-16 13 -7 29z" />
<glyph unicode="&#x144;" horiz-adv-x="1251" d="M121 33v1059q0 9 1.5 14.5t7 8.5t9 4t13.5 3q158 35 489 35q163 0 249 -18.5t144 -71.5q59 -54 81 -144.5t22 -256.5v-633q0 -33 -33 -33h-242q-31 0 -31 33v555q0 130 -6.5 181t-33.5 81q-25 30 -58.5 37.5t-120.5 7.5h-186v-862q0 -33 -31 -33h-243q-31 0 -31 33z M438 1343l150 267q6 12 24 12h299q21 0 21 -20v-15q0 -7 -10 -24l-361 -299q-10 -10 -29 0l-88 51q-15 12 -6 28z" />
<glyph unicode="&#x145;" horiz-adv-x="1607" d="M145 33v1519q0 33 31 33h203q62 -6 78.5 -15t48.5 -52l635 -928v962q0 33 30 33h261q30 0 30 -33v-1519q0 -33 -30 -33h-191q-66 0 -102 51l-672 985v-1003q0 -33 -31 -33h-260q-31 0 -31 33zM539 -334l135 240q6 12 24 12h256q21 0 21 -20v-15q0 -7 -10 -24l-320 -265 q-10 -10 -29 0l-71 44q-15 12 -6 28z" />
<glyph unicode="&#x146;" horiz-adv-x="1251" d="M121 33v1059q0 9 1.5 14.5t7 8.5t9 4t13.5 3q158 35 489 35q163 0 249 -18.5t144 -71.5q59 -54 81 -144.5t22 -256.5v-633q0 -33 -33 -33h-242q-31 0 -31 33v555q0 130 -6.5 181t-33.5 81q-25 30 -58.5 37.5t-120.5 7.5h-186v-862q0 -33 -31 -33h-243q-31 0 -31 33z M334 -334l135 240q6 12 25 12h256q20 0 20 -20v-15q0 -7 -10 -24l-318 -265q-12 -9 -28 0l-74 44q-15 12 -6 28z" />
<glyph unicode="&#x147;" horiz-adv-x="1607" d="M145 33v1519q0 33 31 33h203q62 -6 78.5 -15t48.5 -52l635 -928v962q0 33 30 33h261q30 0 30 -33v-1519q0 -33 -30 -33h-191q-66 0 -102 51l-672 985v-1003q0 -33 -31 -33h-260q-31 0 -31 33zM479 1958q-16 22 6 35l66 32q19 13 35 0l217 -153l217 153q15 15 37 0l63 -32 q22 -16 8 -35l-196 -272q-14 -17 -41 -17h-174q-31 0 -41 17z" />
<glyph unicode="&#x148;" horiz-adv-x="1251" d="M121 33v1059q0 9 1.5 14.5t7 8.5t9 4t13.5 3q158 35 489 35q163 0 249 -18.5t144 -71.5q59 -54 81 -144.5t22 -256.5v-633q0 -33 -33 -33h-242q-31 0 -31 33v555q0 130 -6.5 181t-33.5 81q-25 30 -58.5 37.5t-120.5 7.5h-186v-862q0 -33 -31 -33h-243q-31 0 -31 33z M301 1548q-17 20 6 35l64 33q22 12 37 0l217 -154l217 154q15 12 37 0l63 -33q22 -13 6 -35l-196 -272q-10 -16 -41 -16h-174q-29 0 -39 16z" />
<glyph unicode="&#x149;" horiz-adv-x="1251" d="M-74 1313l60 260q3 18 28 18h271q20 0 20 -20v-15q0 -7 -10 -24l-264 -299q-10 -16 -29 0l-65 49q-17 10 -11 31zM121 33v1059q0 9 1.5 14.5t7 8.5t9 4t13.5 3q158 35 489 35q163 0 249 -18.5t144 -71.5q59 -54 81 -144.5t22 -256.5v-633q0 -33 -33 -33h-242 q-31 0 -31 33v555q0 130 -6.5 181t-33.5 81q-25 30 -58.5 37.5t-120.5 7.5h-186v-862q0 -33 -31 -33h-243q-31 0 -31 33z" />
<glyph unicode="&#x14a;" horiz-adv-x="1605" d="M145 33v1519q0 33 31 33h203q62 -6 78.5 -15t48.5 -52l635 -928v962q0 33 30 33h261q30 0 30 -33v-1187q3 -451 -119 -617q-120 -166 -452 -166q-82 0 -213 23q-45 9 -45 51v178q0 31 31 31h170q157 0 226 56.5t68 189.5l-661 925v-1003q0 -33 -31 -33h-260q-31 0 -31 33 z" />
<glyph unicode="&#x14b;" horiz-adv-x="1251" d="M121 33v1059q0 9 1.5 14.5t7 8.5t9 4t13.5 3q158 35 489 35q163 0 249 -18.5t144 -71.5q59 -54 81 -144.5t22 -256.5v-832q0 -156 -72 -207q-68 -51 -219 -51q-93 0 -168 16q-33 11 -33 41v174q0 33 35 33h51q66 0 83 15.5t17 76.5v656q0 130 -6.5 181t-33.5 81 q-25 30 -58.5 37.5t-120.5 7.5h-186v-862q0 -33 -31 -33h-243q-31 0 -31 33z" />
<glyph unicode="&#x14c;" horiz-adv-x="1519" d="M96 791q0 248 30.5 393.5t106.5 240.5q76 96 198 134t329 38t328.5 -38t197.5 -134q76 -95 106.5 -240.5t30.5 -393.5q0 -467 -137 -635q-138 -166 -526 -166q-389 0 -527 166q-137 168 -137 635zM422 791q0 -305 65 -414q64 -107 273 -107q208 0 272 107q66 111 66 414 q0 306 -66 417q-65 109 -272 109q-208 0 -273 -109t-65 -417zM432 1767v125q0 31 31 31h592q30 0 30 -31v-125q0 -30 -30 -30h-592q-31 0 -31 30z" />
<glyph unicode="&#x14d;" horiz-adv-x="1220" d="M88 573q0 353 102 467q102 117 420 117q170 0 265 -26t155 -93q59 -65 81 -169.5t22 -295.5q0 -351 -103 -469q-102 -114 -420 -114t-420 114q-102 117 -102 469zM283 1358v125q0 30 30 30h594q31 0 31 -30v-125q0 -31 -31 -31h-594q-30 0 -30 31zM393 573 q0 -198 39 -260q40 -61 178 -61t178 61q41 65 41 260q0 196 -41 258q-40 64 -178 64t-178 -64q-39 -59 -39 -258z" />
<glyph unicode="&#x14e;" horiz-adv-x="1519" d="M96 791q0 248 30.5 393.5t106.5 240.5q76 96 198 134t329 38t328.5 -38t197.5 -134q76 -95 106.5 -240.5t30.5 -393.5q0 -467 -137 -635q-138 -166 -526 -166q-389 0 -527 166q-137 168 -137 635zM403 1974q-6 33 29 33h119q26 0 35 -25q26 -57 64 -79.5t110 -22.5 t109.5 22.5t62.5 79.5q9 25 35 25h118q35 0 29 -31q-21 -155 -100 -219q-76 -61 -254 -61q-179 0 -258 61q-78 63 -99 217zM422 791q0 -305 65 -414q64 -107 273 -107q208 0 272 107q66 111 66 414q0 306 -66 417q-65 109 -272 109q-208 0 -273 -109t-65 -417z" />
<glyph unicode="&#x14f;" horiz-adv-x="1220" d="M88 573q0 353 102 467q102 117 420 117q170 0 265 -26t155 -93q59 -65 81 -169.5t22 -295.5q0 -351 -103 -469q-102 -114 -420 -114t-420 114q-102 117 -102 469zM256 1565q-6 32 29 32h118q26 0 35 -24q25 -57 63 -80t111 -23q71 0 108 22.5t64 80.5q9 24 35 24h119 q35 0 29 -30q-23 -158 -100.5 -219.5t-254.5 -61.5q-178 0 -258 62q-77 62 -98 217zM393 573q0 -198 39 -260q40 -61 178 -61t178 61q41 65 41 260q0 196 -41 258q-40 64 -178 64t-178 -64q-39 -59 -39 -258z" />
<glyph unicode="&#x150;" horiz-adv-x="1519" d="M96 791q0 248 30.5 393.5t106.5 240.5q76 96 198 134t329 38t328.5 -38t197.5 -134q76 -95 106.5 -240.5t30.5 -393.5q0 -467 -137 -635q-138 -166 -526 -166q-389 0 -527 166q-137 168 -137 635zM422 791q0 -305 65 -414q64 -107 273 -107q208 0 272 107q66 111 66 414 q0 306 -66 417q-65 109 -272 109q-208 0 -273 -109t-65 -417zM494 1753l149 266q7 13 25 13h196q21 0 21 -21v-14q0 -14 -11 -25l-301 -282q-12 -12 -28 0l-45 34q-16 13 -6 29zM874 1753l150 266q6 13 25 13h198q21 0 21 -21v-14q0 -14 -11 -25l-301 -282q-12 -12 -28 0 l-47 34q-16 13 -7 29z" />
<glyph unicode="&#x151;" horiz-adv-x="1220" d="M88 573q0 353 102 467q102 117 420 117q170 0 265 -26t155 -93q59 -65 81 -169.5t22 -295.5q0 -351 -103 -469q-102 -114 -420 -114t-420 114q-102 117 -102 469zM336 1343l149 267q6 12 25 12h199q20 0 20 -20v-15q0 -14 -10 -24l-301 -283q-13 -13 -29 0l-47 35 q-15 12 -6 28zM393 573q0 -198 39 -260q40 -61 178 -61t178 61q41 65 41 260q0 196 -41 258q-40 64 -178 64t-178 -64q-39 -59 -39 -258zM719 1343l149 267q6 12 25 12h199q20 0 20 -20v-15q0 -14 -10 -24l-301 -283q-13 -13 -29 0l-47 35q-15 12 -6 28z" />
<glyph unicode="&#x152;" horiz-adv-x="2187" d="M96 791q0 473 137 641t527 165l717 -12h585q31 0 31 -31v-219q0 -30 -31 -30h-719v-387h656q33 0 33 -31v-209q0 -31 -33 -31h-656v-366h719q31 0 31 -31v-219q0 -31 -31 -31l-1302 -10q-268 -3 -406 69q-141 74 -200 244q-58 168 -58 488zM422 791q0 -305 65 -414 q64 -107 273 -107h260v1047h-260q-208 0 -273 -109t-65 -417z" />
<glyph unicode="&#x153;" horiz-adv-x="1918" d="M88 573q0 353 102 467q102 117 420 117q263 0 373 -98q107 98 363 98q303 0 401 -113q99 -111 102 -456v-64q0 -31 -13.5 -43t-51.5 -12h-643q3 -136 49 -176q47 -41 184 -41h363q30 0 30 -31v-170q0 -30 -28 -33q-146 -28 -393 -28q-257 0 -363 100q-106 -100 -373 -100 q-318 0 -420 114q-102 117 -102 469zM393 573q0 -198 39 -260q40 -61 178 -61t178 61q41 65 41 260q0 196 -41 258q-40 64 -178 64t-178 -64q-39 -59 -39 -258zM1139 668h405q0 133 -41 180t-157 47q-118 0 -162 -47t-45 -180z" />
<glyph unicode="&#x154;" horiz-adv-x="1417" d="M145 33v1513q0 17 6 22t25 7q261 22 545 22q342 0 469 -112q131 -110 131 -414q0 -231 -70 -338q-71 -105 -243 -139l348 -553q12 -17 5 -29t-30 -12h-258q-31 0 -47.5 9.5t-34.5 35.5l-336 528h-188v-540q0 -20 -6 -26.5t-25 -6.5h-260q-19 0 -25 6.5t-6 26.5zM467 821 h221q190 0 248 43q59 47 59 199q0 154 -61 203q-60 51 -246 51h-221v-496zM535 1753l149 266q6 13 25 13h297q20 0 20 -21v-14q0 -8 -10 -25l-359 -299q-12 -9 -28 0l-88 51q-16 13 -6 29z" />
<glyph unicode="&#x155;" horiz-adv-x="821" d="M119 33v835q0 141 76 213q53 44 124.5 60t169.5 16q169 0 273 -22q33 -9 33 -41v-168q0 -31 -35 -31h-193q-85 0 -114 -20.5t-29 -83.5v-758q0 -33 -31 -33h-243q-31 0 -31 33zM301 1343l150 267q6 12 24 12h297q21 0 21 -20v-15q0 -13 -11 -24l-358 -299q-13 -10 -29 0 l-88 51q-15 12 -6 28z" />
<glyph unicode="&#x156;" horiz-adv-x="1417" d="M145 33v1513q0 17 6 22t25 7q261 22 545 22q342 0 469 -112q131 -110 131 -414q0 -231 -70 -338q-71 -105 -243 -139l348 -553q12 -17 5 -29t-30 -12h-258q-31 0 -47.5 9.5t-34.5 35.5l-336 528h-188v-540q0 -20 -6 -26.5t-25 -6.5h-260q-19 0 -25 6.5t-6 26.5zM465 -334 l135 240q6 12 25 12h256q20 0 20 -20v-15q0 -7 -10 -24l-318 -265q-12 -9 -28 0l-74 44q-15 12 -6 28zM467 821h221q190 0 248 43q59 47 59 199q0 154 -61 203q-60 51 -246 51h-221v-496z" />
<glyph unicode="&#x157;" horiz-adv-x="821" d="M-20 -334l135 240q6 12 24 12h256q21 0 21 -20v-15q0 -7 -10 -24l-318 -265q-13 -10 -29 0l-73 44q-15 12 -6 28zM119 33v835q0 141 76 213q53 44 124.5 60t169.5 16q169 0 273 -22q33 -9 33 -41v-168q0 -31 -35 -31h-193q-85 0 -114 -20.5t-29 -83.5v-758q0 -33 -31 -33 h-243q-31 0 -31 33z" />
<glyph unicode="&#x158;" horiz-adv-x="1417" d="M145 33v1513q0 17 6 22t25 7q261 22 545 22q342 0 469 -112q131 -110 131 -414q0 -231 -70 -338q-71 -105 -243 -139l348 -553q12 -17 5 -29t-30 -12h-258q-31 0 -47.5 9.5t-34.5 35.5l-336 528h-188v-540q0 -20 -6 -26.5t-25 -6.5h-260q-19 0 -25 6.5t-6 26.5zM379 1958 q-16 23 8 35l64 32q19 12 34 0l220 -153l217 153q15 12 34 0l64 -32q22 -16 8 -35l-197 -272q-14 -17 -40 -17h-175q-31 0 -41 17zM467 821h221q190 0 248 43q59 47 59 199q0 154 -61 203q-60 51 -246 51h-221v-496z" />
<glyph unicode="&#x159;" horiz-adv-x="821" d="M90 1548q-16 22 6 35l66 33q19 13 35 0l217 -154l217 154q18 12 37 0l63 -33q22 -16 8 -35l-196 -272q-13 -16 -41 -16h-174q-31 0 -41 16zM119 33v835q0 141 76 213q53 44 124.5 60t169.5 16q169 0 273 -22q33 -9 33 -41v-168q0 -31 -35 -31h-193q-85 0 -114 -20.5 t-29 -83.5v-758q0 -33 -31 -33h-243q-31 0 -31 33z" />
<glyph unicode="&#x15a;" horiz-adv-x="1280" d="M82 78v155q0 37 39 37h581q187 0 187 127v27q0 65 -32.5 102t-115.5 68l-399 149q-130 50 -187 146t-57 272v45q0 212 138.5 301.5t435.5 89.5q197 0 428 -41q37 -12 37 -36v-166q0 -37 -39 -37h-486q-188 0 -188 -133v-29q0 -107 121 -154l383 -149q153 -62 219 -152 q65 -89 65 -260v-57q0 -209 -146 -301t-443 -92q-239 0 -506 43q-35 9 -35 45zM485 1753l150 266q7 13 24 13h297q21 0 21 -21v-14q0 -15 -10 -25l-359 -299q-9 -9 -28 0l-88 51q-16 13 -7 29z" />
<glyph unicode="&#x15b;" horiz-adv-x="1036" d="M74 41v166q0 31 35 31h419q83 0 112.5 14t29.5 55v19q0 31 -24 52t-89 44l-252 90q-209 71 -209 311v39q0 155 114.5 225t350.5 70q171 0 324 -27q33 -9 33 -32v-156q0 -33 -35 -33h-369q-121 0 -121 -73v-21q0 -59 99 -94l262 -92q119 -41 167 -114t48 -193v-33 q0 -162 -107.5 -230.5t-329.5 -68.5q-236 0 -423 20q-35 0 -35 31zM385 1343l150 267q6 12 24 12h297q21 0 21 -20v-15q0 -13 -11 -24l-358 -299q-13 -10 -29 0l-88 51q-15 12 -6 28z" />
<glyph unicode="&#x15c;" horiz-adv-x="1280" d="M82 78v155q0 37 39 37h581q187 0 187 127v27q0 65 -32.5 102t-115.5 68l-399 149q-130 50 -187 146t-57 272v45q0 212 138.5 301.5t435.5 89.5q197 0 428 -41q37 -12 37 -36v-166q0 -37 -39 -37h-486q-188 0 -188 -133v-29q0 -107 121 -154l383 -149q153 -62 219 -152 q65 -89 65 -260v-57q0 -209 -146 -301t-443 -92q-239 0 -506 43q-35 9 -35 45zM315 1743l197 272q10 17 41 17h174q27 0 41 -17l195 -272q17 -20 -7 -35l-63 -33q-22 -15 -37 0l-217 154l-217 -154q-16 -13 -35 0l-65 33q-23 13 -7 35z" />
<glyph unicode="&#x15d;" horiz-adv-x="1036" d="M74 41v166q0 31 35 31h419q83 0 112.5 14t29.5 55v19q0 31 -24 52t-89 44l-252 90q-209 71 -209 311v39q0 155 114.5 225t350.5 70q171 0 324 -27q33 -9 33 -32v-156q0 -33 -35 -33h-369q-121 0 -121 -73v-21q0 -59 99 -94l262 -92q119 -41 167 -114t48 -193v-33 q0 -162 -107.5 -230.5t-329.5 -68.5q-236 0 -423 20q-35 0 -35 31zM209 1333l197 273q10 16 40 16h172q31 0 41 -16l197 -273q16 -22 -6 -35l-64 -32q-21 -12 -36 0l-218 153l-217 -153q-15 -12 -36 0l-64 32q-22 13 -6 35z" />
<glyph unicode="&#x15e;" horiz-adv-x="1280" d="M82 78v155q0 37 39 37h581q187 0 187 127v27q0 65 -32.5 102t-115.5 68l-399 149q-130 50 -187 146t-57 272v45q0 212 138.5 301.5t435.5 89.5q179 0 428 -41q37 -12 37 -36v-166q0 -37 -39 -37h-486q-188 0 -188 -133v-29q0 -107 121 -154l383 -149q153 -62 219 -152 q65 -89 65 -260v-57q0 -174 -100.5 -266t-302.5 -117q35 -113 35 -203q0 -84 -52 -121.5t-163 -37.5q-121 0 -164 16q-25 9 -25 37v125q0 28 29 28h74q64 0 85 9t27 45q0 20 -10 92h-22q-239 0 -506 43q-35 9 -35 45z" />
<glyph unicode="&#x15f;" horiz-adv-x="1036" d="M74 41v166q0 31 35 31h419q83 0 112.5 14t29.5 55v19q0 31 -24 52t-89 44l-252 90q-209 71 -209 311v39q0 155 114.5 225t350.5 70q171 0 324 -27q33 -9 33 -32v-156q0 -33 -35 -33h-369q-121 0 -121 -73v-21q0 -59 99 -94l262 -92q119 -41 167 -114t48 -193v-33 q0 -128 -67.5 -197t-201.5 -90q37 -118 37 -205q0 -84 -52 -121.5t-163 -37.5q-121 0 -164 16q-24 9 -24 37v125q0 28 28 28h74q64 0 85.5 9t27.5 45q0 24 -10 92h-7q-236 0 -423 20q-35 0 -35 31z" />
<glyph unicode="&#x160;" horiz-adv-x="1280" d="M82 78v155q0 37 39 37h581q187 0 187 127v27q0 65 -32.5 102t-115.5 68l-399 149q-130 50 -187 146t-57 272v45q0 212 138.5 301.5t435.5 89.5q197 0 428 -41q37 -12 37 -36v-166q0 -37 -39 -37h-486q-188 0 -188 -133v-29q0 -107 121 -154l383 -149q153 -62 219 -152 q65 -89 65 -260v-57q0 -209 -146 -301t-443 -92q-239 0 -506 43q-35 9 -35 45zM315 1958q-16 22 7 35l65 32q19 13 35 0l217 -153l217 153q15 15 37 0l63 -32q24 -15 7 -35l-195 -272q-14 -17 -41 -17h-174q-31 0 -41 17z" />
<glyph unicode="&#x161;" horiz-adv-x="1036" d="M74 41v166q0 31 35 31h419q83 0 112.5 14t29.5 55v19q0 31 -24 52t-89 44l-252 90q-209 71 -209 311v39q0 155 114.5 225t350.5 70q171 0 324 -27q33 -9 33 -32v-156q0 -33 -35 -33h-369q-121 0 -121 -73v-21q0 -59 99 -94l262 -92q119 -41 167 -114t48 -193v-33 q0 -162 -107.5 -230.5t-329.5 -68.5q-236 0 -423 20q-35 0 -35 31zM209 1548q-16 22 6 35l64 33q21 12 36 0l217 -154l218 154q15 12 36 0l64 -33q22 -13 6 -35l-197 -272q-10 -16 -41 -16h-172q-30 0 -40 16z" />
<glyph unicode="&#x162;" horiz-adv-x="1306" d="M33 1335v219q0 31 30 31h1178q33 0 33 -31v-219q0 -30 -33 -30h-428v-1272q41 -152 41 -236t-52 -121.5t-163 -37.5q-119 0 -162 16q-24 9 -24 37v125q0 28 28 28h72q65 0 85.5 8.5t27.5 45.5q0 29 -13 102h-131q-30 0 -30 33v1272h-429q-30 0 -30 30z" />
<glyph unicode="&#x163;" horiz-adv-x="778" d="M41 946v164q0 31 33 31h121v227q0 27 28 33l242 63q33 9 33 -30v-293h188q35 0 35 -31v-164q0 -31 -35 -31h-188v-559q0 -62 25 -83t95 -21h84q35 0 35 -31v-174q0 -33 -32 -39q-79 -15 -138 -18q35 -119 35 -193q0 -84 -52 -121.5t-165 -37.5q-119 0 -162 16 q-24 9 -24 37v125q0 28 28 28h72q65 0 85.5 8.5t27.5 45.5q0 19 -11 98q-105 11 -155.5 69.5t-50.5 188.5v661h-121q-33 0 -33 31z" />
<glyph unicode="&#x164;" horiz-adv-x="1306" d="M33 1335v219q0 31 30 31h1178q33 0 33 -31v-219q0 -30 -33 -30h-428v-1272q0 -33 -31 -33h-260q-30 0 -30 33v1272h-429q-30 0 -30 30zM328 1958q-16 23 8 35l63 32q19 13 35 0l219 -153l217 153q16 13 35 0l64 -32q22 -16 8 -35l-197 -272q-14 -17 -41 -17h-174 q-31 0 -41 17z" />
<glyph unicode="&#x165;" horiz-adv-x="823" d="M41 946v164q0 31 33 31h121v227q0 27 28 33l242 63q33 9 33 -30v-293h188q35 0 35 -31v-164q0 -31 -35 -31h-188v-559q0 -62 25 -83t95 -21h84q35 0 35 -31v-174q0 -33 -32 -39q-91 -18 -175 -18q-75 0 -110 3t-82 15q-73 20 -105 75t-38 171v661h-121q-33 0 -33 31z M647 1313l60 260q3 18 28 18h271q20 0 20 -20v-15q0 -14 -10 -24l-262 -281q-15 -15 -31 -2l-66 33q-13 8 -10 31z" />
<glyph unicode="&#x166;" horiz-adv-x="1343" d="M51 1335v219q0 31 31 31h1178q32 0 32 -31v-219q0 -30 -32 -30h-429v-431h299q31 0 31 -30v-119q0 -31 -31 -31h-299v-661q0 -33 -30 -33h-260q-31 0 -31 33v661h-297q-31 0 -31 31v119q0 30 31 30h297v431h-428q-31 0 -31 30z" />
<glyph unicode="&#x167;" horiz-adv-x="778" d="M41 946v164q0 31 33 31h121v227q0 27 28 33l242 63q33 9 33 -30v-293h188q35 0 35 -31v-164q0 -31 -35 -31h-188v-213h139q31 0 31 -30v-105q0 -30 -31 -30h-139v-181q0 -62 25 -83t95 -21h84q35 0 35 -31v-174q0 -33 -32 -39q-91 -18 -175 -18q-75 0 -110 3t-82 15 q-73 20 -105 75t-38 171v283h-72q-31 0 -31 30v105q0 30 31 30h72v213h-121q-33 0 -33 31z" />
<glyph unicode="&#x168;" horiz-adv-x="1562" d="M133 791v763q0 31 31 31h260q31 0 31 -31v-763q0 -310 65 -416q64 -105 262 -105q196 0 260 105q66 107 66 416v763q0 31 31 31h260q31 0 31 -31v-763q0 -377 -78 -560q-67 -136 -196 -187t-374 -54q-207 0 -326 35.5t-192 126.5q-73 92 -102 238.5t-29 400.5zM408 1763 q38 141 79 187q46 49 136 49q56 0 159 -41q101 -39 133 -39q35 0 54.5 14.5t36.5 53.5q13 28 38 20l89 -25q28 -9 20 -40q-35 -139 -79.5 -188.5t-135.5 -49.5q-61 0 -162 39q-103 41 -131 41q-34 0 -52.5 -14.5t-37.5 -53.5q-13 -29 -37 -20l-88 24q-28 9 -22 43z" />
<glyph unicode="&#x169;" horiz-adv-x="1249" d="M115 483v633q0 31 32 31h242q29 0 29 -31v-555q0 -151 18 -215q18 -60 57 -77t146 -17h184v864q0 31 31 31h246q28 0 28 -31v-1057q0 -18 -5 -23.5t-23 -10.5q-184 -35 -492 -35q-162 0 -248 18.5t-145 71.5q-58 54 -79 144.5t-21 258.5zM231 1354q37 137 80 186 q46 49 135 49q57 0 160 -41q101 -39 133 -39q35 0 54 14.5t38 53.5q10 29 37 20l88 -24q29 -10 21 -41q-35 -139 -79.5 -188.5t-135.5 -49.5q-62 0 -160 39q-103 41 -131 41q-35 0 -54 -14t-38 -53q-13 -30 -37 -21l-88 25q-29 10 -23 43z" />
<glyph unicode="&#x16a;" horiz-adv-x="1562" d="M133 791v763q0 31 31 31h260q31 0 31 -31v-763q0 -310 65 -416q64 -105 262 -105q196 0 260 105q66 107 66 416v763q0 31 31 31h260q31 0 31 -31v-763q0 -377 -78 -560q-67 -136 -196 -187t-374 -54q-207 0 -326 35.5t-192 126.5q-73 92 -102 238.5t-29 400.5zM455 1767 v125q0 31 30 31h592q31 0 31 -31v-125q0 -30 -31 -30h-592q-30 0 -30 30z" />
<glyph unicode="&#x16b;" horiz-adv-x="1249" d="M115 483v633q0 31 32 31h242q29 0 29 -31v-555q0 -151 18 -215q18 -60 57 -77t146 -17h184v864q0 31 31 31h246q28 0 28 -31v-1057q0 -18 -5 -23.5t-23 -10.5q-184 -35 -492 -35q-162 0 -248 18.5t-145 71.5q-58 54 -79 144.5t-21 258.5zM279 1358v125q0 30 30 30h592 q31 0 31 -30v-125q0 -31 -31 -31h-592q-30 0 -30 31z" />
<glyph unicode="&#x16c;" horiz-adv-x="1562" d="M133 791v763q0 31 31 31h260q31 0 31 -31v-763q0 -310 65 -416q64 -105 262 -105q196 0 260 105q66 107 66 416v763q0 31 31 31h260q31 0 31 -31v-763q0 -377 -78 -560q-67 -136 -196 -187t-374 -54q-207 0 -326 35.5t-192 126.5q-73 92 -102 238.5t-29 400.5zM426 1974 q-6 33 29 33h118q26 0 35 -25q25 -57 63 -79.5t111 -22.5q71 0 108.5 22.5t63.5 79.5q9 25 35 25h119q35 0 29 -31q-21 -155 -101 -219q-76 -61 -254 -61q-179 0 -258 61q-77 62 -98 217z" />
<glyph unicode="&#x16d;" horiz-adv-x="1249" d="M115 483v633q0 31 32 31h242q29 0 29 -31v-555q0 -151 18 -215q18 -60 57 -77t146 -17h184v864q0 31 31 31h246q28 0 28 -31v-1057q0 -18 -5 -23.5t-23 -10.5q-184 -35 -492 -35q-162 0 -248 18.5t-145 71.5q-58 54 -79 144.5t-21 258.5zM250 1565q-6 32 29 32h118 q26 0 35 -24q25 -57 63 -80t111 -23q71 0 108 22.5t64 80.5q9 24 35 24h119q35 0 29 -30q-21 -155 -101 -219q-77 -62 -254 -62q-178 0 -258 62q-77 62 -98 217z" />
<glyph unicode="&#x16e;" horiz-adv-x="1562" d="M133 791v763q0 31 31 31h260q31 0 31 -31v-763q0 -310 65 -416q64 -105 262 -105q196 0 260 105q66 107 66 416v763q0 31 31 31h260q31 0 31 -31v-763q0 -377 -78 -560q-67 -136 -196 -187t-374 -54q-207 0 -326 35.5t-192 126.5q-73 92 -102 238.5t-29 400.5zM543 1894 q0 230 239 230q238 0 238 -230q0 -229 -238 -229q-239 0 -239 229zM655 1894q0 -127 127 -127t127 127t-127 127t-127 -127z" />
<glyph unicode="&#x16f;" horiz-adv-x="1249" d="M115 483v633q0 31 32 31h242q29 0 29 -31v-555q0 -151 18 -215q18 -60 57 -77t146 -17h184v864q0 31 31 31h246q28 0 28 -31v-1057q0 -18 -5 -23.5t-23 -10.5q-184 -35 -492 -35q-162 0 -248 18.5t-145 71.5q-58 54 -79 144.5t-21 258.5zM367 1485q0 229 239 229 q240 0 240 -229q0 -230 -240 -230q-239 0 -239 230zM479 1485q0 -127 127 -127t127 127t-127 127t-127 -127z" />
<glyph unicode="&#x170;" horiz-adv-x="1562" d="M133 791v763q0 31 31 31h260q31 0 31 -31v-763q0 -310 65 -416q64 -105 262 -105q196 0 260 105q66 107 66 416v763q0 31 31 31h260q31 0 31 -31v-763q0 -377 -78 -560q-67 -136 -196 -187t-374 -54q-207 0 -326 35.5t-192 126.5q-73 92 -102 238.5t-29 400.5zM457 1753 l149 266q6 13 25 13h198q21 0 21 -21v-14q0 -15 -10 -25l-301 -282q-13 -13 -29 0l-47 34q-16 13 -6 29zM840 1753l149 266q7 13 25 13h198q21 0 21 -21v-14q0 -15 -10 -25l-301 -282q-13 -13 -29 0l-47 34q-16 13 -6 29z" />
<glyph unicode="&#x171;" horiz-adv-x="1249" d="M115 483v633q0 31 32 31h242q29 0 29 -31v-555q0 -151 18 -215q18 -60 57 -77t146 -17h184v864q0 31 31 31h246q28 0 28 -31v-1057q0 -18 -5 -23.5t-23 -10.5q-184 -35 -492 -35q-162 0 -248 18.5t-145 71.5q-58 54 -79 144.5t-21 258.5zM313 1343l150 267q6 12 24 12 h197q21 0 21 -20v-15q0 -13 -11 -24l-299 -283q-12 -12 -28 0l-48 35q-15 12 -6 28zM696 1343l150 267q6 12 24 12h199q21 0 21 -20v-15q0 -6 -11 -24l-303 -283q-12 -12 -28 0l-46 35q-15 12 -6 28z" />
<glyph unicode="&#x172;" horiz-adv-x="1562" d="M133 791v763q0 31 31 31h260q31 0 31 -31v-763q0 -310 65 -416q64 -105 262 -105q196 0 260 105q66 107 66 416v763q0 31 31 31h260q31 0 31 -31v-763q0 -452 -113 -617q-110 -165 -434 -180q-11 -64 -11 -96q0 -35 23 -44.5t90 -9.5h72q28 0 28 -28v-125q0 -28 -24 -37 q-43 -16 -164 -16q-111 0 -163 37.5t-52 121.5q0 83 33 195q-345 9 -465 172q-117 166 -117 627z" />
<glyph unicode="&#x173;" horiz-adv-x="1249" d="M115 483v633q0 31 32 31h242q29 0 29 -31v-555q0 -151 18 -215q18 -60 57 -77t146 -17h184v864q0 31 31 31h246q28 0 28 -31v-1057q0 -18 -5 -23.5t-23 -10.5q-89 -15 -156 -21q-14 -52 -14 -106q0 -35 22.5 -44.5t89.5 -9.5h74q27 0 27 -28v-125q0 -28 -25 -37 q-43 -16 -162 -16q-111 0 -163 37.5t-52 121.5q0 97 33 195q-39 -2 -166 -2q-162 0 -248 18.5t-145 71.5q-58 54 -79 144.5t-21 258.5z" />
<glyph unicode="&#x174;" horiz-adv-x="2254" d="M49 1552q-6 33 27 33h272q23 0 29 -33l219 -1173q7 -38 16.5 -50t30.5 -12q24 0 33 11t20 51l269 1118q9 33 43 33h241q32 0 41 -33l271 -1118q11 -40 19 -51t32 -11q20 0 30 12.5t17 49.5l219 1173q4 20 10.5 26.5t20.5 6.5h270q35 0 29 -33l-256 -1319 q-29 -160 -84 -202q-53 -41 -221 -41q-193 0 -244 39q-52 40 -92 204l-183 775l-184 -775q-14 -52 -20.5 -76t-21 -56t-20.5 -43t-28.5 -27.5t-36 -19.5t-52 -9.5t-66.5 -7.5t-89 -4q-170 0 -223 41q-49 38 -84 202zM803 1743l196 272q14 17 41 17h174q27 0 41 -17l197 -272 q14 -19 -8 -35l-64 -33q-19 -12 -34 0l-218 154l-219 -154q-16 -13 -35 0l-63 33q-24 12 -8 35z" />
<glyph unicode="&#x175;" horiz-adv-x="1810" d="M49 1118q-6 29 25 29h260q16 0 22 -29l142 -835q6 -24 12 -31.5t20 -7.5q17 0 23 6.5t10 32.5l191 800q10 29 32 29h240q25 0 31 -29l190 -800q6 -27 11 -33t22 -6q14 0 21.5 7.5t13.5 31.5l141 835q6 29 23 29h260q27 0 24 -29l-176 -923q-24 -132 -80 -170 q-53 -35 -200 -35q-177 0 -224 33q-47 35 -77 172l-101 454l-100 -454q-27 -136 -78 -172q-44 -33 -221 -33q-147 0 -203 35q-53 38 -80 170zM582 1333l196 273q10 16 41 16h172q31 0 41 -16l197 -273q16 -22 -6 -35l-64 -32q-22 -12 -37 0l-217 153l-217 -153 q-15 -12 -37 0l-63 32q-22 13 -6 35z" />
<glyph unicode="&#x176;" horiz-adv-x="1460" d="M6 1540q-23 45 23 45h288q36 0 56 -33l356 -721l358 721q17 33 56 33h289q45 0 22 -45l-563 -1032v-475q0 -33 -31 -33h-260q-31 0 -31 33v479zM406 1743l196 272q14 17 41 17h174q27 0 41 -17l197 -272q16 -23 -8 -35l-64 -33q-19 -13 -35 0l-217 154l-219 -154 q-16 -13 -35 0l-63 33q-22 16 -8 35z" />
<glyph unicode="&#x177;" horiz-adv-x="1273" d="M113 518v598q0 31 30 31h244q31 0 31 -31v-541q0 -200 45 -260q46 -61 201 -61q112 0 182 12v850q0 31 31 31h243q31 0 31 -31v-1091q0 -105 -10.5 -169.5t-40.5 -119.5q-40 -83 -148 -121.5t-303 -38.5q-209 0 -385 29q-28 3 -28 33v155q0 31 28 31h359q133 0 178 36.5 t45 139.5v12q-126 -22 -250 -22q-277 0 -381 116q-102 120 -102 412zM309 1333l197 273q10 16 41 16h174q28 0 41 -16l196 -273q14 -19 -8 -35l-63 -32q-19 -12 -37 0l-215 153l-219 -153q-16 -13 -35 0l-66 32q-22 13 -6 35z" />
<glyph unicode="&#x178;" horiz-adv-x="1460" d="M6 1540q-23 45 23 45h288q36 0 56 -33l356 -721l358 721q17 33 56 33h289q45 0 22 -45l-563 -1032v-475q0 -33 -31 -33h-260q-31 0 -31 33v479zM346 1849q0 72 41 111t119 39q156 0 156 -150q0 -151 -156 -151q-160 0 -160 151zM799 1849q0 72 40.5 111t118.5 39 q75 0 116.5 -39t41.5 -111t-41.5 -111.5t-116.5 -39.5q-159 0 -159 151z" />
<glyph unicode="&#x179;" horiz-adv-x="1409" d="M61 227q0 23 15 41l823 1037h-780q-33 0 -33 30l-2 219q0 31 33 31h1177q31 0 31 -31v-198q0 -27 -14 -41l-824 -1034h824q32 0 32 -31v-217q0 -33 -32 -33h-1217q-31 0 -31 33zM518 1753l150 266q6 13 24 13h297q21 0 21 -21v-14q0 -14 -11 -25l-358 -299q-13 -10 -29 0 l-88 51q-16 13 -6 29z" />
<glyph unicode="&#x17a;" horiz-adv-x="1110" d="M61 33v133q0 18 15 39l520 686h-475q-35 0 -35 31v194q0 31 35 31h864q35 0 35 -31v-139q0 -19 -14 -39l-504 -676h510q35 0 35 -31v-198q0 -33 -35 -33h-914q-37 0 -37 33zM371 1343l149 267q6 12 25 12h297q20 0 20 -20v-15q0 -7 -10 -24l-358 -299q-13 -10 -29 0 l-88 51q-15 12 -6 28z" />
<glyph unicode="&#x17b;" horiz-adv-x="1409" d="M61 227q0 23 15 41l823 1037h-780q-33 0 -33 30l-2 219q0 31 33 31h1177q31 0 31 -31v-198q0 -27 -14 -41l-824 -1034h824q32 0 32 -31v-217q0 -33 -32 -33h-1217q-31 0 -31 33zM532 1849q0 154 173 154q167 0 167 -154q0 -155 -167 -155q-173 0 -173 155z" />
<glyph unicode="&#x17c;" horiz-adv-x="1110" d="M61 33v133q0 18 15 39l520 686h-475q-35 0 -35 31v194q0 31 35 31h864q35 0 35 -31v-139q0 -19 -14 -39l-504 -676h510q35 0 35 -31v-198q0 -33 -35 -33h-914q-37 0 -37 33zM385 1440q0 153 172 153q168 0 168 -153q0 -156 -168 -156q-172 0 -172 156z" />
<glyph unicode="&#x17d;" horiz-adv-x="1409" d="M61 227q0 23 15 41l823 1037h-780q-33 0 -33 30l-2 219q0 31 33 31h1177q31 0 31 -31v-198q0 -27 -14 -41l-824 -1034h824q32 0 32 -31v-217q0 -33 -32 -33h-1217q-31 0 -31 33zM379 1958q-16 23 8 35l64 32q19 12 34 0l220 -153l217 153q15 12 34 0l64 -32q22 -16 8 -35 l-197 -272q-14 -17 -40 -17h-175q-27 0 -41 17z" />
<glyph unicode="&#x17e;" horiz-adv-x="1110" d="M61 33v133q0 18 15 39l520 686h-475q-35 0 -35 31v194q0 31 35 31h864q35 0 35 -31v-139q0 -19 -14 -39l-504 -676h510q35 0 35 -31v-198q0 -33 -35 -33h-914q-37 0 -37 33zM231 1548q-16 22 7 35l65 33q19 13 35 0l219 -154l215 154q18 12 37 0l63 -33q23 -16 9 -35 l-197 -272q-13 -16 -41 -16h-174q-31 0 -41 16z" />
<glyph unicode="&#x192;" horiz-adv-x="1239" d="M86 59l25 170q2 14 6.5 18.5t21.5 4.5h162q65 0 97 20t38 70l62 434h-125q-35 0 -35 41v166q0 29 31 29h161l43 303q24 183 142 237q58 25 110.5 34t135.5 9q115 0 217 -24q45 -3 39 -45l-23 -164q-6 -29 -37 -29h-153q-67 0 -99 -19.5t-39 -68.5l-30 -233h225 q31 0 31 -31v-174q0 -31 -31 -31h-258l-72 -506q-20 -145 -100 -211q-41 -32 -86 -45q-47 -16 -88 -20t-113 -4q-115 0 -217 24q-44 3 -41 45z" />
<glyph unicode="&#x1cd;" horiz-adv-x="1456" d="M18 33l367 1319q46 165 102 204q59 41 238 41q187 0 246 -41q56 -39 102 -204l361 -1319q6 -33 -27 -33h-262q-12 0 -17.5 6.5t-9.5 26.5l-117 426h-548l-119 -426q-5 -20 -10.5 -26.5t-18.5 -6.5h-260q-33 0 -27 33zM401 1958q-16 22 7 35l63 32q22 12 37 0l217 -153 l217 153q15 12 37 0l63 -32q23 -13 7 -35l-197 -272q-10 -17 -41 -17h-172q-31 0 -41 17zM524 725h404l-146 543q-11 40 -20 49.5t-39 9.5q-24 0 -31 -9t-20 -50z" />
<glyph unicode="&#x1ce;" horiz-adv-x="1157" d="M59 344q3 196 101 266q101 70 319 70h260v74q0 141 -192 141h-371q-17 0 -23 6t-6 25v168q0 16 5.5 21.5t23.5 10.5q161 31 371 31q285 0 391 -86q104 -85 104 -266v-709q0 -48 -45 -63q-185 -43 -465 -43q-137 0 -210 10.5t-138 44.5q-65 36 -94 107.5t-31 191.5z M248 1548q-16 23 8 35l63 33q19 13 35 0l219 -154l218 154q15 12 34 0l64 -33q22 -16 8 -35l-197 -272q-13 -16 -41 -16h-174q-28 0 -41 16zM360 360q0 -71 38 -97.5t137 -26.5q134 0 204 20v227h-235q-79 0 -111.5 -27.5t-32.5 -95.5z" />
<glyph unicode="&#x1cf;" horiz-adv-x="612" d="M-20 1958q-16 23 8 35l63 32q19 13 35 0l219 -153l217 153q16 13 35 0l64 -32q22 -16 8 -35l-197 -272q-14 -17 -41 -17h-174q-27 0 -41 17zM145 33v1519q0 33 31 33h260q31 0 31 -33v-1519q0 -33 -31 -33h-260q-31 0 -31 33z" />
<glyph unicode="&#x1d0;" horiz-adv-x="548" d="M-49 1548q-16 22 6 35l63 33q22 12 37 0l217 -154l218 154q15 12 36 0l64 -33q22 -13 6 -35l-197 -272q-10 -16 -41 -16h-172q-31 0 -41 16zM123 33v1083q0 31 31 31h241q31 0 31 -31v-1083q0 -33 -31 -33h-241q-31 0 -31 33z" />
<glyph unicode="&#x1d1;" horiz-adv-x="1519" d="M96 791q0 248 30.5 393.5t106.5 240.5q76 96 198 134t329 38t328.5 -38t197.5 -134q76 -95 106.5 -240.5t30.5 -393.5q0 -467 -137 -635q-138 -166 -526 -166q-389 0 -527 166q-137 168 -137 635zM422 791q0 -305 65 -414q64 -107 273 -107q208 0 272 107q66 111 66 414 q0 306 -66 417q-65 109 -272 109q-208 0 -273 -109t-65 -417zM434 1958q-14 19 8 35l64 32q19 13 35 0l219 -153l217 153q16 13 35 0l63 -32q24 -12 8 -35l-196 -272q-14 -17 -41 -17h-174q-27 0 -41 17z" />
<glyph unicode="&#x1d2;" horiz-adv-x="1220" d="M88 573q0 353 102 467q102 117 420 117q170 0 265 -26t155 -93q59 -65 81 -169.5t22 -295.5q0 -351 -103 -469q-102 -114 -420 -114t-420 114q-102 117 -102 469zM287 1548q-16 22 6 35l65 33q19 13 35 0l219 -154l215 154q19 12 37 0l64 -33q22 -16 8 -35l-197 -272 q-13 -16 -41 -16h-174q-31 0 -41 16zM393 573q0 -198 39 -260q40 -61 178 -61t178 61q41 65 41 260q0 196 -41 258q-40 64 -178 64t-178 -64q-39 -59 -39 -258z" />
<glyph unicode="&#x1d3;" horiz-adv-x="1562" d="M133 791v763q0 31 31 31h260q31 0 31 -31v-763q0 -310 65 -416q64 -105 262 -105q196 0 260 105q66 107 66 416v763q0 31 31 31h260q31 0 31 -31v-763q0 -377 -78 -560q-67 -136 -196 -187t-374 -54q-207 0 -326 35.5t-192 126.5q-73 92 -102 238.5t-29 400.5zM457 1958 q-16 23 8 35l63 32q19 13 35 0l219 -153l217 153q16 13 35 0l64 -32q22 -16 8 -35l-197 -272q-14 -17 -41 -17h-174q-31 0 -41 17z" />
<glyph unicode="&#x1d4;" horiz-adv-x="1249" d="M115 483v633q0 31 32 31h242q29 0 29 -31v-555q0 -151 18 -215q18 -60 57 -77t146 -17h184v864q0 31 31 31h246q28 0 28 -31v-1057q0 -18 -5 -23.5t-23 -10.5q-184 -35 -492 -35q-162 0 -248 18.5t-145 71.5q-58 54 -79 144.5t-21 258.5zM281 1548q-16 23 8 35l63 33 q19 13 35 0l219 -154l217 154q16 13 35 0l64 -33q22 -16 8 -35l-197 -272q-13 -16 -41 -16h-174q-28 0 -41 16z" />
<glyph unicode="&#x1d5;" horiz-adv-x="1562" d="M133 791v763q0 31 31 31h260q31 0 31 -31v-763q0 -310 65 -416q64 -105 262 -105q196 0 260 105q66 107 66 416v763q0 31 31 31h260q31 0 31 -31v-763q0 -377 -78 -560q-67 -136 -196 -187t-374 -54q-207 0 -326 35.5t-192 126.5q-73 92 -102 238.5t-29 400.5zM395 1849 q0 72 41 111t119 39q158 0 158 -150q0 -151 -158 -151q-160 0 -160 151zM455 2159v125q0 30 30 30h592q31 0 31 -30v-125q0 -31 -31 -31h-592q-30 0 -30 31zM850 1849q0 150 158 150q157 0 157 -150q0 -151 -157 -151q-158 0 -158 151z" />
<glyph unicode="&#x1d6;" horiz-adv-x="1249" d="M115 483v633q0 31 32 31h242q29 0 29 -31v-555q0 -151 18 -215q18 -60 57 -77t146 -17h184v864q0 31 31 31h246q28 0 28 -31v-1057q0 -18 -5 -23.5t-23 -10.5q-184 -35 -492 -35q-162 0 -248 18.5t-145 71.5q-58 54 -79 144.5t-21 258.5zM219 1440q0 72 41 110.5 t119 38.5q158 0 158 -149q0 -152 -158 -152q-160 0 -160 152zM279 1720v125q0 31 30 31h592q31 0 31 -31v-125q0 -30 -31 -30h-592q-30 0 -30 30zM674 1440q0 149 157 149q158 0 158 -149q0 -152 -158 -152q-157 0 -157 152z" />
<glyph unicode="&#x1d7;" horiz-adv-x="1562" d="M133 791v763q0 31 31 31h260q31 0 31 -31v-763q0 -310 65 -416q64 -105 262 -105q196 0 260 105q66 107 66 416v763q0 31 31 31h260q31 0 31 -31v-763q0 -377 -78 -560q-67 -136 -196 -187t-374 -54q-207 0 -326 35.5t-192 126.5q-73 92 -102 238.5t-29 400.5zM395 1849 q0 72 41 111t119 39q158 0 158 -150q0 -151 -158 -151q-160 0 -160 151zM696 2109l150 269q6 12 24 12h297q21 0 21 -20v-15q0 -14 -10 -24l-359 -301q-12 -9 -28 0l-89 51q-15 12 -6 28zM850 1849q0 150 158 150q157 0 157 -150q0 -151 -157 -151q-158 0 -158 151z" />
<glyph unicode="&#x1d8;" horiz-adv-x="1249" d="M115 483v633q0 31 32 31h242q29 0 29 -31v-555q0 -151 18 -215q18 -60 57 -77t146 -17h184v864q0 31 31 31h246q28 0 28 -31v-1057q0 -18 -5 -23.5t-23 -10.5q-184 -35 -492 -35q-162 0 -248 18.5t-145 71.5q-58 54 -79 144.5t-21 258.5zM219 1440q0 72 41 110.5 t119 38.5q158 0 158 -149q0 -152 -158 -152q-160 0 -160 152zM518 1712l150 266q6 13 24 13h297q21 0 21 -21v-14q0 -18 -11 -25l-358 -299q-14 -12 -29 0l-88 51q-16 9 -6 29zM674 1440q0 149 157 149q158 0 158 -149q0 -152 -158 -152q-157 0 -157 152z" />
<glyph unicode="&#x1d9;" horiz-adv-x="1562" d="M133 791v763q0 31 31 31h260q31 0 31 -31v-763q0 -310 65 -416q64 -105 262 -105q196 0 260 105q66 107 66 416v763q0 31 31 31h260q31 0 31 -31v-763q0 -377 -78 -560q-67 -136 -196 -187t-374 -54q-207 0 -326 35.5t-192 126.5q-73 92 -102 238.5t-29 400.5zM395 1849 q0 72 41 111t119 39q158 0 158 -150q0 -151 -158 -151q-160 0 -160 151zM457 2333q-19 22 8 34l63 33q19 13 35 0l219 -153l217 153q16 13 35 0l64 -33q22 -14 8 -34l-197 -273q-13 -16 -41 -16h-174q-31 0 -41 16zM850 1849q0 150 158 150q157 0 157 -150q0 -151 -157 -151 q-158 0 -158 151z" />
<glyph unicode="&#x1da;" horiz-adv-x="1249" d="M115 483v633q0 31 32 31h242q29 0 29 -31v-555q0 -151 18 -215q18 -60 57 -77t146 -17h184v864q0 31 31 31h246q28 0 28 -31v-1057q0 -18 -5 -23.5t-23 -10.5q-184 -35 -492 -35q-162 0 -248 18.5t-145 71.5q-58 54 -79 144.5t-21 258.5zM219 1440q0 72 41 110.5 t119 38.5q158 0 158 -149q0 -152 -158 -152q-160 0 -160 152zM281 1925q-15 21 8 33l63 35q19 13 35 0l219 -156l217 156q19 13 35 0l64 -35q23 -15 8 -33l-197 -272q-16 -19 -41 -19h-174q-25 0 -41 19zM674 1440q0 149 157 149q158 0 158 -149q0 -152 -158 -152 q-157 0 -157 152z" />
<glyph unicode="&#x1db;" horiz-adv-x="1562" d="M133 791v763q0 31 31 31h260q31 0 31 -31v-763q0 -310 65 -416q64 -105 262 -105q196 0 260 105q66 107 66 416v763q0 31 31 31h260q31 0 31 -31v-763q0 -377 -78 -560q-67 -136 -196 -187t-374 -54q-207 0 -326 35.5t-192 126.5q-73 92 -102 238.5t-29 400.5zM395 1849 q0 72 41 111t119 39q158 0 158 -150q0 -151 -158 -151q-160 0 -160 151zM399 2355v15q0 20 21 20h297q18 0 24 -12l150 -269q9 -16 -6 -28l-88 -51q-19 -10 -29 0l-358 301q-11 7 -11 24zM850 1849q0 150 158 150q157 0 157 -150q0 -151 -157 -151q-158 0 -158 151z" />
<glyph unicode="&#x1dc;" horiz-adv-x="1249" d="M115 483v633q0 31 32 31h242q29 0 29 -31v-555q0 -151 18 -215q18 -60 57 -77t146 -17h184v864q0 31 31 31h246q28 0 28 -31v-1057q0 -18 -5 -23.5t-23 -10.5q-184 -35 -492 -35q-162 0 -248 18.5t-145 71.5q-58 54 -79 144.5t-21 258.5zM195 1956v14q0 21 20 21h297 q18 0 25 -13l149 -266q10 -20 -6 -29l-88 -51q-14 -12 -29 0l-358 299q-10 10 -10 25zM219 1440q0 72 41 110.5t119 38.5q158 0 158 -149q0 -152 -158 -152q-160 0 -160 152zM674 1440q0 149 157 149q158 0 158 -149q0 -152 -158 -152q-157 0 -157 152z" />
<glyph unicode="&#x1fa;" horiz-adv-x="1456" d="M18 33l367 1319q46 165 102 204q59 41 238 41q187 0 246 -41q56 -39 102 -204l361 -1319q6 -33 -27 -33h-262q-12 0 -17.5 6.5t-9.5 26.5l-117 426h-548l-119 -426q-5 -20 -10.5 -26.5t-18.5 -6.5h-260q-33 0 -27 33zM485 1894q0 171 142 215l116 211q7 13 25 13h297 q20 0 20 -21v-14q0 -18 -10 -25l-246 -166q136 -44 136 -213q0 -229 -240 -229t-240 229zM524 725h406l-148 543q-12 44 -20 51q-10 8 -37 8q-24 0 -32 -10t-19 -49zM598 1894q0 -127 127 -127t127 127t-127 127t-127 -127z" />
<glyph unicode="&#x1fb;" horiz-adv-x="1157" d="M59 344q3 196 101 266q101 70 319 70h260v74q0 141 -192 141h-371q-17 0 -23 6t-6 25v168q0 16 5.5 21.5t23.5 10.5q161 31 371 31q285 0 391 -86q104 -85 104 -266v-709q0 -48 -45 -63q-185 -43 -465 -43q-137 0 -210 10.5t-138 44.5q-65 36 -94 107.5t-31 191.5z M334 1485q0 174 139 215l117 211q6 12 24 12h297q21 0 21 -20v-15q0 -17 -10 -24l-244 -164q135 -46 135 -215q0 -230 -240 -230q-239 0 -239 230zM360 360q0 -71 38 -97.5t137 -26.5q134 0 204 20v227h-235q-79 0 -111.5 -27.5t-32.5 -95.5zM446 1485q0 -127 127 -127 t127 127t-127 127t-127 -127z" />
<glyph unicode="&#x1fc;" horiz-adv-x="2095" d="M18 33l365 1319q46 165 102 204q59 41 240 41l559 -12h686q31 0 31 -31v-219q0 -30 -31 -30h-682v-387h619q32 0 32 -31v-209q0 -31 -32 -31h-619v-366h682q31 0 31 -31v-219q0 -31 -31 -31h-975q-30 0 -30 33v426h-514l-117 -426q-9 -33 -29 -33h-262q-31 0 -25 33z M524 725h441v602h-207q-45 0 -63 -16.5t-31 -71.5zM1034 1753l150 266q6 13 24 13h297q21 0 21 -21v-14q0 -8 -10 -25l-359 -299q-13 -10 -29 0l-88 51q-16 13 -6 29z" />
<glyph unicode="&#x1fd;" horiz-adv-x="1828" d="M59 344q3 196 101 266q101 70 319 70h260v74q0 141 -192 141h-371q-17 0 -23 6t-6 25v168q0 16 5.5 21.5t23.5 10.5q161 31 371 31q240 0 358 -92q115 92 350 92q302 0 402 -115q99 -111 102 -454v-64q0 -31 -14 -43t-51 -12h-643q3 -138 47 -176q47 -41 184 -41h363 q30 0 30 -31v-170q0 -30 -28 -33q-146 -28 -392 -28q-89 0 -196 22q-100 21 -154 56q-147 -78 -373 -78q-137 0 -210 10.5t-138 44.5q-65 36 -94 107.5t-31 191.5zM360 360q0 -73 38 -100t137 -27q163 0 247 41q-34 81 -34 209h-244q-79 0 -111.5 -27.5t-32.5 -95.5z M788 1343l150 267q6 12 25 12h297q20 0 20 -20v-15q0 -7 -10 -24l-359 -299q-12 -9 -28 0l-88 51q-16 13 -7 28zM1049 668h405q-1 133 -43.5 180t-155.5 47q-119 0 -162.5 -47t-43.5 -180z" />
<glyph unicode="&#x1fe;" horiz-adv-x="1519" d="M96 791q0 248 30.5 393.5t106.5 240.5q76 96 198 134t329 38q280 0 420 -79l59 81q23 29 43 9l70 -47q24 -15 6 -43l-68 -97q133 -168 133 -630q0 -467 -137 -635q-138 -166 -526 -166q-276 0 -420 78l-61 -88q-19 -29 -41 -7l-70 47q-23 14 -8 41l69 101 q-133 168 -133 629zM422 791q0 -215 29 -316l542 778q-70 64 -233 64q-208 0 -273 -109t-65 -417zM526 334q70 -64 234 -64q208 0 272 107q66 111 66 414q0 215 -29 317zM649 1753l150 266q7 13 24 13h297q21 0 21 -21v-14q0 -7 -11 -25l-358 -299q-13 -10 -29 0l-88 51 q-16 13 -6 29z" />
<glyph unicode="&#x1ff;" horiz-adv-x="1220" d="M88 573q0 353 102 467q102 117 420 117q195 0 291 -35l45 64q22 29 43 8l70 -47q24 -15 6 -43l-41 -57q60 -60 84.5 -170t24.5 -304q0 -351 -103 -469q-102 -114 -420 -114q-203 0 -301 39l-47 -68q-19 -28 -41 -6l-69 47q-24 15 -9 41l47 68q-102 114 -102 462zM393 573 q0 -112 8 -161l330 467q-43 16 -121 16q-138 0 -178 -64q-39 -59 -39 -258zM481 272q41 -20 129 -20q138 0 178 61q41 65 41 260q0 122 -14 177zM496 1343l149 267q6 12 25 12h297q20 0 20 -20v-15q0 -7 -10 -24l-359 -299q-12 -9 -28 0l-88 51q-15 12 -6 28z" />
<glyph unicode="&#x218;" horiz-adv-x="1280" d="M82 78v155q0 37 39 37h581q187 0 187 127v27q0 65 -32.5 102t-115.5 68l-399 149q-130 50 -187 146t-57 272v45q0 212 138.5 301.5t435.5 89.5q197 0 428 -41q37 -12 37 -36v-166q0 -37 -39 -37h-486q-188 0 -188 -133v-29q0 -107 121 -154l383 -149q153 -62 219 -152 q65 -89 65 -260v-57q0 -209 -146 -301t-443 -92q-239 0 -506 43q-35 9 -35 45zM338 -334l135 240q6 12 25 12h256q20 0 20 -20v-15q0 -7 -10 -24l-320 -265q-9 -9 -28 0l-72 44q-15 12 -6 28z" />
<glyph unicode="&#x219;" horiz-adv-x="1036" d="M74 41v166q0 31 35 31h419q83 0 112.5 14t29.5 55v19q0 31 -24 52t-89 44l-252 90q-209 71 -209 311v39q0 155 114.5 225t350.5 70q171 0 324 -27q33 -9 33 -32v-156q0 -33 -35 -33h-369q-121 0 -121 -73v-21q0 -59 99 -94l262 -92q119 -41 167 -114t48 -193v-33 q0 -162 -107.5 -230.5t-329.5 -68.5q-236 0 -423 20q-35 0 -35 31zM229 -334l136 240q6 12 24 12h256q21 0 21 -20v-15q0 -6 -11 -24l-317 -265q-13 -10 -29 0l-73 44q-16 13 -7 28z" />
<glyph unicode="&#x21a;" horiz-adv-x="1306" d="M33 1335v219q0 31 30 31h1178q33 0 33 -31v-219q0 -30 -33 -30h-428v-1272q0 -33 -31 -33h-260q-30 0 -30 33v1272h-429q-30 0 -30 30zM362 -334l138 240q6 12 24 12h254q21 0 21 -20v-15q0 -13 -11 -24l-317 -265q-10 -10 -29 0l-73 44q-16 13 -7 28z" />
<glyph unicode="&#x21b;" horiz-adv-x="778" d="M41 946v164q0 31 33 31h121v227q0 27 28 33l242 63q33 9 33 -30v-293h188q35 0 35 -31v-164q0 -31 -35 -31h-188v-559q0 -62 25 -83t95 -21h84q35 0 35 -31v-174q0 -33 -32 -39q-91 -18 -175 -18q-75 0 -110 3t-82 15q-73 20 -105 75t-38 171v661h-121q-33 0 -33 31z M168 -334l135 240q6 12 25 12h256q20 0 20 -20v-15q0 -7 -10 -24l-320 -265q-9 -9 -28 0l-72 44q-15 12 -6 28z" />
<glyph unicode="&#x2c6;" horiz-adv-x="1153" d="M252 1333l197 273q13 16 40 16h175q28 0 41 -16l196 -273q16 -23 -8 -35l-64 -32q-19 -12 -34 0l-217 153l-220 -153q-15 -12 -34 0l-64 32q-24 12 -8 35z" />
<glyph unicode="&#x2c7;" horiz-adv-x="1153" d="M252 1548q-16 23 8 35l64 33q19 12 34 0l220 -154l217 154q15 12 34 0l64 -33q24 -12 8 -35l-196 -272q-13 -16 -41 -16h-175q-27 0 -40 16z" />
<glyph unicode="&#x2d8;" horiz-adv-x="1204" d="M248 1565q-6 32 28 32h119q26 0 35 -24q25 -57 62.5 -80t109.5 -23q71 0 109.5 23t64.5 80q9 24 35 24h119q34 0 28 -30q-21 -155 -100 -219q-77 -62 -256 -62q-176 0 -256 62q-77 62 -98 217z" />
<glyph unicode="&#x2d9;" horiz-adv-x="829" d="M246 1440q0 153 170 153q168 0 168 -153q0 -156 -168 -156q-170 0 -170 156z" />
<glyph unicode="&#x2da;" horiz-adv-x="970" d="M246 1485q0 229 239 229q240 0 240 -229q0 -230 -240 -230q-239 0 -239 230zM358 1485q0 -127 127 -127t127 127t-127 127t-127 -127z" />
<glyph unicode="&#x2db;" horiz-adv-x="868" d="M246 -203q0 102 43 221q9 27 35 27h98q36 0 27 -35q-15 -79 -15 -112q0 -35 23 -44.5t90 -9.5h74q28 0 28 -28v-125q0 -28 -24 -37q-43 -16 -164 -16q-111 0 -163 37.5t-52 121.5z" />
<glyph unicode="&#x2dc;" horiz-adv-x="1241" d="M248 1354q35 137 80 186t135 49q57 0 160 -41q101 -39 133 -39q35 0 53.5 14.5t36.5 53.5q13 29 39 20l88 -24q28 -9 20 -41q-35 -139 -79.5 -188.5t-135.5 -49.5q-61 0 -162 39q-103 41 -131 41q-35 0 -54 -14t-36 -53q-17 -30 -37 -21l-90 25q-26 9 -20 43z" />
<glyph unicode="&#x2dd;" horiz-adv-x="1271" d="M250 1343l149 267q6 12 25 12h199q20 0 20 -20v-15q0 -14 -10 -24l-301 -283q-13 -13 -29 0l-47 35q-15 12 -6 28zM633 1343l149 267q6 12 25 12h199q20 0 20 -20v-15q0 -7 -10 -24l-301 -283q-13 -13 -29 0l-47 35q-15 12 -6 28z" />
<glyph unicode="&#x326;" horiz-adv-x="0" d="M236 -334l135 240q6 12 24 12h256q21 0 21 -20v-15q0 -7 -10 -24l-318 -265q-13 -10 -29 0l-73 44q-15 12 -6 28z" />
<glyph unicode="&#x3c0;" horiz-adv-x="1411" d="M43 903v215q0 31 31 31h1267q31 0 31 -31v-215q0 -31 -31 -31h-174v-841q0 -31 -30 -31h-230q-30 0 -30 31v841h-328q0 -413 -68 -841q-6 -31 -30 -31h-230q-37 0 -31 31q68 428 68 841h-184q-31 0 -31 31z" />
<glyph unicode="&#x401;" horiz-adv-x="1327" d="M145 33v1521q0 31 31 31h1026q31 0 31 -31v-219q0 -30 -31 -30h-735v-387h672q32 0 32 -31v-209q0 -31 -32 -31h-672v-366h735q31 0 31 -31v-219q0 -31 -31 -31h-1026q-31 0 -31 33zM283 1849q0 72 40.5 111t118.5 39q156 0 156 -150q0 -151 -156 -151q-159 0 -159 151z M735 1849q0 72 41 111t119 39q75 0 116.5 -39t41.5 -111t-41.5 -111.5t-116.5 -39.5q-160 0 -160 151z" />
<glyph unicode="&#x410;" horiz-adv-x="1456" d="M18 33l367 1319q46 165 102 204q59 41 238 41q187 0 246 -41q56 -39 102 -204l361 -1319q6 -33 -27 -33h-262q-12 0 -17.5 6.5t-9.5 26.5l-117 426h-548l-119 -426q-5 -20 -10.5 -26.5t-18.5 -6.5h-260q-33 0 -27 33zM524 725h406l-148 543q-12 44 -20 51q-10 8 -37 8 q-24 0 -32 -10t-19 -49z" />
<glyph unicode="&#x411;" horiz-adv-x="1425" d="M145 39v1515q0 31 31 31h1063q33 0 33 -31v-219q0 -30 -33 -30h-772v-330h330q293 0 424 -96q129 -95 129 -342v-113q0 -246 -129 -340q-128 -94 -424 -94q-375 0 -621 20q-31 3 -31 29zM467 270h307q138 0 194 43t56 154v33q0 114 -57 158t-191 44h-309v-432z" />
<glyph unicode="&#x412;" horiz-adv-x="1433" d="M145 39v1507q0 17 6 22t25 7q261 22 572 22q303 0 434 -98q133 -100 133 -342q0 -168 -54 -251.5t-178 -106.5v-6q145 -18 206 -106t61 -263q0 -246 -129 -340q-128 -94 -424 -94q-375 0 -621 20q-31 3 -31 29zM467 270h307q138 0 194 43t56 154q0 119 -57.5 165 t-190.5 46h-309v-408zM467 909h209q184 0 248 37q65 41 65 162q0 119 -61 164t-213 45h-248v-408z" />
<glyph unicode="&#x413;" horiz-adv-x="1148" d="M145 33v1521q0 31 31 31h916q32 0 32 -31v-219q0 -30 -32 -30h-625v-1272q0 -33 -31 -33h-260q-31 0 -31 33z" />
<glyph unicode="&#x414;" horiz-adv-x="1501" d="M51 256q0 25 31 25h84q113 40 137 290l103 981q3 33 30 33h828q30 0 30 -31v-1273h101q32 0 32 -31v-522q0 -33 -30 -33h-248q-31 0 -31 33v272h-760v-272q0 -33 -30 -33h-246q-31 0 -31 33v528zM573 281h398v1024h-271l-88 -830q-8 -99 -39 -194z" />
<glyph unicode="&#x415;" horiz-adv-x="1327" d="M145 33v1521q0 31 31 31h1026q31 0 31 -31v-219q0 -30 -31 -30h-735v-387h672q32 0 32 -31v-209q0 -31 -32 -31h-672v-366h735q31 0 31 -31v-219q0 -31 -31 -31h-1026q-31 0 -31 33z" />
<glyph unicode="&#x416;" horiz-adv-x="2093" d="M2 55l571 801l-516 690q-26 39 19 39h289q29 0 43 -20l477 -662v651q0 31 30 31h263q30 0 30 -31v-651l478 662q14 20 43 20h288q45 0 19 -39l-516 -690l571 -801q40 -55 -35 -55h-289q-32 0 -45 23l-514 759v-749q0 -33 -30 -33h-263q-30 0 -30 33v749l-514 -759 q-13 -23 -45 -23h-289q-69 0 -35 55z" />
<glyph unicode="&#x417;" horiz-adv-x="1294" d="M80 63v183q0 24 31 24h424q202 0 264 35q63 37 63 150v18q-3 113 -51 152q-50 41 -201 41h-405q-27 0 -27 28v199q0 29 27 29h405q151 0 201 41q51 42 51 153v27q0 106 -65 141q-62 33 -271 33h-415q-31 0 -31 24v179q0 22 9.5 31.5t35.5 15.5q170 30 434 30 q333 0 477 -81q148 -80 148 -318v-92q0 -264 -203 -311q203 -47 203 -310v-90q0 -238 -148 -321q-150 -84 -477 -84q-284 0 -434 30q-26 6 -35.5 14.5t-9.5 28.5z" />
<glyph unicode="&#x418;" horiz-adv-x="1607" d="M145 33v1519q0 33 31 33h260q31 0 31 -33v-962l635 928q32 43 48.5 52t78.5 15h203q30 0 30 -33v-1519q0 -33 -30 -33h-261q-30 0 -30 33v1003l-672 -985q-36 -51 -102 -51h-191q-31 0 -31 33z" />
<glyph unicode="&#x419;" horiz-adv-x="1607" d="M145 33v1519q0 33 31 33h260q31 0 31 -33v-962l635 928q32 43 48.5 52t78.5 15h203q30 0 30 -33v-1519q0 -33 -30 -33h-261q-30 0 -30 33v1003l-672 -985q-36 -51 -102 -51h-191q-31 0 -31 33zM440 1974q-6 33 29 33h117q26 0 35 -25q26 -57 64 -79.5t110 -22.5 t109.5 22.5t62.5 79.5q9 25 34 25h119q35 0 29 -31q-20 -158 -97.5 -219t-256.5 -61q-180 0 -256 61q-78 63 -99 217z" />
<glyph unicode="&#x41a;" horiz-adv-x="1388" d="M145 33v1521q0 31 31 31h260q31 0 31 -31v-651l514 662q14 20 43 20h289q44 0 18 -39l-532 -690l587 -801q40 -55 -34 -55h-287q-32 0 -45 23l-553 759v-749q0 -33 -31 -33h-260q-31 0 -31 33z" />
<glyph unicode="&#x41b;" horiz-adv-x="1464" d="M43 63v177q0 30 31 30h47q107 0 149 54t54 196l108 1032q3 33 31 33h825q31 0 31 -31v-1521q0 -33 -31 -33h-260q-31 0 -31 33v1272h-270l-92 -881q-25 -227 -120.5 -330.5t-276.5 -103.5q-86 0 -150 18q-45 15 -45 55z" />
<glyph unicode="&#x41c;" horiz-adv-x="2011" d="M86 33l147 1519q3 33 27 33h248q49 0 73 -16.5t44 -63.5l381 -997l380 997q19 49 43 65.5t74 16.5h248q24 0 27 -33l147 -1521q3 -33 -31 -33h-260q-27 0 -30 33l-91 983l-368 -936q-12 -31 -43 -31h-195q-27 0 -43 31l-366 936l-90 -983q-3 -33 -31 -33h-260 q-34 0 -31 33z" />
<glyph unicode="&#x41d;" horiz-adv-x="1611" d="M145 33v1519q0 33 31 33h260q31 0 31 -33v-616h678v616q0 33 31 33h260q30 0 30 -33v-1519q0 -33 -30 -33h-260q-31 0 -31 33v618h-678v-618q0 -33 -31 -33h-260q-31 0 -31 33z" />
<glyph unicode="&#x41e;" horiz-adv-x="1519" d="M96 791q0 248 30.5 393.5t106.5 240.5q76 96 198 134t329 38t328.5 -38t197.5 -134q76 -95 106.5 -240.5t30.5 -393.5q0 -467 -137 -635q-138 -166 -526 -166q-389 0 -527 166q-137 168 -137 635zM422 791q0 -305 65 -414q64 -107 273 -107q208 0 272 107q66 111 66 414 q0 306 -66 417q-65 109 -272 109q-208 0 -273 -109t-65 -417z" />
<glyph unicode="&#x41f;" horiz-adv-x="1443" d="M145 33v1521q0 31 31 31h1092q30 0 30 -31v-1521q0 -33 -30 -33h-260q-31 0 -31 33v1272h-510v-1272q0 -33 -31 -33h-260q-31 0 -31 33z" />
<glyph unicode="&#x420;" horiz-adv-x="1380" d="M145 33v1513q0 17 6 22t25 7q261 22 545 22q342 0 469 -112q131 -110 131 -414q0 -162 -30 -255.5t-103 -147.5t-178 -74.5t-289 -20.5h-254v-540q0 -20 -6 -26.5t-25 -6.5h-260q-19 0 -25 6.5t-6 26.5zM467 821h221q190 0 248 43q59 47 59 199q0 154 -61 203 q-60 51 -246 51h-221v-496z" />
<glyph unicode="&#x421;" horiz-adv-x="1275" d="M98 795q0 245 30 391t103 241q76 95 197.5 132.5t327.5 37.5q234 0 403 -30q47 -12 47 -56v-163q0 -31 -30 -31h-420q-207 0 -271 -107q-61 -107 -61 -415q0 -311 61 -418q64 -107 271 -107h420q30 0 30 -30v-166q0 -42 -47 -54q-150 -30 -403 -30q-206 0 -327.5 37.5 t-197.5 132.5q-73 96 -103 243t-30 392z" />
<glyph unicode="&#x422;" horiz-adv-x="1306" d="M33 1335v219q0 31 30 31h1178q33 0 33 -31v-219q0 -30 -33 -30h-428v-1272q0 -33 -31 -33h-260q-30 0 -30 33v1272h-429q-30 0 -30 30z" />
<glyph unicode="&#x423;" horiz-adv-x="1261" d="M-2 1548q-15 37 25 37h288q26 0 35 -22l328 -711l258 709q9 24 35 24h278q40 0 25 -35l-416 -1155q-82 -223 -190 -315q-110 -90 -279 -90q-101 0 -192 26q-48 15 -48 56v168q0 30 31 30h141q77 0 120.5 33.5t80.5 120.5z" />
<glyph unicode="&#x424;" horiz-adv-x="1734" d="M63 801q0 186 31.5 297t108.5 182q76 71 193.5 102t316.5 39v146q0 35 30 35h250q31 0 31 -35v-146q199 -8 315.5 -39t192.5 -102q77 -71 108 -181.5t31 -297.5t-31 -298.5t-108 -183.5q-76 -70 -192.5 -100.5t-315.5 -38.5v-147q0 -33 -31 -33h-250q-30 0 -30 33v147 q-199 8 -316.5 38.5t-193.5 100.5q-77 72 -108.5 184t-31.5 298zM387 801q0 -185 64 -252t262 -82v668q-198 -15 -262 -82t-64 -252zM1024 467q194 15 258 82q66 69 66 252t-66 252q-64 67 -258 82v-668z" />
<glyph unicode="&#x425;" horiz-adv-x="1437" d="M8 45l524 780l-481 715q-14 23 -8.5 34t31.5 11h288q36 0 56 -33l303 -477l299 477q20 33 55 33h289q26 0 31 -11t-9 -34l-479 -715l527 -784q29 -45 -23 -45h-289q-35 0 -55 33l-346 544l-346 -540q-20 -33 -56 -33h-288q-52 0 -23 45z" />
<glyph unicode="&#x426;" horiz-adv-x="1521" d="M145 33v1521q0 31 31 31h260q31 0 31 -31v-1273h520v1273q0 31 31 31h260q31 0 31 -31v-1273h133q33 0 33 -31v-522q0 -33 -31 -33h-246q-31 0 -31 33v272h-991q-31 0 -31 33z" />
<glyph unicode="&#x427;" horiz-adv-x="1390" d="M98 1049v505q0 31 31 31h264q31 0 31 -31v-481q0 -152 59 -199q58 -43 248 -43h195v721q0 33 30 33h261q30 0 30 -33v-1519q0 -33 -30 -33h-261q-30 0 -30 33v518h-228q-184 0 -289 19.5t-178 72.5q-73 54 -103 149t-30 257z" />
<glyph unicode="&#x428;" horiz-adv-x="2021" d="M145 33v1521q0 31 31 31h262q31 0 31 -31v-1273h381v1273q0 31 31 31h260q30 0 30 -31v-1273h383v1273q0 31 31 31h260q31 0 31 -31v-1521q0 -33 -31 -33h-1669q-31 0 -31 33z" />
<glyph unicode="&#x429;" horiz-adv-x="2088" d="M145 33v1521q0 31 31 31h262q31 0 31 -31v-1273h381v1273q0 31 31 31h260q30 0 30 -31v-1273h383v1273q0 31 31 31h260q31 0 31 -31v-1273h133q31 0 31 -31v-522q0 -33 -31 -33h-246q-30 0 -30 33v272h-1557q-31 0 -31 33z" />
<glyph unicode="&#x42a;" horiz-adv-x="1538" d="M33 1335v219q0 31 33 31h497q31 0 31 -31v-579h330q293 0 424 -96q129 -95 129 -342v-113q0 -246 -129 -340q-128 -94 -424 -94q-372 0 -621 20q-31 3 -31 29v1266h-206q-33 0 -33 30zM594 270h307q138 0 195 43t57 154v33q0 114 -58 158t-192 44h-309v-432z" />
<glyph unicode="&#x42b;" horiz-adv-x="1988" d="M145 39v1515q0 31 31 31h260q31 0 31 -31v-579h330q293 0 424 -96q131 -94 131 -342v-113q0 -246 -129 -340q-128 -94 -426 -94q-372 0 -621 20q-31 3 -31 29zM467 270h307q138 0 195 43t57 154v33q0 114 -58 158t-192 44h-309v-432zM1522 33v1519q0 33 30 33h260 q31 0 31 -33v-1519q0 -33 -31 -33h-260q-30 0 -30 33z" />
<glyph unicode="&#x42c;" horiz-adv-x="1411" d="M145 39v1515q0 31 31 31h260q31 0 31 -31v-579h330q293 0 424 -96q129 -95 129 -342v-113q0 -246 -129 -340q-128 -94 -424 -94q-375 0 -621 20q-31 3 -31 29zM467 270h307q138 0 194 43t56 154v33q0 114 -57 158t-191 44h-309v-432z" />
<glyph unicode="&#x42d;" horiz-adv-x="1323" d="M68 74v166q0 30 30 30h469q185 0 252 82q69 84 78 312h-565q-31 0 -31 30v201q0 31 31 31h565q-9 223 -78 307t-252 84h-469q-30 0 -30 31v163q0 44 45 56q169 30 454 30q392 0 525 -167q135 -166 135 -635q0 -467 -135 -637q-134 -168 -525 -168q-304 0 -454 30 q-45 12 -45 54z" />
<glyph unicode="&#x42e;" horiz-adv-x="2105" d="M145 33v1519q0 33 31 33h260q31 0 31 -33v-616h219q15 377 158 520q141 141 502 141q388 0 526 -170q137 -168 137 -636q0 -465 -137 -633t-526 -168q-360 0 -502 139q-142 142 -160 522h-217v-618q0 -33 -31 -33h-260q-31 0 -31 33zM1008 791q0 -305 65 -414 q64 -107 273 -107q208 0 272 107q65 109 65 414q0 308 -65 417t-272 109q-208 0 -273 -109t-65 -417z" />
<glyph unicode="&#x42f;" horiz-adv-x="1417" d="M56 12q-7 12 5 29l347 553q-174 34 -244 139q-70 107 -70 338q0 303 129 414q130 112 471 112q286 0 547 -22q19 -2 25 -7t6 -22v-1513q0 -20 -6 -26.5t-25 -6.5h-262q-19 0 -25 6.5t-6 26.5v540h-190l-334 -528q-18 -26 -34.5 -35.5t-47.5 -9.5h-256q-23 0 -30 12z M420 1063q0 -152 59 -199q61 -43 248 -43h221v496h-221q-183 0 -246 -51q-61 -52 -61 -203z" />
<glyph unicode="&#x430;" horiz-adv-x="1159" d="M61 311v45q3 189 101 256q103 68 317 68h262v74q0 141 -194 141h-369q-17 0 -22.5 6t-5.5 25v168q0 26 26 32q161 31 371 31q285 0 391 -86q106 -84 106 -266v-709q0 -48 -47 -63q-185 -43 -465 -43q-108 0 -172 6t-124 24q-90 28 -129.5 94t-45.5 197zM362 350 q0 -67 34.5 -89.5t129.5 -22.5q142 0 215 20v225h-233q-92 0 -119 -22t-27 -90v-21z" />
<glyph unicode="&#x431;" horiz-adv-x="1239" d="M109 573v191q0 221 31.5 354.5t109.5 216.5q77 84 183.5 126t295.5 69q123 17 172 35q7 4 16 13.5t19.5 14t30.5 4.5h92q35 0 35 -73q0 -125 -60 -179.5t-200 -72.5l-134 -19q-51 -8 -102 -20q-55 -11 -88 -29q-49 -28 -83.5 -76t-37.5 -116q79 88 289 88q273 0 375 -111 q100 -109 100 -416q0 -352 -102 -469q-102 -114 -420 -114t-420 114q-102 117 -102 469zM414 573q0 -198 39 -260q40 -61 178 -61t178 61q41 65 41 260q0 166 -41 222q-39 57 -178 57q-137 0 -176 -57q-41 -56 -41 -222z" />
<glyph unicode="&#x432;" horiz-adv-x="1163" d="M121 37v1075q0 24 24 27q199 18 459 18q245 0 349 -73t104 -246q0 -129 -44.5 -189.5t-150.5 -73.5v-4q123 -7 172 -66.5t49 -195.5q0 -173 -102 -246t-344 -73q-319 0 -492 18q-24 3 -24 29zM428 246l186 -2q99 2 140 26.5t41 85.5q0 65 -41.5 92t-139.5 27h-186v-229z M428 676h129q119 0 165 24.5t46 90.5q0 63 -45 89.5t-148 26.5h-147v-231z" />
<glyph unicode="&#x433;" horiz-adv-x="958" d="M123 27v1093q0 27 29 27h739q29 0 29 -27v-227q0 -27 -29 -27h-447v-839q0 -27 -26 -27h-266q-29 0 -29 27z" />
<glyph unicode="&#x434;" horiz-adv-x="1222" d="M43 -176v409q0 27 29 27h59q86 30 107 221l69 641q3 25 29 25h680q28 0 28 -27v-860h86q29 0 29 -29v-407q0 -27 -29 -27h-225q-26 0 -26 27v176h-555v-176q0 -27 -29 -27h-223q-29 0 -29 27zM500 260h248v629h-166l-56 -494q-7 -67 -26 -135z" />
<glyph unicode="&#x435;" horiz-adv-x="1175" d="M88 573q0 353 102 467q102 117 412 117q302 0 402 -115q99 -111 102 -454v-64q0 -31 -14 -43t-52 -12h-643q3 -138 47 -176q47 -41 185 -41h364q31 0 31 -31v-170q0 -30 -29 -33q-146 -28 -393 -28q-311 0 -412 116q-102 117 -102 467zM395 668h406q-3 134 -43 180 q-41 47 -156 47q-118 0 -162 -47t-45 -180z" />
<glyph unicode="&#x436;" horiz-adv-x="1818" d="M0.5 10q-6.5 10 3.5 27l420 586l-367 493q-11 12 -3 21.5t28 9.5h289q26 0 32 -14l349 -474v457q0 31 30 31h250q31 0 31 -31v-457l348 474q8 14 35 14h289q19 0 25.5 -9.5t-3.5 -21.5l-366 -493l419 -586q10 -17 4.5 -27t-24.5 -10h-311q-25 0 -35 16l-381 535v-520 q0 -31 -31 -31h-250q-30 0 -30 31v520l-379 -535q-10 -16 -37 -16h-309q-20 0 -26.5 10z" />
<glyph unicode="&#x437;" horiz-adv-x="1071" d="M78 76v155q0 29 28 29h363q114 0 152 18.5t38 73.5v17q0 55 -28.5 74.5t-112.5 19.5h-325q-29 0 -29 31v157q0 31 29 31h323q84 0 113.5 20.5t29.5 73.5v23q0 54 -38 71t-156 17h-359q-28 0 -28 31v155q0 41 43 53q136 31 375 31q244 0 360.5 -61.5t116.5 -214.5v-109 q0 -172 -172 -199q172 -27 172 -202v-105q0 -153 -116.5 -214.5t-360.5 -61.5q-243 0 -375 33q-43 12 -43 53z" />
<glyph unicode="&#x438;" horiz-adv-x="1306" d="M123 25v1097q0 25 24 25h254q25 0 25 -25v-610l446 582q38 53 105 53h182q25 0 25 -25v-1097q0 -25 -25 -25h-254q-24 0 -24 25v616l-463 -598q-34 -43 -96 -43h-175q-24 0 -24 25z" />
<glyph unicode="&#x439;" horiz-adv-x="1306" d="M123 25v1097q0 25 24 25h254q25 0 25 -25v-610l446 582q38 53 105 53h182q25 0 25 -25v-1097q0 -25 -25 -25h-254q-24 0 -24 25v616l-463 -598q-34 -43 -96 -43h-175q-24 0 -24 25zM297 1565q-6 32 29 32h118q26 0 35 -24q26 -57 64.5 -80t109.5 -23q72 0 109.5 23 t62.5 80q9 24 35 24h119q35 0 29 -30q-21 -155 -101 -219q-77 -62 -254 -62q-178 0 -258 62q-77 62 -98 217z" />
<glyph unicode="&#x43a;" horiz-adv-x="1185" d="M123 31v1085q0 31 31 31h260q30 0 30 -31v-457l349 474q11 14 34 14h289q19 0 26 -9.5t-3 -21.5l-367 -493l420 -586q10 -17 4.5 -27t-25.5 -10h-311q-25 0 -35 16l-381 535v-520q0 -31 -30 -31h-260q-31 0 -31 31z" />
<glyph unicode="&#x43b;" horiz-adv-x="1198" d="M29 57v179q0 20 24 20h43q76 0 106.5 37t41.5 131l73 698q3 25 23 25h711q24 0 24 -23v-1099q0 -25 -24 -25h-256q-23 0 -23 25v858h-178l-57 -547q-37 -346 -336 -346q-60 0 -129 16q-27 11 -35 19.5t-8 31.5z" />
<glyph unicode="&#x43c;" horiz-adv-x="1652" d="M76 25l123 1097q3 25 28 25h222q46 0 70.5 -13t37.5 -47l268 -649l271 652q13 34 36 45.5t72 11.5h226q21 0 24 -23l123 -1099q3 -25 -25 -25h-262q-21 0 -24 25l-66 651l-250 -617q-12 -24 -35 -24h-178q-26 0 -35 24l-247 617l-68 -651q-3 -25 -25 -25h-262 q-27 0 -24 25z" />
<glyph unicode="&#x43d;" horiz-adv-x="1320" d="M123 31v1085q0 31 31 31h260q30 0 30 -31v-409h433v409q0 31 30 31h260q31 0 31 -31v-1085q0 -31 -31 -31h-260q-30 0 -30 31v391h-433v-391q0 -31 -30 -31h-260q-31 0 -31 31z" />
<glyph unicode="&#x43e;" horiz-adv-x="1220" d="M88 573q0 353 102 467q102 117 420 117q170 0 265 -26t155 -93q59 -65 81 -169.5t22 -295.5q0 -351 -103 -469q-102 -114 -420 -114t-420 114q-102 117 -102 469zM393 573q0 -198 39 -260q40 -61 178 -61q136 0 176 61q41 65 41 260q0 196 -41 258q-40 64 -176 64 q-138 0 -178 -64q-39 -59 -39 -258z" />
<glyph unicode="&#x43f;" horiz-adv-x="1198" d="M123 31v1085q0 31 31 31h890q31 0 31 -31v-1085q0 -31 -31 -31h-260q-30 0 -30 31v835h-310v-835q0 -31 -30 -31h-260q-31 0 -31 31z" />
<glyph unicode="&#x440;" horiz-adv-x="1234" d="M121 -381v1448q0 42 43 51q237 39 450 39q320 0 428 -117q107 -113 107 -450q0 -355 -98 -477q-95 -123 -375 -123q-144 0 -252 12v-383q0 -31 -31 -31h-241q-31 0 -31 31zM424 266q89 -12 184 -12q154 0 195 59q43 58 43 260q0 194 -37 258t-180 64h-205v-629z" />
<glyph unicode="&#x441;" horiz-adv-x="1044" d="M88 573q0 191 20.5 294.5t75.5 170.5q58 69 153.5 94t270.5 25q204 0 336 -27q33 -6 33 -40v-162q0 -33 -35 -33h-334q-138 0 -178 -64q-39 -59 -39 -258q0 -198 39 -260q40 -61 178 -61h334q35 0 35 -31v-164q0 -33 -33 -39q-137 -28 -336 -28q-174 0 -270 24.5 t-154 91.5q-56 70 -76 173.5t-20 293.5z" />
<glyph unicode="&#x442;" horiz-adv-x="1077" d="M41 897v219q0 31 31 31h934q30 0 30 -31v-219q0 -31 -30 -31h-308v-835q0 -31 -30 -31h-260q-31 0 -31 31v835h-305q-31 0 -31 31z" />
<glyph unicode="&#x443;" horiz-adv-x="1271" d="M113 518v598q0 31 30 31h242q31 0 31 -31v-541q0 -200 45 -260q46 -61 201 -61q114 0 184 12v850q0 31 31 31h241q31 0 31 -31v-1091q0 -104 -10.5 -169t-38.5 -120q-40 -83 -148 -121.5t-303 -38.5q-208 0 -387 29q-26 3 -26 33v155q0 31 28 31h359q133 0 178 36.5 t45 139.5v12q-126 -22 -252 -22q-275 0 -379 116q-102 120 -102 412z" />
<glyph unicode="&#x444;" horiz-adv-x="1660" d="M84 573q0 304 97 444t296 140q124 0 201 -47v444q0 31 31 31h243q31 0 31 -31v-444q77 47 201 47q199 0 296 -140t97 -444q0 -305 -96.5 -444t-296.5 -139q-151 0 -201 47v-418q0 -31 -31 -31h-243q-31 0 -31 31v418q-50 -47 -201 -47q-200 0 -296.5 139t-96.5 444z M389 573q0 -184 33 -251.5t135 -67.5q79 0 121 31v577q-42 31 -121 31q-100 0 -134 -69t-34 -251zM983 285q42 -31 121 -31q102 0 135 67.5t33 251.5q0 182 -34 251t-134 69q-79 0 -121 -31v-577z" />
<glyph unicode="&#x445;" horiz-adv-x="1183" d="M10 13q-5 13 6 26l390 561l-355 510q-12 17 -7.5 27t24.5 10h292q21 0 37 -19l195 -290l194 290q13 19 35 19h293q42 0 16 -37l-352 -510l389 -561q11 -13 5.5 -26t-23.5 -13h-293q-19 0 -33 20l-231 345l-234 -345q-14 -20 -32 -20h-293q-18 0 -23 13z" />
<glyph unicode="&#x446;" horiz-adv-x="1257" d="M123 31v1085q0 31 31 31h260q30 0 30 -31v-835h310v835q0 31 30 31h260q31 0 31 -31v-835h99q30 0 30 -31v-420q0 -31 -30 -31h-248q-31 0 -31 31v170h-741q-31 0 -31 31z" />
<glyph unicode="&#x447;" horiz-adv-x="1173" d="M78 848v268q0 31 31 31h262q30 0 30 -31v-244q0 -154 50 -198q50 -41 233 -41h45v481q0 33 31 33h260q31 0 31 -33v-1081q0 -33 -31 -33h-260q-31 0 -31 33v317h-78q-184 0 -285.5 20t-168.5 74q-67 56 -93 147.5t-26 256.5z" />
<glyph unicode="&#x448;" horiz-adv-x="1662" d="M123 31v1085q0 31 31 31h260q30 0 30 -31v-846h238v846q0 31 31 31h237q31 0 31 -31v-846h238v846q0 31 30 31h260q31 0 31 -31v-1085q0 -31 -31 -31h-1355q-31 0 -31 31z" />
<glyph unicode="&#x449;" horiz-adv-x="1708" d="M123 31v1085q0 31 31 31h262q30 0 30 -31v-835h218v835q0 31 30 31h260q31 0 31 -31v-835h219v835q0 31 31 31h260q31 0 31 -31v-835h96q31 0 31 -31v-422q0 -31 -31 -31h-248q-31 0 -31 31v172h-1189q-31 0 -31 31z" />
<glyph unicode="&#x44a;" horiz-adv-x="1302" d="M37 895v229q0 23 26 23h494q25 0 25 -23v-401h219q246 0 347 -71.5t101 -243.5v-101q0 -172 -101.5 -244.5t-346.5 -72.5q-314 0 -504 20q-23 3 -23 21v841h-211q-26 0 -26 23zM582 252h190q100 0 136 20.5t36 77.5v33q0 56 -34 79t-109 23h-219v-233z" />
<glyph unicode="&#x44b;" d="M123 31v1093q0 23 24 23h259q24 0 24 -23v-401h219q246 0 347.5 -71.5t101.5 -243.5v-101q0 -172 -102 -244.5t-347 -72.5q-315 0 -502 20q-24 3 -24 21zM430 252h191q100 0 136 20.5t36 77.5v33q0 56 -34.5 79t-109.5 23h-219v-233zM1212 33v1083q0 31 31 31h242 q31 0 31 -31v-1083q0 -33 -31 -33h-242q-31 0 -31 33z" />
<glyph unicode="&#x44c;" horiz-adv-x="1150" d="M123 35v1087q0 25 27 25h253q27 0 27 -27v-397h219q246 0 347.5 -71.5t101.5 -243.5v-101q0 -172 -102 -244.5t-347 -72.5q-315 0 -502 20q-24 3 -24 25zM430 252h191q100 0 136 20.5t36 77.5v33q0 56 -34.5 79t-109.5 23h-219v-233z" />
<glyph unicode="&#x44d;" horiz-adv-x="1095" d="M76 70v157q0 23 24 23h381q117 0 165 47t59 166h-431q-26 0 -26 20v183q0 20 26 20h431q-11 119 -59 166t-165 47h-381q-24 0 -24 23v157q0 37 43 49q129 29 362 29q312 0 420 -123q109 -121 109 -459q0 -335 -109 -462q-108 -123 -420 -123q-218 0 -362 30q-43 9 -43 50 z" />
<glyph unicode="&#x44e;" horiz-adv-x="1722" d="M123 31v1085q0 31 31 31h260q30 0 30 -31v-409h152q15 268 121 358q109 92 397 92q318 0 420 -117q102 -114 102 -467q0 -352 -102 -469q-102 -114 -420 -114q-284 0 -391 88q-106 87 -127 344h-152v-391q0 -31 -30 -31h-260q-31 0 -31 31zM895 573q0 -198 39 -260 q40 -61 180 -61q136 0 176 61q41 65 41 260q0 196 -41 258q-40 64 -176 64q-140 0 -180 -64q-39 -59 -39 -258z" />
<glyph unicode="&#x44f;" horiz-adv-x="1169" d="M41 29l270 391q-128 31 -180.5 108.5t-52.5 233.5q0 218 112 305q116 90 392 90q256 0 438 -18q24 -3 24 -19v-1095q0 -17 -3.5 -21t-20.5 -4h-260q-13 0 -18 5.5t-5 19.5v376h-102l-260 -370q-22 -31 -64 -31h-252q-41 0 -18 29zM393 748q0 -79 37 -105.5t143 -26.5h164 v271h-164q-104 0 -142 -29.5t-38 -109.5z" />
<glyph unicode="&#x451;" horiz-adv-x="1175" d="M88 573q0 353 102 467q102 117 412 117q302 0 402 -115q99 -111 102 -454v-64q0 -31 -14 -43t-52 -12h-643q3 -138 47 -176q47 -41 185 -41h364q31 0 31 -31v-170q0 -30 -29 -33q-146 -28 -393 -28q-311 0 -412 116q-102 117 -102 467zM215 1440q0 71 42 110t118 39 q157 0 157 -149q0 -152 -157 -152q-75 0 -117.5 40t-42.5 112zM395 668h406q-3 134 -43 180q-41 47 -156 47q-118 0 -162 -47t-45 -180zM670 1440q0 72 41 110.5t116 38.5q158 0 158 -149q0 -152 -158 -152q-75 0 -116 40t-41 112z" />
<glyph unicode="&#x1e80;" horiz-adv-x="2254" d="M49 1552q-6 33 27 33h272q23 0 29 -33l219 -1173q7 -38 16.5 -50t30.5 -12q24 0 33 11t20 51l269 1118q9 33 43 33h241q32 0 41 -33l271 -1118q11 -40 19 -51t32 -11q20 0 30 12.5t17 49.5l219 1173q4 20 10.5 26.5t20.5 6.5h270q35 0 29 -33l-256 -1319 q-29 -160 -84 -202q-53 -41 -221 -41q-193 0 -244 39q-52 40 -92 204l-183 775l-184 -775q-14 -52 -20.5 -76t-21 -56t-20.5 -43t-28.5 -27.5t-36 -19.5t-52 -9.5t-66.5 -7.5t-89 -4q-170 0 -223 41q-49 38 -84 202zM737 1997v14q0 21 21 21h299q17 0 24 -13l150 -266 q10 -16 -6 -29l-88 -51q-19 -10 -29 0l-360 299q-11 18 -11 25z" />
<glyph unicode="&#x1e81;" horiz-adv-x="1810" d="M49 1118q-6 29 25 29h260q16 0 22 -29l142 -835q6 -24 12 -31.5t20 -7.5q17 0 23 6.5t10 32.5l191 800q10 29 32 29h240q25 0 31 -29l190 -800q6 -27 11 -33t22 -6q14 0 21.5 7.5t13.5 31.5l141 835q6 29 23 29h260q27 0 24 -29l-176 -923q-24 -132 -80 -170 q-53 -35 -200 -35q-177 0 -224 33q-47 35 -77 172l-101 454l-100 -454q-27 -136 -78 -172q-44 -33 -221 -33q-147 0 -203 35q-53 38 -80 170zM510 1587v15q0 20 20 20h297q19 0 25 -12l149 -267q9 -16 -6 -28l-88 -51q-19 -9 -28 0l-359 299q-10 10 -10 24z" />
<glyph unicode="&#x1e82;" horiz-adv-x="2254" d="M49 1552q-6 33 27 33h272q23 0 29 -33l219 -1173q7 -38 16.5 -50t30.5 -12q24 0 33 11t20 51l269 1118q9 33 43 33h241q32 0 41 -33l271 -1118q11 -40 19 -51t32 -11q20 0 30 12.5t17 49.5l219 1173q4 20 10.5 26.5t20.5 6.5h270q35 0 29 -33l-256 -1319 q-29 -160 -84 -202q-53 -41 -221 -41q-193 0 -244 39q-52 40 -92 204l-183 775l-184 -775q-14 -52 -20.5 -76t-21 -56t-20.5 -43t-28.5 -27.5t-36 -19.5t-52 -9.5t-66.5 -7.5t-89 -4q-170 0 -223 41q-49 38 -84 202zM1001 1753l150 266q7 13 25 13h297q20 0 20 -21v-14 q0 -15 -10 -25l-359 -299q-12 -9 -28 0l-88 51q-16 13 -7 29z" />
<glyph unicode="&#x1e83;" horiz-adv-x="1810" d="M49 1118q-6 29 25 29h260q16 0 22 -29l142 -835q6 -24 12 -31.5t20 -7.5q17 0 23 6.5t10 32.5l191 800q10 29 32 29h240q25 0 31 -29l190 -800q6 -27 11 -33t22 -6q14 0 21.5 7.5t13.5 31.5l141 835q6 29 23 29h260q27 0 24 -29l-176 -923q-24 -132 -80 -170 q-53 -35 -200 -35q-177 0 -224 33q-47 35 -77 172l-101 454l-100 -454q-27 -136 -78 -172q-44 -33 -221 -33q-147 0 -203 35q-53 38 -80 170zM776 1343l150 267q6 12 24 12h299q21 0 21 -20v-15q0 -7 -10 -24l-361 -299q-10 -10 -29 0l-88 51q-15 12 -6 28z" />
<glyph unicode="&#x1e84;" horiz-adv-x="2254" d="M49 1552q-6 33 27 33h272q23 0 29 -33l219 -1173q7 -38 16.5 -50t30.5 -12q24 0 33 11t20 51l269 1118q9 33 43 33h241q32 0 41 -33l271 -1118q11 -40 19 -51t32 -11q20 0 30 12.5t17 49.5l219 1173q4 20 10.5 26.5t20.5 6.5h270q35 0 29 -33l-256 -1319 q-29 -160 -84 -202q-53 -41 -221 -41q-193 0 -244 39q-52 40 -92 204l-183 775l-184 -775q-14 -52 -20.5 -76t-21 -56t-20.5 -43t-28.5 -27.5t-36 -19.5t-52 -9.5t-66.5 -7.5t-89 -4q-170 0 -223 41q-49 38 -84 202zM741 1849q0 72 42.5 111t117.5 39q158 0 158 -150 q0 -151 -158 -151q-75 0 -117.5 39.5t-42.5 111.5zM1196 1849q0 72 41.5 111t116.5 39q157 0 157 -150q0 -151 -157 -151q-75 0 -116.5 39.5t-41.5 111.5z" />
<glyph unicode="&#x1e85;" horiz-adv-x="1810" d="M49 1118q-6 29 25 29h260q16 0 22 -29l142 -835q6 -24 12 -31.5t20 -7.5q17 0 23 6.5t10 32.5l191 800q10 29 32 29h240q25 0 31 -29l190 -800q6 -27 11 -33t22 -6q14 0 21.5 7.5t13.5 31.5l141 835q6 29 23 29h260q27 0 24 -29l-176 -923q-24 -132 -80 -170 q-53 -35 -200 -35q-177 0 -224 33q-47 35 -77 172l-101 454l-100 -454q-27 -136 -78 -172q-44 -33 -221 -33q-147 0 -203 35q-53 38 -80 170zM520 1440q0 72 41 110.5t119 38.5q75 0 116.5 -38.5t41.5 -110.5t-41.5 -112t-116.5 -40q-160 0 -160 152zM973 1440 q0 72 41 110.5t119 38.5q75 0 116 -38.5t41 -110.5t-41 -112t-116 -40q-160 0 -160 152z" />
<glyph unicode="&#x1ef2;" horiz-adv-x="1460" d="M6 1540q-23 45 23 45h288q36 0 56 -33l356 -721l358 721q17 33 56 33h289q45 0 22 -45l-563 -1032v-475q0 -33 -31 -33h-260q-31 0 -31 33v479zM322 1997v14q0 21 20 21h299q19 0 25 -13l149 -266q10 -16 -6 -29l-88 -51q-19 -10 -29 0l-360 299q-10 17 -10 25z" />
<glyph unicode="&#x1ef3;" horiz-adv-x="1273" d="M113 518v598q0 31 30 31h244q31 0 31 -31v-541q0 -200 45 -260q46 -61 201 -61q112 0 182 12v850q0 31 31 31h243q31 0 31 -31v-1091q0 -105 -10.5 -169.5t-40.5 -119.5q-40 -83 -148 -121.5t-303 -38.5q-209 0 -385 29q-28 3 -28 33v155q0 31 28 31h359q133 0 178 36.5 t45 139.5v12q-126 -22 -250 -22q-277 0 -381 116q-102 120 -102 412zM270 1587v15q0 20 21 20h297q18 0 24 -12l150 -267q9 -16 -6 -28l-88 -51q-16 -10 -29 0l-358 299q-11 18 -11 24z" />
<glyph unicode="&#x1ef8;" horiz-adv-x="1460" d="M6 1540q-23 45 23 45h288q36 0 56 -33l356 -721l358 721q17 33 56 33h289q45 0 22 -45l-563 -1032v-475q0 -33 -31 -33h-260q-31 0 -31 33v479zM356 1763q38 139 80 187q46 49 135 49q59 0 162 -41q98 -39 131 -39q35 0 54 14.5t38 53.5q13 29 37 20l88 -25q28 -9 23 -40 q-37 -140 -81 -189t-134 -49q-61 0 -162 39q-106 41 -131 41q-35 0 -54 -14.5t-38 -53.5q-10 -29 -37 -20l-88 24q-29 10 -23 43z" />
<glyph unicode="&#x1ef9;" horiz-adv-x="1273" d="M113 518v598q0 31 30 31h244q31 0 31 -31v-541q0 -200 45 -260q46 -61 201 -61q112 0 182 12v850q0 31 31 31h243q31 0 31 -31v-1091q0 -105 -10.5 -169.5t-40.5 -119.5q-40 -83 -148 -121.5t-303 -38.5q-209 0 -385 29q-28 3 -28 33v155q0 31 28 31h359q133 0 178 36.5 t45 139.5v12q-126 -22 -250 -22q-277 0 -381 116q-102 120 -102 412zM260 1354q37 137 80 186q46 49 135 49q57 0 160 -41q101 -39 133 -39q35 0 53.5 14.5t36.5 53.5q13 29 39 20l88 -24q29 -10 21 -41q-35 -139 -79.5 -188.5t-135.5 -49.5q-61 0 -162 39q-103 41 -131 41 q-35 0 -53 -14t-37 -53q-13 -30 -37 -21l-88 25q-29 10 -23 43z" />
<glyph unicode="&#x2000;" horiz-adv-x="1203" />
<glyph unicode="&#x2001;" horiz-adv-x="2406" />
<glyph unicode="&#x2002;" horiz-adv-x="1203" />
<glyph unicode="&#x2003;" horiz-adv-x="2406" />
<glyph unicode="&#x2004;" horiz-adv-x="802" />
<glyph unicode="&#x2005;" horiz-adv-x="601" />
<glyph unicode="&#x2006;" horiz-adv-x="401" />
<glyph unicode="&#x2007;" horiz-adv-x="401" />
<glyph unicode="&#x2008;" horiz-adv-x="300" />
<glyph unicode="&#x2009;" horiz-adv-x="481" />
<glyph unicode="&#x200a;" horiz-adv-x="133" />
<glyph unicode="&#x2010;" horiz-adv-x="927" d="M115 498v219q0 31 30 31h637q31 0 31 -31v-219q0 -31 -31 -31h-637q-30 0 -30 31z" />
<glyph unicode="&#x2011;" horiz-adv-x="927" d="M115 498v219q0 31 30 31h637q31 0 31 -31v-219q0 -31 -31 -31h-637q-30 0 -30 31z" />
<glyph unicode="&#x2012;" horiz-adv-x="927" d="M115 498v219q0 31 30 31h637q31 0 31 -31v-219q0 -31 -31 -31h-637q-30 0 -30 31z" />
<glyph unicode="&#x2013;" horiz-adv-x="1261" d="M115 498v219q0 31 30 31h969q33 0 33 -31v-219q0 -31 -33 -31h-969q-30 0 -30 31z" />
<glyph unicode="&#x2014;" horiz-adv-x="1941" d="M115 498v219q0 31 30 31h1651q31 0 31 -31v-219q0 -31 -31 -31h-1651q-30 0 -30 31z" />
<glyph unicode="&#x2018;" horiz-adv-x="608" d="M51 983v45q0 12 10 29l369 518q14 17 29 8l92 -51q12 -9 6 -29l-151 -524q-6 -16 -25 -16h-309q-21 0 -21 20z" />
<glyph unicode="&#x2019;" horiz-adv-x="591" d="M63 1044l152 525q6 16 25 16h309q20 0 20 -20v-45q0 -12 -10 -29l-369 -518q-10 -17 -28 -8l-92 51q-12 9 -7 28z" />
<glyph unicode="&#x201a;" horiz-adv-x="579" d="M-12 -285l151 525q6 18 25 18h309q21 0 21 -20v-48q0 -10 -11 -28l-368 -516q-14 -17 -29 -8l-92 49q-14 9 -6 28z" />
<glyph unicode="&#x201c;" horiz-adv-x="1120" d="M53 983v45q0 12 10 29l367 518q17 17 31 8l92 -51q12 -9 6 -29l-153 -524q-6 -16 -23 -16h-309q-21 0 -21 20zM563 983v45q0 12 10 29l369 518q17 17 31 8l90 -51q12 -9 6 -29l-151 -524q-6 -16 -25 -16h-309q-21 0 -21 20z" />
<glyph unicode="&#x201d;" horiz-adv-x="1116" d="M63 1044l152 525q6 16 25 16h309q20 0 20 -20v-45q0 -12 -10 -29l-369 -518q-10 -17 -28 -8l-92 51q-12 9 -7 28zM588 1044l151 525q6 16 25 16h309q21 0 21 -20v-45q0 -11 -11 -29l-368 -518q-10 -17 -29 -8l-92 51q-12 9 -6 28z" />
<glyph unicode="&#x201e;" horiz-adv-x="1089" d="M-12 -285l151 525q6 18 25 18h307q21 0 21 -20v-48q0 -10 -11 -28l-366 -516q-17 -17 -31 -8l-90 49q-14 9 -6 28zM498 -285l151 525q6 18 25 18h309q21 0 21 -20v-48q0 -10 -11 -28l-368 -516q-17 -17 -31 -8l-90 49q-14 9 -6 28z" />
<glyph unicode="&#x2020;" horiz-adv-x="1042" d="M86 993v195q0 31 33 31h250v335q0 31 30 31h244q31 0 31 -31v-335h250q32 0 32 -31v-195q0 -30 -32 -30h-250v-930q0 -33 -31 -33h-244q-30 0 -30 33v930h-250q-33 0 -33 30z" />
<glyph unicode="&#x2021;" horiz-adv-x="1042" d="M86 408v194q0 31 33 31h250v330h-250q-33 0 -33 30v195q0 31 33 31h250v335q0 31 30 31h244q31 0 31 -31v-335h250q32 0 32 -31v-195q0 -30 -32 -30h-250v-330h250q32 0 32 -31v-194q0 -31 -32 -31h-250v-344q0 -33 -31 -33h-244q-30 0 -30 33v344h-250q-33 0 -33 31z " />
<glyph unicode="&#x2022;" horiz-adv-x="1146" d="M211 594q0 152 96 238t268 86q170 0 265.5 -86t95.5 -238q0 -154 -95.5 -240t-265.5 -86q-172 0 -268 86t-96 240z" />
<glyph unicode="&#x2026;" horiz-adv-x="1529" d="M78 156q0 78 47 120.5t133 42.5q85 0 130.5 -42.5t45.5 -120.5t-46 -122t-130 -44q-86 0 -133 44t-47 122zM582 156q0 78 47 120.5t133 42.5q85 0 130.5 -42.5t45.5 -120.5t-46 -122t-130 -44q-86 0 -133 44t-47 122zM1096 156q0 78 47 120.5t133 42.5q85 0 130.5 -42.5 t45.5 -120.5t-46 -122t-130 -44q-86 0 -133 44t-47 122z" />
<glyph unicode="&#x202f;" horiz-adv-x="481" />
<glyph unicode="&#x2030;" horiz-adv-x="2809" d="M53 1174q0 248 78 335q80 86 309 86q228 0 305 -86q80 -86 80 -335q0 -248 -80 -334q-77 -86 -305 -86q-229 0 -309 86q-78 87 -78 334zM293 1174q0 -125 30.5 -169t116.5 -44t116 44t30 169q0 128 -30 172.5t-116 44.5t-116.5 -45t-30.5 -172zM467 31l801 1525 q16 31 49 31h110q29 0 13 -31l-801 -1525q-15 -31 -47 -31h-111q-29 0 -14 31zM1083 410q0 248 78 335q80 86 309 86t306 -86q79 -85 79 -335q0 -249 -79 -334q-77 -86 -306 -86t-309 86q-78 87 -78 334zM1323 410q0 -125 30.5 -169t116.5 -44t116 44t30 169q0 127 -30 171 t-116 44t-116.5 -45t-30.5 -170zM1982 410q0 248 78 335q80 86 307 86q231 0 308 -86q80 -86 80 -335q0 -248 -80 -334q-77 -86 -308 -86q-227 0 -307 86q-78 87 -78 334zM2222 410q0 -124 30 -168.5t115 -44.5q86 0 117 44.5t31 168.5q0 125 -31 170t-117 45 q-85 0 -115 -45t-30 -170z" />
<glyph unicode="&#x2039;" horiz-adv-x="704" d="M68 514v109q0 30 18 51l221 291q15 18 37 18h242q30 0 30 -31v-14q0 -23 -14 -37l-268 -334l268 -334q14 -14 14 -36v-15q0 -30 -30 -30h-242q-22 0 -37 18l-221 291q-18 21 -18 53z" />
<glyph unicode="&#x203a;" horiz-adv-x="702" d="M88 182v15q0 22 14 36l267 334l-267 334q-14 14 -14 37v14q0 31 31 31h239q22 0 37 -18l223 -291q19 -25 19 -51v-109q0 -28 -19 -53l-223 -291q-15 -18 -37 -18h-239q-31 0 -31 30z" />
<glyph unicode="&#x2044;" horiz-adv-x="286" d="M-301 -53l743 1683q15 35 45 35h80q29 0 17 -35l-740 -1683q-15 -35 -47 -35h-82q-34 0 -16 35z" />
<glyph unicode="&#x205f;" horiz-adv-x="601" />
<glyph unicode="&#x2070;" horiz-adv-x="784" d="M72 1479q0 252 63 338q66 90 256 90t256 -90q66 -91 66 -338t-66 -338q-64 -88 -256 -88t-256 88q-63 86 -63 338zM246 1479q0 -161 29.5 -218t115.5 -57q90 0 117 56q29 63 29 219t-29 219q-26 57 -117 57q-88 0 -117 -57q-28 -61 -28 -219z" />
<glyph unicode="&#x2074;" horiz-adv-x="792" d="M47 1276v72q0 17 8 38l138 500q3 15 24 15h135q22 0 15 -23l-131 -471h196v199q0 17 17 24l135 47q24 9 24 -14v-256h123q23 0 23 -18v-113q0 -21 -23 -21h-123v-176q0 -20 -20 -20h-135q-21 0 -21 20v176h-366q-19 0 -19 21z" />
<glyph unicode="&#x2075;" horiz-adv-x="737" d="M78 1092v98q0 14 18 14h228q101 0 136.5 19.5t35.5 81.5v26q0 62 -37 84.5t-135 22.5h-218q-28 0 -28 20v105l22 321q3 17 19 17h512q20 0 20 -21v-111q0 -20 -20 -20h-373l-12 -168q36 8 108 8q175 0 245.5 -53.5t70.5 -194.5v-41q0 -142 -72 -196q-68 -51 -274 -51 q-119 0 -228 16q-18 3 -18 23z" />
<glyph unicode="&#x2076;" horiz-adv-x="720" d="M53 1284v66q3 64 25 116l209 420q9 15 22 15h148q27 0 14 -25l-152 -311q31 8 82 8q126 0 198.5 -54.5t72.5 -158.5v-94q0 -110 -74.5 -161.5t-232.5 -51.5t-234.5 55t-77.5 176zM227 1307q0 -59 31 -81t107 -22t104.5 22t28.5 81v26q0 59 -28.5 80t-104.5 21 q-79 0 -108.5 -21t-29.5 -80v-26z" />
<glyph unicode="&#x2077;" horiz-adv-x="698" d="M43 1767v113q0 21 23 21h575q21 0 21 -21v-84q0 -11 -11 -29l-358 -694q-8 -14 -25 -14h-155q-28 0 -15 22l348 668h-380q-23 0 -23 18z" />
<glyph unicode="&#x2078;" horiz-adv-x="763" d="M63 1282q0 140 142 205q-113 46 -113 188q0 232 283 232h18q283 0 283 -230q0 -75 -26 -119t-85 -81q133 -47 133 -191q0 -119 -74.5 -176t-232.5 -57h-20q-308 0 -308 229zM242 1307q0 -103 131 -103h16q131 0 131 94q0 78 -86 99l-100 24q-92 -35 -92 -114zM272 1659 q0 -73 80 -94l82 -19q62 35 62 111q0 98 -105 98h-18q-101 0 -101 -96z" />
<glyph unicode="&#x2079;" horiz-adv-x="722" d="M49 1599v93q0 112 73 163.5t232 51.5q157 0 233.5 -55t80.5 -177v-65q-3 -70 -27 -117l-209 -420q-6 -14 -22 -14h-146q-23 0 -14 24l151 312q-34 -9 -82 -9q-127 0 -198.5 53.5t-71.5 159.5zM223 1626q0 -59 27.5 -79.5t103.5 -20.5q80 0 110 20.5t30 79.5v27 q0 59 -30 79.5t-110 20.5q-75 0 -103 -20.5t-28 -79.5v-27z" />
<glyph unicode="&#x207d;" horiz-adv-x="440" d="M70 1421q0 202 26 287q28 93 158 246q5 8 18 8h131q7 0 7 -8v-10q0 -11 -2 -13q-130 -171 -156 -250q-25 -83 -25 -260t27 -260q27 -82 154 -250q2 -2 2 -12v-10q0 -8 -7 -8h-131q-13 0 -18 8q-131 172 -156 256q-28 92 -28 276z" />
<glyph unicode="&#x207e;" horiz-adv-x="440" d="M31 889v10q0 1 0.5 2.5l1.5 4.5t2 5q130 170 153 248q25 86 25 262q0 177 -27 260q-24 82 -151 250q-4 12 -4 13v10q0 8 6 8h131q12 0 20 -8q127 -164 154 -254q29 -95 29 -279q0 -139 -6 -198q-15 -143 -177 -334q-8 -8 -20 -8h-131q-6 0 -6 8z" />
<glyph unicode="&#x20a4;" horiz-adv-x="1329" d="M53 31l39 219q9 31 39 31h135v237h-116q-33 0 -33 31v80q0 30 33 30h116v142h-116q-33 0 -33 30v80q0 31 33 31h116v229q0 245 148 334q149 88 477 88q120 0 285 -28q45 -12 45 -47v-181q0 -26 -31 -26h-279q-196 0 -260 -43q-61 -40 -61 -162v-164h444q33 0 33 -31v-80 q0 -30 -33 -30h-444v-142h444q33 0 33 -30v-80q0 -31 -33 -31h-444v-237h637q33 0 33 -31v-219q0 -31 -33 -31h-1145q-32 0 -29 31z" />
<glyph unicode="&#x20ac;" horiz-adv-x="1396" d="M47 641l21 76q6 31 41 31h182v47v67h-152q-30 0 -24 31l20 76q9 30 39 30h123q24 341 164 469q141 129 487 129q164 0 334 -30q57 -15 45 -58l-49 -161q-9 -31 -35 -31h-295q-169 0 -239 -70q-71 -68 -86 -248h510q31 0 22 -30l-20 -76q-6 -31 -39 -31h-480v-67v-47h449 q31 0 25 -31l-21 -76q-9 -31 -41 -31h-405q15 -193 82 -266q71 -74 243 -74h312q30 0 30 -30v-166q0 -42 -47 -54q-150 -30 -295 -30q-349 0 -491 133q-141 132 -162 487h-223q-31 0 -25 31z" />
<glyph unicode="&#x20b9;" horiz-adv-x="1454" d="M92 604v187q0 30 31 30h346q180 0 238 37q60 37 69 164h-651q-33 0 -33 31v75q0 31 33 31h643q-13 91 -78 124.5t-221 33.5h-346q-31 0 -31 31v206q0 31 31 31h1243q33 0 33 -31v-77q0 -31 -33 -31l-358 2q80 -95 92 -289h268q31 0 31 -31v-75q0 -31 -31 -31h-266 q-6 -204 -78 -301q-73 -98 -236 -127l349 -553q12 -17 5 -29t-30 -12h-258q-31 0 -47.5 9.5t-34.5 35.5l-334 528h-315q-31 0 -31 31z" />
<glyph unicode="&#x20bd;" horiz-adv-x="1492" d="M72 317v129q0 31 32 31h158v189h-158q-32 0 -32 30v129q0 31 32 31h158v690q0 17 6 22t25 7q261 22 545 22q347 0 473 -102q127 -103 127 -401q0 -159 -30 -252t-103 -146q-72 -52 -175 -70t-292 -18h-254v-131h356q33 0 33 -31v-129q0 -30 -33 -30h-356v-254 q0 -20 -6 -26.5t-25 -6.5h-260q-19 0 -25 6.5t-6 26.5v254h-158q-32 0 -32 30zM584 856h221q192 0 248 39q59 41 59 190q0 150 -59 191t-248 41h-221v-461z" />
<glyph unicode="&#x2113;" horiz-adv-x="854" d="M119 242v1104q3 76 27.5 127.5t69 78t97 37t121.5 8.5q148 0 234 -43q104 -50 104 -208v-654q0 -142 -80 -197t-248 -55h-106v-137q0 -112 113 -115h213q30 0 30 -30v-121q0 -30 -28 -33q-120 -14 -226 -14q-164 0 -242.5 55.5t-78.5 196.5zM338 639h106q61 1 85 25 t24 81v555q0 55 -23.5 76t-83.5 21q-62 0 -85 -21t-23 -76v-661z" />
<glyph unicode="&#x2116;" horiz-adv-x="2293" d="M158 33v1519q0 33 30 33h203q62 -6 78.5 -15t48.5 -52l635 -928v962q0 33 31 33h260q31 0 31 -33v-1519q0 -33 -31 -33h-191q-66 0 -102 51l-672 985v-1003q0 -33 -30 -33h-261q-30 0 -30 33zM1651 817v74q0 31 30 31h519q30 0 30 -31v-74q0 -31 -30 -31h-519 q-30 0 -30 31zM1651 1319q0 278 288 278q291 0 291 -278q0 -279 -291 -279q-288 0 -288 279zM1810 1319q0 -129 129 -129t129 129t-129 129t-129 -129z" />
<glyph unicode="&#x2117;" horiz-adv-x="1732" d="M88 768q0 403 188 594q187 190 590 190t590 -190q189 -192 189 -594t-189 -594q-187 -190 -590 -190t-590 190q-188 191 -188 594zM209 768q0 -340 159.5 -501t497.5 -161t498 161t160 501t-160 501t-498 161q-339 0 -498 -160t-159 -502zM596 362v756q0 16 18 19 q120 12 301 12q166 0 231.5 -59t65.5 -211q0 -150 -63 -201t-234 -51h-129v-265q0 -14 -3.5 -18t-16.5 -4h-150q-13 0 -16.5 4t-3.5 18zM786 776h109q79 0 102 18t23 80q0 63 -25.5 86t-99.5 23h-109v-207z" />
<glyph unicode="&#x2120;" horiz-adv-x="2088" d="M106 668v114q0 19 19 19h369q92 0 92 61v23q0 70 -88 100l-254 94q-127 47 -127 242v33q0 148 106 194q94 43 256 43q124 0 250 -24q16 -3 16 -17v-118q0 -19 -18 -19h-299q-106 0 -106 -72v-22q0 -62 69 -88l232 -90q96 -37 133 -86t37 -152v-41q0 -125 -91 -182 t-270 -57q-148 0 -311 24q-15 3 -15 21zM870 651l88 914q3 18 19 18h162q29 0 42 -9t23 -38l228 -592l225 592q12 31 25 40t44 9h162q14 0 17 -20l88 -912q3 -24 -23 -24h-158q-19 0 -22 24l-51 568l-215 -541q-6 -16 -25 -16h-133q-17 0 -27 16l-215 543l-51 -570 q0 -24 -22 -24h-158q-13 0 -19 5.5t-4 16.5z" />
<glyph unicode="&#x2122;" horiz-adv-x="2043" d="M49 1432v131q0 22 25 22h708q25 0 25 -22v-131q0 -23 -25 -23h-252v-756q0 -22 -24 -22h-158q-22 0 -22 22v756h-252q-25 0 -25 23zM819 653l88 914q3 18 17 18h163q31 0 44.5 -9t23.5 -38l225 -594l226 594q12 29 25 38t44 9h162q16 0 16 -18l89 -914q1 -10 -5 -16 t-18 -6h-156q-21 0 -24 22l-51 570l-215 -541q-6 -16 -25 -16h-133q-19 0 -25 16l-215 541l-51 -570q-3 -22 -25 -22h-155q-13 0 -19.5 5.5t-5.5 16.5z" />
<glyph unicode="&#x2126;" horiz-adv-x="1789" d="M92 858q0 380 194.5 558.5t606.5 178.5t607.5 -178.5t195.5 -554.5q0 -236 -93.5 -390.5t-275.5 -209.5h307q31 0 31 -31v-200q0 -31 -31 -31h-592q-30 0 -30 31v274q0 26 26 35q164 44 256 164.5t92 310.5q0 260 -118.5 381t-374.5 121q-252 0 -372 -122t-120 -380 q0 -187 92.5 -308.5t256.5 -166.5q26 -9 26 -35v-274q0 -31 -31 -31h-589q-31 0 -31 31v200q0 31 31 31h305q-182 55 -275.5 208.5t-93.5 387.5z" />
<glyph unicode="&#x212e;" horiz-adv-x="1255" d="M80 584q0 252 153 422q153 172 410 172t406 -174q153 -173 153 -422h-878v-396q135 -129 311 -129q148 0 245.5 63.5t184.5 196.5l63 -38q-96 -148 -209 -218.5t-284 -70.5q-243 0 -399 172q-156 176 -156 422zM324 649h632v334q-139 127 -313 127q-195 0 -319 -127v-334 z" />
<glyph unicode="&#x215b;" horiz-adv-x="1792" d="M57 1464v86q0 15 21 27q43 14 112 14q63 0 99 -8q46 -8 79 -46t33 -101v-541h131q23 0 23 -21v-112q0 -19 -23 -19h-442q-22 0 -22 21v110q0 21 22 21h141v485q0 37 -19.5 51.5t-66.5 14.5h-65q-23 0 -23 18zM422 -53l743 1683q15 35 45 35h80q32 0 17 -35l-740 -1683 q-18 -35 -47 -35h-82q-31 0 -16 35zM1104 223q0 147 141 205q-112 46 -112 190q0 230 282 230h19q282 0 282 -230q0 -76 -25.5 -119.5t-84.5 -80.5q133 -47 133 -191q0 -233 -307 -233h-21q-307 0 -307 229zM1282 248q0 -101 131 -101h17q131 0 131 93q0 80 -84 98l-103 24 q-92 -35 -92 -114zM1313 600q0 -73 80 -94l82 -17q61 30 61 109q0 98 -104 98h-19q-100 0 -100 -96z" />
<glyph unicode="&#x215c;" horiz-adv-x="1826" d="M68 780v92q0 17 18 17h174q116 0 153.5 17.5t37.5 72.5v25q3 92 -144 92h-174q-16 0 -16 16v105q0 16 16 16h172q85 0 115.5 20t30.5 76v21q0 55 -37.5 72.5t-153.5 17.5h-174q-18 0 -18 14v94q0 20 18 23q103 20 244 20q159 0 228 -48.5t69 -174.5v-31q0 -145 -119 -172 q119 -21 119 -170v-37q0 -125 -69 -173t-228 -48q-124 0 -244 19q-18 3 -18 24zM444 -53l744 1683q15 35 45 35h80q28 0 16 -35l-739 -1683q-15 -35 -47 -35h-82q-35 0 -17 35zM1139 223q0 147 141 205q-113 46 -113 190q0 230 283 230h18q283 0 283 -230q0 -76 -25.5 -120 t-87.5 -80q136 -47 136 -191q0 -233 -308 -233h-20q-307 0 -307 229zM1317 248q0 -101 131 -101h14q133 0 133 93q0 80 -86 98l-100 24q-92 -35 -92 -114zM1346 600q0 -73 81 -94l80 -17q64 30 64 109q0 98 -107 98h-16q-102 0 -102 -96z" />
<glyph unicode="&#x215d;" horiz-adv-x="1853" d="M74 776v98q0 15 20 15h225q101 0 137 19.5t36 80.5v27q0 62 -37.5 84t-135.5 22h-217q-28 0 -28 21v104l22 322q3 16 19 16h512q20 0 20 -20v-111q0 -20 -20 -20h-373l-12 -168q36 8 108 8q175 0 245.5 -53.5t70.5 -194.5v-41q0 -143 -72 -197q-68 -51 -275 -51 q-111 0 -227 17q-18 3 -18 22zM489 -53l742 1683q15 35 47 35h80q29 0 14 -35l-739 -1683q-18 -35 -45 -35h-84q-33 0 -15 35zM1165 223q0 146 142 205q-113 46 -113 190q0 230 283 230h18q283 0 283 -230q0 -75 -26 -119t-85 -81q133 -47 133 -191q0 -233 -307 -233h-20 q-308 0 -308 229zM1343 248q0 -101 132 -101h16q131 0 131 93q0 80 -86 98l-100 24q-93 -35 -93 -114zM1374 600q0 -73 80 -94l82 -17q61 30 61 109q0 98 -104 98h-18q-101 0 -101 -96z" />
<glyph unicode="&#x215e;" horiz-adv-x="1722" d="M51 1452v113q0 20 23 20h575q21 0 21 -20v-84q0 -16 -8 -29l-361 -694q-6 -15 -25 -15h-155q-28 0 -15 23l349 668h-381q-23 0 -23 18zM317 -53l744 1683q15 35 45 35h80q28 0 16 -35l-741 -1683q-18 -35 -45 -35h-82q-35 0 -17 35zM1030 223q0 147 141 205 q-110 46 -110 190q0 230 280 230h19q282 0 282 -230q0 -76 -25.5 -119.5t-84.5 -80.5q133 -47 133 -191q0 -233 -307 -233h-21q-307 0 -307 229zM1210 248q0 -101 131 -101h15q131 0 131 93q0 83 -84 98l-100 24q-93 -35 -93 -114zM1239 600q0 -73 80 -94l82 -17 q63 29 63 109q0 98 -106 98h-17q-102 0 -102 -96z" />
<glyph unicode="&#x2190;" horiz-adv-x="1941" d="M131 559v49q0 28 21 43l661 381q38 12 39 12h57q21 0 21 -20v-328h833q31 0 31 -30v-162q0 -31 -31 -31h-833v-328q0 -20 -21 -20h-57q-14 0 -41 12l-659 379q-21 12 -21 43z" />
<glyph unicode="&#x2191;" horiz-adv-x="1173" d="M127 639v57l12 37l381 662q11 20 43 20h49q29 0 43 -20l379 -660q13 -29 13 -39v-57q0 -23 -23 -23h-326v-831q0 -33 -30 -33h-162q-31 0 -31 33v831h-328q-20 0 -20 23z" />
<glyph unicode="&#x2192;" horiz-adv-x="1941" d="M147 504v162q0 30 33 30h832v328q0 20 22 20h58l36 -12l662 -381q20 -11 20 -43v-49q0 -32 -20 -43l-660 -379q-27 -12 -38 -12h-58q-22 0 -22 20v328h-832q-33 0 -33 31z" />
<glyph unicode="&#x2193;" horiz-adv-x="1173" d="M127 473v57q0 21 20 21h328v833q0 31 31 31h162q30 0 30 -31v-833h326q23 0 23 -21v-57q0 -12 -15 -39l-381 -661q-9 -21 -41 -21h-51q-29 0 -41 21l-379 659q-12 27 -12 41z" />
<glyph unicode="&#x2194;" horiz-adv-x="2502" d="M131 559v49q0 30 23 43l659 381q3 0 18 6t21 6h57q20 0 23 -20v-328h639v328q3 20 22 20h58l37 -12l661 -381q23 -13 23 -43v-49q-3 -33 -23 -43l-659 -379q-27 -12 -39 -12l-58 2q-22 -3 -22 18v328h-639v-328q0 -21 -23 -18l-57 -2q-6 0 -41 12l-657 379q-20 10 -23 43 z" />
<glyph unicode="&#x2195;" horiz-adv-x="1189" d="M135 186v58q0 20 21 20h327v641h-327q-21 0 -21 21v57q0 1 12 39l381 661q15 21 43 21h50q28 0 43 -21l378 -659q13 -29 13 -41l-2 -57q3 -21 -21 -21h-325v-641h325q24 0 21 -20l2 -58q0 -12 -13 -41l-378 -659q-15 -21 -43 -21l-50 -2q-27 0 -43 23l-381 661 q-12 37 -12 39z" />
<glyph unicode="&#x2196;" horiz-adv-x="1536" d="M139 1126q-7 23 15 45l36 35q23 23 43 15l736 -197q31 -14 37 -20l38 -41q17 -17 3 -29l-232 -232l588 -587q25 -22 2 -45l-115 -115q-22 -23 -45 0l-588 588l-231 -230q-12 -12 -31 0l-39 41q-9 6 -18 37z" />
<glyph unicode="&#x2197;" horiz-adv-x="1538" d="M131 70q-21 22 2 45l588 590l-232 229q-14 14 3 31l38 41q11 7 37 16l738 199q25 6 43 -15l34 -35q23 -23 17 -45l-197 -733q-13 -30 -22 -39l-39 -39q-17 -17 -31 -2l-229 232l-590 -590q-23 -23 -45 0z" />
<glyph unicode="&#x2198;" horiz-adv-x="1533" d="M131 1053q-21 24 0 45l115 116q20 20 45 -2l590 -587l229 231q16 13 31 -2l39 -39l18 -37l199 -737q6 -24 -15 -45l-34 -35q-26 -22 -45 -14l-734 196q-27 9 -39 21l-38 41q-19 15 -3 31l232 229z" />
<glyph unicode="&#x2199;" horiz-adv-x="1533" d="M137 41l197 735q14 31 20 37l41 39q15 15 31 2l229 -231l590 587q23 22 43 2l115 -116q21 -22 0 -43l-588 -588l232 -232q14 -14 -3 -28l-40 -41q-11 -11 -35 -19l-738 -198q-25 -6 -45 14l-34 37q-23 23 -15 43z" />
<glyph unicode="&#x2202;" horiz-adv-x="1341" d="M63 412l29 151q88 408 617 408q91 0 149 -15l-168 592q-9 37 29 37h276q24 0 33 -20l232 -793q21 -84 -7 -209l-26 -149q-48 -227 -215 -325.5t-465 -98.5q-292 0 -412 97.5t-72 324.5zM399 481q-27 -119 15 -165t188 -46q156 0 221 47q68 47 95 166l2 11 q25 120 -21 165.5t-199 45.5q-148 0 -211 -48q-64 -48 -90 -165v-11z" />
<glyph unicode="&#x2206;" horiz-adv-x="1460" d="M41 23v73q0 18 8 31l512 1305q12 24 37 24h274q28 0 37 -24l502 -1303q6 -18 6 -33v-73q0 -23 -24 -23h-1327q-25 0 -25 23zM455 285h565l-287 782z" />
<glyph unicode="&#x220f;" horiz-adv-x="1445" d="M18 1389v215q0 30 31 30h1348q30 0 30 -30v-215q0 -31 -30 -31h-174v-1475q0 -30 -31 -30h-240q-30 0 -30 30v1475h-398v-1475q0 -30 -30 -30h-238q-31 0 -31 30v1475h-176q-31 0 -31 31z" />
<glyph unicode="&#x2211;" horiz-adv-x="1212" d="M20 27q0 17 13 36l424 625q12 18 12 37v8q0 17 -10 37l-416 643q-10 17 -10 37v154q0 30 30 30h1016q31 0 31 -30v-230q0 -31 -31 -31h-630l368 -567q10 -17 10 -33v-12q0 -20 -10 -37l-377 -559h705q31 0 31 -31v-229q0 -31 -31 -31h-1094q-31 0 -31 31v152z" />
<glyph unicode="&#x2212;" horiz-adv-x="1085" d="M119 528v220q0 30 33 30h782q33 0 33 -30v-220q0 -30 -33 -30h-782q-33 0 -33 30z" />
<glyph unicode="&#x221a;" horiz-adv-x="1304" d="M-2 719q-10 30 18 39l392 133q29 9 38 -21l205 -624l324 1372q6 27 35 27h245q36 0 27 -35l-426 -1835q-6 -27 -35 -27h-303q-26 0 -35 25l-260 770l-119 -43q-29 -13 -38 18z" />
<glyph unicode="&#x221e;" horiz-adv-x="1730" d="M86 639q0 201 88 287t297 86q153 0 307 -133l88 -82l88 82q142 130 303 133q209 0 298.5 -86t89.5 -287q0 -204 -89.5 -291.5t-298.5 -87.5q-169 3 -325 150l-68 65l-59 -59q-92 -84 -169 -120t-165 -36q-209 0 -297 87t-88 292zM324 637q0 -72 34.5 -103.5t112.5 -31.5 q87 0 182 80l66 55l-68 57q-96 78 -180 78q-78 0 -112.5 -31.5t-34.5 -103.5zM1010 637l73 -62q82 -73 174 -73q78 0 112 31.5t36 103.5q-2 72 -36 103.5t-112 31.5q-91 0 -174 -74z" />
<glyph unicode="&#x222b;" horiz-adv-x="888" d="M23 84q0 31 34 31h162q65 0 90 16.5t25 65.5q0 186 -41 575q-41 392 -41 580q0 181 113 241q53 28 107.5 37.5t139.5 9.5q119 0 222 -20q32 -6 32 -39v-170q0 -33 -35 -33h-161q-65 0 -90 -16t-25 -64q0 -187 41 -579q41 -389 41 -578q0 -181 -113 -241 q-53 -28 -108 -37.5t-140 -9.5q-101 0 -221 20q-32 6 -32 41v170z" />
<glyph unicode="&#x2248;" horiz-adv-x="1316" d="M82 995q41 117 133 183.5t213 66.5q62 0 126.5 -23t111.5 -57q114 -78 196 -78q111 0 166 101q15 24 41 6l139 -90q21 -12 9 -37q-41 -117 -133.5 -183.5t-215.5 -66.5q-56 -2 -121 23.5t-113.5 56.5t-103.5 56t-94 22q-111 0 -166 -101q-12 -24 -37 -8l-141 90 q-19 13 -10 39zM98 514q43 117 134.5 183.5t211.5 66.5q57 2 123.5 -23.5t115.5 -56.5t104 -56.5t92 -23.5q107 0 165 101q14 26 41 8l140 -90q20 -12 8 -39q-41 -116 -134 -183t-214 -67q-103 0 -236 80t-196 80q-108 0 -166 -101q-12 -26 -37 -10l-141 92q-23 13 -11 39z " />
<glyph unicode="&#x2260;" horiz-adv-x="1345" d="M119 266v217q0 31 31 31h415l113 254h-528q-31 0 -31 31v217q0 31 31 31h651l84 194q15 35 47 35h98q32 0 17 -35l-86 -194h235q31 0 31 -31v-217q0 -31 -31 -31h-356l-111 -254h467q31 0 31 -31v-217q0 -30 -31 -30h-590l-80 -183q-15 -35 -45 -35h-102q-32 0 -17 35 l82 183h-294q-31 0 -31 30z" />
<glyph unicode="&#x2264;" horiz-adv-x="1234" d="M109 207v170q0 31 30 31h932q31 0 31 -31v-170q0 -31 -31 -31h-932q-30 0 -30 31zM109 848v176q0 26 26 35l891 293q5 1 11.5 2t10 1.5t5.5 0.5h30q21 0 21 -23v-196q0 -27 -25 -33l-549 -168l549 -168q25 -9 25 -35v-196q0 -21 -21 -21h-30q-15 0 -27 4l-893 293 q-24 9 -24 35z" />
<glyph unicode="&#x2265;" horiz-adv-x="1234" d="M131 537v196q0 26 27 35l549 168l-549 168q-27 6 -27 33v196q0 23 23 23h30q5 0 25 -4l893 -293q24 -9 24 -35v-176q0 -26 -24 -35l-893 -293q-12 -4 -25 -4h-30q-23 0 -23 21zM135 207v170q0 31 31 31h930q30 0 30 -31v-170q0 -31 -30 -31h-930q-31 0 -31 31z" />
<glyph unicode="&#x2460;" d="M70 793q0 366 192.5 557.5t556.5 191.5q370 0 560 -190.5t190 -558.5q0 -367 -191.5 -558.5t-558.5 -191.5t-558 191.5t-191 558.5zM176 793q0 -643 643 -643t643 643t-643 643t-643 -643zM590 1085v86q0 18 20 27q41 14 113 14q80 0 137 -24q72 -28 72 -131v-541h133 q20 0 20 -20v-113q0 -18 -20 -18h-442q-23 0 -23 20v111q0 20 23 20h141v485q0 37 -19.5 51.5t-66.5 14.5h-66q-22 0 -22 18z" />
<glyph unicode="&#x2461;" d="M70 793q0 366 192.5 557.5t556.5 191.5q372 0 561 -190.5t189 -558.5q0 -367 -191.5 -558.5t-558.5 -191.5t-558 191.5t-191 558.5zM176 793q0 -643 643 -643t643 643t-643 643t-643 -643zM520 395v103q0 73 31.5 118.5t118.5 96.5l215 131q53 30 53 98v39q0 46 -26.5 63 t-94.5 17h-235q-15 0 -15 14v96q0 18 17 21q97 20 231 20q137 0 207 -32q92 -39 92 -160v-100q0 -72 -22 -115t-86 -82l-211 -119q-74 -35 -74 -76v-12h389q12 0 12 -8v-135q0 -8 -12 -8h-561q-29 0 -29 30z" />
<glyph unicode="&#x2462;" d="M70 793q0 366 192.5 557.5t556.5 191.5q368 0 559 -192t191 -557q0 -367 -193 -560q-190 -190 -557 -190q-366 0 -559 190q-190 193 -190 560zM176 793q0 -643 643 -643t643 643t-643 643t-643 -643zM541 401v93q0 16 18 16h174q118 0 155.5 17.5t37.5 72.5v25 q0 92 -146 92h-174q-16 0 -16 16v105q0 16 16 16h172q85 0 116.5 20.5t31.5 75.5v21q0 55 -38.5 72.5t-154.5 17.5h-174q-18 0 -18 14v94q0 20 18 23q103 20 244 20q160 0 228.5 -48.5t68.5 -174.5v-31q0 -145 -117 -172q117 -21 117 -170v-36q0 -126 -68.5 -174t-228.5 -48 q-124 0 -244 19q-18 3 -18 24z" />
<glyph unicode="&#x2463;" d="M70 793q0 366 192.5 557.5t556.5 191.5q368 0 559 -192t191 -557q0 -367 -193 -560q-190 -190 -557 -190q-366 0 -559 190q-190 193 -190 560zM176 793q0 -643 643 -643t643 643t-643 643t-643 -643zM467 582v71q0 6 8 39l137 500q6 14 27 14h133q20 0 14 -22l-129 -471 h197v198q0 19 14 25l136 47q24 9 24 -14v-256h123q23 0 23 -19v-112q0 -21 -23 -21h-123v-176q0 -20 -20 -20h-136q-18 0 -18 20v176h-367q-20 0 -20 21z" />
<glyph unicode="&#x2464;" d="M70 793q0 366 192.5 557.5t556.5 191.5q368 0 559 -192t191 -557q0 -367 -193 -560q-190 -190 -557 -190q-366 0 -559 190q-190 193 -190 560zM176 793q0 -643 643 -643t643 643t-643 643t-643 -643zM524 397v99q0 14 19 14h225q102 0 137 19t35 81v27q0 62 -36.5 84 t-135.5 22h-215q-29 0 -29 21v104l23 322q0 16 16 16h514q21 0 21 -20v-111q0 -20 -21 -20h-372l-13 -168q36 8 109 8q175 0 244 -53.5t69 -194.5v-41q0 -142 -72 -196q-70 -52 -274 -52q-113 0 -225 17q-19 3 -19 22z" />
<glyph unicode="&#x2465;" d="M70 793q0 366 192.5 557.5t556.5 191.5q368 0 559 -192t191 -557q0 -367 -193 -560q-190 -190 -557 -190q-366 0 -559 190q-190 193 -190 560zM176 793q0 -643 643 -643t643 643t-643 643t-643 -643zM510 590v65q3 65 25 117l208 420q8 14 25 14h147q25 0 13 -24 l-150 -312q30 9 80 9q126 0 198 -54.5t72 -158.5v-95q0 -110 -74.5 -161.5t-232.5 -51.5q-155 0 -231 55t-80 177zM686 612q0 -59 29.5 -80.5t105.5 -21.5t105.5 21.5t29.5 80.5v27q0 59 -29 79.5t-106 20.5t-106 -20.5t-29 -79.5v-27z" />
<glyph unicode="&#x2466;" d="M70 793q0 366 192.5 557.5t556.5 191.5q368 0 559 -192t191 -557q0 -367 -193 -560q-190 -190 -557 -190q-366 0 -559 190q-190 193 -190 560zM176 793q0 -643 643 -643t643 643t-643 643t-643 -643zM510 1073v113q0 20 22 20h576q20 0 20 -20v-84q0 -16 -8 -29 l-360 -694q-6 -14 -25 -14h-155q-28 0 -15 22l348 668h-381q-22 0 -22 18z" />
<glyph unicode="&#x2467;" d="M70 793q0 366 192.5 557.5t556.5 191.5q368 0 559 -192t191 -557q0 -367 -193 -560q-190 -190 -557 -190q-366 0 -559 190q-190 193 -190 560zM176 793q0 -643 643 -643t643 643t-643 643t-643 -643zM502 588q0 140 141 205q-113 46 -113 188q0 231 283 231h18 q283 0 283 -229q0 -76 -25.5 -120t-84.5 -81q133 -47 133 -190q0 -119 -75 -176.5t-233 -57.5h-20q-307 0 -307 230zM682 612q0 -102 131 -102h14q131 0 131 94q0 77 -84 98l-100 25q-92 -35 -92 -115zM707 965q0 -74 81 -95l80 -18q64 34 64 111q0 98 -107 98h-16 q-102 0 -102 -96z" />
<glyph unicode="&#x2468;" d="M70 793q0 366 192.5 557.5t556.5 191.5q368 0 559 -192t191 -557q0 -367 -193 -560q-190 -190 -557 -190q-366 0 -559 190q-190 193 -190 560zM176 793q0 -643 643 -643t643 643t-643 643t-643 -643zM510 905v92q0 112 73.5 163.5t233.5 51.5q158 0 234 -55t77 -176v-66 q0 -67 -24 -116l-209 -420q-8 -14 -25 -14h-145q-23 0 -14 24l151 311q-31 -8 -80 -8q-128 0 -200 53.5t-72 159.5zM686 932q0 -59 27.5 -80t103.5 -21q79 0 109 21t30 80v26q0 59 -30 80t-109 21q-75 0 -103 -21t-28 -80v-26z" />
<glyph unicode="&#x24ea;" d="M68 793q0 367 192 558t559 191q372 0 561 -190.5t189 -558.5q0 -367 -191.5 -558.5t-558.5 -191.5t-559 191.5t-192 558.5zM174 793q0 -643 645 -643q643 0 643 643t-643 643q-645 0 -645 -643zM498 784q0 254 63 340q64 88 256 88t256 -88q66 -91 66 -340 q0 -247 -66 -338q-64 -88 -256 -88t-256 88q-63 86 -63 338zM672 784q0 -160 29.5 -216t115.5 -56q90 0 117 55q31 60 31 217q0 160 -31 220q-26 57 -117 57q-88 0 -117 -57q-28 -61 -28 -220z" />
<glyph unicode="&#x24ff;" d="M121 752q0 344 177 520t521 176q345 0 521 -176.5t176 -519.5q0 -344 -177 -521q-176 -176 -520 -176q-343 0 -522 176q-176 176 -176 521zM498 743q0 -251 63 -337q65 -89 256 -89t256 89q66 91 66 337q0 249 -66 340q-64 88 -256 88t-256 -88q-63 -86 -63 -340z M672 743q0 159 28 220q29 57 117 57q91 0 117 -57q31 -60 31 -220q0 -157 -31 -217q-27 -55 -117 -55q-86 0 -115.5 56t-29.5 216z" />
<glyph unicode="&#x25ca;" horiz-adv-x="1216" d="M51 737l430 711q11 20 37 20h178q26 0 37 -20l432 -711q12 -21 -2 -41l-434 -676q-11 -20 -37 -20h-170q-26 0 -37 20l-432 676q-14 20 -2 41zM391 698l195 -309q20 -34 41 0l198 309q12 20 0 41l-196 324q-21 35 -43 0l-195 -324q-15 -20 0 -41z" />
<glyph unicode="&#x25fc;" horiz-adv-x="1146" d="M0 0v1147h1147v-1147h-1147z" />
<glyph unicode="&#x261e;" horiz-adv-x="1931" d="M182 336q-123 402 0 803q6 18 21 18h278q23 0 23 -20v-41q204 83 381 110q192 29 504 29l315 -6q103 0 139.5 -31t36.5 -119t-36.5 -119.5t-139.5 -31.5h-102q6 -18 6 -49q0 -50 -31 -86q31 -36 31 -93q0 -50 -31 -86q31 -36 31 -92q0 -62 -29.5 -90t-110.5 -41 q-344 -48 -526 -45q-190 3 -438 62v-70q0 -23 -23 -23h-278q-15 0 -21 21zM248 408h166v659h-160q-91 -300 -6 -659zM504 502q221 -60 399 -66q190 -6 527 37q54 7 70 16.5t16 32.5q0 29 -16 38t-70 9h-289q-21 0 -21 23v49q0 21 21 21h291q54 0 69 6.5t15 31.5 q0 31 -16 40.5t-70 9.5h-289q-21 0 -21 20v49q0 21 21 21h291q54 0 69 7t15 32q0 31 -16 40t-70 9h-287q-21 0 -21 20v49q0 21 21 21h561q54 0 70 11.5t16 49.5t-16.5 49t-73.5 11l-311 6q-320 0 -504 -31q-173 -26 -381 -117v-495z" />
<glyph unicode="&#x267c;" d="M94 778q0 299 213 512t512 213t512 -213t213 -512q0 -301 -213 -514q-211 -211 -512 -211t-512 211q-213 213 -213 514zM238 918l86 -50l-54 -96q-13 -25 -16 -56.5t4 -47.5l6 -17l166 -286q23 -30 52.5 -48t49.5 -18h17h231l-2 266h-295q-28 3 -12 29l82 145l82 -47 l-135 228zM420 1036l233 -133l146 256q21 21 30 -4l84 -141l-79 -49l264 2l129 229l-86 -51l-58 94q-16 25 -40 42t-44 22l-16 2l-332 2q-35 -4 -64 -21t-42 -33l-8 -16zM840 428l133 -229v100l110 2q28 0 55.5 13.5t41.5 29.5l10 12l166 287q16 32 16.5 68.5t-8.5 50.5 l-8 16l-117 199l-231 -131l147 -258q5 -11 -0.5 -17.5t-17.5 -5.5l-166 -2v94z" />
<glyph unicode="&#x2776;" d="M123 752q0 344 176 520t520 176q345 0 521 -176.5t176 -519.5q0 -344 -177 -521q-176 -176 -520 -176t-520 176t-176 521zM590 1044q0 -18 22 -18h66q48 0 67 -14.5t19 -50.5v-486h-141q-23 0 -23 -20v-111q0 -20 23 -20h442q20 0 20 18v113q0 20 -20 20h-133v541 q0 103 -72 131q-57 24 -137 24q-72 0 -113 -14q-20 -9 -20 -27v-86z" />
<glyph unicode="&#x2777;" d="M123 752q0 344 176 520t520 176q345 0 521 -176.5t176 -519.5q0 -344 -177 -521q-176 -176 -520 -176t-520 176t-176 521zM520 354q0 -30 29 -30h561q12 0 12 8v135q0 8 -12 8h-389v12q0 41 74 76l211 119q64 39 86 82t22 115v100q0 121 -92 160q-70 32 -207 32 q-134 0 -231 -20q-17 -3 -17 -21v-96q0 -14 15 -14h235q68 0 94.5 -17t26.5 -63v-39q0 -68 -53 -98l-215 -131q-87 -51 -118.5 -96.5t-31.5 -118.5v-103z" />
<glyph unicode="&#x2778;" d="M123 752q0 344 176 520t520 176q345 0 521 -176.5t176 -519.5q0 -344 -177 -521q-176 -176 -520 -176t-520 176t-176 521zM541 360q0 -21 18 -24q120 -19 244 -19q160 0 228.5 48t68.5 174v36q0 149 -117 170q117 27 117 173v30q0 126 -68.5 174.5t-228.5 48.5 q-141 0 -244 -20q-18 -3 -18 -23v-94q0 -14 18 -14h174q116 0 154.5 -17.5t38.5 -72.5v-21q0 -55 -31.5 -75.5t-116.5 -20.5h-172q-16 0 -16 -16v-105q0 -16 16 -16h174q146 0 146 -92v-25q0 -55 -37.5 -72.5t-155.5 -17.5h-174q-18 0 -18 -16v-93z" />
<glyph unicode="&#x2779;" d="M123 752q0 344 176 520t520 176q345 0 521 -176.5t176 -519.5q0 -344 -177 -521q-176 -176 -520 -176t-520 176t-176 521zM467 541q0 -21 20 -21h367v-176q0 -20 18 -20h136q20 0 20 20v176h123q23 0 23 21v112q0 19 -23 19h-123v256q0 23 -24 14l-136 -47 q-14 -6 -14 -25v-198h-197l129 471q6 22 -14 22h-133q-21 0 -27 -14l-137 -500q-8 -33 -8 -39v-71z" />
<glyph unicode="&#x277a;" d="M123 752q0 344 176 520t520 176q345 0 521 -176.5t176 -519.5q0 -344 -177 -521q-176 -176 -520 -176t-520 176t-176 521zM524 356q0 -19 19 -22q112 -17 225 -17q204 0 274 52q72 54 72 196v41q0 141 -69 194.5t-244 53.5q-73 0 -109 -8l13 168h372q21 0 21 20v111 q0 20 -21 20h-514q-16 0 -16 -16l-23 -322v-104q0 -21 29 -21h215q99 0 135.5 -22t36.5 -84v-27q0 -62 -35 -81t-137 -19h-225q-19 0 -19 -14v-99z" />
<glyph unicode="&#x277b;" d="M123 752q0 344 176 520t520 176q345 0 521 -176.5t176 -519.5q0 -344 -177 -521q-176 -176 -520 -176t-520 176t-176 521zM510 549q4 -122 80 -177t231 -55q158 0 232.5 51.5t74.5 161.5v95q0 104 -72 158.5t-198 54.5q-50 0 -80 -9l150 312q12 24 -13 24h-147 q-17 0 -25 -14l-208 -420q-22 -52 -25 -117v-65zM686 571v27q0 59 29 79.5t106 20.5t106 -20.5t29 -79.5v-27q0 -59 -29.5 -80.5t-105.5 -21.5t-105.5 21.5t-29.5 80.5z" />
<glyph unicode="&#x277c;" d="M123 752q0 344 176 520t520 176q345 0 521 -176.5t176 -519.5q0 -344 -177 -521q-176 -176 -520 -176t-520 176t-176 521zM510 1032q0 -18 22 -18h381l-348 -668q-13 -22 15 -22h155q19 0 25 14l360 694q8 13 8 29v84q0 20 -20 20h-576q-22 0 -22 -20v-113z" />
<glyph unicode="&#x277d;" d="M123 752q0 344 176 520t520 176q345 0 521 -176.5t176 -519.5q0 -344 -177 -521q-176 -176 -520 -176t-520 176t-176 521zM502 547q0 -230 307 -230h20q158 0 233 57.5t75 176.5q0 143 -133 190q59 37 84.5 81t25.5 120q0 229 -283 229h-18q-283 0 -283 -231 q0 -142 113 -188q-141 -64 -141 -205zM682 571q0 80 92 115l100 -24q84 -21 84 -99q0 -94 -131 -94h-14q-131 0 -131 102zM707 924q0 96 102 96h16q107 0 107 -98q0 -77 -64 -111l-80 18q-81 21 -81 95z" />
<glyph unicode="&#x277e;" d="M123 752q0 344 176 520t520 176q345 0 521 -176.5t176 -519.5q0 -344 -177 -521q-176 -176 -520 -176t-520 176t-176 521zM510 864q0 -106 72 -159.5t200 -53.5q49 0 80 8l-151 -311q-9 -24 14 -24h145q17 0 25 14l209 420q24 50 24 116v66q-1 121 -77 176t-234 55 q-160 0 -233.5 -51.5t-73.5 -163.5v-92zM686 891v27q0 59 28 79.5t103 20.5q79 0 109 -20.5t30 -79.5v-27q0 -59 -30 -79.5t-109 -20.5q-76 0 -103.5 20.5t-27.5 79.5z" />
<glyph unicode="&#xf8ff;" horiz-adv-x="1886" d="M102 41v1434h1682v-1434h-1682zM254 678h41v-123h22v123h43v18h-106v-18zM268 795h21v67q0 39 -2 51h2l41 -118h20l41 116h2q0 -12 -2 -20v-96h23v141h-33l-41 -113l-39 113h-33v-141zM367 664l43 -109l-4 -10q-6 -19 -23 -19h-12v-16q4 -2 14 -2q32 0 43 33l45 123h-24 q-5 -20 -11.5 -37t-10 -25.5t-3.5 -11.5q-2 -2 -2 -12h-2q0 12 -6 24l-23 62h-24zM446 848q0 -15 7 -29q5 -14 18 -20q9 -6 27 -6q26 0 37 14q13 19 13 41t-13 41q-12 13 -37.5 13t-38.5 -13q-13 -16 -13 -41zM469 848q0 18 8 26q7 11 21 11q26 0 26 -37t-26 -37 q-29 0 -29 37zM494 508h22v59q11 -14 33 -14q17 0 31 14q12 15 12 41q0 29 -12 41q-8 14 -30.5 14.5t-33.5 -16.5l-4 17h-18v-156zM516 608v4q0 19 6 25q5 8 21 8q13 0 18 -8q6 -11 6 -29t-6 -26q-7 -11 -18 -11q-14 0 -21 11q-6 6 -6 26zM571 799q12 -6 35 -5.5t33 7.5 q12 9 12 24q0 1 -4 13l-8 10l-21 8l-20 10q-4 4 -4 8q0 11 18 11q11 0 29 -6l8 16q-17 7 -37 7t-30 -7q-11 -7 -11 -21q0 -11 7 -18q5 -8 24 -14l16 -8q7 0 7 -5q4 -4 4 -8q0 -12 -23 -12q-14 0 -35 8v-18zM619.5 629.5q-13.5 -34.5 9.5 -62.5q14 -14 41 -14q14 0 18 2 q11 0 17 6v19q-11 -7 -17 -7q-4 -2 -18 -2t-23 9q-8 11 -8 24h72v12q0 23 -12 35.5t-33 12.5q-33 0 -46.5 -34.5zM639 621q1 5 4 11.5t4 8.5q6 6 19 6q10 0 16 -6q6 -9 6 -20h-49zM666 885h16v-60q0 -32 31 -32h12q6 0 10 4v16q-2 -2 -16 -2q-6 0 -10 4t-4 12v58h30v16h-30 v25h-15l-8 -23l-16 -8v-10zM754 825q0 -22 20.5 -30t32.5 0q4 2 16 14l6 -14h15v71q0 19 -10 29q-8 8 -31 8q-15 0 -19 -2q-5 -1 -11.5 -4t-8.5 -4l8 -16q6 6 14 6q4 2 17 2q10 0 14 -4t4 -17v-4l-18 -2q-29 0 -37 -8q-12 -9 -12 -25zM778 825q0 9 6 15q16 4 25 4l12 2v-10 q0 -13 -6 -19q-8 -8 -20 -8q-9 0 -13 4t-4 12zM799 555h22v59h53v19h-53v45h58v18h-80v-141zM881 795h22v55q0 11 8 22q11 11 23 11q8 0 10 -2l2 22h-10q-12 0 -18 -6q-13 -10 -15 -14h-2l-2 18h-18v-106zM899 608q0 -16 6 -28q9 -13 19 -21q12 -6 26 -6q33 -6 47 32.5 t-10 63.5q-12 13 -37 13t-37 -13q-14 -11 -14 -41zM924 608q0 20 6 29q5 8 20 8q27 0 27 -37q0 -23 -13.5 -32.5t-26.5 0t-13 32.5zM964 848q0 -24 11 -41q11 -14 31 -14q24 0 32 14h2l4 -12h17v149h-23v-39q0 -12 2 -18h-2q-11 17 -30.5 16.5t-32.5 -14.5q-11 -17 -11 -41z M987 848q0 18 6 26q7 11 19 11q15 0 20 -8q8 -8 8 -29v-4q0 -20 -8 -25q-5 -8 -20 -8q-14 0 -19 8q-6 11 -6 29zM1030 592q0 -39 39 -39q5 0 21 4l14 12l4 -14h16v109h-22v-56q0 -19 -6 -28q-9 -9 -21 -9q-22 0 -22 25v68h-23v-72zM1092 846q0 -25 14 -39t39 -14h20l17 6v18 l-19 -6q-1 0 -7 -1t-9 -1q-16 0 -23 10q-8 5 -8 23h72v12q0 33 -29.5 46.5t-52.5 -11.5q-14 -14 -14 -43zM1116 858q0 16 8 21q10 12 25.5 6t15.5 -27h-49zM1161 555h23v53q0 18 8 29q5 8 20 8q11 0 17 -6q4 -12 4 -18v-66h22v70q0 39 -36 39q-11 0 -21 -5q-8 -4 -14 -10 l-4 15h-19v-109zM1210 799q22 -11 53 -4t25 30q0 13 -10 23l-21 8l-20 10q-4 4 -4 8q0 11 18 11q11 0 29 -6l8 16q-17 7 -36.5 7t-30.5 -7t-11 -21q0 -11 7 -18q5 -8 24 -14l16 -8q7 0 7 -5q2 -2 2 -8q0 -12 -21 -12q-14 0 -35 8v-18zM1286 608q0 -24 10 -41 q13 -14 33 -14.5t31 16.5h2l4 -14h16v152h-22v-39l1 -8q1 -8 1 -11q-12 13 -33 13t-33 -13q-10 -17 -10 -41zM1308 608.5q0 15.5 7 28.5q8 8 18 8q15 0 23 -8q6 -9 6 -29v-2q0 -17 -6 -26q-9 -9 -21 -9q-13 0 -20 11t-7 26.5zM1317 795h24v106h-24v-106zM1319 920 q1 -2 10 -2t10 2q3 10 0 20q-1 2 -10 2t-10 -2q-3 -10 0 -20zM1364 776q0 -12 10 -22q15 -9 35 -9q25 0 43 11q14 8 14 28q0 15 -8 23q-9 6 -28 6h-19q-6 0 -8 2h-4q-4 4 -4 6q0 7 8 10h10q22 0 31 9q12 9 12 26q0 4 -2 6v5q-2 2 -4 8l18 4v12h-36h-2q-2 2 -7 2h-10 q-21 0 -31 -10q-12 -9 -12 -27q0 -12 6 -18q6 -9 15 -12q-2 0 -11 -9q-4 -4 -4 -10l2 -8q3 -6 8 -6q-9 -3 -16 -10q-6 -6 -6 -17zM1384 776q0 10 5 15q12 4 16 4h16q15 0 19 -4q6 -3 6 -11q0 -9 -10 -12q-9 -6 -27 -6q-6 0 -18 4q-7 4 -7 10zM1393 866.5q0 10.5 6 16.5 q1 6 14 6t14 -6q7 -7 7 -17q0 -20 -21 -20q-2 0 -14 4q-6 6 -6 16.5zM1419 555h23v55q0 15 10 25q5 8 21 8h10l2 21h-10q-20 0 -33 -21l-4 21h-19v-109zM1491 795h25v53q0 37 26 37q11 0 17 -6q4 -4 4 -19v-65h24v69q0 39 -39 39q-4 0 -20 -4q-9 -3 -15 -12l-4 14h-18v-106z M1493 664l43 -109l-4 -10q-6 -19 -23 -19h-12v-16q4 -2 14 -2q32 0 43 33l45 123h-24q-5 -20 -11.5 -37t-10 -25.5t-3.5 -11.5q-2 -2 -2 -12h-2q0 12 -6 24l-22 62h-25z" />
<glyph unicode="&#x1f603;" horiz-adv-x="1761" d="M109 795q0 401 185 590.5t578 189.5q406 0 594.5 -188t188.5 -592t-188.5 -591.5t-594.5 -187.5q-393 0 -578 189t-185 590zM225 795q0 -338 157.5 -499t489.5 -161q343 0 504.5 160t161.5 500t-161.5 500.5t-504.5 160.5q-333 0 -490 -159.5t-157 -501.5zM438 956 q0 148 144 148q77 0 112 -36t35 -112q0 -75 -36 -110t-111 -35q-144 0 -144 145zM442 604h840q2 -160 -99.5 -242t-310.5 -83q-221 0 -328 82.5t-102 242.5zM997 956q0 75 35.5 111.5t110.5 36.5t110 -36.5t35 -111.5q0 -145 -145 -145q-146 0 -146 145z" />
<glyph horiz-adv-x="0" />
<glyph horiz-adv-x="681" />
<glyph horiz-adv-x="1519" d="M96 791q0 248 30.5 393.5t106.5 240.5q76 96 198 134t329 38t328.5 -38t197.5 -134q76 -95 106.5 -240.5t30.5 -393.5q0 -334 -65 -508q-65 -173 -230 -240l215 -100q28 -13 13 -43l-111 -189q-15 -27 -43 -12l-485 291q-365 9 -492 176q-129 169 -129 625zM422 791 q0 -305 65 -414q64 -107 273 -107q208 0 272 107q66 111 66 414q0 306 -66 417q-65 109 -272 109q-208 0 -273 -109t-65 -417z" />
<glyph horiz-adv-x="548" d="M104 1440q0 153 170 153q168 0 168 -153q0 -156 -168 -156q-170 0 -170 156zM123 33v1083q0 31 31 31h241q31 0 31 -31v-1083q0 -33 -31 -33h-241q-31 0 -31 33z" />
<glyph horiz-adv-x="1224" d="M82 733q2 70 7 120t17 94t29 73t46.5 53.5t65 38.5t89.5 24t115.5 14.5t146.5 6.5q210 0 315 -31l101 99q22 28 43 0l119 -117q22 -22 -2 -45l-89 -90q31 -85 31 -240q0 -245 -100 -323q-104 -78 -418 -78q-32 0 -158 4l-10 -31q-20 -38 -2.5 -55t88.5 -23l389 -34 q127 -13 173 -83t46 -210v-23q0 -175 -116 -233q-120 -60 -379 -60q-249 0 -482 19q-28 3 -28 30v160q0 33 33 33h534q85 0 113 12.5t28 50.5v11q0 30 -17 42.5t-67 16.5l-413 37q-231 22 -158 260l49 131q-77 41 -108 119.5t-31 226.5zM387 731q0 -105 39 -141 q41 -35 172 -35q132 0 172 37q41 38 41 139q0 99 -41 137q-40 37 -172 37t-172 -37q-39 -33 -39 -137z" />
<glyph horiz-adv-x="1226" d="M84 733q2 70 7 120t17 94t29 73t46.5 53.5t65 38.5t89.5 24t115.5 14.5t146.5 6.5q210 0 315 -31l101 99q22 28 43 0l119 -117q23 -23 -2 -45l-89 -90q31 -85 31 -240q0 -249 -100 -327q-103 -80 -418 -80q-133 0 -201 8l-2 -6q-12 -44 3 -59t83 -21l424 -39 q145 -12 187 -109q19 -45 25.5 -86.5t6.5 -107.5v-29q0 -175 -116 -233q-120 -60 -379 -60q-248 0 -481 19q-29 3 -29 30v160q0 33 33 33h534q85 0 113 12.5t28 50.5v17q0 34 -18.5 52t-65.5 22l-423 36q-68 6 -109.5 31.5t-55.5 63.5t-11 80t20 90l43 108q-68 41 -96.5 121 t-28.5 223zM260 1565q-6 32 29 32h117q25 0 34 -24q26 -57 64.5 -80t109.5 -23q72 0 109.5 23t62.5 80q9 24 35 24h121q35 0 29 -30q-21 -155 -101 -219q-77 -62 -256 -62q-178 0 -256 60q-77 62 -98 219zM389 731q0 -107 39 -143q40 -37 172 -37t172 37q41 41 41 143 q0 104 -41 139q-40 37 -172 37t-172 -37q-39 -33 -39 -139z" />
</font>
</defs>
</svg>
